<svg width="192" height="221" viewBox="0 0 192 221" fill="none" xmlns="http://www.w3.org/2000/svg">
<g clip-path="url(#clip0_468_14711)">
<path d="M121.196 189.398L124.635 199.188L115 202.149L110.963 192.344L121.196 189.398Z" fill="#FFA17F"/>
<path d="M66.5201 185.301L66.3643 191.827L59.4316 191.67L59.585 185.142L66.5201 185.301Z" fill="#FFA17F"/>
<path d="M124.881 80.4519C121.945 67.9011 106.293 62.1987 94.7879 63.7587C84.0596 65.2152 73.7536 71.7607 67.2559 80.2727L81.2292 82.1886L78.6578 113.899L112.831 112.894L113.07 91.9677L124.884 80.4519H124.881Z" fill="#FFB526"/>
<path d="M78.6429 16.3044C78.6429 16.3044 72.7459 23.5113 88.7327 30.0745L91.6787 20.2903L78.6454 16.3044H78.6429Z" fill="#D8AD6F"/>
<path d="M105.953 57.5642L105.798 64.1274C105.798 64.1274 100.667 68.4389 95.748 63.8977L95.8888 58.0287L105.956 57.5642H105.953Z" fill="#F6CBB4"/>
<path d="M105.885 60.429C105.885 60.429 101.031 62.7413 95.8105 61.1686L96.1147 58.0259L105.936 58.2505L105.883 60.429H105.885Z" fill="#DDA790"/>
<path d="M88.4557 35.1053C88.4683 34.6206 85.3338 34.1006 84.9794 34.0855C82.4783 33.9769 81.1109 36.009 80.5528 37.9981C80.3015 38.8943 80.3015 39.8863 80.764 40.7118C81.3094 41.6861 84.6551 43.8848 85.932 42.9937L88.31 41.3302C88.31 41.3302 88.4583 35.123 88.4583 35.1053H88.4557Z" fill="#F6CBB4"/>
<path d="M82.6289 36.9936C82.6289 36.9936 84.4811 35.999 86.0166 37.506C87.5521 39.013 85.8507 41.6257 85.8507 41.6257C85.8507 41.6257 86.5243 40.0227 85.8482 39.2705C85.1722 38.5157 83.5085 38.8944 83.0184 40.3761C83.2245 38.9726 84.5942 37.9225 86.0241 38.8086C85.4863 37.087 83.9609 36.6856 82.6289 36.9961V36.9936Z" fill="#7D3212"/>
<path d="M85.4417 29.933C85.7886 27.2749 86.7061 24.7254 88.5863 22.6706C90.5017 20.5754 93.2767 19.3335 96.1222 18.6721C99.9731 17.7785 104.113 17.8088 108.004 18.5131C126.13 21.7896 122.556 34.3657 121.447 37.3141C121.641 37.3368 121.834 37.3696 122.023 37.4151C122.551 37.5387 123.076 37.7634 123.584 38.0764C124.363 38.5611 124.989 39.3007 125.394 40.217C125.743 41.0046 125.896 41.9285 125.854 42.9584C125.816 43.8798 125.567 44.8315 125.135 45.715C124.692 46.6187 124.016 47.4567 123.182 48.1383C121.673 49.3701 119.552 50.1401 117.214 50.3016L117.154 50.3067C116.852 51.117 116.473 51.9121 116.033 52.6618C115.528 53.5251 114.909 54.3683 114.195 55.1659C112.83 56.6856 111.093 57.9654 109.168 58.8615C108.195 59.3108 107.157 59.6743 106.076 59.9394C105.098 60.1767 104.02 60.3357 102.778 60.4241C102.09 60.472 101.391 60.4897 100.707 60.4745C99.1888 60.4392 97.7008 60.2474 96.2806 59.9041C95.2449 59.6516 94.2269 59.3007 93.2566 58.864C92.3165 58.4374 91.4091 57.8998 90.567 57.2611C89.7576 56.6477 89.0086 55.9106 88.3399 55.065C87.6286 54.1613 87.0454 53.1213 86.6055 51.9752C85.7107 49.6352 85.6528 47.0705 85.7257 44.6497C85.7383 44.1903 85.7584 43.7334 85.776 43.274C85.8062 42.499 85.8389 41.6963 85.8464 40.9062C85.8539 40.265 85.8414 39.6364 85.8112 39.0357C85.7835 38.5636 85.7383 38.0966 85.678 37.5413L85.6604 37.3873C85.2984 35.0195 85.1174 32.4296 85.4442 29.933H85.4417Z" fill="#F6CBB4"/>
<path d="M123.91 42.2719C123.91 42.2719 122.097 40.8583 120.119 42.2239C118.141 43.5896 119.455 46.7348 119.455 46.7348C119.455 46.7348 119.051 44.8719 119.941 44.1727C120.83 43.4734 122.562 44.1828 122.794 45.8791C122.856 44.3166 121.579 42.9307 119.845 43.6375C120.783 41.8604 122.525 41.6963 123.91 42.2719Z" fill="#7D3212"/>
<path d="M119.96 39.8511C114.304 38.9575 111.786 33.6741 111.846 27.9692C111.838 28.6937 110.046 30.1325 109.478 30.5238C108.555 31.1599 107.47 31.5815 106.323 31.2508C103.035 30.3017 104.461 26.4344 105.325 24.3115C105.051 24.9855 102.804 25.5585 102.181 25.7276C99.7828 26.3839 97.1837 26.0634 95.1175 24.7129C95.7057 25.0966 93.3328 29.3096 93.0915 29.6782C91.2364 32.513 88.1849 34.5879 84.6381 34.8984C82.5543 35.0802 80.3624 34.2547 80.8852 31.9223C81.0838 31.0312 82.3758 27.7673 83.6176 27.6966C82.7629 27.7471 77.4189 27.3886 79.8848 25.7857C80.2845 25.5257 80.7746 25.4399 81.2422 25.3263C83.8312 24.6952 85.4701 23.2059 86.8476 21.0905C89.5623 16.9203 93.4308 14.9463 98.6542 15.3098C98.6542 15.3098 111.652 12.1191 117.23 19.6769C117.662 20.265 118.972 20.775 119.575 21.2218C121.282 22.4915 122.858 23.9581 124.117 25.6393C125.608 27.6234 126.654 29.9382 126.752 32.3994C126.847 34.8202 125.92 39.6214 123.047 39.9117C121.928 40.0253 120.9 39.9975 119.957 39.8486L119.96 39.8511Z" fill="#55372F"/>
<path d="M105.411 34.2019C105.76 34.2449 106.127 34.3282 106.497 34.4493C107.904 34.9138 108.87 35.7897 108.651 36.3981C108.493 36.8323 107.759 37.0317 106.781 36.9105C106.431 36.8676 106.067 36.7843 105.695 36.6631C104.287 36.2012 103.322 35.3278 103.541 34.7169C103.699 34.2827 104.433 34.0808 105.411 34.2019Z" fill="#55372F"/>
<path d="M93.8235 31.9578C94.2734 32.132 94.5324 32.3819 94.5525 32.6595C94.5927 33.2603 93.4992 33.8182 92.1142 33.9065C91.4205 33.952 90.7418 33.8662 90.2491 33.6743C89.7991 33.5001 89.5428 33.2502 89.5226 32.9751C89.5025 32.6848 89.7438 32.3945 90.2064 32.1572C90.6663 31.9224 91.2897 31.7685 91.9584 31.7281C92.6521 31.6852 93.3308 31.7685 93.8235 31.9603V31.9578Z" fill="#55372F"/>
<path d="M103.36 41.2016C103.34 42.075 103.715 42.7919 104.2 42.8045C104.685 42.8146 105.094 42.1154 105.114 41.242C105.134 40.3685 104.76 39.6516 104.275 39.639C103.79 39.6289 103.38 40.3282 103.36 41.2016Z" fill="#7D3212"/>
<path d="M90.9344 39.3363C90.9143 40.139 91.2611 40.7953 91.7034 40.8054C92.1483 40.8155 92.5227 40.1743 92.5428 39.3716C92.5629 38.5689 92.2161 37.9126 91.7738 37.9025C91.329 37.8924 90.9545 38.5335 90.9344 39.3363Z" fill="#7D3212"/>
<path d="M95.9857 41.7793C95.9656 42.3826 95.7696 42.938 95.4303 43.3797C95.3399 43.4857 95.2569 43.5993 95.1464 43.6877C95.0509 43.7886 94.9378 43.877 94.8222 43.9603C94.7116 44.0486 94.5784 44.1118 94.4628 44.1951C94.3371 44.2657 94.2014 44.3263 94.0733 44.3945L94.033 44.4147L94.028 44.4197C93.8345 44.5838 93.7164 44.7681 93.651 44.9953C93.5932 45.2199 93.636 45.4597 93.7365 45.649C93.837 45.8409 93.9853 45.9873 94.1436 46.111C94.302 46.2347 94.4779 46.3256 94.6563 46.4063C94.591 46.3357 94.5256 46.2625 94.4603 46.1968C94.3975 46.1287 94.3422 46.0529 94.2818 45.9848C94.1763 45.8384 94.0758 45.6894 94.0356 45.5355C93.9878 45.384 93.9903 45.2351 94.0431 45.1063C94.0858 44.9776 94.2014 44.8438 94.3045 44.7731L94.2592 44.7984C94.4075 44.7277 94.5558 44.6646 94.7015 44.5888C94.8398 44.5005 94.9905 44.4273 95.1137 44.3187C95.3826 44.1269 95.6038 43.8719 95.7772 43.5993C95.9506 43.3216 96.0536 43.0086 96.0888 42.6981C96.1265 42.3877 96.0963 42.0696 95.9807 41.7843L95.9857 41.7793Z" fill="#7D3212"/>
<path d="M92.3066 50.7812C93.3398 51.387 94.5262 51.7732 95.7403 51.9525C96.9544 52.1494 98.2137 52.1468 99.4429 51.9323C100.667 51.7228 101.876 51.2734 102.877 50.5262C103.367 50.1451 103.824 49.7109 104.128 49.1732C104.43 48.6431 104.608 48.0524 104.586 47.4744C104.395 48.0247 104.111 48.5093 103.739 48.9157L103.455 49.2136L103.133 49.4761C103.032 49.567 102.909 49.6377 102.796 49.7185C102.68 49.7942 102.572 49.88 102.444 49.9406C101.474 50.4884 100.388 50.8393 99.2619 51.0311C98.1383 51.2305 96.982 51.2886 95.8182 51.2431C94.6519 51.2028 93.4881 51.0336 92.3066 50.7812Z" fill="#7D3212"/>
<path d="M133.589 33.1996C121.602 39.0434 103.848 26.3664 103.848 26.3664C86.5214 16.5872 77.8945 17.8039 77.8945 17.8039C80.3101 10.7485 91.0133 14.9717 91.0133 14.9717L91.1264 14.7218L92.0891 12.5938C92.1846 11.7936 92.3556 10.9934 92.5918 10.2033C94.7234 3.0822 102.295 -3.10234 109.823 1.68879C112.734 3.54415 113.94 6.88885 116.585 8.99411C119.438 11.2584 123.942 11.3947 126.142 14.4163C127.665 16.5115 127.763 19.2882 127.559 21.7343C127.549 21.8428 127.519 22.0069 127.479 22.2088C127.24 23.3094 126.609 25.5535 126.908 25.9044L127.499 26.5506L133.584 33.1946L133.589 33.1996Z" fill="#F2CA88"/>
<path d="M123.142 26.2048C123.225 26.7425 123.398 27.2347 123.607 27.7093C123.823 28.1788 124.09 28.6206 124.386 29.0447L124.615 29.3577C124.693 29.4612 124.781 29.5571 124.864 29.6606C125.019 29.8701 125.213 30.0493 125.381 30.2538C125.464 30.3573 125.567 30.4406 125.658 30.5391L125.934 30.8294C126.125 31.0162 126.324 31.203 126.507 31.4099C126.253 31.2989 126.01 31.1676 125.766 31.0363C125.537 30.8824 125.301 30.7334 125.087 30.5593C124.876 30.38 124.658 30.2059 124.472 29.9963C124.376 29.8928 124.281 29.7919 124.19 29.6858L123.936 29.3526C123.615 28.8957 123.353 28.3909 123.205 27.8507C123.057 27.3155 122.996 26.74 123.142 26.2074V26.2048Z" fill="#D8A964"/>
<path d="M119.524 25.637C119.516 26.0964 119.582 26.528 119.68 26.9471C119.778 27.3661 119.923 27.7675 120.092 28.1638L120.225 28.4591C120.27 28.5576 120.326 28.651 120.373 28.7469C120.464 28.9438 120.587 29.1255 120.687 29.3224L121.029 29.8955C121.15 30.0848 121.276 30.2741 121.384 30.4836C121.188 30.3574 121.004 30.211 120.823 30.0646C120.66 29.9005 120.484 29.744 120.336 29.5648C120.192 29.3805 120.039 29.2013 119.921 28.9968C119.861 28.8958 119.798 28.7974 119.74 28.6939L119.589 28.3733C119.403 27.9391 119.28 27.4747 119.255 27.0026C119.237 26.5331 119.293 26.0459 119.526 25.637H119.524Z" fill="#D8A964"/>
<path d="M127.718 26.7905C122.751 26.8789 109.785 25.8237 91.0938 14.8506L92.0866 12.6065C92.1922 11.7659 92.3732 10.9253 92.622 10.0923C97.041 11.9451 117.007 20.1668 127.491 22.2872C127.237 23.4458 126.614 25.5461 126.911 25.9121L127.715 26.7931L127.718 26.7905Z" fill="#E86445"/>
<path d="M59.6426 183.804L68.2594 185.342C71.2607 164.425 91.3849 134.916 91.3849 134.916C91.3749 135.143 91.3673 135.371 91.3623 135.603V135.62C90.8068 158.975 109.29 193.424 109.29 193.424L123.605 189.512C117.2 175.971 113.55 120.376 113.55 120.376L114.226 91.998L113.098 91.9475L107.799 91.7152L107.895 87.6789C107.887 87.5249 107.885 87.3709 107.882 87.2169V87.2144C107.829 84.8719 107.993 82.6808 108.292 80.6639C109.549 72.2074 113.181 66.8761 113.181 66.8761C111.911 66.0759 110.27 65.4221 108.229 64.9349L103.787 74.7721L103.247 75.9661L102.103 78.4955L101.905 78.9372L101.608 79.5936L96.9954 78.5081L88.8587 76.5871L88.8889 76.5013L90.2714 72.3943L90.5881 71.4502L93.0766 64.0464L93.0037 64.054L89.3891 64.5058L89.1629 64.9955L86.3199 71.1573L85.8851 72.104L83.9219 76.3574L83.5222 77.2283L82.924 78.5283L81.2348 82.1885L81.1468 83.2689L80.8377 87.0932L80.7597 88.0601L80.34 93.2475L80.2495 94.3708L80.1338 95.8147L79.8423 99.4144L79.8372 99.4447C79.7618 99.5911 79.6864 99.7324 79.616 99.8738C79.4828 100.131 79.3521 100.391 79.2214 100.649C78.319 102.416 77.4643 104.19 76.6449 105.97C59.2982 143.754 59.6476 183.807 59.6476 183.807L59.6426 183.804Z" fill="#243C58"/>
<path d="M100.121 91.4757L85.4334 88.9514C83.4878 96.6303 79.4861 111.599 91.5089 113.551C93.5675 113.884 95.8047 113.523 97.4436 112.256C100.309 110.044 100.739 105.993 101.166 102.699C101.267 101.924 102.267 91.9907 102.642 92.0815C102.637 92.0815 100.121 91.4757 100.121 91.4757Z" fill="#2C4966"/>
<path d="M111.746 99.7002C111.746 99.7002 111.649 100.208 111.506 101.195" stroke="#2C4966" stroke-width="3" stroke-miterlimit="10"/>
<path d="M111.111 104.287C109.927 114.957 108.343 143.573 118.476 183.085" stroke="#2C4966" stroke-width="3" stroke-miterlimit="10"/>
<path d="M118.869 184.597C118.997 185.085 119.125 185.572 119.255 186.062" stroke="#2C4966" stroke-width="3" stroke-miterlimit="10"/>
<path d="M84.5483 136.827C84.5483 136.827 71.3617 157.062 65.3867 184.829" stroke="#2C4966" stroke-width="3" stroke-miterlimit="10"/>
<path d="M85.9334 107.164C98.1623 107.141 106.487 98.8238 106.49 89.2668L107.166 82.2568L60.7793 82.3427L61.7998 92.0612C62.4333 101.134 73.7045 107.187 85.9334 107.164Z" fill="#E2883E"/>
<path d="M105.814 88.9638C105.814 88.9638 93.1475 99.7426 61.7496 91.1802L61.4932 88.8199L60.7793 78.5713L105.814 88.9664V88.9638Z" fill="#B15627"/>
<path d="M108.127 78.3518L108.137 85.0942C108.137 89.9282 98.5805 93.2502 85.1576 93.3714C71.7347 93.4926 60.5615 89.7818 60.1996 85.0841L59.5586 79.0687L108.127 78.3518Z" fill="#CA6D34"/>
<path d="M59.5206 78.7884C59.8826 83.4861 71.0557 87.1968 84.4786 87.0757C97.9015 86.9545 108.486 83.0494 108.127 78.3517C107.765 73.654 96.5919 69.9432 83.169 70.0644C69.7461 70.1856 59.1612 74.0907 59.5206 78.7884Z" fill="#E2883E"/>
<path d="M83.9222 86.1163C96.118 86.1163 106.005 82.7371 106.005 78.5687C106.005 74.4002 96.118 71.021 83.9222 71.021C71.7265 71.021 61.8398 74.4002 61.8398 78.5687C61.8398 82.7371 71.7265 86.1163 83.9222 86.1163Z" fill="#965822"/>
<mask id="mask0_468_14711" style="mask-type:luminance" maskUnits="userSpaceOnUse" x="61" y="71" width="46" height="16">
<path d="M83.9222 86.1163C96.118 86.1163 106.005 82.7371 106.005 78.5687C106.005 74.4002 96.118 71.021 83.9222 71.021C71.7265 71.021 61.8398 74.4002 61.8398 78.5687C61.8398 82.7371 71.7265 86.1163 83.9222 86.1163Z" fill="white"/>
</mask>
<g mask="url(#mask0_468_14711)">
<path d="M61.9336 83.7384C62.0744 84.117 63.3588 84.632 64.9248 84.7355C65.2491 84.7582 65.5884 84.7683 65.875 84.8137C66.5135 84.9122 66.6065 85.1167 66.9182 85.2807C67.3631 85.513 68.4012 85.6821 69.4444 85.6947C69.6731 85.6947 69.9069 85.6947 70.1256 85.7124C70.6937 85.7629 70.8395 85.9345 71.1134 86.0658C71.5483 86.2677 72.4633 86.3965 73.3757 86.447C74.2907 86.5 75.2157 86.4874 76.1357 86.4823C76.5505 86.4823 76.9778 86.4823 77.395 86.4899C77.9028 86.5 78.4055 86.5252 78.8932 86.5707C79.5392 86.6338 80.1123 86.7347 80.7156 86.818C81.2183 86.8887 81.7487 86.9468 82.2916 86.9922C84.3201 87.1639 86.5523 87.1613 88.4224 86.9745C88.7115 86.9468 89.0031 86.9114 89.3273 86.919C89.6315 86.9241 89.913 86.9619 90.1996 86.9922C91.3131 87.1058 92.6177 87.0806 93.5352 86.9266C94.0178 86.8458 94.4124 86.7297 94.9881 86.6868C95.3903 86.6565 95.8352 86.6666 96.265 86.6666C98.2835 86.659 100.144 86.3813 100.973 85.9623C101.285 85.8033 101.466 85.6266 101.933 85.4928C102.305 85.3868 102.828 85.3186 103.26 85.2252C103.381 85.2 103.494 85.1747 103.605 85.1469C104.186 85.0056 104.59 84.8642 104.59 84.8642C104.47 83.5996 103.225 81.3681 101.664 81.1005C101.34 81.045 101.001 81.0248 100.717 80.8885C100.083 80.5881 100 79.904 99.6986 79.3688C99.2663 78.6141 98.2357 78.0966 97.1951 78.1117C96.9663 78.1168 96.73 78.1445 96.5139 78.0865C95.9483 77.9426 95.8151 77.3721 95.5436 76.9531C95.1213 76.2942 94.2113 75.9131 93.2989 75.7868C92.389 75.6606 91.4589 75.7566 90.5389 75.8146C90.1242 75.8449 89.6968 75.8651 89.2796 75.8575C88.7718 75.85 88.2666 75.7969 87.7814 75.6632C87.1379 75.4865 86.5699 75.176 85.9691 74.9261C83.6012 73.934 80.6502 73.8886 78.2623 74.815C77.9707 74.9261 77.6791 75.0548 77.3548 75.0548C77.0507 75.0548 76.7717 74.9412 76.4851 74.8554C75.3766 74.5297 74.0695 74.6913 73.142 75.2593C72.6543 75.5597 72.2521 75.9736 71.674 76.1478C71.2693 76.269 70.8244 76.2614 70.3945 76.2867C68.3736 76.4204 66.4959 77.4554 65.6412 78.9119C65.3195 79.4622 65.131 80.0706 64.6534 80.5451C64.2738 80.9213 63.7484 81.1813 63.3086 81.5145C62.5394 82.0926 61.9361 83.7333 61.9361 83.7333L61.9336 83.7384Z" fill="#6A442C"/>
<path d="M76.7949 84.8112L82.2923 86.9947C84.3208 87.1664 86.5529 87.1639 88.4231 86.9771C88.7121 86.9493 89.0037 86.914 89.328 86.9215C89.6321 86.9266 89.9137 86.9645 90.2002 86.9947C91.3138 87.1083 92.6183 87.0831 93.5358 86.9291C94.0184 86.8483 94.4131 86.7322 94.9887 86.6893C95.3909 86.659 95.8358 86.6691 96.2656 86.6691C98.2841 86.6615 100.144 86.3839 100.974 85.9648C101.285 85.8058 101.466 85.6291 101.934 85.4953C102.306 85.3893 102.829 85.3211 103.261 85.2277C103.382 85.2025 103.495 85.1772 103.606 85.1495C103.221 84.4477 102.864 83.8949 102.864 83.8949C102.864 83.8949 103.068 82.2263 100.318 82.0017C100.318 82.0017 98.7064 81.6432 98.7215 80.9844C98.7215 80.9844 98.9955 79.6541 97.7085 79.2704C97.7085 79.2704 95.8082 79.0987 95.5719 78.869C95.5719 78.869 94.5714 76.7234 93.1512 76.8193L89.9891 76.9707C89.9891 76.9707 88.5085 77.9022 89.2475 79.1416C89.2475 79.1416 90.6703 82.3601 89.8031 83.0795C89.8031 83.0795 89.7653 84.6219 85.5525 84.6244C85.5525 84.6244 77.9688 85.0308 76.7974 84.8112H76.7949Z" fill="#7B4F35"/>
</g>
<path d="M123.482 93.258C123.482 93.258 123.756 120.218 92.5214 104.004C92.5214 104.004 86.9336 107.694 80.6218 103.282C80.6218 103.282 78.3746 101.434 79.3751 97.8623C79.3751 97.8623 78.0051 97.6073 78.0479 95.81C78.0479 95.81 88.2809 95.8201 88.3588 95.8201C87.0115 95.8201 87.0844 92.7052 87.7254 92.1044C88.8792 91.024 89.1155 92.7026 90.0455 93.4195C90.7996 94.0026 91.5813 94.664 92.1896 95.3986C92.6421 95.9438 95.1281 98.4909 95.6359 98.8392C95.6359 98.8392 107.822 106.145 112.663 95.2497L123.48 93.2504L123.482 93.258Z" fill="#F6CBB4"/>
<path d="M82.5366 100.702C83.9392 100.735 85.1433 100.404 85.2337 100.379C85.3695 100.341 85.4474 100.202 85.4097 100.069C85.372 99.9349 85.2287 99.8567 85.093 99.897C85.0528 99.9071 81.1868 100.962 79.4172 99.0388C79.3217 98.9353 79.1608 98.9277 79.0552 99.0211C78.9496 99.1145 78.9421 99.2735 79.0376 99.3745C79.9576 100.374 81.3225 100.675 82.5366 100.702Z" fill="#7D3212"/>
<path d="M82.934 103.867C84.9449 103.913 86.3224 103.337 86.4003 103.304C86.5285 103.249 86.5888 103.103 86.531 102.974C86.4732 102.848 86.3224 102.79 86.1942 102.845C86.1691 102.855 83.7459 103.865 80.6868 103.039C80.551 103.002 80.4103 103.082 80.3726 103.216C80.3349 103.35 80.4153 103.489 80.5511 103.524C81.4057 103.754 82.2101 103.852 82.9315 103.867H82.934Z" fill="#7D3212"/>
<path d="M119.106 70.8774C119.106 70.8774 127.047 76.3577 126.72 93.6794L126.685 95.1587L107.637 95.2799L107.805 91.2662L119.106 70.88V70.8774Z" fill="#FFB526"/>
<path d="M62.5813 99.8794C62.5813 99.8794 55.2213 99.7103 56.3575 92.7079C56.5913 91.8446 56.9834 90.9888 57.4635 90.2316C57.8657 89.5954 58.3508 89.0224 58.9717 88.5832C59.8866 87.9395 61.523 86.0589 62.4958 87.7855C62.5989 87.9698 62.908 89.916 62.8427 89.916C63.9135 89.9236 64.8134 89.0426 65.9219 89.343C67.0882 89.6585 66.314 91.312 65.6429 91.6982C65.9898 91.5013 67.2466 91.529 67.6412 91.6048C68.1716 91.7057 68.5788 92.0061 68.5587 92.6094C68.5411 93.0689 68.149 93.4071 67.772 93.6242C67.3346 93.8766 66.8092 94.1089 66.4473 94.4345C66.583 94.3133 67.7041 94.7097 67.8826 94.7829C68.3979 94.9924 68.7447 95.1994 68.6367 95.7976C68.5738 96.1485 68.3777 96.4186 68.1038 96.6458C67.6991 96.9815 66.8193 96.9462 66.5227 97.2466C66.5227 97.2466 64.8687 98.9177 62.5838 99.8794H62.5813Z" fill="#F6CBB4"/>
<path d="M126.31 186.223C126.31 186.223 113.113 187.038 106.256 192.238L110.019 200.957L128.18 193.854L126.312 186.223H126.31Z" fill="#2C4966"/>
<path d="M70.3487 183.603C70.3487 183.603 64.2832 180.785 57.1043 180.621L56.9082 189.545L70.2004 189.848L70.3487 183.6V183.603Z" fill="#2C4966"/>
<path d="M128.095 197.426L112.269 202.085C112.269 202.085 119.76 216.969 119.773 216.989C119.28 216.01 115.806 215.454 114.896 215.305C111.209 214.702 106.719 215.29 105.613 219.344L131.489 219.935L128.095 197.423V197.426Z" fill="#FFB526"/>
<path d="M131.487 219.937L131.461 220.998L105.586 220.404L105.611 219.344L131.487 219.937Z" fill="#494746"/>
<path d="M69.7577 191.814L56.37 191.112C56.37 191.112 57.9184 204.494 57.9209 204.511C57.8179 203.63 55.3218 202.272 54.6708 201.914C52.0239 200.46 48.4319 199.702 46.4512 202.497L66.04 209.916L69.7577 191.814Z" fill="#FFB526"/>
<path d="M66.0403 209.913L65.7236 210.716L46.1348 203.3L46.4515 202.497L66.0403 209.913Z" fill="#494746"/>
<path d="M97.5347 77.0671C99.4576 76.2265 101.697 76.2215 103.552 75.2471C104.518 74.7397 105.342 73.9774 105.915 73.0636C106.496 72.1346 106.83 71.0492 107.574 70.2414C109.123 68.5577 111.832 68.6309 113.848 67.5227C116.621 65.9955 118.016 63.3728 120.846 61.313C119.366 61.1868 117.885 61.058 116.405 60.9318C113.976 60.7223 111.272 60.591 109.387 62.1081C108.361 62.931 107.705 64.1654 106.579 64.8495C105.154 65.7153 103.326 65.5159 101.717 65.9728C100.33 66.3691 99.1032 67.2804 98.3416 68.4845C97.7559 69.4109 97.4266 70.5115 96.6398 71.284C95.8707 72.0387 94.7797 72.3618 93.8069 72.8364C89.9988 74.6993 87.9703 79.0613 87.8999 83.234C87.8923 83.6101 87.9074 84.009 88.1236 84.3194C88.4931 84.8521 89.3251 84.8874 89.8957 84.5694C90.4663 84.2513 90.8333 83.6808 91.1752 83.133C92.5878 80.8586 95.0311 78.1652 97.5347 77.0722V77.0671Z" fill="#11472B"/>
<path d="M117.995 62.0554C113.272 63.1283 108.255 64.6176 104.681 67.9572C103.64 68.9291 102.562 69.5349 101.245 70.0701C100.149 70.5144 99.1984 71.0344 98.5021 72.0037C98.12 72.5363 97.826 73.127 97.4112 73.6394C96.921 74.2427 96.2901 74.7148 95.6517 75.1616C94.5457 75.9366 93.4698 76.7014 92.5196 77.6632C90.5339 79.6776 88.8749 82.3407 88.3596 85.1275C88.3319 85.2815 88.5808 85.3219 88.6285 85.178C89.5008 82.5527 90.6218 80.1622 92.5674 78.1226C93.4346 77.2139 94.4074 76.4414 95.443 75.7296C96.4761 75.0228 97.4313 74.3185 98.1251 73.2709C98.5247 72.6676 98.8666 72.0264 99.402 71.5241C99.8746 71.0798 100.478 70.7946 101.074 70.5396C102.117 70.0953 103.15 69.7243 104.042 69.0124C104.96 68.2829 105.731 67.3994 106.697 66.7229C107.652 66.0539 108.703 65.5188 109.771 65.0518C112.443 63.883 115.276 63.2065 118.041 62.3028C118.194 62.2523 118.156 62.015 117.99 62.0529L117.995 62.0554Z" fill="#218D56"/>
<path d="M93.6118 69.1078C93.1744 67.5478 92.1514 66.1645 91.89 64.5666C91.5984 62.7895 92.2821 61.02 92.7145 59.2706C93.1493 57.5213 93.2725 55.4842 92.0835 54.111C91.3646 53.2805 90.226 52.7781 89.7961 51.7735C89.5171 51.1197 89.5975 50.3775 89.7056 49.6758C90.1606 46.735 90.9499 43.5114 89.4015 40.9568C88.851 40.0481 87.7475 39.2454 86.7571 39.6619C86.3952 39.8133 86.1161 40.1061 85.8673 40.404C84.8266 41.6636 84.163 43.2161 83.972 44.8241C83.781 46.4346 84.0273 48.194 83.15 49.5697C82.4739 50.63 81.2321 51.2636 80.6087 52.354C79.6686 53.9923 80.4051 56.0294 81.1592 57.7586C81.9133 59.4877 82.6649 61.5147 81.7499 63.1656C81.3804 63.832 80.7721 64.3521 80.4428 65.0387C79.7968 66.3816 80.38 68.0022 81.2799 69.1962C82.1772 70.3927 83.3763 71.3595 84.1831 72.6166C85.9729 75.406 85.5028 78.9703 85.4902 82.267C85.4902 82.7012 85.5078 83.1657 85.7743 83.5115C85.9427 83.7261 86.1915 83.8699 86.453 83.9608C88.0516 84.5187 89.7358 83.2162 90.5477 81.7546C92.4254 78.3846 94.6801 72.9397 93.6068 69.1104L93.6118 69.1078Z" fill="#218D56"/>
<path d="M87.5157 45.7859C87.5157 49.3073 87.3901 52.7984 87.6062 56.3198C87.8223 59.8084 88.227 63.2844 88.8075 66.7326C89.3428 69.9157 89.9133 73.0786 89.5665 76.3148C89.2398 79.3515 88.3953 82.5574 87.0835 85.3316C86.988 85.5361 86.6738 85.377 86.7291 85.1751C87.5987 81.9516 88.8628 78.935 89.1543 75.5727C89.4483 72.1699 88.6894 68.8328 88.1817 65.4881C87.7017 62.3176 87.3725 59.1243 87.1966 55.9235C87.0131 52.5687 86.8623 49.1306 87.1539 45.7809C87.174 45.5537 87.5183 45.5587 87.5183 45.7884L87.5157 45.7859Z" fill="#218D56"/>
<path d="M75.185 69.0346C73.2746 66.6138 70.3513 65.0689 68.6244 62.5168C67.727 61.1891 67.1941 59.6265 67.1011 58.0362C67.0056 56.4232 67.3474 54.7748 66.9528 53.2072C66.1359 49.9433 62.5413 48.1763 60.7039 45.339C58.1751 41.4389 58.2304 37.0492 56.0059 32.4146C58.0319 33.2652 60.0579 34.1185 62.0814 34.9691C65.4044 36.3676 69.0316 38.0564 70.4091 41.3329C71.1581 43.1151 71.133 45.1749 72.1133 46.846C73.3526 48.9588 75.8863 49.9534 77.6609 51.6573C79.1918 53.129 80.1394 55.1635 80.2726 57.2612C80.3732 58.8743 80.0162 60.5378 80.4913 62.0877C80.9563 63.6023 82.1478 64.7736 83.0804 66.066C86.7226 71.1197 86.2501 78.2129 83.3544 83.7109C83.0929 84.2056 82.7888 84.7181 82.2861 84.9755C81.4239 85.4173 80.3103 84.8897 79.795 84.0819C79.2797 83.2742 79.2068 82.2771 79.1541 81.3254C78.9379 77.3799 77.6735 72.1849 75.1875 69.0321L75.185 69.0346Z" fill="#11472B"/>
<path d="M59.2033 35.35C64.6076 39.9998 70.0924 45.3968 72.3723 52.2174C73.0359 54.2041 74.0112 55.7363 75.3485 57.3392C76.462 58.6746 77.3317 60.0074 77.5479 61.7517C77.6661 62.7109 77.6283 63.6853 77.8043 64.6395C78.0129 65.7654 78.5006 66.8155 79.0134 67.8353C79.9032 69.6073 80.7629 71.3491 81.3134 73.2575C82.4646 77.256 82.726 81.8754 81.4064 85.8689C81.3335 86.0885 80.9765 85.9699 81.0167 85.7502C81.7583 81.724 82.0046 77.8265 80.9212 73.8229C80.4386 72.0408 79.7222 70.3621 78.8751 68.7188C78.033 67.0856 77.2865 65.5079 77.1306 63.6626C77.0402 62.5999 77.0527 61.527 76.7109 60.5022C76.4092 59.596 75.8286 58.8084 75.2328 58.0662C74.1872 56.7687 73.1063 55.5747 72.4452 54.0299C71.769 52.4446 71.392 50.7634 70.6178 49.216C69.8486 47.6863 68.8607 46.2651 67.7975 44.9171C65.1431 41.5523 61.9281 38.7225 58.962 35.6378C58.7986 35.4662 59.0148 35.1834 59.2058 35.3475L59.2033 35.35Z" fill="#218D56"/>
<path d="M76.1458 67.2978C75.4143 66.8813 74.5471 66.6087 74.0443 65.9423C73.436 65.132 73.5617 64.0213 73.5919 63.0166C73.6648 60.4973 72.8277 57.8266 70.8244 56.2489C69.9949 55.5952 68.9793 55.1357 68.3358 54.3027C67.5918 53.3384 67.4787 52.0611 67.2097 50.8798C66.7623 48.9209 65.7996 47.0756 64.4422 45.5712C63.7007 44.7482 62.7304 43.9834 61.6118 44.0036C60.0685 44.0288 58.9298 45.5989 58.8418 47.1085C58.7538 48.618 59.425 50.0619 60.0685 51.4351C60.7145 52.8108 61.363 54.2674 61.2272 55.7744C61.1368 56.7664 60.712 57.6954 60.4355 58.6546C59.8297 60.7523 60.1087 63.3372 61.9059 64.6221C62.5218 65.0638 63.2683 65.3137 63.8615 65.7883C64.9424 66.6516 65.332 68.1031 65.42 69.4662C65.508 70.8293 65.3597 72.2177 65.6412 73.5556C65.7518 74.073 65.9328 74.5956 66.2998 74.9818C67.2525 75.9865 68.9291 75.6987 70.2362 76.1859C71.3145 76.5872 72.0988 77.5086 72.7372 78.4502C73.9312 80.2096 75.3464 82.6733 77.9128 81.9993C79.5869 81.5601 80.0872 80.351 80.0092 78.8162C79.8207 75.0525 79.9414 69.4485 76.1432 67.2953L76.1458 67.2978Z" fill="#218D56"/>
<path d="M62.0754 47.5175C65.8911 52.4348 66.9896 58.7153 69.2142 64.3647C71.8409 71.0364 75.7371 76.9912 79.1858 83.2515C79.3819 83.6074 78.8465 83.8901 78.6303 83.5519C74.983 77.8268 71.6675 71.6826 69.1538 65.3971C66.781 59.465 65.6523 52.9649 61.8995 47.6437C61.8291 47.5427 62 47.419 62.0754 47.5175Z" fill="#218D56"/>
<path d="M67.5789 75.5474C65.6987 74.6209 63.4591 74.5124 61.6543 73.4547C60.7142 72.9044 59.9274 72.1042 59.397 71.1652C58.8591 70.211 58.5776 69.1129 57.8737 68.2698C56.4083 66.5179 53.6961 66.4674 51.7354 65.2659C49.0383 63.615 47.7689 60.9291 45.0391 58.7431C46.5246 58.6825 48.0102 58.6244 49.4932 58.5639C51.929 58.4654 54.6362 58.4604 56.4485 60.0582C57.4339 60.9291 58.0296 62.1888 59.123 62.9259C60.503 63.8573 62.3405 63.7387 63.9266 64.2713C65.294 64.7282 66.4755 65.6975 67.1793 66.9344C67.7197 67.8861 67.9962 69.0018 68.7453 69.8071C69.4793 70.5947 70.5501 70.9683 71.5002 71.4883C75.2154 73.5229 77.0353 77.9732 76.9071 82.1434C76.8945 82.5195 76.8618 82.9158 76.6331 83.2162C76.2385 83.7311 75.4064 83.7286 74.8509 83.3828C74.2979 83.0395 73.9561 82.4538 73.6419 81.8884C72.3373 79.5509 70.0272 76.7489 67.5789 75.5423V75.5474Z" fill="#218D56"/>
<path d="M47.8544 59.6164C52.5222 60.9038 57.4615 62.6228 60.8751 66.1215C61.868 67.1388 62.9162 67.7951 64.2057 68.3883C65.279 68.8831 66.204 69.446 66.8525 70.4456C67.2095 70.9959 67.4759 71.5992 67.8655 72.1293C68.3255 72.7554 68.9338 73.2552 69.5497 73.7298C70.618 74.5552 71.6561 75.368 72.5585 76.3727C74.4463 78.4754 75.9771 81.2118 76.3591 84.0188C76.3792 84.1728 76.1279 84.2031 76.0877 84.0567C75.3436 81.3961 74.3357 78.9551 72.4881 76.8296C71.6662 75.883 70.7311 75.0651 69.7281 74.3078C68.7302 73.5556 67.8077 72.8084 67.1642 71.7305C66.7947 71.1095 66.483 70.4532 65.9702 69.9282C65.5178 69.4637 64.9296 69.1482 64.3489 68.868C63.3284 68.3757 62.3154 67.9592 61.4557 67.207C60.5734 66.4371 59.8445 65.5182 58.9144 64.7988C57.9919 64.0869 56.9689 63.5063 55.9232 62.9889C53.309 61.6989 50.5138 60.8937 47.794 59.8638C47.6432 59.8057 47.691 59.571 47.8569 59.6164H47.8544Z" fill="#218D56"/>
<path opacity="0.1" d="M94.2207 221.28C143.101 221.28 182.727 216.155 182.727 209.833C182.727 203.511 143.101 198.386 94.2207 198.386C45.3403 198.386 5.71484 203.511 5.71484 209.833C5.71484 216.155 45.3403 221.28 94.2207 221.28Z" fill="black"/>
</g>
<defs>
<clipPath id="clip0_468_14711">
<rect width="191.381" height="221" fill="white"/>
</clipPath>
</defs>
</svg>
