<svg width="291" height="291" viewBox="0 0 291 291" fill="none" xmlns="http://www.w3.org/2000/svg">
<path d="M152.459 124.541C161.508 129.162 174.354 146.326 174.354 146.326L190.005 127.838C196.946 130.038 202.838 134.708 206.564 140.962L185.522 164.81C183.235 167.397 180.102 169.083 176.684 169.567C173.266 170.051 169.787 169.301 166.872 167.451L140.379 150.589L154.077 163.628L158.643 225.133C151.624 227.793 143.856 227.685 136.913 224.83L130.889 130.812C135.597 133.618 147.59 129.576 152.459 124.541Z" fill="#DFEE45"/>
<path d="M135.982 113.18C137.112 113.18 138.197 113.629 138.996 114.429C139.796 115.229 140.245 116.313 140.245 117.444C140.245 118.574 139.796 119.659 138.996 120.459C138.197 121.258 137.112 121.707 135.982 121.707C134.851 121.707 133.766 121.258 132.967 120.459C132.167 119.659 131.718 118.574 131.718 117.444C131.718 116.313 132.167 115.229 132.967 114.429C133.766 113.629 134.851 113.18 135.982 113.18Z" fill="#218D56"/>
<path d="M101.599 209.619C101.6 213.133 100.372 216.537 98.1257 219.241C95.8797 221.944 92.7584 223.775 89.3031 224.418V257.343H83.7742V224.418C80.3204 223.772 77.2007 221.94 74.9553 219.238C72.7099 216.535 71.4801 213.132 71.4787 209.619H101.599ZM86.5524 220.126C86.9245 220.126 87.2929 220.053 87.6366 219.911C87.9803 219.768 88.2926 219.559 88.5556 219.296C88.8186 219.033 89.0272 218.721 89.1695 218.377C89.3118 218.033 89.385 217.665 89.3849 217.293C89.3848 216.921 89.3114 216.552 89.169 216.208C89.0265 215.865 88.8177 215.552 88.5546 215.289C88.2914 215.026 87.979 214.818 87.6352 214.675C87.2915 214.533 86.923 214.46 86.551 214.46C85.7996 214.46 85.079 214.759 84.5478 215.29C84.0166 215.822 83.7183 216.543 83.7185 217.294C83.7187 218.045 84.0174 218.766 84.5488 219.297C85.0803 219.828 85.801 220.127 86.5524 220.126Z" fill="#DFEE45"/>
<path d="M200.265 257.265C200.125 255.531 199.558 253.858 198.615 252.396C194.877 246.812 192.013 242.117 192.013 228.603H211.24C211.24 241.198 208.833 245.686 204.776 252.149C203.747 253.673 203.123 255.433 202.961 257.265C203.071 261.693 203.54 263.261 207.939 264.802H195.286C199.66 263.257 200.21 261.689 200.265 257.265ZM205.051 242.989L203.841 238.973L207.197 236.442L202.988 236.36L201.613 232.399L200.238 236.36L196.029 236.442L199.385 238.973L198.175 242.989L201.613 240.596L205.051 242.989Z" fill="#DFEE45"/>
<path d="M140.411 150.589L154.109 163.628L153.779 159.089L140.411 150.589Z" fill="#DFEE45"/>
<path d="M138.84 248.101C140.511 240.846 140.939 233.361 140.108 225.964C144.838 227.271 149.818 227.382 154.601 226.288C154.275 229.735 154.678 233.212 155.784 236.493C153.859 238.711 149.95 239.739 149.155 248.128C149.039 249.298 148.494 250.383 147.626 251.175C146.757 251.967 145.627 252.41 144.451 252.419H129.735C130.862 251.097 132.255 250.029 133.825 249.284C135.394 248.54 137.103 248.137 138.84 248.101Z" fill="#218D56"/>
<path d="M201.672 117.829C212.427 116.041 229.068 115.243 235.34 117.829C229.381 122.045 222.956 125.562 216.192 128.309C213.628 129.004 211.282 130.336 209.371 132.182L204.337 137.848C201.253 133.806 197.153 130.655 192.454 128.716L201.672 117.829Z" fill="#218D56"/>
<path d="M139.394 89.6892L137.303 92.0823C137.232 91.5336 137.087 90.998 136.869 90.4898C137.734 90.3044 138.58 90.0363 139.394 89.6892Z" fill="#DFEE45"/>
<path d="M147.816 72.993C155.292 80.9149 143.492 87.8191 142.604 88.3157C142.634 86.0743 142.846 83.8389 143.237 81.6316C146.263 80.6182 144.86 77.0379 142.824 78.4466C142.181 78.9591 141.511 79.2631 141.394 78.4466C140.541 73.2753 136.608 71.9 134.132 76.6861C137.495 69.8847 141.987 67.4424 147.816 72.993Z" fill="#DFEE45"/>
<path d="M147.178 63.4478C148.052 62.7244 149.118 62.2724 150.246 62.1473C151.373 62.0222 152.513 62.2296 153.524 62.7438C154.535 63.2581 155.374 64.0568 155.937 65.0417C156.5 66.0266 156.763 67.1546 156.693 68.2869C156.623 69.4193 156.224 70.5064 155.544 71.4146C154.864 72.3228 153.934 73.0124 152.867 73.3985C151.8 73.7846 150.644 73.8503 149.54 73.5876C148.436 73.3249 147.434 72.7452 146.655 71.9199C145.641 70.7095 145.13 69.1559 145.227 67.5796C145.324 66.0033 146.022 64.5244 147.178 63.4478Z" fill="#DFEE45"/>
<path d="M170.916 103.608C171.164 106.083 170.669 108.096 169.459 108.504C168.028 108.971 166.405 107.706 164.92 105.698C166.941 105.066 168.941 104.369 170.916 103.608Z" fill="#DFEE45"/>
<path d="M152.707 113.95L154.385 116.288C154.743 115.224 155.129 114.169 155.543 113.125C154.55 113.4 153.587 113.675 152.707 113.95Z" fill="#DFEE45"/>
<path d="M134.14 13.4131V46.8339C112.052 54.8658 89.9638 38.8019 67.8758 46.8339V13.4131C89.9638 5.38114 112.057 21.4451 134.14 13.4131Z" fill="#DFEE45"/>
<path d="M67.875 74.8357V96.8411" stroke="#DFEE45" stroke-width="0.769171" stroke-linecap="round" stroke-linejoin="round"/>
<path d="M67.875 7.96606V59.0737" stroke="#DFEE45" stroke-width="0.769171" stroke-linecap="round" stroke-linejoin="round"/>
<path d="M132.324 93.9526L135.983 113.18L149.131 94.4203" stroke="#DFEE45" stroke-width="0.769171" stroke-linecap="round" stroke-linejoin="round"/>
<path d="M152.459 124.54C161.508 129.161 174.354 146.325 174.354 146.325L190.005 127.838C196.946 130.038 202.838 134.707 206.564 140.962L185.572 164.81C183.285 167.394 180.152 169.08 176.735 169.564C173.318 170.047 169.841 169.298 166.926 167.451L153.777 159.089L158.674 225.132C151.639 227.77 143.867 227.652 136.916 224.802L130.892 130.812" stroke="#DFEE45" stroke-width="0.769171" stroke-linecap="round" stroke-linejoin="round"/>
<path d="M140.411 150.589L154.109 163.627L153.779 159.089L140.411 150.589Z" stroke="#DFEE45" stroke-width="0.769171" stroke-linecap="round" stroke-linejoin="round"/>
<path d="M127.95 255.32C128.376 254.26 128.981 253.28 129.738 252.425H144.426C145.6 252.411 146.728 251.966 147.596 251.175C148.463 250.384 149.009 249.301 149.13 248.134C149.316 245.099 150.377 242.183 152.183 239.737C152.845 238.941 154.824 237.536 155.759 236.491C157.107 241.195 156.014 240.898 154.549 242.652C152.735 245.081 151.674 247.989 151.496 251.015C151.39 252.185 150.853 253.273 149.988 254.069C149.124 254.865 147.994 255.31 146.82 255.319L127.95 255.32Z" stroke="#DFEE45" stroke-width="0.769171" stroke-linecap="round" stroke-linejoin="round"/>
<path d="M140.111 225.963C140.938 233.352 140.509 240.827 138.843 248.073C137.111 248.106 135.406 248.507 133.841 249.249C132.276 249.992 130.887 251.058 129.766 252.379H144.454C145.629 252.375 146.76 251.935 147.629 251.144C148.498 250.354 149.043 249.27 149.158 248.101C149.327 245.062 150.389 242.141 152.211 239.704C152.89 238.897 154.879 237.503 155.787 236.458C155.65 235.99 155.512 235.495 155.319 234.918C154.599 232.11 154.354 229.202 154.596 226.314" stroke="#DFEE45" stroke-width="0.769171" stroke-linecap="round" stroke-linejoin="round"/>
<path d="M192.454 128.721L201.672 117.829C212.427 116.041 229.068 115.243 235.34 117.829C229.378 122.041 222.954 125.557 216.192 128.309C213.627 129.002 211.28 130.335 209.371 132.181L204.337 137.848" stroke="#DFEE45" stroke-width="0.769171" stroke-linecap="round" stroke-linejoin="round"/>
<path d="M235.337 117.829C236.537 116.985 237.711 116.104 238.857 115.188C232.777 112.272 215.092 112.85 204.171 114.858L201.671 117.829" stroke="#DFEE45" stroke-width="0.769171" stroke-linecap="round" stroke-linejoin="round"/>
<path d="M137.302 92.0792L139.419 89.689C138.591 90.0292 137.735 90.297 136.861 90.4867" stroke="#DFEE45" stroke-width="0.769171" stroke-linecap="round" stroke-linejoin="round"/>
<path d="M216.687 77.7465C216.742 77.829 219.148 76.0484 222.051 73.8377C225.303 71.3765 224.996 69.7956 220.758 72.0497C218.668 73.2937 216.379 74.1684 213.992 74.6354" stroke="#DFEE45" stroke-width="0.769171" stroke-linecap="round" stroke-linejoin="round"/>
<path d="M212.313 72.4151C212.313 72.4151 219.552 67.2713 220.015 66.9137C223.399 64.3281 224.409 65.4776 221.831 68.3716C219.459 71.0339 216.247 74.093 216.247 74.093" stroke="#DFEE45" stroke-width="0.769171" stroke-linecap="round" stroke-linejoin="round"/>
<path d="M162.608 91.0091C180.433 84.71 199.579 75.6632 199.715 75.6053C201.187 74.9784 202.686 73.1021 202.411 71.6964C201.941 69.3033 200.896 65.8867 202.108 65.6449C203.949 65.2786 205.051 70.4311 206.784 71.6139C207.389 72.0265 209.121 70.7597 209.727 70.1835C210.741 69.2179 214.182 65.9735 214.514 65.6449C217.554 62.6322 218.567 63.9728 216.356 66.8552C215.206 68.2996 214.244 69.8846 213.494 71.5719" stroke="#DFEE45" stroke-width="0.769171" stroke-linecap="round" stroke-linejoin="round"/>
<path d="M211.021 71.0398C213.316 73.1369 214.804 75.9707 215.229 79.0501" stroke="#DFEE45" stroke-width="0.769171" stroke-linecap="round" stroke-linejoin="round"/>
<path d="M209.673 73.4036C210.608 76.8419 210.003 79.6751 207.087 81.4355" stroke="#DFEE45" stroke-width="0.769171" stroke-linecap="round" stroke-linejoin="round"/>
<path d="M124.292 106.964C124.078 108.559 124.023 110.172 124.127 111.777" stroke="#DFEE45" stroke-width="0.769171" stroke-linecap="round" stroke-linejoin="round"/>
<path d="M142.639 88.3416C149.598 84.4327 153.384 78.3089 146.655 71.8925C140.768 66.8588 136.34 72.1401 134.139 76.6787" stroke="#DFEE45" stroke-width="0.769171" stroke-linecap="round" stroke-linejoin="round"/>
<path d="M147.177 63.4476C148.051 62.7242 149.117 62.2721 150.245 62.147C151.372 62.022 152.512 62.2293 153.523 62.7436C154.534 63.2579 155.373 64.0566 155.936 65.0415C156.499 66.0264 156.762 67.1544 156.692 68.2867C156.622 69.419 156.223 70.5062 155.543 71.4144C154.863 72.3226 153.933 73.0122 152.866 73.3983C151.799 73.7844 150.643 73.8501 149.539 73.5874C148.435 73.3247 147.433 72.745 146.654 71.9197C145.64 70.7092 145.129 69.1557 145.226 67.5794C145.323 66.003 146.021 64.5241 147.177 63.4476Z" stroke="#DFEE45" stroke-width="0.769171" stroke-linecap="round" stroke-linejoin="round"/>
<path d="M169.403 108.531C170.616 108.117 171.165 106.07 170.914 103.593" stroke="#DFEE45" stroke-width="0.769171" stroke-linecap="round" stroke-linejoin="round"/>
<path d="M164.919 105.698C180.002 100.889 204.946 88.4604 214.377 82.9778C216.359 81.8196 218.371 80.731 220.373 79.622C221.19 79.1722 221.997 78.7045 222.794 78.2191C226.186 76.1431 226.012 74.8358 221.748 76.4587C220.138 77.0615 218.47 77.4947 216.77 77.7515H216.742C216.178 77.8471 215.609 77.9021 215.037 77.9166" stroke="#DFEE45" stroke-width="0.769171" stroke-linecap="round" stroke-linejoin="round"/>
<path d="M69.8562 70.4343C72.5779 70.2026 72.6344 66.9091 69.9937 66.9409C68.0408 66.9655 66.6379 67.0509 65.0976 67.1335C62.4844 67.2782 62.5394 70.7528 64.6849 70.8194C66.414 70.7774 68.14 70.6488 69.8562 70.4343Z" stroke="#DFEE45" stroke-width="0.769171" stroke-linecap="round" stroke-linejoin="round"/>
<path d="M67.82 59.4043C66.8572 59.3767 66.1696 59.3912 65.2343 59.3767C62.7587 59.3405 62.6762 62.8513 64.7117 63.0351C65.7657 63.1061 66.8211 63.1061 67.875 63.0351" stroke="#DFEE45" stroke-width="0.769171" stroke-linecap="round" stroke-linejoin="round"/>
<path d="M70.5156 74.1757C73.1288 73.876 73.1288 70.6823 70.5706 70.7923C68.6727 70.8748 67.3263 70.9965 65.8395 71.1224C63.3378 71.3338 63.4464 74.6983 65.5094 74.6983C66.7747 74.6983 68.095 74.4536 70.5156 74.1757Z" stroke="#DFEE45" stroke-width="0.769171" stroke-linecap="round" stroke-linejoin="round"/>
<path d="M67.902 63.125C66.8886 63.1525 66.0315 63.2336 65.0413 63.2625C62.4007 63.3407 62.3456 66.8659 64.5462 67.0035C65.8665 67.086 67.2694 66.8891 69.8 66.7559C70.0833 66.7604 70.3636 66.6965 70.617 66.5696C70.8704 66.4427 71.0894 66.2565 71.2555 66.0269C71.4216 65.7973 71.5298 65.531 71.5711 65.2506C71.6123 64.9703 71.5853 64.6841 71.4924 64.4164C71.3664 64.0573 71.129 63.7504 70.8134 63.5376" stroke="#DFEE45" stroke-width="0.769171" stroke-linecap="round" stroke-linejoin="round"/>
<path d="M118.763 86.6085C98.4077 76.0184 74.3668 57.2516 71.121 57.4789C67.2975 57.7467 67.6377 57.9132 67.9852 64.4656C68.0706 66.0581 70.8459 66.226 71.341 61.1358C70.9284 65.0447 72.7164 67.7099 75.357 68.5626" stroke="#DFEE45" stroke-width="0.769171" stroke-linecap="round" stroke-linejoin="round"/>
<path d="M66.0054 74.6704C69.4713 75.0005 73.8724 74.9455 79.6213 79.1584C89.4281 86.356 99.6509 92.9691 110.236 98.9632" stroke="#DFEE45" stroke-width="0.769171" stroke-linecap="round" stroke-linejoin="round"/>
<path d="M155.489 113.144C154.499 113.446 153.583 113.675 152.675 113.922L154.357 116.256" stroke="#DFEE45" stroke-width="0.769171" stroke-linecap="round" stroke-linejoin="round"/>
<path d="M155.488 113.144C154.063 116.83 153.043 120.66 152.448 124.568C147.58 129.601 135.587 133.617 130.877 130.812C128.071 121.546 124.551 118.406 124.111 111.777C118.829 109.109 113.08 105.945 109.752 102.92C109.752 96.8132 113.465 89.6006 118.747 86.6082C123.138 89.2877 127.664 91.739 132.308 93.9525C133.958 94.6691 134.673 94.8877 135.493 94.5851C138.271 95.988 142.204 95.6304 145.725 94.5026C146.268 94.6705 146.84 94.7183 147.403 94.6401C152.573 93.9407 157.66 92.7244 162.587 91.0092C157.993 92.8218 164.408 109.775 169.381 108.527C164.806 110.228 160.172 111.768 155.488 113.144Z" fill="white" stroke="#DFEE45" stroke-width="0.769171" stroke-linecap="round" stroke-linejoin="round"/>
<path d="M135.511 94.5851C136.022 94.3899 136.464 94.0483 136.782 93.6031C137.1 93.1579 137.28 92.6288 137.299 92.082C137.226 91.5348 137.08 90.9991 136.864 90.4895C131.082 91.39 131.599 82.6472 134.141 76.6811C136.617 71.8949 140.607 73.2616 141.403 78.4416C141.529 79.261 142.272 78.9381 142.861 78.4691C144.896 77.0662 146.299 80.6407 143.273 81.6541C142.878 83.8604 142.667 86.0971 142.641 88.3382C142.655 91.1439 143.108 93.6948 145.749 94.4997" stroke="#DFEE45" stroke-width="0.769171" stroke-linecap="round" stroke-linejoin="round"/>
<path d="M172.071 283.034V255.363H116.178V283.034" stroke="#DFEE45" stroke-width="0.769171" stroke-linecap="round" stroke-linejoin="round"/>
<path d="M227.965 283.034V269.198H172.071V283.034" stroke="#DFEE45" stroke-width="0.769171" stroke-linecap="round" stroke-linejoin="round"/>
<path d="M116.178 283.034V262.679H60.2565V283.034" stroke="#DFEE45" stroke-width="0.769171" stroke-linecap="round" stroke-linejoin="round"/>
<path d="M134.14 13.4129V46.8336C112.052 54.8656 89.9638 38.8016 67.8758 46.8336V13.4129C89.9638 5.38089 112.057 21.4448 134.14 13.4129Z" stroke="#DFEE45" stroke-width="0.769171" stroke-linecap="round" stroke-linejoin="round"/>
<path d="M75.9078 257.343V262.679H97.2256V257.343H75.9078Z" stroke="#DFEE45" stroke-width="0.769171" stroke-linecap="round" stroke-linejoin="round"/>
<path d="M101.599 209.618C101.591 213.13 100.359 216.529 98.1147 219.231C95.8703 221.932 92.7542 223.766 89.3031 224.417V257.342H83.7742V224.417C80.318 223.777 77.1953 221.946 74.949 219.242C72.7027 216.538 71.4748 213.133 71.4787 209.618H101.599Z" stroke="#DFEE45" stroke-width="0.769171" stroke-linecap="round" stroke-linejoin="round"/>
<path d="M97.4452 219.989C100.266 220.099 103.063 219.438 105.535 218.076C108.007 216.714 110.06 214.703 111.474 212.259H101.344" fill="#218D56"/>
<path d="M97.4452 219.989C100.266 220.099 103.063 219.438 105.535 218.076C108.007 216.714 110.06 214.703 111.474 212.259H101.344" stroke="#218D56" stroke-width="0.769171" stroke-linecap="round" stroke-linejoin="round"/>
<path d="M75.5498 219.989C72.7294 220.099 69.9323 219.438 67.4601 218.076C64.988 216.714 62.9345 214.703 61.5213 212.259H71.6163" fill="#218D56"/>
<path d="M75.5498 219.989C72.7294 220.099 69.9323 219.438 67.4601 218.076C64.988 216.714 62.9345 214.703 61.5213 212.259H71.6163" stroke="#218D56" stroke-width="0.769171" stroke-linecap="round" stroke-linejoin="round"/>
<path d="M87.6526 139.641C87.6516 140.599 87.9351 141.535 88.4671 142.332C88.9991 143.128 89.7556 143.749 90.6407 144.114C91.6002 144.512 92.6621 144.59 93.6696 144.338C94.6771 144.086 95.5767 143.516 96.2357 142.714C96.8947 141.911 97.278 140.918 97.3291 139.88C97.3802 138.843 97.0963 137.817 96.5195 136.953C95.9426 136.089 95.1033 135.434 94.1255 135.084C93.1476 134.734 92.0832 134.708 91.0893 135.009C90.0953 135.31 89.2247 135.923 88.6058 136.757C87.987 137.591 87.6528 138.602 87.6526 139.641Z" stroke="#DFEE45" stroke-width="0.769171" stroke-linecap="round" stroke-linejoin="round"/>
<path d="M83.7031 217.296C83.7034 217.715 83.7967 218.129 83.9761 218.508C84.1555 218.886 84.4166 219.221 84.7406 219.487C85.0647 219.753 85.4436 219.944 85.8502 220.046C86.2569 220.148 86.681 220.158 87.0922 220.077C87.6417 219.966 88.1463 219.696 88.5424 219.299C88.9386 218.903 89.2087 218.398 89.3188 217.849C89.4291 217.299 89.3734 216.729 89.1589 216.211C88.9445 215.692 88.5809 215.25 88.1143 214.939C87.5693 214.574 86.9144 214.409 86.2616 214.474C85.6088 214.538 84.9987 214.827 84.5355 215.292C84.0042 215.823 83.7045 216.544 83.7031 217.296Z" stroke="#DFEE45" stroke-width="0.769171" stroke-linecap="round" stroke-linejoin="round"/>
<path d="M179.127 42.5149V52.3898" stroke="#DFEE45" stroke-width="0.769171" stroke-linecap="round" stroke-linejoin="round"/>
<path d="M174.189 47.4531H184.092" stroke="#DFEE45" stroke-width="0.769171" stroke-linecap="round" stroke-linejoin="round"/>
<path d="M201.311 187.833L204.722 195.438H198.505L201.916 203.045" stroke="#DFEE45" stroke-width="0.769171" stroke-linecap="round" stroke-linejoin="round"/>
<path d="M195.446 130.155L178.783 149.819C175.812 153.45 173.474 153.312 170.834 149.846C165.911 143.382 156.915 132.077 149.407 127.016" stroke="#DFEE45" stroke-width="0.769171" stroke-linecap="round" stroke-linejoin="round"/>
<path d="M197.707 131.554L179.305 152.762C178.707 153.456 177.96 154.005 177.12 154.37C176.28 154.735 175.369 154.905 174.454 154.869C173.539 154.831 172.644 154.587 171.836 154.156C171.028 153.725 170.328 153.117 169.788 152.377C164.456 145.085 155.237 133.397 147.452 128.171" stroke="#DFEE45" stroke-width="0.769171" stroke-linecap="round" stroke-linejoin="round"/>
<path d="M146.655 154.688L151.826 226.783" stroke="#DFEE45" stroke-width="0.769171" stroke-linecap="round" stroke-linejoin="round"/>
<path d="M194.626 269.088H208.6L207.939 264.797H195.286L194.626 269.088Z" stroke="#DFEE45" stroke-width="0.769171" stroke-linecap="round" stroke-linejoin="round"/>
<path d="M208.233 248.299C211.836 248.299 219.589 243.784 219.589 231.957H211.584" fill="#218D56"/>
<path d="M208.233 248.299C211.836 248.299 219.589 243.784 219.589 231.957H211.584" stroke="#218D56" stroke-width="0.769171" stroke-linecap="round" stroke-linejoin="round"/>
<path d="M199.385 238.968L198.175 242.984L201.613 240.591L205.052 242.984L203.841 238.968L207.197 236.438L202.989 236.328L201.613 232.367L200.238 236.328L196.03 236.438L199.385 238.968Z" stroke="#DFEE45" stroke-width="0.769171" stroke-linecap="round" stroke-linejoin="round"/>
<path d="M195.286 264.793C199.66 263.253 200.238 261.685 200.265 257.256C200.129 255.521 199.562 253.848 198.615 252.387C194.693 246.469 192.013 241.79 192.013 228.594H211.213C211.213 241.189 208.805 245.677 204.749 252.14C203.717 253.663 203.092 255.424 202.933 257.256C203.026 261.685 203.512 263.253 207.912 264.793H195.286Z" stroke="#DFEE45" stroke-width="0.769171" stroke-linecap="round" stroke-linejoin="round"/>
<path d="M195.837 248.156C192.206 248.156 184.092 243.668 184.092 231.844H192.068" fill="#218D56"/>
<path d="M195.837 248.156C192.206 248.156 184.092 243.668 184.092 231.844H192.068" stroke="#218D56" stroke-width="0.769171" stroke-linecap="round" stroke-linejoin="round"/>
<path d="M38.6633 283.034H252.336" stroke="#DFEE45" stroke-width="0.769171" stroke-linecap="round" stroke-linejoin="round"/>
<path d="M135.983 113.18C137.113 113.18 138.198 113.629 138.997 114.429C139.797 115.228 140.246 116.313 140.246 117.443C140.246 118.574 139.797 119.659 138.997 120.458C138.198 121.258 137.113 121.707 135.983 121.707C134.852 121.707 133.767 121.258 132.968 120.458C132.168 119.659 131.719 118.574 131.719 117.443C131.719 116.313 132.168 115.228 132.968 114.429C133.767 113.629 134.852 113.18 135.983 113.18Z" stroke="#DFEE45" stroke-width="0.769171"/>
</svg>
