<svg width="344" height="567" viewBox="0 0 344 567" fill="none" xmlns="http://www.w3.org/2000/svg">
<path fill-rule="evenodd" clip-rule="evenodd" d="M174.164 72.265C174.164 72.265 159.742 69.8914 155.931 87.1955C141.954 92.9656 145.767 110.271 145.767 110.271C145.767 110.271 138.747 123.866 152.691 130.831C153.806 144.758 167.75 142.226 167.75 142.226C167.75 142.226 171.097 152.99 181.695 148.557C193.129 158.652 214.677 156.627 222.329 144.286C237.499 157.14 263.898 141.448 260.586 129.714C278.304 128.495 286.894 107.164 276.512 89.0434C284.487 74.7102 275.396 66.2503 275.396 66.2503C275.396 66.2503 277.906 33.3272 257.828 28.8959C247.509 11.1678 225.199 25.4129 225.199 25.4129C225.199 25.4129 210.418 21.9314 205.12 36.4926C188.604 39.3769 189.379 49.6831 188.108 58.336C173.328 59.2858 174.164 72.265 174.164 72.265Z" fill="#11472B"/>
<path fill-rule="evenodd" clip-rule="evenodd" d="M211.992 55.9674C225.147 58.2763 229.148 48.3214 229.148 48.3214C229.148 48.3214 234.576 34.2993 235.968 42.9066C236.706 47.4818 243.778 41.4115 247.03 46.2878C249.219 49.5701 243.748 53.8 250.858 62.5518C254.979 67.6213 238.727 71.6656 248.753 81.0106C248.753 81.0106 241.624 92.4166 253.868 96.1369L255.166 109.513C255.922 117.296 249.797 124.032 241.977 124.02C234.521 124.008 228.547 117.84 228.772 110.387L229.266 94.0805C210.257 94.0805 209.329 67.9513 211.992 55.9674Z" fill="#FFC999"/>
<path d="M233.188 75.2474C233.517 74.9177 234.052 74.9175 234.381 75.2471C234.711 75.5767 234.711 76.1112 234.382 76.4409C233.954 76.8692 233.179 77.4814 232.089 78.0876C229.941 79.2828 227.477 79.9045 224.763 79.6412C224.299 79.5961 223.959 79.1835 224.004 78.7194C224.049 78.2554 224.462 77.9158 224.926 77.9608C227.271 78.1883 229.402 77.6509 231.268 76.6122C231.819 76.3059 232.303 75.9782 232.716 75.6524L232.929 75.4786C233.053 75.3746 233.14 75.2952 233.188 75.2474Z" fill="#F5222D"/>
<path d="M225.318 57.5285L225.317 57.3016C225.343 57.0139 225.575 56.7794 225.872 56.7584C226.17 56.7373 226.432 56.9369 226.499 57.218L226.515 57.3402L226.516 57.3661C226.536 57.9439 226.432 58.8258 226.1 59.9739C225.656 61.5105 224.886 63.1917 223.726 64.9931L223.516 65.3092L223.851 65.5166L224.662 66.0101C225.449 66.4831 226.16 66.8949 226.798 67.2492L227.11 67.4215C227.423 67.5926 227.698 67.7386 227.936 67.8608L228.422 68.1024C228.723 68.2411 228.854 68.5976 228.715 68.8985C228.576 69.1995 228.22 69.3309 227.919 69.1921L227.664 69.0683L227.196 68.8288C227.063 68.7593 226.921 68.6837 226.769 68.6019L226.535 68.4745C225.389 67.8483 223.997 67.0303 222.352 65.998C222.061 65.8157 221.982 65.4276 222.178 65.1463C223.583 63.1325 224.472 61.2861 224.948 59.6405C225.219 58.7021 225.316 57.9896 225.318 57.5285Z" fill="#DD936F"/>
<path d="M243.644 56.5989C244.092 56.5989 244.455 56.9622 244.455 57.4103C244.455 60.5298 242.105 63.0859 239.172 63.0859C236.24 63.0859 233.891 60.53 233.891 57.4103C233.891 56.9622 234.254 56.5989 234.702 56.5989C235.15 56.5989 235.514 56.9622 235.514 57.4103C235.514 59.6629 237.168 61.463 239.172 61.463C241.177 61.463 242.833 59.6625 242.833 57.4103C242.833 56.9622 243.196 56.5989 243.644 56.5989Z" fill="#11472B"/>
<path d="M222.264 57.156C222.689 57.156 223.034 57.5009 223.034 57.9264C223.034 61.0087 220.923 63.5609 218.241 63.5609C215.557 63.5609 213.447 61.0093 213.447 57.9264C213.447 57.5009 213.792 57.156 214.218 57.156C214.643 57.156 214.988 57.5009 214.988 57.9264C214.988 60.2162 216.48 62.0201 218.241 62.0201C220 62.0201 221.493 60.2155 221.493 57.9264C221.493 57.5009 221.838 57.156 222.264 57.156Z" fill="#11472B"/>
<path d="M234.392 47.6724C237.494 46.6761 240.775 46.5445 243.873 47.8512C244.444 48.0918 245 48.3797 245.539 48.7166C245.919 48.9541 246.034 49.4547 245.797 49.8348C245.559 50.2148 245.059 50.3304 244.679 50.0929C244.213 49.802 243.734 49.5538 243.243 49.3466C240.555 48.2131 237.653 48.3295 234.888 49.2176C234.539 49.3297 234.216 49.4476 233.922 49.5667L233.637 49.6859C233.423 49.7791 233.278 49.8492 233.21 49.8851C232.813 50.0943 232.323 49.9425 232.113 49.5462C231.904 49.1498 232.056 48.659 232.452 48.4498C232.834 48.2484 233.5 47.9589 234.392 47.6724Z" fill="#11472B"/>
<path d="M240.628 90.6037C240.919 90.4452 241.283 90.5527 241.442 90.8438C241.6 91.1348 241.493 91.4992 241.202 91.6577C237.343 93.7582 233.329 94.8164 229.292 94.8715C228.961 94.876 228.688 94.6111 228.684 94.2797C228.679 93.9484 228.944 93.6761 229.275 93.6716C233.117 93.6191 236.94 92.6113 240.628 90.6037Z" fill="#DD936F"/>
<path fill-rule="evenodd" clip-rule="evenodd" d="M195.006 239.429C186.228 238.132 180.163 229.966 181.46 221.188L194.092 135.652C195.388 126.874 203.554 120.808 212.333 122.104C221.109 123.402 227.173 131.568 225.879 140.346L213.246 225.883C211.95 234.661 203.784 240.725 195.006 239.429Z" fill="#FFC999"/>
<path fill-rule="evenodd" clip-rule="evenodd" d="M220.523 176.606L225.878 140.345C227.169 131.604 221.073 123.395 212.332 122.104C203.591 120.814 195.384 126.91 194.092 135.651L188.787 171.567L220.523 176.606Z" fill="white"/>
<path d="M212.862 121.694C221.762 123.008 227.998 131.28 226.861 140.167L226.817 140.484L221.46 176.745C221.425 176.982 221.224 177.152 220.993 177.158L220.906 177.152L189.172 172.113C188.908 172.071 188.728 171.823 188.77 171.559C188.807 171.325 189.007 171.157 189.236 171.151L189.323 171.157L220.574 176.119L225.86 140.343C227.095 131.971 221.345 124.102 213.037 122.701L212.72 122.651C212.456 122.612 212.273 122.366 212.312 122.102C212.347 121.867 212.545 121.696 212.774 121.689L212.862 121.694Z" fill="#218D56"/>
<path fill-rule="evenodd" clip-rule="evenodd" d="M138.995 211.245C138.869 214.382 141.231 217.062 144.357 217.329L204.707 222.525C210.267 222.819 214.999 218.511 215.223 212.946C215.451 207.332 211.007 202.634 205.388 202.547L144.563 205.621C141.532 205.774 139.118 208.213 138.995 211.245Z" fill="#FFC999"/>
<path fill-rule="evenodd" clip-rule="evenodd" d="M133.083 203.3C133.083 203.3 143.923 202.442 146.697 208.22C149.212 213.454 144.294 216.592 144.294 216.592C144.294 216.592 139.897 220.484 133.726 222.61C129.661 224.009 121.657 225.888 120.634 223.851C119.298 221.196 128.481 219.597 128.138 217.463C127.788 215.271 125.866 215.461 121.355 214.455C118.536 213.825 115.509 214.315 113.22 213.326C108.749 211.393 116.717 203.233 133.083 203.3Z" fill="#FFC999"/>
<path d="M113.817 210.435C117.867 209.445 121.529 209.613 124.635 210.493C125.197 210.653 125.694 210.824 126.12 210.996L126.396 211.112C126.515 211.164 126.605 211.207 126.666 211.238C126.961 211.389 127.077 211.751 126.926 212.046C126.775 212.341 126.413 212.457 126.118 212.306L125.906 212.208C125.84 212.179 125.762 212.146 125.671 212.109C125.283 211.953 124.828 211.795 124.308 211.648C121.392 210.821 117.938 210.663 114.102 211.601C113.78 211.679 113.455 211.482 113.377 211.16C113.298 210.838 113.495 210.513 113.817 210.435Z" fill="#DD936F"/>
<path d="M118.589 207.102C121.579 206.612 124.827 206.631 127.966 207.503C128.285 207.592 128.472 207.923 128.383 208.242C128.295 208.561 127.964 208.748 127.645 208.66C124.696 207.84 121.616 207.822 118.783 208.287C118.485 208.335 118.211 208.387 117.963 208.438L117.723 208.49C117.542 208.531 117.418 208.562 117.358 208.579C117.039 208.668 116.708 208.48 116.62 208.161C116.531 207.842 116.718 207.511 117.038 207.423L117.346 207.346L117.46 207.32C117.79 207.245 118.168 207.171 118.589 207.102Z" fill="#DD936F"/>
<path d="M121.631 204.424C124.881 204.058 127.543 204.167 129.619 204.573L130.066 204.668C130.548 204.777 130.89 204.882 131.092 204.962C131.401 205.084 131.552 205.432 131.431 205.74C131.309 206.049 130.961 206.2 130.652 206.079L130.49 206.021C130.26 205.947 129.894 205.85 129.388 205.751C127.432 205.368 124.894 205.264 121.765 205.616C121.436 205.653 121.139 205.416 121.101 205.087C121.064 204.758 121.301 204.461 121.631 204.424Z" fill="#DD936F"/>
<path fill-rule="evenodd" clip-rule="evenodd" d="M107.636 473.688L69.845 328.344C67.1224 317.874 73.655 307.241 84.226 304.936C94.7954 302.632 105.161 309.581 107.042 320.236L131.017 469.121C132.237 476.034 129.94 481.679 123.078 483.174C116.219 484.669 109.403 480.482 107.636 473.688Z" fill="#FFC999"/>
<path fill-rule="evenodd" clip-rule="evenodd" d="M232.31 253.13C226.751 241.658 212.837 237.015 201.502 242.848L79.6356 305.543C70.2495 310.374 66.4318 321.81 71.0374 331.309C75.6414 340.807 86.985 344.896 96.5901 340.518L221.3 283.685C232.899 278.399 237.871 264.599 232.31 253.13Z" fill="#FFC999"/>
<path fill-rule="evenodd" clip-rule="evenodd" d="M110.566 485.052L133.982 480.708L128.429 443.427L101.545 448.413L110.566 485.052Z" fill="white"/>
<path d="M127.879 450.376C128.304 450.297 128.712 450.578 128.791 451.002C128.863 451.391 128.633 451.767 128.268 451.887L128.165 451.913L103.346 456.517C102.922 456.596 102.514 456.316 102.435 455.891C102.363 455.502 102.592 455.127 102.958 455.006L103.061 454.98L127.879 450.376Z" fill="#E4EBF7"/>
<path fill-rule="evenodd" clip-rule="evenodd" d="M107.961 484.026L133.705 479.25L143.754 526.167L85.748 536.926L84.262 529.714C83.7251 527.06 85.167 524.402 87.6843 523.408L102.243 516.023L109.319 510.052C111.451 508.252 112.422 505.437 111.841 502.708C110.59 496.845 108.487 486.898 107.961 484.026Z" fill="#218D56"/>
<path fill-rule="evenodd" clip-rule="evenodd" d="M143.478 527.807L85.6471 538.535C85.0981 538.637 84.5718 538.275 84.4699 537.726L83.2668 531.24C83.1664 530.693 83.5269 530.166 84.0759 530.064L141.907 519.337C142.455 519.235 142.983 519.597 143.083 520.144L144.286 526.63C144.388 527.179 144.026 527.705 143.478 527.807Z" fill="#CCD7EE"/>
<path fill-rule="evenodd" clip-rule="evenodd" d="M84.0768 530.064C83.3179 525.976 85.6374 521.942 89.5524 520.541L102.238 516.001L104.995 526.035L84.0768 530.064Z" fill="#CCD7EE"/>
<path d="M141.835 518.943C142.052 518.903 142.261 519.047 142.301 519.264C142.336 519.454 142.231 519.637 142.058 519.707L141.981 519.73L84.1508 530.458C83.9336 530.498 83.7248 530.355 83.6845 530.137C83.6493 529.947 83.7547 529.764 83.9271 529.694L84.0049 529.671L141.835 518.943Z" fill="#A3B5D6"/>
<path d="M111.798 500.263L112.033 500.274C112.101 500.279 112.178 500.284 112.265 500.291C112.619 500.32 113.012 500.367 113.434 500.435C114.643 500.628 115.853 500.954 116.99 501.445C117.902 501.839 118.729 502.325 119.45 502.914C119.965 503.335 119.752 504.166 119.098 504.288C118.46 504.406 117.532 504.706 116.398 505.148L116.083 505.272C115.758 505.401 115.421 505.54 115.075 505.687C114.561 505.905 114.041 506.134 113.529 506.366L113.262 506.488L113.329 506.525C114.364 507.101 115.4 507.81 116.388 508.664L116.808 509.039C117.312 509.503 117.018 510.344 116.335 510.394C115.551 510.451 114.652 510.608 113.663 510.853C112.7 511.092 111.675 511.408 110.618 511.782C110.396 511.86 110.177 511.94 109.96 512.021L109.424 512.224L109.586 512.284C109.934 512.419 110.277 512.58 110.614 512.768L110.947 512.966C111.472 513.294 111.962 513.685 112.408 514.145C112.709 514.454 112.702 514.949 112.393 515.25C112.083 515.551 111.588 515.544 111.287 515.234C110.93 514.867 110.539 514.554 110.119 514.292C108.97 513.574 107.799 513.306 106.943 513.285L106.764 513.284L106.657 513.281C105.893 513.211 105.673 512.138 106.409 511.794L106.697 511.663C106.925 511.562 107.185 511.448 107.473 511.327C108.295 510.98 109.18 510.632 110.096 510.308C111.198 509.918 112.27 509.587 113.287 509.335C113.592 509.259 113.891 509.191 114.182 509.131L114.413 509.085L114.183 508.915C113.783 508.628 113.379 508.365 112.974 508.124L112.569 507.891C112.287 507.734 112.021 507.597 111.774 507.479L111.535 507.368C111.354 507.286 111.229 507.235 111.17 507.213C110.527 506.974 110.483 506.081 111.099 505.779L111.845 505.421L112.107 505.299C112.875 504.941 113.675 504.582 114.465 504.247L115.165 503.956C115.279 503.909 115.392 503.864 115.504 503.819L116.166 503.562C116.273 503.521 116.378 503.482 116.482 503.444L117.092 503.227L117.023 503.189L116.702 503.03L116.37 502.88C115.363 502.445 114.276 502.153 113.187 501.979C112.901 501.933 112.631 501.898 112.38 501.872L111.866 501.831C111.82 501.828 111.785 501.827 111.76 501.826C111.329 501.816 110.987 501.457 110.998 501.026C111.008 500.594 111.366 500.253 111.798 500.263Z" fill="#E4EBF7"/>
<path d="M113.279 492.963C112.193 493.057 111.28 493.183 110.61 493.302L110.347 493.35C110.26 493.367 110.176 493.399 110.099 493.444C109.188 493.981 108.749 494.683 108.912 495.471C109.029 496.036 109.418 496.483 109.976 496.879C110.316 497.12 110.648 497.293 110.886 497.395L110.977 497.452L111.8 497.914C112.063 498.059 112.343 498.212 112.639 498.372C114.05 499.134 115.534 499.895 117.025 500.606C118.003 501.073 118.953 501.503 119.864 501.888C122.917 503.18 125.368 503.908 127.073 503.907C129.519 503.906 130.522 502.329 129.542 499.634C128.057 495.545 124.218 493.49 118.934 492.965C117.087 492.781 115.172 492.799 113.279 492.963ZM118.779 494.521C123.405 494.98 126.66 496.67 127.97 499.903L128.072 500.168C128.693 501.876 128.396 502.343 127.072 502.344C125.639 502.344 123.343 501.662 120.473 500.448C119.585 500.073 118.656 499.652 117.699 499.195C116.233 498.496 114.771 497.746 113.382 496.996L112.557 496.545L111.585 496C111.357 495.896 111.115 495.769 110.88 495.603C110.616 495.416 110.461 495.237 110.444 495.155L110.444 495.143C110.451 495.112 110.505 495.042 110.695 494.915L110.78 494.86L111.106 494.803C111.707 494.704 112.494 494.601 113.415 494.521C115.217 494.364 117.038 494.348 118.779 494.521Z" fill="#E4EBF7"/>
<path fill-rule="evenodd" clip-rule="evenodd" d="M270.184 267.42C263.958 256.297 250.67 251.989 240.754 257.885L134.163 321.263C125.954 326.144 123.514 337.395 128.669 346.606C133.825 355.817 144.688 359.624 153.143 355.18L262.917 297.49C273.127 292.124 276.408 278.544 270.184 267.42Z" fill="#FFC999"/>
<path fill-rule="evenodd" clip-rule="evenodd" d="M89.5502 496.585C82.8989 494.338 79.2059 487.239 81.1862 480.505L123.541 336.425C126.593 326.046 137.664 320.287 147.912 323.748C158.162 327.209 163.477 338.5 159.612 348.604L105.95 488.865C103.441 495.424 96.203 498.831 89.5502 496.585Z" fill="#FFC999"/>
<path fill-rule="evenodd" clip-rule="evenodd" d="M77.8516 490.952L101.878 500.076L117.397 461.88L89.8157 451.404L77.8516 490.952Z" fill="white"/>
<path d="M85.8776 462.568C86.0159 462.197 86.4057 461.993 86.7814 462.078L86.8833 462.109L110.536 470.927C110.941 471.078 111.147 471.529 110.996 471.933C110.857 472.304 110.468 472.508 110.092 472.423L109.99 472.392L86.337 463.574C85.9324 463.423 85.7268 462.973 85.8776 462.568Z" fill="#E4EBF7"/>
<path fill-rule="evenodd" clip-rule="evenodd" d="M79.6478 485.17L104.181 494.317L88.6673 539.719L33.3867 519.108L35.8249 512.16C36.7284 509.608 39.3308 508.072 42.0016 508.513L58.2854 509.669L67.4251 508.187C70.1781 507.74 72.4581 505.825 73.3646 503.186C75.3099 497.516 78.6211 487.902 79.6478 485.17Z" fill="#218D56"/>
<path fill-rule="evenodd" clip-rule="evenodd" d="M32.0144 520.684C31.4927 520.489 31.2265 519.906 31.4212 519.385L33.7255 513.205C33.9202 512.682 34.5012 512.417 35.0229 512.612L90.1362 533.159C90.6579 533.354 90.9241 533.935 90.7294 534.456L88.4251 540.638C88.2304 541.161 87.6494 541.426 87.1262 541.231L32.0144 520.684Z" fill="#CCD7EE"/>
<path fill-rule="evenodd" clip-rule="evenodd" d="M34.0078 511.977C35.4604 508.082 41.0455 505.816 45.1233 506.628L56.8182 509.259L54.0196 519.283L34.0078 511.977Z" fill="#CCD7EE"/>
<path d="M34.0253 512.408C34.0928 512.227 34.2777 512.124 34.4615 512.153L34.5399 512.173L89.6501 532.72C89.8571 532.797 89.9624 533.028 89.8852 533.235C89.8177 533.416 89.6328 533.519 89.449 533.49L89.3706 533.47L34.2604 512.923C34.0534 512.846 33.9481 512.615 34.0253 512.408Z" fill="#A3B5D6"/>
<path d="M70.7656 504.69C71.0779 504.392 71.5728 504.403 71.8709 504.716L72.025 504.884C72.1718 505.049 72.3624 505.277 72.5831 505.561C73.0938 506.218 73.5847 506.952 74.0172 507.748C74.7705 509.135 75.2667 510.561 75.4127 511.998C75.4799 512.66 74.7417 513.098 74.1928 512.722C73.568 512.293 72.4913 511.762 71.104 511.177C70.434 510.894 69.7227 510.612 68.9988 510.338L68.508 510.154L68.5467 510.283C68.6314 510.583 68.711 510.896 68.784 511.221L68.8885 511.717C69.0629 512.605 69.1765 513.524 69.216 514.466C69.2447 515.15 68.4424 515.538 67.924 515.09C67.1469 514.42 66.1164 513.735 64.8913 513.055C64.1061 512.62 63.2714 512.202 62.4155 511.807L61.7359 511.501L61.7988 511.633C62.2104 512.556 62.4571 513.552 62.4911 514.613L62.4945 514.969C62.489 515.401 62.1345 515.746 61.7028 515.741C61.271 515.735 60.9255 515.381 60.9311 514.949C60.9446 513.897 60.6967 512.918 60.2537 512.021C60.0214 511.551 59.7504 511.134 59.4663 510.778L59.3141 510.594C59.2223 510.487 59.1512 510.413 59.1086 510.373C58.4893 509.792 59.1111 508.779 59.9098 509.068L60.419 509.261L61.0467 509.511C61.2657 509.6 61.4941 509.695 61.7304 509.795C63.0822 510.369 64.4192 511.005 65.6501 511.688C66.2329 512.012 66.7769 512.338 67.2779 512.666L67.4874 512.806L67.4432 512.509L67.3543 512.019C67.2031 511.249 67.011 510.547 66.7993 509.929L66.6535 509.523C66.596 509.372 66.5492 509.26 66.5171 509.19C66.2315 508.566 66.8306 507.904 67.4801 508.125L68.309 508.417C68.4696 508.475 68.6372 508.535 68.8109 508.599C69.8042 508.964 70.793 509.349 71.7115 509.736C72.28 509.976 72.8004 510.207 73.2673 510.43L73.5228 510.554L73.4521 510.328C73.2878 509.839 73.0804 509.349 72.8347 508.86L72.6433 508.495C72.2543 507.779 71.8098 507.114 71.3483 506.52L71.1284 506.244C70.9585 506.035 70.8243 505.884 70.7397 505.795C70.4416 505.483 70.4532 504.988 70.7656 504.69Z" fill="#E4EBF7"/>
<path d="M74.3019 500.612C72.6612 500.599 71.9179 501.552 72.211 502.843C72.2803 503.148 72.4014 503.456 72.5593 503.763C72.7012 504.04 72.843 504.262 72.9453 504.404L73.0801 504.653L73.5996 505.555C73.7854 505.873 73.9841 506.209 74.1945 506.56C75.1966 508.232 76.2588 509.905 77.3358 511.468C78.1894 512.707 79.0181 513.827 79.8111 514.799C81.4941 516.864 82.9558 518.203 84.2227 518.684C86.0143 519.363 87.3242 518.34 87.7937 515.923C88.6287 511.62 86.3556 507.861 82.037 504.68C80.5357 503.574 78.8761 502.608 77.1681 501.782C76.3087 501.367 75.5627 501.045 74.9869 500.82L74.5617 500.659C74.4784 500.629 74.3905 500.613 74.3019 500.612ZM73.9798 502.177L74.1533 502.175L74.6331 502.362C75.1397 502.567 75.7709 502.844 76.4874 503.19C78.1147 503.977 79.6934 504.896 81.1096 505.939C84.9947 508.801 86.9542 512.041 86.2587 515.625C85.9558 517.184 85.5383 517.511 84.7771 517.222C83.8447 516.868 82.5412 515.673 81.0229 513.811C80.2589 512.874 79.4546 511.788 78.6234 510.581C77.5671 509.048 76.522 507.402 75.5356 505.756L74.95 504.767L74.2972 503.629C74.2842 503.606 74.2727 503.585 74.2628 503.567C74.153 503.406 74.0515 503.246 73.9502 503.049C73.8475 502.849 73.7724 502.658 73.7358 502.497L73.7109 502.377C73.6857 502.224 73.7262 502.185 73.9798 502.177Z" fill="#E4EBF7"/>
<path fill-rule="evenodd" clip-rule="evenodd" d="M202.044 142.004C199.288 149.168 194.124 161.526 193.887 169.49C193.502 182.402 202.462 191.427 202.462 191.427C202.462 191.427 202.309 187.646 205.218 220.852C243.925 225.155 267.882 216.475 267.882 216.475L266.58 207.706L271.482 186.475C271.482 186.475 274.771 178.476 281.44 160.673C286.078 148.296 284.762 133.398 283.528 125.466C283.001 122.068 280.436 119.344 277.073 118.623C265.324 116.106 260.948 116.279 260.948 116.279L259.378 108.732C259.112 107.439 257.932 106.542 256.616 106.624L228.474 108.399C227.265 108.475 226.261 109.36 226.035 110.551L224.48 118.724L207.279 123.236C204.58 123.944 202.659 126.335 202.549 129.124L202.044 142.004Z" fill="white"/>
<path d="M253.061 116.691C253.328 116.675 253.557 116.877 253.574 117.144C253.589 117.381 253.431 117.589 253.208 117.644L253.122 117.657L227.784 119.255C227.517 119.272 227.287 119.07 227.271 118.803C227.256 118.566 227.414 118.358 227.636 118.303L227.723 118.29L253.061 116.691Z" fill="#218D56"/>
<path d="M260.704 114.184C260.943 113.938 261.336 113.932 261.582 114.171C261.801 114.383 261.83 114.717 261.666 114.961L261.595 115.048L229.403 148.23C229.079 148.564 228.53 148.433 228.377 148.016L228.35 147.923L222.47 119.225C222.401 118.889 222.617 118.561 222.953 118.492C223.255 118.43 223.551 118.599 223.658 118.879L223.686 118.976L229.33 146.523L260.704 114.184Z" fill="#CCD7EE"/>
<path fill-rule="evenodd" clip-rule="evenodd" d="M218.089 153.22C215.58 158.136 217.221 163.999 221.755 166.317C226.291 168.634 232.002 166.525 234.515 161.61C237.026 156.694 235.385 150.83 230.849 148.514C226.313 146.196 220.601 148.304 218.089 153.22Z" fill="#CCD7EE"/>
<path fill-rule="evenodd" clip-rule="evenodd" d="M217.079 153.261C214.568 158.177 216.209 164.04 220.743 166.356C225.28 168.673 230.991 166.566 233.503 161.651C236.014 156.733 234.373 150.87 229.838 148.553C225.301 146.237 219.588 148.345 217.079 153.261Z" fill="#E4EBF7"/>
<path fill-rule="evenodd" clip-rule="evenodd" d="M218.915 153.974C216.965 157.791 218.24 162.344 221.761 164.143C225.284 165.941 229.719 164.304 231.667 160.488C233.617 156.67 232.343 152.118 228.823 150.32C225.301 148.521 220.865 150.157 218.915 153.974Z" fill="#218D56"/>
<path d="M283.485 124.984C283.752 124.96 283.987 125.156 284.011 125.422L284.17 127.284L284.288 128.783C284.367 129.808 284.444 130.88 284.518 131.985C284.66 134.114 284.779 136.199 284.865 138.186L284.906 139.171C285.082 143.701 285.07 147.336 284.821 149.764C284.562 152.298 283.292 156.485 281.251 161.904L281.051 162.432C280.653 163.477 280.232 164.556 279.79 165.663C278.906 167.877 277.971 170.122 277.026 172.323L275.911 174.887L274.845 177.275L274.763 177.446L266.635 207.915L268.09 216.864C268.124 217.076 268.015 217.281 267.83 217.374L267.746 217.407L267.1 217.583L266.937 217.625C266.277 217.798 265.5 217.99 264.613 218.197C262.081 218.787 259.166 219.377 255.908 219.927C240.23 222.576 222.9 223.379 205.069 221.22C204.837 221.192 204.659 221.003 204.644 220.77L204.519 219.272C204.369 217.613 204.098 214.773 203.728 210.989L202.465 198.22L201.907 192.646L201.602 192.152L201.24 191.549C201.051 191.231 200.851 190.889 200.643 190.526C199.652 188.796 198.661 186.925 197.736 184.979C196.486 182.351 195.455 179.792 194.718 177.376C194.046 175.175 193.633 173.142 193.518 171.312C193.225 166.671 193.598 163.011 194.702 159.248C195.289 157.246 196.082 155.191 197.249 152.58L197.725 151.532C197.977 150.989 198.329 150.239 198.719 149.409L201.642 143.243L201.446 135.43C201.44 135.193 201.606 134.991 201.831 134.944L201.917 134.934C202.155 134.928 202.356 135.094 202.403 135.319L202.413 135.406L202.612 143.335L202.566 143.553L198.771 151.577C198.604 151.936 198.466 152.235 198.369 152.449C197.087 155.279 196.241 157.435 195.63 159.52C194.559 163.172 194.197 166.72 194.483 171.251C194.594 172.998 194.991 174.959 195.643 177.094C196.365 179.459 197.379 181.975 198.609 184.563C199.523 186.486 200.503 188.336 201.483 190.045L201.881 190.733C202.01 190.952 202.134 191.161 202.254 191.36L202.784 192.224L202.858 192.436L205.066 214.764C205.267 216.848 205.417 218.447 205.509 219.488L205.579 220.306L206.393 220.401C223.295 222.323 239.727 221.584 254.681 219.15L255.747 218.973C258.715 218.472 261.395 217.938 263.757 217.401L264.394 217.255C265.126 217.084 265.781 216.924 266.357 216.776L267.064 216.59L265.664 207.966L265.674 207.764L273.856 177.12L274.645 175.361C274.829 174.944 275.023 174.505 275.225 174.045L275.429 173.577C276.61 170.869 277.79 168.062 278.892 165.304C279.332 164.202 279.751 163.128 280.147 162.088L280.707 160.594C282.507 155.721 283.626 151.942 283.859 149.666L283.915 149.048C284.094 146.796 284.099 143.626 283.96 139.765L283.94 139.209C283.851 136.94 283.718 134.525 283.553 132.049L283.44 130.423C283.402 129.891 283.363 129.368 283.324 128.857L283.048 125.51C283.023 125.244 283.219 125.009 283.485 124.984Z" fill="#218D56"/>
<path fill-rule="evenodd" clip-rule="evenodd" d="M257.223 226.597C280.348 226.597 293.194 307.108 309.15 337.463C306.883 343.325 296.004 352.89 296.004 352.89C296.004 352.89 296.496 357.815 296.81 360.777C284.435 368.817 261.958 371.408 261.958 371.408L261.445 375.536C224.605 387.717 179.445 366.978 179.445 366.978C179.445 366.978 178.671 365.985 179.664 362.815C163.782 360.839 132.005 336.829 132.005 336.829L136.418 328.722L102.195 285.267C102.195 285.267 168.806 244.986 187.846 233.45C204.978 223.067 201.979 221.458 201.979 221.458C201.979 221.458 233.45 226.597 257.223 226.597Z" fill="#218D56"/>
<path d="M153.093 305.063C153.276 304.791 153.645 304.72 153.917 304.904C154.158 305.067 154.241 305.377 154.127 305.634L154.075 305.727L133.44 336.228L133.659 336.432L134.342 337.052L134.599 337.28C135.859 338.395 137.349 339.639 139.061 340.98C143.958 344.812 149.647 348.646 156.068 352.224C163.405 356.313 171.237 359.803 179.516 362.509C179.827 362.611 179.997 362.946 179.895 363.257C179.794 363.568 179.459 363.738 179.147 363.637C170.793 360.906 162.892 357.385 155.491 353.26C149.014 349.651 143.273 345.783 138.33 341.914C136.772 340.694 135.394 339.552 134.203 338.512L133.813 338.169C133.544 337.931 133.297 337.708 133.072 337.503L132.365 336.845C132.317 336.799 132.28 336.763 132.252 336.736C132.073 336.56 132.026 336.295 132.125 336.072L132.176 335.98L153.093 305.063Z" fill="#11472B"/>
<path d="M275.048 282.555C275.332 282.475 275.626 282.616 275.747 282.874L275.78 282.965L297.897 361.278C297.974 361.551 297.847 361.84 297.594 361.968L297.351 362.089C297.182 362.172 296.956 362.28 296.676 362.412L296.01 362.72C295.43 362.985 294.79 363.269 294.092 363.568C291.306 364.763 288.178 365.957 284.78 367.071C277.368 369.502 269.739 371.209 262.176 371.871C261.85 371.899 261.562 371.658 261.534 371.332C261.505 371.005 261.746 370.718 262.073 370.689C269.537 370.035 277.079 368.348 284.41 365.944C287.774 364.841 290.869 363.659 293.625 362.478L294.423 362.131C294.808 361.962 295.173 361.798 295.515 361.642L296.473 361.195L296.62 361.124L274.639 283.287C274.559 283.004 274.699 282.71 274.958 282.589L275.048 282.555Z" fill="#11472B"/>
<path d="M250.025 216.706C250.319 216.681 250.581 216.875 250.651 217.152L250.67 217.287L251.929 232.397C252.132 234.867 252.342 237.447 252.56 240.128L253.215 248.255C254.196 260.508 255.17 273.025 256.106 285.496L256.724 293.799C257.182 299.998 257.62 306.07 258.038 311.992L258.665 320.999C260.136 342.429 261.261 361.051 261.963 376.098C261.977 376.387 261.78 376.643 261.497 376.705C240.051 381.4 217.414 379.456 195.706 373.367C191.097 372.073 186.907 370.688 183.216 369.301L182.275 368.944C181.515 368.652 180.817 368.374 180.182 368.114L179.33 367.758L178.611 367.446C178.367 367.336 178.231 367.079 178.268 366.821L178.29 366.725L219.605 237.346C219.704 237.034 220.038 236.862 220.35 236.962C220.631 237.051 220.799 237.331 220.757 237.613L220.735 237.707L179.583 366.576L180.265 366.864L181.017 367.173C181.669 367.436 182.384 367.717 183.16 368.012L183.633 368.191C187.293 369.566 191.451 370.941 196.027 372.224C217.237 378.175 239.334 380.135 260.278 375.753L260.754 375.65L260.496 370.371C259.808 356.781 258.819 340.654 257.576 322.468L257.207 317.114L256.674 309.529C256.311 304.417 255.933 299.198 255.541 293.886L254.923 285.584C253.988 273.116 253.013 260.601 252.032 248.349L250.66 231.442L249.485 217.348C249.457 217.021 249.699 216.734 250.025 216.706Z" fill="#11472B"/>
<path d="M235.646 217.377C235.94 217.394 236.172 217.622 236.202 217.906L236.205 218.003L230.102 326.908C230.084 327.235 229.804 327.485 229.477 327.468C229.183 327.45 228.95 327.222 228.92 326.938L228.918 326.841L235.02 217.937C235.039 217.609 235.319 217.359 235.646 217.377Z" fill="#11472B"/>
<path d="M210.926 228.635C211.117 228.369 211.488 228.308 211.754 228.499C211.99 228.669 212.065 228.98 211.944 229.234L211.89 229.327L166.821 292.127C166.63 292.393 166.26 292.454 165.993 292.263C165.757 292.093 165.682 291.782 165.803 291.527L165.857 291.435L210.926 228.635Z" fill="#11472B"/>
<path fill-rule="evenodd" clip-rule="evenodd" d="M152.593 249.465L225.833 245.701L156.741 216.528L95.7812 225.607L152.593 249.465Z" fill="#11472B"/>
<path fill-rule="evenodd" clip-rule="evenodd" d="M150.412 244.156L203.604 241.421L154.668 220.267L109.15 226.828L150.412 244.156Z" fill="#218D56"/>
<path fill-rule="evenodd" clip-rule="evenodd" d="M225.394 249.413L225.844 245.726L151.16 248.978L151.986 253.053L225.394 249.413Z" fill="white"/>
<path d="M144.331 222.498C144.396 222.366 144.541 222.3 144.679 222.332L144.746 222.356L184.316 241.814C184.47 241.89 184.533 242.076 184.458 242.23C184.393 242.361 184.247 242.427 184.11 242.395L184.042 242.371L144.472 222.913C144.318 222.837 144.255 222.651 144.331 222.498Z" fill="#CCD7EE"/>
<path d="M150.026 220.888C150.088 220.755 150.233 220.688 150.371 220.717L150.439 220.74L194.774 241.628C194.929 241.701 194.996 241.886 194.923 242.041C194.86 242.173 194.715 242.241 194.578 242.212L194.51 242.189L150.174 221.301C150.019 221.228 149.953 221.043 150.026 220.888Z" fill="#CCD7EE"/>
<path d="M143.315 226.174C143.382 226.043 143.529 225.98 143.665 226.014L143.732 226.039L176.904 242.926C177.056 243.004 177.117 243.191 177.04 243.343C176.973 243.474 176.826 243.538 176.689 243.504L176.622 243.479L143.451 226.592C143.298 226.514 143.237 226.327 143.315 226.174Z" fill="#CCD7EE"/>
<path d="M133.741 226.114C133.808 225.984 133.954 225.92 134.091 225.954L134.158 225.979L167.33 242.868C167.482 242.946 167.543 243.132 167.465 243.285C167.399 243.416 167.252 243.479 167.115 243.446L167.048 243.421L133.877 226.532C133.724 226.454 133.663 226.267 133.741 226.114Z" fill="#CCD7EE"/>
<path d="M124.835 226.676C124.901 226.546 125.048 226.482 125.185 226.516L125.252 226.541L158.423 243.428C158.576 243.506 158.637 243.693 158.559 243.846C158.492 243.977 158.346 244.04 158.209 244.006L158.142 243.981L124.97 227.094C124.818 227.016 124.757 226.829 124.835 226.676Z" fill="#CCD7EE"/>
<path d="M195.287 238.248C195.458 238.245 195.6 238.381 195.603 238.553C195.605 238.7 195.505 238.824 195.369 238.859L195.298 238.868L149.945 239.644C149.773 239.647 149.632 239.51 149.629 239.339C149.626 239.192 149.726 239.067 149.863 239.033L149.934 239.024L195.287 238.248Z" fill="#CCD7EE"/>
<path d="M185.727 233.693C185.898 233.69 186.039 233.826 186.042 233.998C186.045 234.144 185.945 234.269 185.808 234.304L185.737 234.313L140.386 235.09C140.215 235.093 140.073 234.957 140.07 234.785C140.068 234.639 140.168 234.514 140.304 234.479L140.375 234.47L185.727 233.693Z" fill="#CCD7EE"/>
<path d="M173.666 230.053C173.837 230.05 173.979 230.186 173.981 230.358C173.984 230.504 173.884 230.629 173.747 230.664L173.677 230.673L128.323 231.449C128.152 231.452 128.011 231.315 128.008 231.144C128.005 230.997 128.105 230.872 128.242 230.838L128.313 230.828L173.666 230.053Z" fill="#CCD7EE"/>
<path d="M165.998 222.974C166.169 222.971 166.311 223.108 166.314 223.279C166.316 223.426 166.216 223.551 166.08 223.585L166.009 223.595L120.655 224.372C120.484 224.375 120.343 224.238 120.34 224.067C120.337 223.92 120.437 223.795 120.574 223.761L120.645 223.751L165.998 222.974Z" fill="#CCD7EE"/>
<path fill-rule="evenodd" clip-rule="evenodd" d="M151.928 253.049L148.663 252.986L94.9763 229.651L82.4844 133.386L141.037 151.67L151.928 253.049Z" fill="white"/>
<path fill-rule="evenodd" clip-rule="evenodd" d="M148.546 252.979L91.9273 228.397C91.4117 228.174 91.0482 227.693 90.9752 227.133L78.8696 134.611C78.7175 133.447 79.8232 132.52 80.9427 132.871L136.474 150.294C137.083 150.486 137.521 151.018 137.589 151.652L148.546 252.979Z" fill="#11472B"/>
<path fill-rule="evenodd" clip-rule="evenodd" d="M294.796 229.931L293.571 230.15C285.174 231.642 277.155 226.047 275.662 217.649L261.881 140.182C260.389 131.785 265.987 123.767 274.382 122.272L275.608 122.055C284.004 120.561 292.024 126.158 293.517 134.556L307.297 212.022C308.79 220.419 303.193 228.438 294.796 229.931Z" fill="#FFC999"/>
<path fill-rule="evenodd" clip-rule="evenodd" d="M299.452 167.909L293.032 131.822C291.485 123.122 283.101 117.271 274.401 118.817C265.702 120.366 259.85 128.749 261.396 137.448L267.756 173.195L299.452 167.909Z" fill="white"/>
<path d="M293.404 131.264C293.638 131.222 293.862 131.356 293.942 131.571L293.965 131.655L300.384 167.744C300.425 167.979 300.29 168.204 300.074 168.283L299.99 168.305L267.154 173.971C266.923 174.011 266.702 173.88 266.621 173.668L266.597 173.585L261.03 144.464C260.98 144.202 261.152 143.949 261.414 143.898C261.648 143.854 261.874 143.985 261.956 144.199L261.98 144.283L267.457 172.936L299.346 167.434L293.013 131.825C292.971 131.591 293.105 131.367 293.32 131.287L293.404 131.264Z" fill="#218D56"/>
<path fill-rule="evenodd" clip-rule="evenodd" d="M199.558 227.313C199.912 231.789 203.725 235.194 208.212 235.044L294.839 232.13C302.791 231.599 308.776 224.671 308.146 216.726C307.511 208.712 300.397 202.796 292.4 203.631L206.509 218.372C202.23 219.105 199.214 222.984 199.558 227.313Z" fill="#FFC999"/>
<path fill-rule="evenodd" clip-rule="evenodd" d="M216.08 234.521C210.017 239.267 190.382 237.381 190.382 237.381L177.728 244.482C175.759 245.39 175.212 244.076 174.219 244.128C171.54 244.268 171.394 241.455 171.394 241.455C170.448 241.064 168.997 241.848 168.463 239.324C168.463 239.324 166.582 239.288 166.329 237.019C166.197 235.82 177.503 217.824 177.503 217.824L195.742 217.375C195.742 217.375 222.375 216.491 225.669 222.304C228.962 228.118 216.08 234.521 216.08 234.521Z" fill="#FFC999"/>
<path d="M177.132 216.559L210.13 217.432C210.462 217.441 210.723 217.717 210.714 218.048C210.706 218.346 210.482 218.588 210.196 218.627L210.099 218.632L177.443 217.768L175.881 220.276L174.316 222.809C174.058 223.23 173.8 223.649 173.545 224.067L171.328 227.723C168.544 232.363 166.597 235.858 166.542 236.265L166.541 236.287C166.578 236.617 166.341 236.914 166.011 236.95C165.682 236.987 165.385 236.75 165.348 236.42C165.277 235.78 166.627 233.264 169.4 228.606L171.017 225.914C171.995 224.295 173.03 222.605 174.075 220.912L176.608 216.84C176.705 216.686 176.865 216.585 177.042 216.563L177.132 216.559Z" fill="#DD936F"/>
<path d="M184.17 222.054C184.471 221.916 184.828 222.049 184.966 222.35C185.09 222.621 184.995 222.936 184.755 223.098L184.67 223.145L177.972 226.214L168.962 239.659C168.796 239.907 168.477 239.991 168.215 239.871L168.129 239.823C167.882 239.657 167.797 239.339 167.917 239.076L167.965 238.991L177.07 225.407C177.116 225.338 177.176 225.279 177.245 225.235L177.318 225.195L184.17 222.054Z" fill="#DD936F"/>
<path d="M185.59 226.912C185.89 226.77 186.247 226.897 186.389 227.197C186.517 227.467 186.426 227.783 186.189 227.947L186.104 227.996L180.806 230.505L171.864 241.826C171.681 242.058 171.363 242.118 171.112 241.985L171.021 241.925C170.79 241.743 170.729 241.424 170.863 241.173L170.922 241.083L179.952 229.651C179.991 229.602 180.036 229.56 180.086 229.526L180.166 229.48L185.59 226.912Z" fill="#DD936F"/>
<path d="M190.988 229.494C191.279 229.337 191.643 229.447 191.8 229.738C191.942 230.001 191.868 230.322 191.639 230.498L191.557 230.551L184.219 234.502L174.967 244.154C174.763 244.367 174.44 244.397 174.203 244.24L174.118 244.172C173.906 243.968 173.876 243.646 174.033 243.408L174.1 243.324L183.417 233.605L183.565 233.492L190.988 229.494Z" fill="#DD936F"/>
<path d="M101.828 284.801C102.057 284.621 102.377 284.636 102.587 284.822L102.661 284.9L136.883 328.355C137.086 328.612 137.042 328.985 136.784 329.188C136.555 329.368 136.235 329.353 136.025 329.167L135.951 329.089L101.729 285.634C101.526 285.377 101.57 285.004 101.828 284.801Z" fill="#11472B"/>
</svg>
