<svg width="200" height="195" viewBox="0 0 200 195" fill="none" xmlns="http://www.w3.org/2000/svg">
<path opacity="0.1" d="M102.506 194.298C156.35 194.298 200 188.664 200 181.714C200 174.765 156.35 169.131 102.506 169.131C48.6612 169.131 5.01172 174.765 5.01172 181.714C5.01172 188.664 48.6612 194.298 102.506 194.298Z" fill="black"/>
<path d="M80.2144 113.434C80.2144 113.434 87.9874 116.359 96.0259 106.374L104.375 111.203C104.375 111.203 98.8862 127.22 82.5702 125.645C82.5702 125.645 77.9914 120.342 80.2144 113.438V113.434Z" fill="#F6CBB4"/>
<path d="M47.3318 114.64C47.3318 114.64 51.6527 102.121 67.8169 107.007C67.8169 107.007 70.2714 107.307 70.9011 110.478L82.9683 111.358L83.6967 123.706L46.8652 121.017L47.3318 114.636V114.64Z" fill="#C88B62"/>
<path d="M101.074 110.497C101.074 110.497 98.7487 122.546 80.168 120.998L80.7977 124.435C80.7977 124.435 95.4977 125.998 102.254 115.448L104.378 111.199L101.074 110.494V110.497Z" fill="#DDA790"/>
<path d="M13.9023 129.086C14.3424 132.804 14.7824 136.518 15.2187 140.236C15.5298 142.865 15.8408 145.497 16.1519 148.126C16.7247 152.963 17.2938 157.8 17.8666 162.636C18.5418 168.338 19.2133 174.044 19.8885 179.745C20.0099 180.762 19.9834 181.407 21.0494 181.839C30.1463 185.542 39.9298 187.606 49.7551 187.769C57.3725 187.894 64.9178 186.634 72.0838 184.043C73.1346 183.664 73.7454 183.364 74.0337 182.306C74.231 181.57 74.3106 180.781 74.4434 180.034C75.5625 173.846 76.6816 167.659 77.8007 161.476C79.0753 154.431 80.3499 147.383 81.6246 140.338C82.076 137.834 82.5312 135.334 82.9827 132.831L13.9061 129.09L13.9023 129.086Z" fill="#E2883E"/>
<path d="M79.5028 133.118C79.5028 133.118 57.2917 150.588 16.1545 148.122L14.125 130.948L79.5028 133.118Z" fill="#B15627"/>
<path d="M87.329 124.912L87.0597 132.537C86.8548 138.004 71.3696 141.186 49.8185 140.515C28.2674 139.847 10.4833 134.98 10.104 129.646L9.33008 122.807L87.3328 124.912H87.329Z" fill="#CA6D34"/>
<path d="M9.27765 122.489C9.6608 127.822 27.4411 132.686 48.9922 133.357C70.5433 134.025 87.7052 130.246 87.3259 124.913C86.9427 119.579 69.1624 114.716 47.6114 114.044C26.0603 113.376 8.8983 117.155 9.27765 122.489Z" fill="#E2883E"/>
<path d="M83.9093 125.021C84.0854 120.309 68.3555 115.895 48.7757 115.163C29.1959 114.432 13.1805 117.659 13.0044 122.372C12.8283 127.085 28.5581 131.498 48.138 132.23C67.7178 132.962 83.7331 129.734 83.9093 125.021Z" fill="#965822"/>
<mask id="mask0_468_9464" style="mask-type:luminance" maskUnits="userSpaceOnUse" x="12" y="115" width="72" height="18">
<path d="M83.9034 125.02C84.0795 120.307 68.3497 115.894 48.7699 115.162C29.19 114.431 13.1747 117.658 12.9986 122.371C12.8224 127.084 28.5523 131.497 48.1321 132.229C67.712 132.96 83.7273 129.733 83.9034 125.02Z" fill="white"/>
</mask>
<g mask="url(#mask0_468_9464)">
<path d="M12.9372 128.228C13.1496 128.664 15.1905 129.324 17.6943 129.533C18.214 129.579 18.7602 129.609 19.2155 129.677C20.2359 129.829 20.3763 130.064 20.8694 130.269C21.575 130.557 23.2328 130.811 24.9058 130.887C25.2737 130.902 25.6493 130.914 25.9983 130.948C26.9088 131.039 27.1326 131.244 27.5688 131.407C28.2555 131.661 29.7198 131.862 31.1879 131.976C32.6522 132.09 34.1392 132.132 35.6149 132.181C36.2788 132.204 36.9654 132.23 37.6369 132.264C38.4525 132.306 39.2605 132.363 40.0382 132.446C41.0738 132.556 41.9881 132.704 42.9554 132.837C43.7597 132.947 44.6094 133.046 45.4781 133.129C48.7292 133.444 52.3103 133.577 55.3186 133.478C55.7814 133.463 56.2518 133.444 56.7715 133.467C57.2571 133.49 57.7085 133.55 58.1675 133.603C59.9505 133.801 62.0445 133.846 63.5278 133.729C64.3055 133.664 64.9466 133.558 65.8722 133.543C66.5209 133.535 67.2303 133.569 67.9207 133.596C71.1604 133.71 74.1611 133.505 75.5116 133.084C76.0161 132.924 76.3158 132.735 77.0707 132.61C77.6739 132.511 78.5123 132.465 79.2141 132.386C79.4075 132.363 79.5934 132.34 79.7679 132.317C80.7087 132.192 81.365 132.056 81.365 132.056C81.2246 130.618 79.3203 128.019 76.8279 127.625C76.312 127.541 75.7657 127.5 75.3181 127.329C74.3128 126.95 74.2104 126.176 73.7476 125.55C73.0837 124.67 71.4525 124.025 69.7795 123.979C69.4115 123.972 69.0322 123.987 68.687 123.911C67.7841 123.714 67.5944 123.061 67.1772 122.572C66.5247 121.802 65.0831 121.316 63.6226 121.119C62.1659 120.922 60.6712 120.975 59.188 120.986C58.5203 120.994 57.8337 120.99 57.1622 120.96C56.3466 120.922 55.5386 120.831 54.7647 120.652C53.7404 120.413 52.8414 120.03 51.8892 119.708C48.1298 118.445 43.3917 118.217 39.5185 119.12C39.0481 119.23 38.5701 119.355 38.0504 119.336C37.561 119.317 37.1172 119.173 36.6619 119.059C34.8979 118.627 32.7925 118.729 31.2751 119.313C30.4785 119.624 29.8146 120.068 28.8814 120.227C28.2251 120.341 27.5157 120.303 26.8215 120.307C23.5704 120.337 20.5129 121.396 19.0789 122.989C18.5402 123.592 18.2102 124.268 17.4249 124.776C16.8028 125.178 15.9454 125.44 15.2247 125.793C13.9652 126.4 12.9258 128.22 12.9258 128.22L12.9372 128.228Z" fill="#6A442C"/>
<path d="M36.7499 130.334L45.4826 133.133C48.7337 133.448 52.3148 133.581 55.323 133.482C55.7859 133.467 56.2563 133.448 56.776 133.471C57.2615 133.494 57.713 133.554 58.172 133.608C59.955 133.805 62.049 133.85 63.5323 133.733C64.3099 133.668 64.951 133.562 65.8767 133.547C66.5254 133.539 67.2348 133.573 67.9252 133.6C71.1649 133.714 74.1656 133.509 75.5161 133.088C76.0206 132.929 76.3203 132.739 77.0752 132.614C77.6784 132.515 78.5167 132.47 79.2185 132.39C79.412 132.367 79.5979 132.344 79.7724 132.322C79.1844 131.502 78.6381 130.857 78.6381 130.857C78.6381 130.857 79.0327 128.983 74.6284 128.566C74.6284 128.566 72.0563 128.065 72.1095 127.322C72.1095 127.322 72.6064 125.835 70.5541 125.322C70.5541 125.322 67.5117 125.015 67.1399 124.738C67.1399 124.738 65.6225 122.25 63.3388 122.276L58.2555 122.257C58.2555 122.257 55.839 123.221 56.9732 124.666C56.9732 124.666 59.1204 128.391 57.6978 129.154C57.6978 129.154 57.5726 130.895 50.8087 130.645C50.8087 130.645 38.6163 130.645 36.7461 130.33L36.7499 130.334Z" fill="#7B4F35"/>
</g>
<path d="M42.6544 124.822C37.7835 124.405 31.2169 121.044 27.1881 118.608C24.7261 117.163 20.9971 114.879 19.8249 112.019C17.8409 107.429 22.34 107.467 24.4644 104.788C20.2991 101.15 13.5655 99.5912 10.6142 94.3182C7.51485 88.59 11.7219 87.7288 16.6004 87.3988C13.1786 84.5195 6.22505 82.2813 3.93754 78.2867C1.28586 73.1654 10.03 73.1427 13.1862 72.1222C10.4207 71.2725 2.53773 67.0275 0.986171 64.5389C-2.48871 59.1825 4.03997 58.5679 7.86765 58.0785C6.8396 55.6696 1.47933 42.9499 5.91398 42.0167C10.7963 40.9356 15.3257 54.1712 17.0973 57.3388C18.3264 54.2016 24.0243 45.6282 25.0069 53.2873C25.7238 57.0429 22.1807 63.3098 21.9948 67.3575C25.5304 65.9653 31.6266 59.1218 32.0173 65.7225C32.3473 70.5972 29.9536 74.8536 28.44 80.0849C30.5568 78.1539 36.3761 73.0327 38.2918 76.6479C40.2076 80.2632 34.8207 87.4898 34.2631 91.1582C36.3723 89.9784 42.0474 84.4057 43.4245 89.4397C44.2211 92.6718 39.2174 98.7756 38.4398 101.765C40.3176 101.408 44.536 99.045 46.0231 100.559C48.1057 102.376 45.4313 107.975 44.6612 110.217C43.121 114.701 41.8122 118.365 42.6696 123.32" fill="#218D56"/>
<path d="M9.64273 51.542C13.2997 61.7921 17.8444 71.7577 22.1842 81.7272C27.1006 93.0281 32.1156 104.284 37.0283 115.584C38.3636 118.657 39.8886 121.741 40.9318 124.932C41.076 125.379 41.774 125.156 41.626 124.708C40.7573 122.049 39.5092 119.48 38.3977 116.916C36.2316 111.912 34.0314 106.928 31.8387 101.935C26.5809 89.9819 21.2965 78.0398 16.2245 66.0067C14.176 61.1472 12.1085 56.2801 10.3369 51.3144C10.1776 50.8743 9.4834 51.0943 9.64273 51.5382V51.542Z" fill="#218D56"/>
<path d="M7.45801 62.1522C10.5384 63.9503 13.9943 65.1718 16.5284 67.7817C16.7218 67.979 17.0784 67.8462 17.1277 67.5883C17.693 64.6862 17.7461 61.7273 18.1065 58.7987C18.1634 58.3358 17.4502 58.1765 17.3933 58.6431C17.0329 61.5717 16.9798 64.5307 16.4146 67.4328C16.6156 67.3683 16.8129 67.3038 17.0139 67.2393C14.4381 64.5876 10.9253 63.3357 7.79184 61.5072C7.38593 61.2683 7.05589 61.9207 7.45801 62.1559V62.1522Z" fill="#218D56"/>
<path d="M11.4605 75.3122C14.962 76.9699 18.6 78.4532 21.7828 80.7028C22.0142 80.8659 22.2949 80.7862 22.3821 80.5093C23.4064 77.2317 24.4989 73.9503 24.9731 70.5361C25.0376 70.0733 24.3244 69.914 24.2599 70.3806C23.7895 73.7947 22.6932 77.0761 21.6728 80.3538C21.8738 80.2893 22.0711 80.2248 22.2721 80.1603C19.0362 77.8728 15.3603 76.3554 11.7982 74.6672C11.3733 74.4662 11.0395 75.1149 11.4643 75.3159L11.4605 75.3122Z" fill="#218D56"/>
<path d="M17.3243 90.3568C21.1026 92.0487 24.8431 93.8279 28.6252 95.5084C28.8187 95.5957 29.1222 95.5084 29.1487 95.2618C29.4636 92.3674 30.2754 89.5488 30.3816 86.6315C30.4006 86.1611 29.6684 86.1953 29.6533 86.6619C29.5471 89.5146 28.7428 92.2725 28.4355 95.1025C28.61 95.0191 28.7845 94.9394 28.9591 94.8559C25.1769 93.1754 21.4365 91.3962 17.6581 89.7043C17.2294 89.5146 16.8956 90.1633 17.3243 90.353V90.3568Z" fill="#218D56"/>
<path d="M23.5714 101.461C26.7276 103.062 30.0166 104.401 33.0742 106.195C33.2601 106.305 33.5749 106.176 33.5977 105.949C33.905 102.679 34.842 99.5151 35.2858 96.2678C35.3503 95.805 34.6371 95.6456 34.5726 96.1122C34.1288 99.3595 33.1918 102.523 32.8845 105.793C33.059 105.71 33.2335 105.63 33.408 105.547C30.3466 103.752 27.0614 102.417 23.9014 100.812C23.4803 100.6 23.1503 101.249 23.5676 101.461H23.5714Z" fill="#218D56"/>
<path d="M30.6075 111.07C32.3639 112.344 34.4314 113.065 36.4078 113.923C36.6241 114.017 36.8744 113.915 36.9313 113.676C37.3486 111.851 37.709 110.011 38.3311 108.24C38.4867 107.796 37.7697 107.644 37.618 108.084C36.9958 109.856 36.6392 111.696 36.2181 113.52C36.3927 113.437 36.5672 113.357 36.7417 113.274C34.8297 112.443 32.7964 111.76 31.0969 110.527C30.7213 110.254 30.2282 110.797 30.6113 111.074L30.6075 111.07Z" fill="#218D56"/>
<path d="M52.831 125.77C46.9397 123.001 40.282 115.778 36.3747 110.877C33.9658 107.933 30.3619 103.362 30.214 99.2497C29.8536 92.5997 35.4566 94.7241 39.345 92.3531C35.817 85.8889 28.1237 80.8359 26.8681 72.8846C25.6389 64.3037 31.2913 65.1648 37.5355 67.0009C34.5879 61.8227 26.9325 55.8213 25.9159 49.7782C24.9637 42.157 35.8967 46.1592 40.3124 46.3413C37.2472 44.0044 29.3604 35.0669 28.5676 31.243C26.6936 22.9503 35.1342 25.1923 40.1454 26.3417C39.9709 22.8593 39.1402 4.49474 45.1112 5.37105C51.7119 6.27391 51.2643 24.9002 52.0192 29.6687C55.0009 26.3152 66.0743 18.2349 63.7678 28.2537C62.9294 33.2763 55.6155 39.475 53.5177 44.4445C58.5782 44.3345 69.3481 38.5949 66.795 47.0203C64.959 53.2645 60.0084 57.4753 55.7027 63.3173C59.2383 61.8796 68.8701 58.1657 69.5985 63.5677C70.3268 68.9697 60.2626 75.5098 57.8726 79.8382C61.0516 79.3375 70.71 74.9901 70.1106 81.9171C69.6136 86.3214 60.5509 91.6399 58.1989 95.0199C60.7102 95.4372 67.072 94.4357 68.229 97.0115C69.993 100.244 64.0713 106.006 62.0721 108.453C58.0813 113.347 54.7581 117.318 53.5404 123.904" fill="#218D56"/>
<path d="M45.379 18.9867C45.2197 33.478 46.3046 48.0262 47.1278 62.4834C48.061 78.8677 49.1384 95.2444 50.064 111.629C50.3144 116.086 50.8 120.638 50.6293 125.107C50.6065 125.733 51.5776 125.775 51.6004 125.145C51.7408 121.424 51.3652 117.638 51.1604 113.924C50.762 106.674 50.3144 99.4287 49.8706 92.183C48.8122 74.8238 47.7158 57.4646 46.9306 40.0901C46.6119 33.0759 46.2743 26.0427 46.3502 19.017C46.3577 18.3911 45.3866 18.3494 45.379 18.9791V18.9867Z" fill="#218D56"/>
<path d="M37.7557 31.2402C40.7716 34.9086 44.531 38.0268 46.4923 42.4539C46.6402 42.7877 47.1523 42.7877 47.3306 42.488C49.3716 39.1232 50.8055 35.451 52.6074 31.9572C52.892 31.4033 52.0764 30.876 51.788 31.4337C49.9899 34.9237 48.556 38.5997 46.5112 41.9645C46.792 41.9759 47.0689 41.9873 47.3496 41.9987C45.3542 37.4957 41.5417 34.3168 38.4689 30.5839C38.0706 30.0984 37.3574 30.7622 37.752 31.244L37.7557 31.2402Z" fill="#218D56"/>
<path d="M36.6923 49.525C40.3037 53.2123 44.1655 56.7403 47.1017 61.0156C47.318 61.3267 47.7049 61.357 47.9401 61.0497C50.7322 57.4269 53.6115 53.8306 55.7738 49.7829C56.0659 49.2329 55.2503 48.7056 54.9544 49.2594C52.7921 53.3071 49.9128 56.9034 47.1207 60.5262C47.4014 60.5376 47.6784 60.549 47.9591 60.5604C44.9736 56.2092 41.0776 52.6167 37.4055 48.8649C36.9692 48.4173 36.2522 49.0773 36.6885 49.525H36.6923Z" fill="#218D56"/>
<path d="M37.0752 71.0301C41.0167 74.8843 44.8671 78.8296 48.82 82.6762C49.0211 82.8735 49.4384 82.9077 49.5863 82.608C51.3124 79.1369 53.6264 75.992 55.1097 72.3958C55.3487 71.8154 54.4193 71.5232 54.1841 72.0999C52.7349 75.6165 50.455 78.6892 48.7707 82.0845C49.0249 82.0617 49.2828 82.0389 49.537 82.0162C45.5841 78.1733 41.7337 74.2242 37.7922 70.37C37.3446 69.9337 36.6276 70.59 37.0752 71.0301Z" fill="#218D56"/>
<path d="M39.7627 87.7828C42.9682 91.2425 46.4582 94.4291 49.4551 98.0785C49.6372 98.2985 50.0887 98.2871 50.2214 98.0102C52.1106 94.0649 54.7395 90.5483 56.7918 86.6941C57.0839 86.144 56.2683 85.6167 55.9724 86.1706C53.9201 90.0248 51.2912 93.5452 49.402 97.4867C49.6562 97.4639 49.9142 97.4411 50.1683 97.4184C47.1714 93.769 43.6814 90.5786 40.4758 87.1227C40.051 86.6637 39.334 87.3238 39.7589 87.7828H39.7627Z" fill="#218D56"/>
<path d="M44.123 103.028C45.7314 105.433 47.981 107.285 50.0523 109.269C50.2799 109.485 50.6403 109.477 50.8186 109.2C52.1842 107.114 53.4816 104.978 55.0711 103.055C55.4694 102.573 54.6462 102.053 54.2517 102.531C52.6584 104.455 51.361 106.59 49.9992 108.677C50.2533 108.654 50.5113 108.631 50.7655 108.608C48.7625 106.693 46.5319 104.898 44.9803 102.573C44.6351 102.057 43.774 102.509 44.1192 103.028H44.123Z" fill="#218D56"/>
<path d="M118.917 168.471C118.917 168.471 110.746 181.024 84.2332 177.754C84.2332 177.754 83.7628 177.112 83.4441 176.092C82.6247 173.482 82.8068 168.406 94.4378 165.315L83.3076 143.293L106.664 137.197L117.696 165.356L118.917 168.471Z" fill="#FFB526"/>
<path d="M118.919 168.47C118.919 168.47 110.747 181.023 84.2344 177.753C84.2344 177.753 83.764 177.112 83.4453 176.092C90.8465 175.853 108.809 174.275 117.697 165.356L118.919 168.47Z" fill="#494746"/>
<path d="M89.0526 123.247C89.0526 123.247 97.5387 117.47 103.874 118.073L108.733 134.343L87.8728 139.4C87.8728 139.4 84.1551 125.994 89.0526 123.247Z" fill="#F6CBB4"/>
<path d="M59.933 66.7012C59.933 66.7012 43.8711 51.1666 55.5021 35.7763C55.5021 35.7763 50.9157 20.4504 61.9094 16.232C61.9094 16.232 77.4477 -10.9639 105.702 5.04861C107.864 6.27392 109.936 7.522 111.848 9.13046C113.646 10.6441 115.292 12.355 116.631 14.2897C118.077 16.3799 118.52 19.1985 120.098 21.0991C120.705 21.8312 121.517 22.3623 122.34 22.8365C126.585 25.272 132.272 24.9988 135.997 28.1513C137.367 29.3083 138.349 30.8409 138.782 32.5859C139.339 34.8355 137.894 36.8347 138.391 39.0159C139.157 42.3656 143.387 42.047 145.417 44.0386C147.492 46.0757 147.928 50.59 146.422 53.0331L145.022 55.3054L142.427 54.1597L142.04 59.4821L138.653 57.0315C138.653 57.0315 141.118 66.4622 127.947 69.4098L126.669 63.196C126.669 63.196 123.308 68.837 121.043 70.4416L83.9688 84.2311C83.9688 84.2311 69.1968 90.2818 62.8843 79.3109L64.1324 85.1454C64.1324 85.1454 55.3276 82.7706 59.7547 71.8187C59.7547 71.8187 62.2015 69.2922 59.9368 66.705L59.933 66.7012Z" fill="#533343"/>
<path d="M119.513 71.0522C119.513 71.0522 134.072 71.811 145.476 80.5171C145.476 80.5171 158.192 94.7619 164.364 120.148L133.257 137.94L109.965 131.248C109.965 131.248 99.0733 83.3206 108.147 81.8031L119.513 71.0522Z" fill="#FFB526"/>
<path d="M120.151 152.462C120.151 152.462 101.377 167.716 105.409 179.855C105.409 179.855 108.209 190.545 127.852 189.138C130.492 188.948 150.298 181.987 156.599 174.233L150.879 161.012L120.155 152.466L120.151 152.462Z" fill="#F6CBB4"/>
<path d="M145.249 164.802C145.249 164.802 140.443 173.049 132.473 174.949C132.473 174.949 141.057 171.103 145.761 168.277L145.249 164.802Z" fill="#DDA790"/>
<path d="M197.76 162.89L197.741 162.902C192.48 166.915 180.985 164.738 180.985 164.738L158.543 178.956L151.176 164.992L166.536 148.585V148.577L168.766 146.195L176.168 146.734L176.035 148.57C182.51 149.609 193.026 154.131 193.026 154.131C201.873 159.191 198.034 162.647 197.757 162.886L197.76 162.89Z" fill="#FFB526"/>
<path d="M197.76 162.89L197.741 162.902C194.672 152.557 166.539 148.585 166.539 148.585V148.577L168.77 146.195L176.171 146.734L176.038 148.57C182.514 149.609 193.029 154.131 193.029 154.131C201.876 159.191 198.037 162.647 197.76 162.886V162.89Z" fill="#494746"/>
<path d="M92.1698 106.472C92.1698 106.472 98.156 84.6974 106.593 80.8735L105.899 112.675L92.166 106.469L92.1698 106.472Z" fill="#FFB526"/>
<path d="M104.541 75.9456C104.481 76.7991 111.503 86.5826 111.503 86.5826C111.503 86.5826 118.339 92.9254 121.791 71.2833L113.98 62.4823L104.541 75.9456Z" fill="#F6CBB4"/>
<path d="M116.851 66.3062C116.851 66.3062 113.964 77.114 108.733 82.6525L104.541 75.9456L113.979 62.4823L116.851 66.3024V66.3062Z" fill="#DDA790"/>
<path d="M61.0216 36.0826C61.0216 36.0826 55.8851 51.4692 68.4303 64.1358C71.23 66.962 71.7952 73.6386 74.0524 77.2387C78.836 84.8637 88.9686 86.328 97.0222 83.7256C106.643 80.6149 111.832 71.7873 116.62 63.5326C116.62 63.5326 118.258 60.7064 118.532 56.9546C118.516 57.1746 123.55 53.878 124.055 53.0207C129.336 44.0186 115.906 37.9831 115.315 46.0634C115.315 46.0634 96.1535 44.0566 92.9707 41.2607C92.9707 41.2607 77.9332 28.1427 61.0178 36.0788L61.0216 36.0826Z" fill="#F6CBB4"/>
<path d="M89.4879 43.6701C90.1063 43.4728 90.7853 43.3287 91.4985 43.2452C94.2223 42.9417 96.5325 43.6815 96.6463 44.8916C96.726 45.7527 95.66 46.667 93.9302 47.2208C93.3118 47.4181 92.6366 47.5623 91.9196 47.6457C89.1996 47.953 86.8894 47.217 86.7718 46.0031C86.6921 45.1382 87.7581 44.2239 89.4879 43.6701Z" fill="#533343"/>
<path d="M69.8074 52.2164C70.6647 51.966 71.3286 52.0456 71.6738 52.4326C72.4287 53.2785 71.4804 55.346 69.5608 57.0417C68.6049 57.8915 67.5161 58.5326 66.5791 58.8057C65.7218 59.0523 65.0617 58.9764 64.7127 58.5895C64.3447 58.1798 64.3675 57.4742 64.7658 56.6017C65.1641 55.7292 65.8963 54.7997 66.8219 53.9803C67.7817 53.1306 68.8704 52.4857 69.8036 52.2164H69.8074Z" fill="#533343"/>
<path d="M96.1383 56.3754C97.117 57.6993 98.4903 58.3366 99.2111 57.8055C99.928 57.2744 99.7194 55.7722 98.7407 54.4482C97.7619 53.1243 96.3887 52.487 95.6679 53.0181C94.9471 53.5492 95.1596 55.0514 96.1383 56.3754Z" fill="#7D3212"/>
<path d="M74.1173 66.4466C75.0164 67.6605 76.2758 68.2485 76.9359 67.7592C77.596 67.2698 77.4025 65.8928 76.5034 64.6826C75.6044 63.4725 74.3449 62.8807 73.6848 63.37C73.0248 63.8556 73.2182 65.2365 74.1173 66.4466Z" fill="#7D3212"/>
<path d="M82.9062 59.9974C83.7522 60.7561 84.325 61.697 84.5602 62.7136C84.6058 62.9716 84.6702 63.2219 84.6702 63.4875C84.7006 63.7455 84.6968 64.011 84.6816 64.2728C84.6816 64.5345 84.6133 64.8001 84.5944 65.0656C84.5451 65.3312 84.4768 65.5929 84.4199 65.8585L84.4047 65.9381V65.9533C84.4123 66.4275 84.5375 66.8144 84.7916 67.1786C85.0496 67.5314 85.4441 67.7628 85.8349 67.8463C86.2294 67.9373 86.6163 67.8994 86.9805 67.8273C87.3447 67.7514 87.6861 67.6111 88.0161 67.4593C87.8341 67.4669 87.6558 67.4707 87.4813 67.4859C87.3068 67.4935 87.1323 67.4783 86.9615 67.4859C86.6239 67.4556 86.2901 67.4214 86.0207 67.2886C85.7438 67.1748 85.5314 66.9927 85.41 66.7575C85.2772 66.5413 85.2165 66.2188 85.2393 65.9837L85.2241 66.0785C85.2962 65.7864 85.3796 65.4943 85.4441 65.1984C85.4821 64.8949 85.5541 64.599 85.5428 64.288C85.5807 63.6772 85.4783 63.0588 85.2886 62.4784C85.0913 61.9018 84.7651 61.3745 84.3554 60.9496C83.9495 60.5209 83.4563 60.1795 82.9062 60.0012V59.9974Z" fill="#7D3212"/>
<path d="M95.0227 62.7054C95.5007 63.4717 95.8535 64.3215 96.1001 65.213C96.3239 66.1082 96.4226 67.0453 96.3695 67.9823C96.2898 69.8563 95.5045 71.7682 94.063 73.1035C93.3346 73.7522 92.4659 74.2568 91.5251 74.5185C90.5843 74.7765 89.5904 74.8258 88.6534 74.6437C86.7642 74.3137 85.1254 73.1984 84.0215 71.7796C85.4592 72.857 87.0905 73.627 88.771 73.7598C90.4402 73.9191 92.1055 73.3653 93.2929 72.2576C94.4992 71.1688 95.2428 69.5718 95.4856 67.8912C95.6069 67.0491 95.6373 66.1803 95.55 65.3116C95.4628 64.4391 95.2693 63.578 95.019 62.7054H95.0227Z" fill="#7D3212"/>
<path d="M162.07 107.103C148.637 71.269 129.533 72.8736 129.533 72.8736C117.647 75.036 119.404 103.988 119.404 103.988L108.228 104.971C104.761 93.2525 108.736 82.6534 108.736 82.6534L106.574 79.4668C100.569 90.1494 107.056 118.305 107.056 118.305L103.877 118.074L111.271 142.83L124.525 145.137L117.678 153.426L145.761 168.277C165.492 157.109 170.086 146.552 170.086 146.552C176.884 131.954 162.074 107.103 162.074 107.103H162.07ZM150.511 121.484L148.223 118.783C126.961 93.3474 125.276 82.3878 125.276 82.3878C125.587 72.9078 133.357 76.3978 133.357 76.3978C153.242 81.447 160.852 115.885 160.852 115.885L150.507 121.484H150.511Z" fill="#243C58"/>
<path d="M123.301 109.318L142.663 116.465C142.663 116.465 146.248 100.946 143.805 88.943C143.805 88.943 137.765 71.0223 127.189 82.3802C127.189 82.3802 125.156 86.3369 124.534 92.4065L123.297 109.322L123.301 109.318Z" fill="#FFB526"/>
<path d="M109.43 112.933C109.323 111.905 120.78 110.861 120.78 110.861L124.793 127.644C124.793 127.644 116.163 134.616 112.335 128.137C112.335 128.137 110.564 123.93 109.426 112.933H109.43Z" fill="#2C4966"/>
<path d="M103.459 123.73C103.459 123.73 120.697 123.695 126.971 110.338L139.133 114.826C139.133 114.826 133.872 137.219 108.197 138.213L103.455 123.73H103.459Z" fill="#F6CBB4"/>
<path d="M158.72 121.078C172.889 138.099 155.245 156.999 140.033 164.419" stroke="#2C4966" stroke-width="3" stroke-miterlimit="10"/>
<path d="M75.3729 125.555C79.1171 125.289 80.6155 126.954 80.6155 126.954L74.709 127.364L75.3729 125.558V125.555Z" fill="#9E6239"/>
<path d="M74.7082 127.36C74.7082 127.36 74.2265 121.496 89.0516 123.248C89.0516 123.248 102.849 122.679 108.512 121.659L113.205 141.776C113.205 141.776 103.046 145.478 88.1487 145.391C88.1487 145.391 74.6475 151.711 65.4861 143.737C64.773 143.119 64.3519 142.212 64.2874 141.275C64.1319 138.995 62.2578 138.904 61.3702 136.912C60.3421 134.602 62.7776 133.669 64.4126 132.91C64.4126 132.91 61.5371 129.117 65.0309 128.369C65.0309 128.369 73.3615 128.119 74.7044 127.357L74.7082 127.36Z" fill="#C88B62"/>
<path d="M67.1698 133.601C65.7586 133.498 64.905 133.381 64.8785 133.381C64.6433 133.346 64.4801 133.13 64.5143 132.899C64.5484 132.664 64.7722 132.5 64.9961 132.531C65.0681 132.538 72.3062 133.517 79.6922 132.277C79.9198 132.239 80.1475 132.394 80.1854 132.629C80.2233 132.865 80.0678 133.085 79.8326 133.123C74.8479 133.957 69.939 133.802 67.166 133.601H67.1698Z" fill="#9E6239"/>
<path d="M68.4779 141.161C66.1373 140.99 64.4871 140.63 64.3164 140.592C64.085 140.539 63.9408 140.311 63.9901 140.08C64.0432 139.848 64.2709 139.704 64.5023 139.754C64.6085 139.776 75.2038 142.071 81.4214 137.644C81.6111 137.508 81.8805 137.553 82.0208 137.743C82.1574 137.936 82.1119 138.202 81.9184 138.342C77.8783 141.218 72.2714 141.434 68.4779 141.157V141.161Z" fill="#9E6239"/>
<path d="M72.5714 146.893C72.5714 146.893 72.5638 146.893 72.56 146.893C72.3248 146.874 72.1465 146.669 72.1654 146.434C72.1844 146.199 72.3893 146.02 72.6245 146.039C72.7193 146.047 78.2768 146.423 82.2259 143.433C82.4156 143.289 82.6849 143.327 82.8253 143.517C82.9694 143.706 82.9315 143.976 82.7418 144.116C78.5727 147.269 72.9545 146.923 72.5714 146.893Z" fill="#9E6239"/>
<path d="M115.656 155.387L144.028 171.213L152.59 164.961L120.398 148.247L115.656 155.387Z" fill="#2C4966"/>
</svg>
