<svg width="220" height="198" viewBox="0 0 220 198" fill="none" xmlns="http://www.w3.org/2000/svg">
<g clip-path="url(#clip0_464_7062)">
<path d="M106.094 82.3157L107.727 83.8L98.9818 93.4183L97.3492 91.934L106.094 82.3157Z" fill="black"/>
<path d="M112.111 89.1286C112.416 89.1286 112.718 89.0029 112.936 88.7583C113.341 88.3033 113.3 87.6055 112.844 87.2009L102.328 77.8597C101.872 77.4542 101.174 77.497 100.771 77.952C100.366 78.4071 100.407 79.1048 100.863 79.5094L111.379 88.8506C111.589 89.0372 111.851 89.1286 112.111 89.1286Z" fill="black"/>
<path d="M95.1408 85.9548L121.182 110.485L120.149 141.574H89.6301L95.1408 85.9548Z" fill="#DFEE45"/>
<path d="M126.697 42.411C126.697 42.411 122.619 43.2068 122.281 46.7337C121.943 50.2606 121.964 57.003 124.573 56.9059C127.183 56.8088 129.115 56.0835 129.115 56.0835L132.352 51.7351L126.697 42.411Z" fill="#CC8070"/>
<path d="M122.831 49.8513L121.288 52.1864C121.154 52.3891 121.299 52.6585 121.542 52.6585H123.084L122.831 49.8513Z" fill="#CC8070"/>
<path d="M126.819 55.9141L130.046 64.0121L136.346 60.3606L131.433 51.0641L126.819 55.9141Z" fill="#CC8070"/>
<path d="M124.251 47.74C124.251 47.74 123.089 47.502 122.977 48.0256C122.977 48.0256 122.911 48.3816 123.929 48.5672C124.947 48.7528 125.231 48.7005 125.389 48.3768C125.547 48.0532 124.805 47.8047 124.251 47.74Z" fill="#000402"/>
<path d="M124.184 50.1656C124.225 50.4455 124.037 50.7044 123.767 50.7444C123.495 50.7844 123.242 50.5892 123.201 50.3103C123.16 50.0304 123.348 49.7715 123.619 49.7315C123.89 49.6916 124.143 49.8857 124.184 50.1656Z" fill="#000402"/>
<path d="M127.086 56.6119C127.086 56.6119 129.019 55.8808 129.629 55.4924L127.919 58.7623L127.086 56.6119Z" fill="#000402"/>
<path d="M129.451 49.5381L128.39 47.3792C128.39 47.3792 126.402 47.8485 125.175 45.1593C125.175 45.1593 121.735 45.1983 121.006 43.8647C119.522 41.146 123.791 39.3478 127.185 40.9261C127.185 40.9261 136.62 40.0551 136.523 47.0841C136.456 51.9493 132.957 54.0997 132.957 54.0997L131.056 51.58L129.451 49.5381Z" fill="black"/>
<path d="M133.053 49.9692C132.932 50.9764 132.018 51.6951 131.011 51.5742C130.004 51.4533 129.285 50.5394 129.405 49.5323C129.525 48.5252 130.44 47.8065 131.447 47.9264C132.454 48.0463 133.174 48.9621 133.053 49.9692Z" fill="#CC8070"/>
<path d="M130.386 50.0634C130.386 50.0634 131.15 48.5403 132.182 49.3428" stroke="#000402" stroke-width="0.2738" stroke-miterlimit="10" stroke-linecap="round" stroke-linejoin="round"/>
<path d="M122.043 52.6909C122.043 52.6909 124.195 52.3939 124.426 53.4182L124.574 54.3882L122.301 54.2968L122.043 52.6909Z" fill="black"/>
<path d="M134.856 57.5381C134.856 57.5381 141.625 59.4581 144.263 68.6946C146.071 75.0249 148.699 94.5251 148.699 94.5251C148.699 94.5251 139.456 97.9263 129.081 93.8006C129.081 93.8006 125.582 67.6713 129.658 62.2206L134.856 57.5381Z" fill="white"/>
<path d="M112.587 82.5713C112.736 83.6859 112.988 84.8367 113.29 85.9707L113.601 85.9836L120.485 86.2681L121.16 83.2719L113.27 82.0575L112.587 82.5713Z" fill="#CC8070" stroke="white"/>
<path d="M134.536 80.3273L134.536 80.3273C135.125 80.324 135.64 80.7378 136.091 81.5144C136.533 82.2761 136.832 83.2564 137.022 84.0805L134.536 80.3273ZM134.536 80.3273L116.899 80.422L115.981 87.9815M134.536 80.3273L115.981 87.9815M115.981 87.9815L133.597 88.6285C134.58 88.6263 135.556 88.0303 136.24 87.1178C136.925 86.2031 137.248 85.0602 137.022 84.0807L115.981 87.9815Z" fill="white" stroke="white"/>
<path d="M108.82 86.2423L108.82 86.2425C109.782 87.7542 111.788 88.1997 113.3 87.2371C114.812 86.2744 115.257 84.2693 114.295 82.7575C113.332 81.2455 111.327 80.8002 109.815 81.7627C108.303 82.7253 107.858 84.7304 108.82 86.2423Z" fill="#CC8070" stroke="white"/>
<path d="M130.543 67.0168L130.543 67.0258L130.542 67.0348L128.989 85.7744C128.955 86.5609 129.352 87.3027 130.029 87.9093C130.71 88.5184 131.629 88.9477 132.512 89.0963C134.182 89.3776 135.804 88.3884 136.316 86.7738L136.316 86.7736C137.54 82.9168 139.423 75.895 140.06 67.5684L140.06 67.5683C140.235 65.2941 138.74 63.219 136.528 62.6315C133.592 61.8518 130.685 63.9815 130.543 67.0168Z" fill="white" stroke="white"/>
<path d="M140.113 71.3391C140.113 71.3391 139.14 79.3362 136.849 86.9335C136.336 88.6337 134.669 89.7141 132.903 89.5247L129.573 89.5456" stroke="white" stroke-width="0.5346" stroke-miterlimit="10"/>
<path d="M130.701 64.6757L128.98 79.8274H127.83" stroke="white" stroke-width="0.5346" stroke-miterlimit="10"/>
<path d="M124.947 124.048V132.504H106.561C106.561 132.504 105.242 126.375 114.551 126.375V124.048H124.947Z" fill="black"/>
<path d="M106.496 132.505H124.947V134.335H106.496V132.505Z" fill="black"/>
<path d="M138.054 103.987H141.317C146.163 103.987 149.385 100.059 149.26 95.2143C149.193 92.5717 148.551 90.4528 148.551 90.4528H122.223C115.18 90.4528 110.926 98.0443 114.289 103.986H129.924L138.054 103.987Z" fill="#218D56"/>
<path d="M125.692 101.546V124.048H113.028V98.7612C113.028 94.1729 116.747 90.4537 121.335 90.4537H131.234L125.692 101.546Z" fill="#218D56"/>
<path d="M165.868 64.0016C167.211 64.5776 167.915 66.0635 167.508 67.4666L155.529 98.8706L149.481 96.6022L161.966 65.7932C162.481 64.1597 164.294 63.3277 165.868 64.0016Z" fill="black"/>
<path d="M123.74 101.807H150.809V107.251H123.74V101.807Z" fill="black"/>
<path d="M93.8237 89.893L110.652 38.4635C111.02 37.3326 112.061 36.5739 113.246 36.5739H172.838C174.131 36.5739 175.253 37.4935 175.507 38.7605L185.385 87.8635L189.711 86.9935L179.833 37.8904C179.165 34.5701 176.222 32.1617 172.837 32.1617H113.244C110.14 32.1617 107.411 34.1455 106.456 37.0975L89.6295 88.5232L93.8237 89.893Z" fill="#DFEE45"/>
<path d="M99.5547 37.7457H185.652V36.7167C185.652 31.0146 180.953 26.434 175.253 26.5806L108.776 28.2836C103.646 28.4149 99.5547 32.6129 99.5547 37.7457Z" fill="#DFEE45"/>
<path d="M192.271 85.9549C192.271 86.3575 192.271 114.184 192.271 114.184L126.436 140.54L116.385 142.194L119.28 120.683L135.754 96.6973L158.74 85.9558L186.07 84.0844L192.271 85.9549Z" fill="#DFEE45"/>
<path d="M31.3885 85.9547H95.1426V134.335H29.9149L21.0896 101.151C18.1844 93.869 23.5484 85.9547 31.3885 85.9547Z" fill="#DFEE45"/>
<path d="M113.651 138.5H119.954C119.954 111.08 142.261 88.7725 169.682 88.7725H199.383V82.4689H169.682C138.787 82.4698 113.651 107.605 113.651 138.5Z" fill="#DFEE45"/>
<path d="M60.6974 64.5546H68.4746V85.9548H60.6974V64.5546Z" fill="#218D56"/>
<path d="M58.5229 60.4757H70.6484V64.5547H58.5229V60.4757Z" fill="#218D56"/>
<path d="M60.6974 64.5546H68.4746V66.1014H60.6974V64.5546Z" fill="#D3D3D3"/>
<path d="M45.101 53.9408H62.7383C64.3832 53.9408 65.7168 52.6071 65.7168 50.9622C65.7168 49.3173 64.3832 47.9836 62.7383 47.9836H45.1001C43.4552 47.9836 42.1215 49.3173 42.1215 50.9622C42.1224 52.6071 43.4561 53.9408 45.101 53.9408Z" fill="white"/>
<path d="M21.6176 29.1365H47.8393C50.2847 29.1365 52.2676 27.1536 52.2676 24.7081C52.2676 22.2626 50.2847 20.2798 47.8393 20.2798H21.6176C19.1721 20.2798 17.1892 22.2626 17.1892 24.7081C17.1892 27.1536 19.1711 29.1365 21.6176 29.1365Z" fill="white"/>
<path d="M30.0955 20.2798H36.7885C39.234 20.2798 41.2168 18.2969 41.2168 15.8514C41.2168 13.406 39.234 11.4231 36.7885 11.4231H30.0955C27.65 11.4231 25.6672 13.406 25.6672 15.8514C25.6672 18.2969 27.65 20.2798 30.0955 20.2798Z" fill="white"/>
<path d="M50.4883 96.861H37.0328" stroke="#218D56" stroke-width="4.2764" stroke-miterlimit="10" stroke-linecap="round" stroke-linejoin="round"/>
<path d="M82.3767 134.335H137.98V139.574H82.3767V134.335Z" fill="#DFEE45"/>
<path d="M82.3767 139.574H137.98V144.812H82.3767V139.574Z" fill="#218D56"/>
<path d="M168.406 177.663C145.227 177.663 126.436 158.873 126.436 135.694C126.436 112.515 145.227 93.7245 168.406 93.7245C191.585 93.7245 210.375 112.515 210.375 135.694C210.375 158.873 191.585 177.663 168.406 177.663Z" fill="#11472B"/>
<path d="M136.617 143.096C132.534 125.531 143.463 107.982 161.028 103.899C178.593 99.8162 196.142 110.745 200.225 128.31C204.307 145.875 193.378 163.424 175.813 167.507C158.248 171.59 140.7 160.66 136.617 143.096Z" fill="#218D56"/>
<path d="M168.406 158.23C155.959 158.23 145.87 148.14 145.87 135.694C145.87 123.248 155.959 113.158 168.406 113.158C180.852 113.158 190.941 123.248 190.941 135.694C190.941 148.14 180.852 158.23 168.406 158.23Z" fill="#FFFBE0"/>
<path d="M152.431 139.46C150.365 130.641 155.839 121.817 164.658 119.751C173.476 117.685 182.3 123.159 184.366 131.978C186.433 140.797 180.958 149.62 172.14 151.686C163.321 153.753 154.497 148.278 152.431 139.46Z" fill="#DFEE45"/>
<path d="M168.406 140.54C165.729 140.54 163.559 138.37 163.559 135.694C163.559 133.017 165.729 130.848 168.406 130.848C171.082 130.848 173.252 133.017 173.252 135.694C173.252 138.37 171.082 140.54 168.406 140.54Z" fill="#218D56"/>
<path d="M167.208 127.062C167.208 127.722 167.744 128.258 168.406 128.258C169.068 128.258 169.604 127.722 169.604 127.062C169.604 126.4 169.068 125.864 168.406 125.864C167.744 125.865 167.208 126.401 167.208 127.062Z" fill="#218D56"/>
<path d="M167.208 144.002C167.208 144.663 167.744 145.199 168.406 145.199C169.068 145.199 169.604 144.663 169.604 144.002C169.604 143.341 169.068 142.805 168.406 142.805C167.744 142.806 167.208 143.342 167.208 144.002Z" fill="#218D56"/>
<path d="M176.876 134.335C176.214 134.335 175.678 134.871 175.678 135.533C175.678 136.194 176.214 136.73 176.876 136.73C177.536 136.73 178.072 136.195 178.072 135.533C178.073 134.871 177.537 134.335 176.876 134.335Z" fill="#218D56"/>
<path d="M159.936 134.335C159.275 134.335 158.739 134.871 158.739 135.533C158.739 136.194 159.275 136.73 159.936 136.73C160.597 136.73 161.133 136.195 161.133 135.533C161.133 134.871 160.597 134.335 159.936 134.335Z" fill="#218D56"/>
<path d="M25.2696 151.97C22.5274 135.261 33.8499 119.498 50.5591 116.761C67.2683 114.023 83.0367 125.349 85.7789 142.058C88.5211 158.766 77.1987 174.53 60.4895 177.267C43.7803 180.004 28.0118 168.678 25.2696 151.97Z" fill="#11472B"/>
<path d="M46.5078 169.108C34.3054 164.143 28.4383 150.226 33.4033 138.023C38.3683 125.821 52.2852 119.954 64.4877 124.919C76.6901 129.884 82.5571 143.801 77.5921 156.003C72.6271 168.206 58.7102 174.073 46.5078 169.108Z" fill="#218D56"/>
<path d="M39.3128 149.674C37.8489 140.701 43.9363 132.24 52.9092 130.777C61.8821 129.313 70.3428 135.4 71.8066 144.373C73.2704 153.346 67.183 161.806 58.2101 163.27C49.2372 164.734 40.7766 158.647 39.3128 149.674Z" fill="#FFFBE0"/>
<path d="M43.6655 148.82C42.6498 142.281 47.1271 136.157 53.6659 135.141C60.2047 134.126 66.3288 138.603 67.3445 145.142C68.3602 151.681 63.8829 157.805 57.3441 158.82C50.8053 159.836 44.6812 155.359 43.6655 148.82Z" fill="#DFEE45"/>
<path d="M51.982 147.004C51.982 148.96 53.5671 150.545 55.5223 150.545C57.4776 150.545 59.0625 148.96 59.0625 147.004C59.0625 145.049 57.4776 143.464 55.5223 143.464C53.5671 143.464 51.982 145.049 51.982 147.004Z" fill="#218D56"/>
<path d="M54.6452 140.699C54.6452 141.182 55.0368 141.574 55.5209 141.574C56.004 141.574 56.3965 141.183 56.3965 140.699C56.3965 140.216 56.0049 139.824 55.5209 139.824C55.0368 139.825 54.6452 140.216 54.6452 140.699Z" fill="#218D56"/>
<path d="M54.6452 153.074C54.6452 153.557 55.0368 153.949 55.5209 153.949C56.004 153.949 56.3965 153.558 56.3965 153.074C56.3965 152.591 56.0049 152.199 55.5209 152.199C55.0368 152.2 54.6452 152.591 54.6452 153.074Z" fill="#218D56"/>
<path d="M61.7083 146.013C61.2252 146.013 60.8327 146.404 60.8327 146.887C60.8327 147.37 61.2243 147.762 61.7083 147.762C62.1914 147.762 62.584 147.371 62.584 146.887C62.584 146.404 62.1924 146.013 61.7083 146.013Z" fill="#218D56"/>
<path d="M49.3334 146.013C48.8503 146.013 48.4577 146.404 48.4577 146.887C48.4577 147.37 48.8493 147.762 49.3334 147.762C49.8165 147.762 50.209 147.371 50.209 146.887C50.208 146.404 49.8165 146.013 49.3334 146.013Z" fill="#218D56"/>
<path opacity="0.1" d="M114.5 188C55.1294 188 7 181.06 7 172.5C7 163.94 55.1294 157 114.5 157C173.871 157 222 163.94 222 172.5C222 181.06 173.871 188 114.5 188Z" fill="black"/>
</g>
<defs>
<clipPath id="clip0_464_7062">
<rect width="219.894" height="198" fill="white" transform="matrix(-1 0 0 1 219.895 0)"/>
</clipPath>
</defs>
</svg>
