<svg width="210" height="199" viewBox="0 0 210 199" fill="none" xmlns="http://www.w3.org/2000/svg">
<path opacity="0.1" d="M109.5 199C165.005 199 210 193.18 210 186C210 178.82 165.005 173 109.5 173C53.9954 173 9 178.82 9 186C9 193.18 53.9954 199 109.5 199Z" fill="black"/>
<path d="M105.957 2.22517C109.954 0.11145 115.044 -0.779481 121.299 1.36713C127.702 3.56396 130.748 7.22097 131.998 11.0592C128.046 8.61059 123.485 6.49088 118.485 4.8878C114.216 3.51912 109.989 2.64313 105.957 2.22517Z" fill="#FF7C48"/>
<path d="M124.086 32.0924C124.055 32.041 124.022 31.9943 123.988 31.9489C125.442 30.756 126.537 28.2686 126.91 25.3859C124.793 22.5684 117.07 12.8548 97.7631 15.0074C96.5373 16.9501 95.9112 19.3467 95.9334 22.1283C96.5594 22.392 97.1962 22.6228 97.8396 22.8231C97.598 23.6483 97.3947 24.5135 97.2273 25.411C96.9929 25.4564 96.7567 25.5282 96.5199 25.637C96.2419 25.7644 95.9615 25.9455 95.7121 26.2021C95.5907 26.3306 95.4717 26.4837 95.3904 26.6571C95.3055 26.8311 95.2613 27.0428 95.3139 27.2287C95.4197 27.2335 95.4909 27.2383 95.5746 27.2676C95.6451 27.2873 95.7193 27.3208 95.7755 27.3483C95.9028 27.4129 96.0027 27.4739 96.1092 27.5397C96.3131 27.6634 96.5026 27.7788 96.6945 27.8685C96.7478 27.8942 96.8016 27.9152 96.8554 27.9379C96.7735 28.6686 96.7101 29.4118 96.6635 30.1652C96.5343 30.2675 96.4105 30.3835 96.2975 30.5336L96.3094 30.6388L96.6365 30.6304C96.5361 32.5648 96.5438 34.5541 96.6287 36.5273C96.3471 36.5961 96.0547 36.6905 95.7516 36.8203C94.6813 37.2789 93.8113 37.8099 93.0704 38.2799C81.4398 31.3007 74.8374 21.4771 77.4516 13.3248C80.1483 4.91477 91.8572 0.760875 105.957 2.22284C109.989 2.6408 114.216 3.51738 118.484 4.88547C123.484 6.48855 128.045 8.60825 131.998 11.0568C143.218 18.0079 149.523 27.6132 146.959 35.6113C144.262 44.0219 132.551 48.1752 118.451 46.7126C118.53 44.2252 118.644 41.9632 118.754 40.1156C122.351 39.1445 125.415 34.2904 124.086 32.0924Z" fill="#FF7C48"/>
<path d="M101.89 59.6074C101.875 59.6846 101.87 59.7282 101.87 59.7282L104.826 82.9947C100.749 81.9208 96.3797 81.223 91.7396 80.9079C91.5818 80.8971 91.4251 80.8888 91.2672 80.8792C92.1713 73.6728 94.3646 65.0708 99.187 57.0112C99.1786 57.0094 99.1714 57.0076 99.1631 57.0058C99.3155 56.9651 99.4686 56.9245 99.6229 56.885L99.0345 60.5235L101.89 59.6074Z" fill="#FF7C48"/>
<path d="M82.8006 80.8915C82.8921 72.6931 82.8873 64.5211 82.5064 64.5109C82.5064 64.5109 86.2591 61.8656 92.1094 59.426C89.9765 63.1835 86.9773 70.1017 85.7138 80.7606C84.7302 80.7815 83.7591 80.8257 82.8006 80.8915Z" fill="#FF7C48"/>
<path d="M137.401 94.9521L142.084 116.331L139.853 118.003C138.897 114.177 137.145 109.101 133.948 103.906C131.155 99.3691 127.687 95.4442 123.601 92.1831C123.273 84.8828 124.008 70.7845 131.287 57.8164C138.591 59.279 143.73 60.8605 143.73 60.8605C133.939 58.9136 137.401 94.9521 137.401 94.9521Z" fill="#FF7C48"/>
<path d="M134.165 121.058C131.786 120.12 128.474 119.278 124.312 118.55L124.178 98.6958C126.433 100.951 128.424 103.475 130.134 106.253C133.603 111.89 135.201 117.405 135.926 120.946L135.199 121.492C134.783 121.301 134.418 121.157 134.165 121.058Z" fill="#FF7C48"/>
<path d="M118.186 97.0663L91.0988 96.4989C90.8339 94.6136 90.5206 90.5613 90.8483 85.3413C91.0444 85.3527 91.2399 85.364 91.4366 85.3772C101.333 86.0487 109.853 88.5576 116.761 92.8329C117.176 93.0894 117.583 93.3549 117.986 93.6246C118.015 94.6817 118.059 95.7598 118.122 96.8654C118.142 96.9342 118.164 97.0006 118.186 97.0663Z" fill="#FF7C48"/>
<path d="M85.2679 96.8098L84.7902 116.047C84.1013 116.057 83.4149 116.068 82.7326 116.083C82.6465 109.108 82.5897 102.265 82.5533 95.9583C82.5969 93.8912 82.6777 89.8761 82.744 85.3867C83.5871 85.3228 84.4422 85.2779 85.3086 85.2522C85.0832 88.7555 85.0467 92.6027 85.2679 96.8098Z" fill="#FF7C48"/>
<path d="M105.558 83.1928L113.003 63.9601L121.634 56.7053L121.527 56.2078C123.133 56.4117 124.705 56.6431 126.225 56.8924C123.884 60.3258 118.438 70.2091 117.978 88.3423C114.223 86.1628 110.074 84.4431 105.558 83.1928Z" fill="#FF7C48"/>
<path d="M104.891 55.8936C102.525 57.0362 101.99 59.0914 101.892 59.6074L99.0359 60.5234L99.6243 56.8849L100.716 50.1396L106.061 49.7832C106.006 51.7612 105.735 54.129 104.891 55.8936Z" fill="#FF6C3A"/>
<path d="M101.891 59.6071C101.99 59.0911 102.525 57.036 104.89 55.8933C104.738 56.212 104.567 56.5116 104.375 56.7848C102.77 59.0702 106.057 63.547 110.787 62.9012L111.098 65.562L113.004 63.9601L105.559 83.1929C105.316 83.1253 105.072 83.059 104.827 82.9944L101.871 59.7279C101.871 59.7279 101.876 59.6843 101.891 59.6071Z" fill="white"/>
<path d="M110.787 62.9011C106.057 63.5463 102.769 59.0701 104.375 56.7848C104.567 56.5115 104.738 56.212 104.89 55.8933C105.734 54.1287 106.005 51.7609 106.06 49.7835C106.067 49.4941 106.071 49.2131 106.07 48.9434C108.473 48.4698 110.048 47.6004 111.813 46.8231C114.118 45.8084 116.019 44.0104 117.198 41.7209C117.428 41.2736 117.67 40.7875 117.918 40.2697C118.198 40.2434 118.478 40.1919 118.754 40.1172C118.643 41.9648 118.53 44.2268 118.45 46.7143C118.407 48.062 118.374 49.4762 118.357 50.9262L109.724 53.8041L110.787 62.9011Z" fill="#B26B5E"/>
<path d="M80.0094 185.799C79.8485 183.057 79.7397 180.325 79.6775 177.622C82.327 177.651 84.8312 177.587 87.077 177.564C123.15 177.194 134.014 158.169 136.973 143.223C140.066 141.63 143.237 139.918 146.256 138.157L145.461 185.799H80.0094Z" fill="white"/>
<path d="M123.479 118.407C115.242 117.034 104.599 116.212 93.1512 116.048C93.6439 114.213 93.6134 112.219 92.4522 110.715C92.4522 110.715 90.2692 112.32 88.7845 115.953C88.7755 115.975 88.7683 115.996 88.7593 116.018C87.4265 116.018 86.1027 116.029 84.789 116.047L85.2668 96.809C85.0456 92.6019 85.082 88.7547 85.3068 85.2514C87.1054 85.1982 88.9537 85.2281 90.8492 85.3405C90.5209 90.5605 90.8348 94.6128 91.0997 96.4981L118.186 97.0655C118.165 96.9997 118.144 96.9334 118.123 96.864C118.06 95.7584 118.016 94.6803 117.987 93.6232C120.228 95.1198 122.295 96.8126 124.177 98.6943L124.311 118.548C124.037 118.502 123.76 118.454 123.479 118.407Z" fill="white"/>
<path d="M98.0944 39.8762C98.8736 39.4086 99.5062 39.0391 99.9977 38.77C100.469 38.9446 101.407 39.4744 102.84 40.3342C103.557 40.7641 104.529 41.0458 105.621 41.1259C105.417 41.1582 105.215 41.1881 105.014 41.212C104.314 41.3005 103.627 41.3334 102.941 41.3148C102.254 41.2957 101.568 41.2228 100.871 41.1026C100.17 40.9878 99.4673 40.8138 98.6984 40.6553C99.2096 41.2521 99.8715 41.6945 100.592 42.0132C101.315 42.3284 102.108 42.5059 102.907 42.5287C103.706 42.5532 104.512 42.4204 105.251 42.137C105.863 41.899 106.436 41.5672 106.913 41.1259C108.198 41.0368 109.565 40.678 110.831 39.9767C109.457 40.2314 108.032 38.5003 105.181 37.2787C103.97 36.7597 102.917 36.7741 102.104 36.9618C102.687 35.2374 103.326 31.0548 103.013 28.7419C102.916 28.0274 101.903 27.9748 101.73 28.6744C101.232 30.6864 100.26 34.0349 99.1851 34.6622C98.223 35.2236 97.5832 35.7355 97.4499 36.3968C97.1892 36.4153 96.9153 36.4578 96.6301 36.5271C96.5446 34.5539 96.5368 32.5646 96.6378 30.6302L96.8358 30.6254C96.9021 30.6278 96.9679 30.6296 97.0343 30.6314C96.8752 31.0703 96.9906 31.5989 97.3303 31.8847C97.7171 32.2094 98.2481 32.0964 98.516 31.6318C98.6385 31.4195 98.684 31.1708 98.6613 30.9316C98.8849 31.0189 99.0996 31.1289 99.2969 31.2646C99.3657 31.3149 99.4386 31.3609 99.5014 31.4183L99.5994 31.5008L99.6904 31.5911C99.8111 31.7101 99.9247 31.8459 100.006 31.9888L100.104 31.9457C100.194 31.685 100.172 31.4357 100.115 31.2019C100.099 31.1445 100.08 31.0877 100.06 31.0297C100.039 30.9747 100.013 30.9232 99.9869 30.8688C99.9361 30.7588 99.8691 30.6655 99.7992 30.5698C99.5122 30.1973 99.1049 29.9432 98.6822 29.8152C98.5758 29.7865 98.4688 29.7584 98.3605 29.7393C98.2523 29.7315 98.1458 29.7166 98.0376 29.716L97.8768 29.7148C97.8242 29.7172 97.7709 29.7267 97.7183 29.7339C97.6131 29.7465 97.5085 29.7686 97.405 29.7925C97.2005 29.8529 97.0032 29.9402 96.816 30.052C96.7652 30.0879 96.715 30.125 96.6654 30.1638C96.7114 29.4104 96.7754 28.6666 96.8573 27.9365C97.1873 28.077 97.5234 28.1661 97.8744 28.2056C98.2816 28.2486 98.7038 28.2277 99.1594 28.1159C99.3866 28.0627 99.6234 27.9808 99.8757 27.8791C100.004 27.8253 100.132 27.7709 100.273 27.7045C100.412 27.6447 100.56 27.5682 100.744 27.5018C100.729 27.3075 100.664 27.1275 100.587 26.9732C100.511 26.816 100.419 26.6784 100.323 26.5493C100.128 26.2976 99.9086 26.0919 99.6772 25.9286C99.2138 25.6021 98.7032 25.4222 98.1722 25.3672C97.8654 25.3373 97.5497 25.3474 97.2298 25.409C97.3972 24.5115 97.5999 23.6463 97.8421 22.8211C106.146 25.4048 115.632 22.9604 118.073 22.2429C117.872 23.208 116.603 30.0472 120.64 32.2991C121.939 31.4458 123.269 30.9872 123.99 31.9469C124.024 31.9917 124.057 32.039 124.088 32.0904C125.417 34.2884 122.353 39.1425 118.757 40.116C118.481 40.1907 118.202 40.2421 117.921 40.2685C117.673 40.7863 117.431 41.2718 117.201 41.7196C116.022 44.0092 114.122 45.8072 111.816 46.8219C110.051 47.5992 108.476 48.4686 106.073 48.9422C104.416 49.2687 102.365 49.4074 99.5851 49.1957C98.699 49.1281 97.9725 48.4537 97.8224 47.5591C97.4582 45.3946 97.124 42.9472 96.892 40.3874C97.3416 40.2565 97.7482 40.0843 98.0944 39.8762ZM104.239 32.6046L104.251 32.7296L104.914 32.7194C105.007 32.7206 105.099 32.7236 105.191 32.726C104.991 33.1918 105.142 33.7485 105.582 34.0505C106.087 34.3961 106.78 34.2759 107.129 33.7814C107.287 33.5578 107.347 33.2959 107.319 33.0441C107.586 33.1272 107.846 33.2301 108.091 33.361C108.185 33.4149 108.279 33.4675 108.371 33.5249C108.458 33.5877 108.551 33.6445 108.632 33.715C108.802 33.8448 108.963 33.9996 109.08 34.1694L109.19 34.1103C109.226 33.9434 109.223 33.7862 109.199 33.6337C109.175 33.4824 109.131 33.3365 109.073 33.2002C109.015 33.0597 108.94 32.9383 108.859 32.8133C108.82 32.7493 108.772 32.6991 108.727 32.6429C108.68 32.5885 108.634 32.5299 108.584 32.4803C108.179 32.0737 107.669 31.8213 107.154 31.7053C106.635 31.578 106.112 31.6085 105.613 31.7328C105.366 31.813 105.123 31.9086 104.892 32.045C104.663 32.1939 104.442 32.3613 104.239 32.6046ZM112.64 30.5417C112.62 30.3032 112.552 30.0724 112.461 29.8535C112.271 29.4194 111.98 29.0433 111.643 28.7372C110.962 28.1255 110.147 27.7852 109.349 27.616C108.948 27.5323 108.552 27.491 108.145 27.4893C107.739 27.4875 107.327 27.5275 106.917 27.6244C106.509 27.7183 106.103 27.8713 105.727 28.0896C105.539 28.2044 105.359 28.3264 105.194 28.4788C105.029 28.6253 104.88 28.797 104.761 28.9961C104.985 29.072 105.181 29.1282 105.371 29.1916L105.91 29.3716C106.255 29.4876 106.579 29.603 106.899 29.7022C107.218 29.8039 107.532 29.8966 107.849 29.9815C108.166 30.0658 108.489 30.1411 108.8 30.2075C109.425 30.3414 110.017 30.4425 110.607 30.5483C110.899 30.6051 111.203 30.6625 111.519 30.754C111.838 30.8485 112.165 30.9591 112.539 31.2342C112.639 31.0195 112.661 30.7773 112.64 30.5417ZM119.932 36.7047C120.058 36.7496 120.19 36.7783 120.344 36.8004C120.501 36.8213 120.674 36.8369 120.932 36.841C120.963 36.5845 120.876 36.3717 120.748 36.2001C120.617 36.0302 120.438 35.9035 120.239 35.8341C120.148 35.8018 120.053 35.7827 119.956 35.7743C120.048 35.6924 120.142 35.6117 120.237 35.5328C120.644 35.1931 121.071 34.8786 121.526 34.5862L121.873 34.3698C121.992 34.3046 122.111 34.2292 122.231 34.1617C122.469 34.0307 122.697 33.904 122.999 33.9081C122.885 33.8095 122.727 33.7509 122.569 33.7294C122.41 33.706 122.249 33.7138 122.097 33.7306C121.946 33.7497 121.8 33.7784 121.652 33.8077C121.506 33.8454 121.36 33.8836 121.217 33.9321C120.646 34.1294 120.111 34.4367 119.645 34.8248C119.177 35.2111 118.784 35.6858 118.488 36.2096C118.195 36.7346 117.99 37.3122 117.962 37.9126C118.351 37.4557 118.701 37.0306 119.075 36.6354C119.158 36.5469 119.241 36.4608 119.326 36.3753C119.408 36.4321 119.482 36.4793 119.553 36.5224C119.687 36.6025 119.806 36.6617 119.932 36.7047ZM101.822 46.2897H103.4L103.349 43.8974H101.109L101.822 46.2897Z" fill="#D08D83"/>
<path d="M120.64 32.3018C116.603 30.0493 117.871 23.2107 118.073 22.2456C115.632 22.9631 106.146 25.4075 97.842 22.8238C97.198 22.6235 96.5612 22.3927 95.9358 22.129C95.9131 19.3474 96.5397 16.9508 97.7655 15.0081C117.073 12.8555 124.795 22.5691 126.912 25.3866C126.54 28.2698 125.444 30.7567 123.991 31.9496C123.269 30.9899 121.939 31.4485 120.64 32.3018Z" fill="#080808"/>
<path d="M111.518 30.7541C111.202 30.6626 110.898 30.6052 110.606 30.5484C110.016 30.4419 109.424 30.3415 108.799 30.2076C108.488 30.1412 108.164 30.0658 107.848 29.9815C107.531 29.8972 107.216 29.8045 106.898 29.7023C106.578 29.603 106.254 29.4876 105.909 29.3716L105.37 29.1917C105.18 29.1283 104.984 29.0721 104.76 28.9961C104.879 28.797 105.028 28.6254 105.193 28.4789C105.358 28.3264 105.538 28.2045 105.726 28.0896C106.102 27.8708 106.508 27.7183 106.916 27.6244C107.326 27.5276 107.738 27.4875 108.144 27.4893C108.552 27.4911 108.947 27.5324 109.349 27.6161C110.145 27.7853 110.961 28.1261 111.642 28.7372C111.98 29.044 112.27 29.4195 112.46 29.8536C112.551 30.0724 112.619 30.3032 112.639 30.5418C112.661 30.778 112.638 31.0196 112.54 31.2336C112.164 30.9592 111.837 30.848 111.518 30.7541Z" fill="#080808"/>
<path d="M98.1704 25.3689C98.702 25.4246 99.2121 25.6039 99.6755 25.9304C99.9069 26.093 100.126 26.2993 100.321 26.5511C100.418 26.6802 100.51 26.8177 100.586 26.975C100.663 27.1293 100.727 27.3093 100.742 27.5036C100.559 27.5694 100.41 27.6465 100.272 27.7063C100.131 27.7721 100.001 27.8265 99.874 27.8809C99.6216 27.9825 99.3848 28.0645 99.1576 28.1177C98.702 28.2295 98.2799 28.2504 97.8727 28.2074C97.5223 28.1685 97.1862 28.0794 96.8556 27.9383C96.8018 27.9156 96.748 27.8946 96.6947 27.8689C96.5028 27.7792 96.3132 27.6638 96.1093 27.5401C96.0035 27.4743 95.903 27.4133 95.7757 27.3487C95.7195 27.3218 95.6447 27.2877 95.5748 27.268C95.4917 27.2387 95.4199 27.2339 95.3141 27.2291C95.2615 27.0426 95.3057 26.8309 95.3906 26.6575C95.4719 26.4841 95.5909 26.3304 95.7123 26.2025C95.9617 25.946 96.2421 25.7648 96.5201 25.6374C96.7569 25.5292 96.9931 25.4568 97.2275 25.4114C97.5474 25.3492 97.8637 25.339 98.1704 25.3689Z" fill="#080808"/>
<path d="M106.226 32.8026C106.442 32.8367 106.658 32.866 106.869 32.9234C107.021 32.9563 107.17 32.9981 107.318 33.0442C107.345 33.2959 107.285 33.5578 107.127 33.7814C106.777 34.2759 106.085 34.3967 105.581 34.0505C105.141 33.7486 104.989 33.1919 105.19 32.7261C105.317 32.7297 105.445 32.7344 105.572 32.738C105.789 32.7649 106.01 32.7691 106.226 32.8026Z" fill="#080808"/>
<path d="M119.324 36.3766C119.24 36.4621 119.157 36.5488 119.074 36.6367C118.699 37.0319 118.35 37.457 117.96 37.9139C117.989 37.3129 118.194 36.7359 118.487 36.2109C118.783 35.6865 119.176 35.2124 119.644 34.8261C120.109 34.438 120.645 34.1307 121.216 33.9334C121.358 33.8843 121.505 33.8461 121.65 33.809C121.799 33.7797 121.944 33.751 122.096 33.7319C122.248 33.7151 122.408 33.7074 122.568 33.7307C122.726 33.7516 122.884 33.8102 122.998 33.9095C122.695 33.9053 122.468 34.032 122.23 34.163C122.11 34.2311 121.99 34.3059 121.872 34.3711L121.525 34.5875C121.07 34.8799 120.643 35.1944 120.236 35.5341C120.14 35.613 120.047 35.6937 119.955 35.7756C120.051 35.7834 120.147 35.8025 120.238 35.8354C120.437 35.9054 120.616 36.0316 120.747 36.2014C120.875 36.373 120.962 36.5858 120.93 36.8424C120.674 36.8382 120.5 36.822 120.343 36.8017C120.188 36.7796 120.057 36.7509 119.931 36.706C119.805 36.663 119.685 36.6038 119.551 36.5243C119.481 36.4806 119.407 36.4334 119.324 36.3766Z" fill="#EBB6A5"/>
<path d="M102.907 42.5291C102.107 42.5064 101.315 42.3282 100.591 42.0137C99.8708 41.6944 99.2088 41.2525 98.6976 40.6558C99.466 40.8142 100.169 40.9882 100.87 41.103C101.568 41.2232 102.254 41.2962 102.94 41.3153C103.626 41.3338 104.313 41.3009 105.013 41.2124C105.215 41.1885 105.416 41.1592 105.62 41.1263C106.036 41.1568 106.469 41.158 106.912 41.1269C106.434 41.5676 105.862 41.9001 105.25 42.1381C104.511 42.4209 103.705 42.5536 102.907 42.5291Z" fill="white"/>
<path d="M105.613 31.7317C106.111 31.6073 106.636 31.5774 107.154 31.7042C107.668 31.8202 108.178 32.0725 108.583 32.4791C108.635 32.5282 108.681 32.5868 108.727 32.6418C108.772 32.698 108.819 32.7488 108.859 32.8122C108.94 32.9366 109.015 33.0585 109.072 33.1991C109.13 33.3354 109.175 33.4819 109.199 33.6326C109.222 33.785 109.226 33.9423 109.19 34.1091L109.08 34.1683C108.963 33.9985 108.802 33.8436 108.632 33.7139C108.55 33.6433 108.458 33.5865 108.37 33.5237C108.279 33.4663 108.184 33.4137 108.091 33.3599C107.846 33.229 107.586 33.1261 107.319 33.043C107.172 32.997 107.022 32.9551 106.87 32.9222C106.66 32.8648 106.443 32.8355 106.227 32.8014C106.011 32.7685 105.791 32.7638 105.573 32.7368C105.446 32.7333 105.319 32.7291 105.191 32.7249C105.099 32.7219 105.006 32.7195 104.914 32.7183L104.251 32.7285L104.239 32.6035C104.441 32.3601 104.664 32.1927 104.893 32.0426C105.123 31.9075 105.366 31.8118 105.613 31.7317Z" fill="#080808"/>
<path d="M97.6159 30.6758L97.7451 30.6889L97.8725 30.7128L98.126 30.7619L98.3735 30.833C98.4716 30.8617 98.5673 30.8964 98.6623 30.9335C98.6851 31.1721 98.6396 31.4214 98.517 31.6337C98.2492 32.0977 97.7182 32.2113 97.3313 31.8866C96.9911 31.6014 96.8757 31.0728 97.0353 30.6333C97.143 30.6363 97.2512 30.6399 97.3582 30.6471C97.4437 30.6578 97.5298 30.668 97.6159 30.6758Z" fill="#080808"/>
<path d="M97.4042 29.7943C97.507 29.7704 97.6123 29.7482 97.7175 29.7357C97.7701 29.7291 97.8234 29.7189 97.876 29.7166L98.0368 29.7177C98.145 29.7183 98.2515 29.7333 98.3597 29.7411C98.4679 29.7602 98.575 29.7883 98.6814 29.817C99.1047 29.9444 99.5113 30.1991 99.7983 30.5716C99.8683 30.6673 99.9353 30.7606 99.9861 30.8706C100.012 30.925 100.038 30.9764 100.06 31.0314C100.079 31.09 100.098 31.1462 100.114 31.2036C100.171 31.438 100.194 31.6874 100.103 31.9475L100.005 31.9905C99.9239 31.847 99.8103 31.7119 99.6895 31.5929L99.5986 31.5026L99.5006 31.4201C99.4378 31.3621 99.3648 31.3166 99.2961 31.2664C99.0988 31.1307 98.8841 31.0213 98.6604 30.9334C98.5654 30.8963 98.4697 30.8622 98.3717 30.8329L98.1241 30.7618L97.8706 30.7127L97.7432 30.6888L97.614 30.6757C97.5279 30.6673 97.4418 30.6571 97.3557 30.6469C97.2487 30.6398 97.1405 30.6362 97.0329 30.6332C96.9665 30.6314 96.9007 30.6296 96.8344 30.6272L96.6364 30.632L96.3093 30.6404L96.2974 30.5351C96.4098 30.3851 96.5336 30.2684 96.6633 30.1668C96.713 30.1279 96.7632 30.0903 96.814 30.055C97.003 29.942 97.2003 29.8547 97.4042 29.7943Z" fill="#080808"/>
<path d="M20.3694 21.5811C19.5801 19.4931 18.6695 17.0768 18.2114 15.8414C17.305 13.3965 19.2381 12.7017 19.2381 12.7017C19.2381 12.7017 26.3447 26.1123 26.4941 29.0858L23.5445 25.8988C22.9346 24.1785 21.826 22.6735 20.3694 21.5811Z" fill="#D08D83"/>
<path d="M14.5981 19.7381C14.0019 18.6648 13.462 17.6902 13.1116 17.0516C11.8571 14.7656 13.6677 13.7952 13.6677 13.7952C13.6677 13.7952 15.9841 16.9445 18.3418 20.4281C17.6213 20.1327 16.8517 19.9235 16.0433 19.8158C15.5566 19.7519 15.0735 19.7267 14.5981 19.7381Z" fill="#D08D83"/>
<path d="M9.14913 19.0327C7.62199 16.919 9.29924 15.7327 9.29924 15.7327C9.29924 15.7327 11.0183 17.5486 13.123 19.8955C12.1825 20.0725 11.2862 20.393 10.4604 20.8367C9.93662 20.1192 9.47561 19.4847 9.14913 19.0327Z" fill="#D08D83"/>
<path d="M22.0653 34.7434C21.2282 36.9719 20.8796 40.0232 24.1384 41.6855L25.6076 37.638L28.2773 47.5316L19.9982 51.7572L18.2439 42.9926C17.225 41.786 16.5326 40.0412 16.065 38.1475C18.4532 37.8276 20.5968 36.5839 22.0653 34.7434Z" fill="#D08D83"/>
<path d="M82.5191 97.4306L48.699 108.803C49.6144 106.812 50.7266 104.744 52.0762 102.701C55.7481 97.1441 60.4497 92.8432 66.0501 89.9186C70.9233 87.3732 76.514 85.8586 82.7422 85.3862C82.6758 89.8756 82.5951 93.8913 82.5514 95.9578C82.5311 96.8936 82.5191 97.4306 82.5191 97.4306Z" fill="#FF6029"/>
<path d="M32.557 45.3457L48.2811 84.9814C48.2811 84.9814 81.7395 64.4912 82.5043 64.5115C82.8857 64.5217 82.8899 72.6937 82.7984 80.8921C75.7607 81.377 69.4207 83.0848 63.873 86.0015C57.5851 89.3075 52.3244 94.1467 48.2368 100.384C45.9132 103.93 44.2438 107.504 43.0491 110.704L38.3929 112.27L16.8976 53.339L19.9943 51.758L28.2734 47.5324L32.557 45.3457Z" fill="#FF6C3A"/>
<path d="M83.9832 118.808L85.7148 119.931C85.2108 120.584 84.7958 121.323 84.4945 122.138C84.4795 122.178 84.4675 122.218 84.4538 122.258C83.6657 121.834 82.8334 121.548 81.9861 121.397L82.1099 118.847C82.7311 118.832 83.3554 118.819 83.9832 118.808Z" fill="#A57142"/>
<path d="M59.3887 122.902C59.2882 123.021 59.192 123.144 59.0987 123.268C58.3369 122.271 57.3545 121.456 56.2304 120.89C56.4528 120.856 56.6764 120.822 56.9018 120.789C57.669 121.742 58.5264 122.424 59.3887 122.902Z" fill="#A57142"/>
<path d="M44.115 123.842C44.1891 123.809 44.2668 123.777 44.3458 123.744C44.3667 123.735 44.3882 123.727 44.4092 123.718C44.4923 123.684 44.5766 123.65 44.6651 123.614C45.0812 123.45 45.5363 123.288 46.0254 123.128C45.1052 124.282 44.4899 125.683 44.2896 127.205C41.8775 126.194 41.719 125.492 41.719 125.486C41.719 125.484 41.7286 125.441 41.777 125.363C41.7872 125.347 41.7991 125.329 41.8135 125.309C41.8559 125.25 41.9169 125.177 42.0036 125.092C42.0234 125.072 42.0449 125.052 42.0676 125.031C42.07 125.029 42.0718 125.027 42.0742 125.025C42.0975 125.004 42.122 124.982 42.1489 124.959C42.1501 124.958 42.1513 124.957 42.1525 124.956C42.177 124.935 42.2033 124.914 42.2309 124.892C42.2356 124.888 42.2398 124.884 42.2446 124.881C42.2739 124.857 42.305 124.834 42.3373 124.81C42.3397 124.808 42.3415 124.807 42.3439 124.805C42.3744 124.782 42.406 124.759 42.4395 124.735C42.4461 124.731 42.4533 124.726 42.4599 124.721C42.4957 124.696 42.5334 124.67 42.5735 124.644C42.5771 124.642 42.5806 124.639 42.5842 124.637C42.6076 124.622 42.6321 124.606 42.6566 124.591C43.1971 124.524 43.6839 124.264 44.0378 123.874C44.0612 123.864 44.0833 123.853 44.1072 123.843C44.1102 123.844 44.1126 123.843 44.115 123.842Z" fill="#A57142"/>
<path d="M75.3008 123.09C74.7058 123.566 74.1659 124.128 73.7031 124.78C73.6044 124.919 73.5117 125.06 73.4227 125.203C72.0582 121.747 68.4771 119.527 64.6275 120.037C64.0613 120.112 63.516 120.243 62.9958 120.423C62.8594 120.302 62.7129 120.184 62.5557 120.068C65.6662 119.729 68.9877 119.453 72.4653 119.244C72.8504 120.781 73.9853 122.105 75.3008 123.09Z" fill="#A57142"/>
<path d="M79.6996 121.307C79.3581 120.911 78.9091 120.509 78.3165 120.118C77.6498 119.677 77.007 119.324 76.4055 119.038C77.8035 118.976 79.2212 118.924 80.6562 118.883L80.5145 121.267C80.2419 121.268 79.9698 121.281 79.6996 121.307Z" fill="#A57142"/>
<path d="M127.55 121.991C129.549 122.438 131.263 122.918 132.631 123.416L129.759 125.568C129.337 124.182 128.565 122.958 127.55 121.991Z" fill="#A57142"/>
<path d="M86.5832 118.776C86.6555 118.775 86.7284 118.776 86.8008 118.775C86.7697 118.802 86.7398 118.831 86.7093 118.859L86.5832 118.776Z" fill="#A57142"/>
<path d="M104.48 124.143C103.912 124.522 103.383 124.975 102.905 125.503C102.221 125.018 101.461 124.634 100.649 124.374C100.483 122.292 99.5373 120.333 98.0012 118.909C99.3167 118.95 100.618 119.001 101.9 119.06C101.81 121.02 102.994 122.816 104.48 124.143Z" fill="#A57142"/>
<path d="M107.776 121.409C106.312 120.249 104.935 119.562 103.887 119.159C109.113 119.442 114.016 119.873 118.408 120.441C116.602 121.26 115.152 122.703 114.32 124.483C112.764 123.281 110.908 122.706 109.067 122.728C108.756 122.299 108.338 121.855 107.776 121.409Z" fill="#A57142"/>
<path d="M80.8184 116.129L80.6545 118.883C79.2195 118.924 77.8017 118.976 76.4038 119.038C74.0509 117.921 72.333 117.86 72.333 117.86C72.3049 118.336 72.3545 118.799 72.4657 119.243C68.9887 119.452 65.6671 119.728 62.5561 120.067C61.1844 119.061 59.0109 118.317 55.5775 118.649C55.968 119.481 56.4158 120.188 56.8989 120.789C56.6735 120.822 56.4493 120.856 56.2275 120.89C54.9724 120.258 53.5415 119.934 52.0377 120.019C49.5861 120.158 47.4455 121.349 46.026 123.128C45.5369 123.288 45.0812 123.451 44.6657 123.614C44.5772 123.649 44.4929 123.684 44.4098 123.718C44.3882 123.727 44.3673 123.735 44.3464 123.744C44.2674 123.777 44.1897 123.809 44.1156 123.842C44.1132 123.843 44.1108 123.844 44.1084 123.845C44.0845 123.855 44.0624 123.865 44.039 123.875C44.3518 123.532 44.5622 123.09 44.6118 122.592C44.6148 122.566 44.6938 121.835 44.9252 120.597C47.3421 119.783 50.4998 119.047 54.3439 118.407C61.649 117.19 70.8459 116.406 80.8184 116.129Z" fill="#C4915B"/>
<path d="M42.1627 124.599C42.3314 124.616 42.4976 124.612 42.659 124.592C42.6345 124.608 42.61 124.623 42.5867 124.639C42.5831 124.641 42.5795 124.643 42.5759 124.645C42.5364 124.672 42.4988 124.697 42.4623 124.722C42.4552 124.727 42.4485 124.732 42.442 124.737C42.4085 124.76 42.3768 124.783 42.3463 124.806C42.3445 124.808 42.3421 124.809 42.3397 124.811C42.3069 124.835 42.2763 124.859 42.247 124.882C42.2423 124.886 42.2381 124.889 42.2333 124.893C42.2058 124.915 42.1795 124.936 42.155 124.957C42.1538 124.959 42.1526 124.959 42.1514 124.96C42.1251 124.983 42.1 125.005 42.0766 125.026C42.0743 125.028 42.0725 125.03 42.0701 125.032C42.0474 125.053 42.0258 125.073 42.0061 125.093C41.9194 125.179 41.8584 125.252 41.8159 125.31C41.8016 125.33 41.7896 125.348 41.7795 125.365C41.731 125.442 41.7215 125.485 41.7215 125.487C41.7215 125.494 41.8805 126.195 44.292 127.206C44.4122 127.256 44.536 127.307 44.6675 127.359C46.9911 128.275 50.4938 129.138 54.7978 129.855C56.5725 130.151 58.4632 130.42 60.4508 130.664C64.3679 131.142 68.6659 131.515 73.218 131.775C78.0583 132.051 83.1863 132.198 88.4494 132.207C88.6036 132.207 88.7579 132.208 88.9122 132.208C89.2183 132.208 89.5239 132.207 89.8294 132.206C93.56 132.195 97.2199 132.113 100.755 131.966C106.828 131.712 112.533 131.263 117.592 130.638C119.5 130.402 121.317 130.141 123.026 129.856C123.475 129.782 123.913 129.705 124.344 129.627L119.654 133.142C110.97 134.318 100.231 134.957 88.9115 134.957C75.8663 134.957 63.59 134.108 54.3452 132.567C49.7901 131.808 46.1953 130.916 43.6594 129.917C42.9574 129.64 41.3872 129.021 40.2577 128.002C39.5222 127.338 38.9727 126.507 38.9727 125.488C38.9727 125.316 38.9889 125.147 39.0194 124.981C39.1491 124.27 39.5563 123.604 40.2332 122.991C40.4795 123.845 41.2234 124.506 42.1627 124.599Z" fill="#C4915B"/>
<path d="M82.1104 118.846L82.1696 117.632L83.9844 118.808C83.3565 118.819 82.7323 118.831 82.1104 118.846Z" fill="#C4915B"/>
<path d="M121.364 119.714C120.31 119.774 119.315 120.029 118.409 120.441C114.017 119.873 109.114 119.442 103.888 119.159C102.706 118.705 101.943 118.613 101.943 118.613C101.921 118.763 101.907 118.912 101.9 119.059C100.617 119 99.316 118.95 98.0012 118.909C97.2191 118.183 96.2851 117.596 95.2219 117.203C94.4727 116.926 93.7085 116.766 92.9498 116.708C93.0239 116.491 93.0915 116.271 93.1513 116.049C104.6 116.212 115.243 117.035 123.479 118.408C123.76 118.454 124.037 118.502 124.311 118.55C128.473 119.278 131.785 120.12 134.165 121.058C134.417 121.157 134.782 121.301 135.197 121.492L132.63 123.416C131.262 122.918 129.548 122.438 127.548 121.991C125.947 120.466 123.745 119.58 121.364 119.714Z" fill="#C4915B"/>
<path d="M86.7997 118.775C86.7274 118.775 86.6544 118.775 86.5821 118.776L82.4784 116.088C82.5633 116.086 82.6476 116.084 82.7319 116.082C83.4148 116.068 84.1006 116.056 84.7895 116.047C86.1031 116.028 87.4276 116.019 88.7598 116.018C88.508 116.648 88.3699 117.213 88.3137 117.714C87.7738 118.01 87.2649 118.364 86.7997 118.775Z" fill="#C4915B"/>
<path d="M123.6 92.183C122.179 91.0493 120.685 89.9945 119.118 89.0241C118.742 88.7915 118.361 88.5655 117.978 88.343C118.438 70.2105 123.884 60.3265 126.225 56.8931C126.873 55.943 127.284 55.4844 127.284 55.4844C127.284 55.4844 127.284 55.4844 132.018 56.5535C131.766 56.9733 131.522 57.3942 131.286 57.8164C124.006 70.7845 123.271 84.8827 123.6 92.183Z" fill="white"/>
<path d="M91.2672 80.8795C89.3735 80.7635 87.5217 80.7234 85.7129 80.7611C86.9757 70.1016 89.9756 63.1834 92.1084 59.4266C93.4532 57.0569 94.4536 55.9424 94.4536 55.9424C94.4536 55.9424 94.4542 55.9424 99.1636 57.0061C99.1719 57.0079 99.1791 57.0097 99.1875 57.0115C94.3645 65.0705 92.1712 73.6731 91.2672 80.8795Z" fill="white"/>
<path d="M12.3606 24.2267C12.363 24.2225 12.3648 24.2153 12.3654 24.207C12.7606 24.1902 13.4142 24.0718 13.5732 23.4841L12.4156 21.0504L11.0314 21.6663L11.2454 22.1955C10.8771 21.8505 10.3874 21.5228 9.73803 21.2681C9.97123 21.1144 10.2116 20.9703 10.4579 20.8376C11.2837 20.3933 12.18 20.0728 13.1206 19.8964C13.6031 19.8055 14.097 19.7517 14.5993 19.7397C15.0753 19.7284 15.5584 19.7529 16.0451 19.8175C16.8535 19.9245 17.6231 20.1344 18.3436 20.4298C19.0743 20.7293 19.7536 21.1192 20.3712 21.5826C21.8278 22.675 22.9364 24.18 23.5469 25.9003L22.0472 24.2799L15.3054 23.3812C15.3054 23.3812 16.478 27.0089 19.4044 27.2074C22.1908 29.5089 23.4709 32.0346 23.4709 32.0346C23.4709 32.0346 22.6482 33.1892 22.064 34.7451C20.5954 36.5855 18.4518 37.8287 16.0636 38.1491C15.269 38.2556 14.4474 38.2622 13.6145 38.1515C8.5517 37.4807 4.99157 32.8323 5.66306 27.7695C5.77966 26.8923 6.01764 26.0612 6.35428 25.288C9.08628 25.7186 11.8201 25.1661 12.3606 24.2267Z" fill="#FFCE00"/>
<path d="M12.2893 23.876C12.1786 23.4802 11.9054 22.8117 11.2464 22.1946L11.0324 21.6654L12.4166 21.0496L13.5742 23.4832C13.4152 24.071 12.7616 24.1899 12.3664 24.2061C12.3723 24.1565 12.3496 24.0393 12.2893 23.876Z" fill="#66515E"/>
<path d="M0.744708 21.6997C0.744708 21.6997 12.2963 24.2087 12.3633 24.2266C11.8227 25.166 9.08898 25.7185 6.35639 25.2874C4.03937 24.9208 1.72294 23.8475 0.744708 21.6997Z" fill="#C0CC4A"/>
<path d="M12.2887 23.876C12.3497 24.0392 12.3718 24.157 12.3664 24.206C12.3658 24.2144 12.364 24.2216 12.3616 24.2258C12.3616 24.2258 12.3485 24.0912 12.2887 23.876Z" fill="#C0CC4A"/>
<path d="M12.2909 23.876C12.3513 24.0913 12.3633 24.2264 12.3633 24.2264C12.2963 24.2085 0.744708 21.6995 0.744708 21.6995C0.744708 21.6995 3.44559 20.3918 7.7711 20.8169C8.55321 20.8941 9.20138 21.0555 9.74072 21.2666C10.3901 21.5213 10.8798 21.849 11.2481 22.194C11.9071 22.8117 12.1803 23.4802 12.2909 23.876Z" fill="#A0B718"/>
<path d="M22.0635 34.7435C22.6477 33.1877 23.4704 32.033 23.4704 32.033C23.4704 32.033 22.1897 29.5073 19.4039 27.2059C16.4775 27.0073 15.3049 23.3796 15.3049 23.3796L22.0467 24.2783L23.5464 25.8988L26.496 29.0858L28.0859 30.8037L25.6057 37.6381L24.1365 41.6856C20.8772 40.0233 21.2258 36.972 22.0635 34.7435Z" fill="#B26B5E"/>
<path d="M85.344 122.808C85.0552 122.603 84.7574 122.422 84.4536 122.258C84.4674 122.218 84.48 122.178 84.4943 122.138C84.7957 121.323 85.2106 120.584 85.7147 119.931L88.4634 121.712C88.9998 121.833 89.3699 121.361 89.5499 121.052C89.5571 121.055 89.563 121.057 89.5678 121.057C90.5455 121.022 92.1396 119.073 92.9474 116.709C93.7062 116.766 94.4704 116.927 95.2196 117.203C96.2827 117.596 97.2167 118.184 97.9988 118.909C99.5349 120.334 100.48 122.293 100.646 124.374C99.7041 124.071 98.6924 123.932 97.6454 123.991C93.253 124.239 89.8548 127.866 89.8273 132.205C89.5218 132.206 89.2162 132.207 88.9101 132.207C88.7558 132.207 88.6016 132.206 88.4473 132.206C89.5535 128.823 88.3977 124.977 85.344 122.808Z" fill="#FFB600"/>
<path d="M86.7987 118.774C87.2639 118.364 87.7728 118.01 88.3127 117.715C88.1818 118.877 88.4855 119.707 88.8281 120.248L86.7072 118.859C86.7377 118.831 86.7676 118.802 86.7987 118.774Z" fill="#FFB600"/>
<path d="M86.5808 118.776L86.707 118.858L88.8279 120.247C88.9995 120.518 89.1795 120.718 89.32 120.85C89.4246 120.967 89.5095 121.035 89.5508 121.051C89.3708 121.36 89.0007 121.831 88.4643 121.711L85.7156 119.929L83.984 118.807L82.1692 117.631L82.11 118.845L81.9862 121.395L81.826 124.692C81.4511 125.094 80.8794 124.914 80.5566 124.76C80.5817 124.723 80.6134 124.62 80.6343 124.464C80.7192 124.072 80.7868 123.347 80.44 122.495L80.5129 121.265L80.6546 118.881L80.8184 116.128L81.1109 111.214L82.4759 111.306L82.2505 115.939L82.4759 116.087L86.5808 118.776Z" fill="#66515E"/>
<path d="M89.5717 121.056C89.5854 120.995 92.4543 110.716 92.4543 110.716C93.6155 112.219 93.646 114.214 93.1533 116.049C93.0935 116.271 93.026 116.492 92.9518 116.708C92.1434 119.072 90.5493 121.021 89.5717 121.056Z" fill="#C0CC4A"/>
<path d="M89.321 120.851C89.4675 120.99 89.5703 121.057 89.5703 121.057C89.5655 121.057 89.5595 121.055 89.5524 121.052C89.5105 121.036 89.4262 120.969 89.321 120.851Z" fill="#C0CC4A"/>
<path d="M89.5691 121.057C89.5691 121.057 89.4663 120.99 89.3198 120.851C89.1798 120.718 88.9993 120.519 88.8277 120.248C88.485 119.707 88.1813 118.878 88.3122 117.715C88.3684 117.213 88.5071 116.649 88.7583 116.019C88.7672 115.997 88.7744 115.976 88.7834 115.954C90.2681 112.321 92.4512 110.716 92.4512 110.716C92.4512 110.716 89.5828 120.996 89.5691 121.057Z" fill="#A0B718"/>
<path d="M73.9323 127.164C73.8414 126.476 73.6668 125.82 73.4235 125.203C73.5125 125.06 73.6046 124.918 73.7039 124.779C74.1667 124.127 74.7072 123.565 75.3016 123.089C77.3011 124.586 79.7168 125.297 80.5443 124.775C80.5485 124.773 80.5521 124.767 80.5569 124.761C80.8792 124.915 81.4514 125.095 81.8263 124.693L81.9866 121.396C82.8338 121.548 83.6668 121.834 84.4543 122.257C84.758 122.42 85.0564 122.602 85.3446 122.807C88.3983 124.976 89.5541 128.822 88.4485 132.205C83.1854 132.197 78.0575 132.05 73.2172 131.773C73.8713 130.385 74.1494 128.799 73.9323 127.164Z" fill="#FFCE00"/>
<path d="M80.5137 121.267L80.4407 122.496C80.287 122.118 80.0509 121.716 79.6987 121.307C79.969 121.281 80.241 121.267 80.5137 121.267Z" fill="#FFCE00"/>
<path d="M80.5449 124.776C79.7174 125.298 77.3017 124.587 75.3022 123.09C73.9867 122.105 72.8518 120.781 72.4667 119.243C72.3555 118.799 72.3059 118.338 72.334 117.86C72.334 117.86 80.4989 124.732 80.5449 124.776Z" fill="#C0CC4A"/>
<path d="M80.6328 124.465C80.6125 124.621 80.5808 124.724 80.5551 124.762C80.5509 124.768 80.5467 124.773 80.5425 124.775C80.5425 124.775 80.5904 124.662 80.6328 124.465Z" fill="#C0CC4A"/>
<path d="M79.6984 121.307C80.0506 121.716 80.2867 122.118 80.4404 122.496C80.7872 123.348 80.7196 124.074 80.6347 124.465C80.5917 124.663 80.545 124.776 80.545 124.776C80.499 124.732 72.3341 117.86 72.3341 117.86C72.3341 117.86 74.052 117.921 76.4049 119.038C77.0064 119.324 77.6492 119.677 78.3159 120.118C78.9073 120.509 79.3569 120.911 79.6984 121.307Z" fill="#A0B718"/>
<path d="M60.7798 127.826C60.683 126.107 60.0683 124.541 59.096 123.269C59.1899 123.144 59.2856 123.022 59.386 122.903C61.7945 124.24 64.2407 123.992 64.8608 123.624C64.8608 123.624 64.627 121.865 62.9958 120.423C63.5154 120.243 64.0607 120.112 64.6276 120.037C68.4771 119.527 72.0582 121.747 73.4227 125.203C73.6666 125.82 73.8407 126.477 73.9315 127.164C74.148 128.8 73.87 130.385 73.2164 131.774C68.6637 131.515 64.3657 131.142 60.4492 130.663C60.7158 129.768 60.8354 128.812 60.7798 127.826Z" fill="#FFB600"/>
<path d="M64.8613 123.624C64.2413 123.992 61.7951 124.24 59.3866 122.902C58.5243 122.423 57.6669 121.742 56.8992 120.789C56.4154 120.189 55.9682 119.482 55.5777 118.65C59.0111 118.317 61.184 119.061 62.5563 120.068C62.7135 120.184 62.8594 120.302 62.9963 120.423C64.6275 121.865 64.8613 123.624 64.8613 123.624Z" fill="#8C9916"/>
<path d="M114.63 124.731C114.529 124.645 114.425 124.563 114.321 124.483C115.154 122.703 116.604 121.26 118.409 120.441C119.316 120.029 120.311 119.774 121.364 119.714C123.746 119.58 125.947 120.466 127.548 121.991C128.563 122.959 129.336 124.183 129.758 125.568L124.344 129.625C123.913 129.703 123.475 129.779 123.027 129.855C121.317 130.14 119.501 130.4 117.593 130.636C117.452 128.428 116.451 126.276 114.63 124.731Z" fill="#FFCE00"/>
<path d="M52.0377 120.019C53.5415 119.935 54.9724 120.258 56.2275 120.89C57.3516 121.457 58.334 122.271 59.0958 123.268C60.0674 124.54 60.6822 126.107 60.7796 127.826C60.8352 128.812 60.7156 129.767 60.4484 130.662C58.4608 130.419 56.5701 130.149 54.7954 129.853C50.4914 129.136 46.9887 128.273 44.6651 127.357C44.5336 127.305 44.4098 127.255 44.2896 127.204C44.4893 125.682 45.1052 124.281 46.0254 123.128C47.4455 121.349 49.5868 120.158 52.0377 120.019Z" fill="#FFCE00"/>
<path d="M97.6472 123.99C98.6942 123.931 99.7059 124.071 100.648 124.373C101.461 124.634 102.22 125.018 102.904 125.503C102.843 125.57 102.782 125.637 102.722 125.707C101.189 127.514 100.549 129.777 100.754 131.964C97.2191 132.112 93.5591 132.193 89.8285 132.204C89.8566 127.865 93.2547 124.238 97.6472 123.99Z" fill="#FFCE00"/>
<path d="M102.724 125.707C102.783 125.637 102.845 125.571 102.906 125.503C103.384 124.975 103.913 124.521 104.482 124.143C106.367 125.825 108.741 126.752 109.621 126.298C109.625 126.295 109.63 126.291 109.635 126.285C109.947 126.468 110.507 126.7 110.92 126.327L111.233 123.885L109.865 123.673L109.769 124.186C109.656 123.739 109.442 123.245 109.069 122.728C110.911 122.707 112.767 123.282 114.322 124.483C114.426 124.563 114.53 124.646 114.631 124.732C116.452 126.277 117.453 128.428 117.594 130.636C112.534 131.262 106.829 131.711 100.756 131.965C100.55 129.778 101.19 127.514 102.724 125.707Z" fill="#FFB600"/>
<path d="M109.767 124.185L109.864 123.673L111.232 123.884L110.919 126.326C110.506 126.699 109.946 126.467 109.634 126.284C109.662 126.249 109.703 126.148 109.738 125.992C109.848 125.634 109.969 124.985 109.767 124.185Z" fill="#66515E"/>
<path d="M101.9 119.059C101.906 118.911 101.921 118.762 101.942 118.613C101.942 118.613 109.576 126.251 109.619 126.298C108.74 126.752 106.366 125.826 104.48 124.143C102.993 122.816 101.809 121.02 101.9 119.059Z" fill="#C0CC4A"/>
<path d="M109.736 125.993C109.702 126.148 109.661 126.249 109.632 126.285C109.628 126.291 109.623 126.295 109.619 126.298C109.619 126.298 109.676 126.188 109.736 125.993Z" fill="#C0CC4A"/>
<path d="M101.943 118.613C101.943 118.613 102.707 118.705 103.888 119.159C104.936 119.562 106.313 120.249 107.777 121.409C108.34 121.855 108.758 122.299 109.067 122.728C109.44 123.244 109.654 123.738 109.767 124.185C109.968 124.985 109.847 125.634 109.737 125.993C109.676 126.188 109.619 126.298 109.619 126.298C109.576 126.251 101.943 118.613 101.943 118.613Z" fill="#A0B718"/>
<path d="M54.3447 132.565C63.5901 134.106 75.8658 134.955 88.911 134.955C100.231 134.955 110.97 134.315 119.653 133.14L114.273 137.172L113.954 136.261L104.946 141.095L105.724 143.942L99.8588 145.933C99.3661 145.071 97.943 143.814 93.8435 144.204C87.754 144.783 83.8483 141.791 83.8483 141.791C83.8483 141.791 82.2225 144.759 84.3667 145.881C85.2863 146.362 86.5719 147.004 87.7403 147.582C85.6792 147.858 84.2268 148.062 84.2268 148.062C84.2268 148.062 77.0892 145.568 74.6209 144.726C72.1526 143.884 71.5092 145.835 71.5092 145.835C71.5092 145.835 78.2623 149.19 83.2916 151.195C81.1911 150.968 76.1522 150.424 74.1228 150.219C71.5283 149.956 71.3424 152.003 71.3424 152.003C71.3424 152.003 78.2318 153.638 83.529 154.482C81.368 154.517 76.4081 154.598 74.3966 154.644C71.7896 154.703 71.8572 156.757 71.8572 156.757C71.8572 156.757 78.2061 157.453 83.4369 157.682C82.7003 157.743 82.0389 157.799 81.5959 157.838C79.8816 157.99 80.0143 159.339 80.0143 159.339C80.0143 159.339 90.91 159.821 92.0269 158.925C92.6655 158.412 94.7487 156.896 96.4164 155.689L108.082 152.57L108.916 155.623L120.128 153.913L119.322 151.607C122.659 150.145 129.594 147.025 136.977 143.223C134.018 158.17 123.154 177.195 87.0808 177.565C84.8343 177.587 82.3307 177.652 79.6812 177.623C62.4582 177.431 39.0792 173.27 40.2596 128.001C41.3891 129.02 42.9593 129.64 43.6613 129.916C46.1942 130.915 49.7896 131.807 54.3447 132.565Z" fill="#E0AE80"/>
<path d="M96.4135 155.689C94.7458 156.895 92.6626 158.412 92.024 158.925C90.9071 159.821 80.0114 159.339 80.0114 159.339C80.0114 159.339 79.8786 157.989 81.5929 157.838C82.036 157.799 82.6979 157.743 83.434 157.681C78.2032 157.453 71.8543 156.756 71.8543 156.756C71.8543 156.756 71.7861 154.703 74.3937 154.643C76.4052 154.597 81.3651 154.517 83.5261 154.482C78.2289 153.637 71.3395 152.002 71.3395 152.002C71.3395 152.002 71.5254 149.956 74.1199 150.219C76.1493 150.424 81.1887 150.967 83.2887 151.194C78.2594 149.189 71.5063 145.835 71.5063 145.835C71.5063 145.835 72.1497 143.884 74.618 144.726C77.0863 145.568 84.2239 148.061 84.2239 148.061C84.2239 148.061 85.6763 147.858 87.7374 147.582C86.5684 147.005 85.2828 146.362 84.3638 145.88C82.2196 144.759 83.8454 141.791 83.8454 141.791C83.8454 141.791 87.7517 144.783 93.8406 144.204C97.9401 143.814 99.3637 145.07 99.8559 145.933L105.721 143.941L108.078 152.569L96.4135 155.689Z" fill="#B26B5E"/>
<path d="M63.8767 86.0009C69.4238 83.0841 75.7644 81.3764 82.8022 80.8915C83.7607 80.8257 84.7317 80.7814 85.7153 80.7611C87.5241 80.7234 89.3765 80.7629 91.2696 80.8795C91.4269 80.8891 91.5841 80.8974 91.742 80.9082C96.382 81.2233 100.751 81.9211 104.829 82.995C105.074 83.0596 105.318 83.1266 105.56 83.1935C110.076 84.4438 114.225 86.1635 117.98 88.343C118.363 88.566 118.744 88.7921 119.119 89.0241C120.687 89.9945 122.181 91.0493 123.601 92.183C127.687 95.4436 131.155 99.369 133.948 103.906C137.145 109.101 138.898 114.176 139.854 118.003L135.924 120.947C135.2 117.405 133.602 111.891 130.133 106.254C128.423 103.476 126.432 100.951 124.177 98.6964C122.295 96.8146 120.228 95.1219 117.987 93.6252C117.584 93.3555 117.177 93.0901 116.762 92.8335C109.854 88.5583 101.334 86.0493 91.4376 85.3778C91.2409 85.3647 91.0454 85.3533 90.8492 85.3419C88.9538 85.2295 87.1055 85.1996 85.3069 85.2528C84.4405 85.2786 83.5855 85.3234 82.7424 85.3874C76.5142 85.8598 70.9235 87.3743 66.0502 89.9198C60.4499 92.8443 55.7489 97.1453 52.0764 102.703C50.7268 104.745 49.6146 106.813 48.6992 108.805C46.4449 113.709 45.3854 118.148 44.9262 120.599C44.6942 121.837 44.6153 122.567 44.6129 122.594C44.5632 123.091 44.3528 123.533 44.04 123.877C43.6855 124.266 43.1993 124.527 42.6588 124.594C42.4973 124.614 42.3317 124.618 42.1625 124.601C41.2237 124.508 40.4793 123.846 40.2329 122.991C40.1564 122.726 40.1265 122.442 40.1552 122.151C40.1851 121.849 40.6975 117.004 43.051 110.704C44.2463 107.505 45.9158 103.931 48.2388 100.385C52.3281 94.1466 57.5888 89.3075 63.8767 86.0009Z" fill="#E0AE80"/>
<path d="M136.975 143.223C129.592 147.025 122.657 150.144 119.32 151.607L114.273 137.173L119.653 133.141L124.344 129.625L129.757 125.568L132.629 123.416L135.197 121.492L135.924 120.947L139.853 118.003L142.083 116.331L137.4 94.952C137.4 94.952 133.939 58.9135 143.73 60.8598C153.52 62.8061 167.737 114.498 162.444 125.085C160.496 128.98 153.864 133.721 146.258 138.157C143.24 139.917 140.068 141.63 136.975 143.223Z" fill="#FF6C3A"/>
<path d="M96.629 36.5293C96.9142 36.4599 97.1881 36.4175 97.4488 36.3989C97.3663 36.8073 97.4757 37.2725 97.8225 37.8418C98.7302 39.333 100.978 38.8361 101.821 37.6038C101.91 37.4734 102.006 37.2516 102.103 36.964C102.916 36.7762 103.969 36.7619 105.18 37.2809C108.031 38.5025 109.456 40.2329 110.83 39.9788C109.564 40.6802 108.197 41.0389 106.912 41.128C106.469 41.1585 106.036 41.1579 105.62 41.1274C104.528 41.0473 103.556 40.7657 102.839 40.3358C101.407 39.4765 100.469 38.9467 99.9972 38.7715C99.5057 39.04 98.8731 39.4102 98.0939 39.8777C97.7477 40.0858 97.3411 40.258 96.8903 40.3908C95.0241 40.9403 92.3986 40.7926 90.1025 39.5214C90.9605 39.6804 91.8389 39.0651 93.0713 38.283C93.8127 37.8131 94.6821 37.2821 95.7524 36.8235C96.055 36.6925 96.3473 36.598 96.629 36.5293Z" fill="#080808"/>
<path d="M99.1835 34.6642C100.259 34.0369 101.23 30.6885 101.728 28.6764C101.902 27.9762 102.915 28.0288 103.012 28.744C103.324 31.0568 102.685 35.2394 102.103 36.9638C102.005 37.2515 101.91 37.4733 101.82 37.6036C100.977 38.836 98.7297 39.3329 97.822 37.8416C97.4758 37.2724 97.3657 36.8072 97.4483 36.3988C97.5822 35.7375 98.2214 35.225 99.1835 34.6642Z" fill="#B26B5E"/>
<path d="M103.398 46.2898H101.82L101.108 43.8975H103.348L103.398 46.2898Z" fill="#080808"/>
<path d="M113.004 63.9602L111.098 65.5621L110.787 62.9013L109.724 53.8042L118.357 50.9269L120.26 50.2925L121.528 56.2085L121.635 56.706L113.004 63.9602Z" fill="#FF6C3A"/>
<path d="M119.32 151.607L120.127 153.913L108.916 155.623L108.081 152.57L105.725 143.942L104.947 141.095L113.955 136.261L114.274 137.173L119.32 151.607Z" fill="#FF7C48"/>
</svg>
