<svg width="221" height="213" viewBox="0 0 221 213" fill="none" xmlns="http://www.w3.org/2000/svg">
<path opacity="0.1" d="M107.292 193.996C161.446 193.996 205.346 188.324 205.346 181.327C205.346 174.33 161.446 168.658 107.292 168.658C53.1385 168.658 9.23828 174.33 9.23828 181.327C9.23828 188.324 53.1385 193.996 107.292 193.996Z" fill="black"/>
<path d="M49.2601 181.134L156.61 182.193C162.712 182.253 167.661 177.262 167.55 171.16L165.639 65.9189C165.47 56.6731 160.683 48.1267 152.886 43.154L142.655 36.632L140.95 20.7296L63.7135 20.4446L62.5785 34.0745L49.6032 47.7809C44.9737 52.6717 42.2921 59.0855 42.0651 65.816L38.5415 169.93C38.3356 176.011 43.1789 181.071 49.2627 181.132L49.2601 181.134Z" fill="#FFDBBF"/>
<g style="mix-blend-mode:multiply">
<path d="M153.504 55.2189C150.316 57.9295 146.908 60.3631 143.15 62.237C141.392 63.1133 139.571 63.8656 137.699 64.4647C135.794 65.0744 133.806 65.4122 131.821 65.6472C127.707 66.1354 123.531 66.0193 119.419 65.5759C111.176 64.6864 103.245 62.3875 95.3632 59.9117C87.2075 57.3515 79.0385 54.6567 70.5713 53.3264C65.8653 52.5874 61.0879 52.3498 56.3898 52.8328L55.5373 53.7329C51.4224 58.08 49.039 63.7811 48.8358 69.7646L45.7028 162.31C45.5207 167.716 49.8256 172.213 55.2337 172.266L150.656 173.206C156.08 173.258 160.48 168.824 160.38 163.4L158.68 69.8517C158.582 64.4673 156.722 59.3522 153.501 55.2189H153.504Z" fill="#FFDBBF"/>
</g>
<path d="M105.896 127.813C99.5059 133.849 96.5629 143.359 98.5874 151.911C100.612 160.462 107.596 167.692 116.116 169.851C128.341 172.949 141.787 167.325 146.49 155.276C149.449 147.701 148.301 138.661 143.542 132.065C135.478 120.887 116.266 118.013 105.893 127.813H105.896Z" fill="#FF8426"/>
<path d="M108.557 130.677C103.16 135.776 100.673 143.81 102.384 151.034C104.094 158.261 109.996 164.366 117.194 166.19C127.522 168.806 138.882 164.057 142.856 153.877C145.356 147.479 144.385 139.841 140.365 134.269C133.553 124.825 117.323 122.397 108.557 130.677Z" fill="#FF8426"/>
<path d="M123.405 138.434C122.154 138.434 120.697 130.767 123.405 130.809C126.113 130.851 124.197 138.434 123.405 138.434Z" fill="white"/>
<path d="M131.115 146.392C131.115 145.141 138.783 143.684 138.74 146.392C138.698 149.1 131.115 147.184 131.115 146.392Z" fill="white"/>
<path d="M123.157 154.102C124.408 154.102 125.865 161.769 123.157 161.727C120.449 161.685 122.366 154.102 123.157 154.102Z" fill="white"/>
<path d="M115.448 146.141C115.448 147.392 107.78 148.849 107.822 146.141C107.865 143.433 115.448 145.349 115.448 146.141Z" fill="white"/>
<path d="M118.499 143.399C118.18 144.133 113.299 143.029 114.017 141.448C114.735 139.867 118.7 142.934 118.499 143.399Z" fill="white"/>
<path d="M119.542 140.168C118.597 140.664 114.448 135.454 116.512 134.409C118.573 133.364 120.141 139.854 119.542 140.168Z" fill="white"/>
<path d="M126.228 141.979C125.484 141.681 126.45 136.771 128.052 137.444C129.651 138.117 126.7 142.169 126.228 141.979Z" fill="white"/>
<path d="M129.487 142.929C128.964 142 134.056 137.706 135.159 139.735C136.262 141.768 129.819 143.518 129.487 142.929Z" fill="white"/>
<path d="M127.83 149.72C128.118 148.971 133.04 149.857 132.394 151.47C131.747 153.083 127.648 150.195 127.83 149.72Z" fill="white"/>
<path d="M126.931 152.993C127.852 152.455 132.229 157.475 130.215 158.612C128.201 159.747 126.348 153.336 126.931 152.993Z" fill="white"/>
<path d="M120.082 151.428C120.834 151.708 119.995 156.638 118.377 156.007C116.759 155.376 119.607 151.251 120.082 151.428Z" fill="white"/>
<path d="M116.799 150.562C117.346 151.478 112.368 155.904 111.212 153.901C110.056 151.898 116.451 149.981 116.799 150.562Z" fill="white"/>
<path d="M55.9386 118.261C54.7614 125.041 57.377 132.382 62.6558 136.795C67.9346 141.208 75.7024 142.464 82.0581 139.822C91.1746 136.032 96.9681 126.203 94.268 116.442C92.5709 110.306 87.6114 105.177 81.5381 103.272C71.2418 100.044 57.8495 107.249 55.9386 118.258V118.261Z" fill="#FF8426"/>
<path d="M58.9503 118.807C57.9552 124.535 60.1644 130.737 64.625 134.467C69.0856 138.194 75.6472 139.257 81.0157 137.024C88.7175 133.823 93.611 125.519 91.3305 117.274C89.8973 112.09 85.7086 107.756 80.5749 106.149C71.8755 103.422 60.563 109.509 58.9477 118.81L58.9503 118.807Z" fill="#FF8426"/>
<path d="M71.8972 116.709C71.1133 117.295 66.6026 113.172 68.3208 111.926C70.0391 110.683 72.3934 116.337 71.8972 116.709Z" fill="white"/>
<path d="M80.461 118.084C79.875 117.3 83.9978 112.789 85.2436 114.508C86.4867 116.226 80.8331 118.58 80.461 118.084Z" fill="white"/>
<path d="M79.0868 126.649C79.8707 126.063 84.3815 130.186 82.6632 131.432C80.945 132.675 78.5906 127.021 79.0868 126.649Z" fill="white"/>
<path d="M70.5214 125.274C71.1073 126.058 66.9846 130.568 65.7388 128.85C64.4956 127.132 70.1492 124.778 70.5214 125.274Z" fill="white"/>
<path d="M71.1497 122.122C71.2949 122.732 67.7185 124.329 67.4255 123.001C67.1352 121.674 71.0573 121.737 71.1497 122.122Z" fill="white"/>
<path d="M70.2865 119.607C69.9275 120.362 64.8836 119.039 65.686 117.416C66.4883 115.793 70.5134 119.129 70.2865 119.607Z" fill="white"/>
<path d="M75.328 117.609C74.7213 117.77 73.0278 114.241 74.3441 113.911C75.663 113.581 75.7105 117.506 75.328 117.609Z" fill="white"/>
<path d="M77.8168 116.677C77.0514 116.339 78.2312 111.261 79.8755 112.016C81.5199 112.771 78.2998 116.891 77.8168 116.677Z" fill="white"/>
<path d="M79.9631 121.711C79.7916 121.106 83.2941 119.354 83.6451 120.668C83.9961 121.982 80.0713 122.093 79.9631 121.711Z" fill="white"/>
<path d="M80.9332 124.186C81.2578 123.416 86.3571 124.514 85.626 126.169C84.8975 127.824 80.7273 124.675 80.9332 124.186Z" fill="white"/>
<path d="M75.9064 126.414C76.5078 126.237 78.2937 129.721 76.9853 130.085C75.6769 130.45 75.5265 126.527 75.9064 126.414Z" fill="white"/>
<path d="M73.4413 127.412C74.2147 127.728 73.1668 132.838 71.504 132.123C69.8412 131.41 72.953 127.208 73.4413 127.412Z" fill="white"/>
<path d="M90.0789 80.2826C88.614 88.7261 91.8684 97.869 98.4431 103.367C105.018 108.862 114.691 110.427 122.604 107.139C133.959 102.419 141.172 90.1777 137.813 78.0233C135.698 70.3822 129.525 63.9922 121.958 61.622C109.133 57.6022 92.4543 66.5762 90.0762 80.2852L90.0789 80.2826Z" fill="#FF8426"/>
<path d="M93.8299 80.9635C92.592 88.0979 95.3422 95.8208 100.898 100.463C106.454 105.106 114.626 106.429 121.311 103.649C130.903 99.6611 137 89.3199 134.16 79.05C132.376 72.594 127.158 67.1964 120.765 65.1931C109.93 61.7962 95.8411 69.3792 93.8299 80.9609V80.9635Z" fill="#FF8426"/>
<path d="M109.955 78.3506C108.978 79.0817 103.362 73.9454 105.502 72.3961C107.643 70.8468 110.572 77.8887 109.955 78.3506Z" fill="white"/>
<path d="M120.622 80.0637C119.89 79.0871 125.027 73.4704 126.576 75.611C128.125 77.7515 121.083 80.6813 120.622 80.0637Z" fill="white"/>
<path d="M118.91 90.7319C119.887 90.0008 125.503 95.1371 123.363 96.6864C121.222 98.2358 118.292 91.1938 118.91 90.7319Z" fill="white"/>
<path d="M108.241 89.0164C108.972 89.993 103.836 95.6096 102.287 93.4691C100.737 91.3285 107.779 88.3988 108.241 89.0164Z" fill="white"/>
<path d="M109.022 85.0942C109.202 85.8544 104.746 87.8418 104.385 86.1869C104.02 84.5347 108.909 84.6112 109.022 85.0942Z" fill="white"/>
<path d="M107.951 81.9612C107.505 82.9009 101.221 81.2539 102.221 79.2347C103.221 77.2156 108.234 81.3674 107.951 81.9612Z" fill="white"/>
<path d="M114.227 79.4697C113.472 79.6703 111.36 75.2757 113.002 74.8639C114.644 74.4548 114.705 79.343 114.227 79.4697Z" fill="white"/>
<path d="M117.328 78.311C116.375 77.8913 117.846 71.5647 119.891 72.5069C121.939 73.4492 117.93 78.5776 117.328 78.311Z" fill="white"/>
<path d="M120 84.5795C119.786 83.8273 124.149 81.6445 124.584 83.2809C125.02 84.9174 120.134 85.0572 120 84.5795Z" fill="white"/>
<path d="M121.212 87.6623C121.616 86.7042 127.967 88.0688 127.059 90.1302C126.151 92.1916 120.956 88.2668 121.212 87.6623Z" fill="white"/>
<path d="M114.948 90.4392C115.698 90.2201 117.923 94.5593 116.292 95.0106C114.661 95.462 114.473 90.5791 114.948 90.4392Z" fill="white"/>
<path d="M111.878 91.677C112.841 92.0729 111.537 98.4339 109.465 97.547C107.393 96.6576 111.268 91.4289 111.878 91.677Z" fill="white"/>
<path d="M81.5027 146.339C80.7505 144.571 78.7525 143.425 76.8468 143.663C74.9412 143.903 73.2889 145.508 72.9959 147.405C71.6683 147.078 70.1375 147.535 69.1345 148.466C68.1315 149.398 67.6406 150.847 67.8702 152.196C68.0998 153.544 69.0421 154.751 70.2958 155.3C69.2374 156.377 68.6277 158 68.7307 159.507C68.8336 161.014 69.702 162.474 71.0322 163.186C72.3625 163.902 74.1203 163.796 75.2949 162.843C75.9468 163.762 76.8785 164.548 77.9184 164.978C78.5836 165.253 79.3094 165.409 80.0273 165.332C81.4394 165.182 82.6878 164.041 82.9676 162.65C85.2876 162.978 87.7608 161.312 88.4153 159.066C89.0726 156.817 87.8637 154.178 85.7337 153.207C86.9346 151.85 87.1986 149.733 86.3408 148.136C85.4803 146.542 83.3028 146.078 81.508 146.336L81.5027 146.339Z" fill="#FF9022"/>
<path d="M80.9873 147.611C80.3512 146.12 78.6673 145.151 77.0572 145.352C75.4472 145.552 74.0536 146.909 73.8081 148.511C72.6864 148.237 71.3957 148.622 70.5485 149.406C69.7039 150.192 69.2895 151.415 69.4821 152.555C69.6748 153.695 70.4719 154.711 71.5277 155.173C70.6329 156.081 70.1182 157.453 70.2053 158.726C70.2924 159.998 71.0262 161.228 72.1479 161.832C73.2697 162.437 74.753 162.347 75.7455 161.545C76.2971 162.318 77.081 162.983 77.9599 163.347C78.5221 163.58 79.1344 163.711 79.7389 163.646C80.9292 163.516 81.9824 162.558 82.2199 161.384C84.1757 161.658 86.2635 160.254 86.8178 158.359C87.372 156.464 86.3532 154.233 84.5532 153.413C85.5667 152.267 85.791 150.48 85.0652 149.134C84.3394 147.788 82.4997 147.397 80.9873 147.614V147.611Z" fill="#FFC840"/>
<path d="M75.4451 152.916C75.0308 153.808 75.139 154.914 75.688 155.733C76.237 156.551 77.1977 157.065 78.1796 157.108C78.7787 157.134 79.4069 156.981 79.8556 156.58C80.3518 156.134 80.563 155.442 80.5709 154.774C80.5814 153.943 80.2964 153.104 79.7474 152.481C78.491 151.053 76.2924 151.087 75.4425 152.919L75.4451 152.916Z" fill="#FF6D24"/>
<path d="M76.3849 79.583C76.6568 77.1073 75.1259 74.5418 72.8217 73.6021C70.5175 72.6625 67.63 73.4279 66.0939 75.389C64.8006 74.1775 62.7788 73.7209 61.0552 74.1379C59.3317 74.555 57.8563 75.8826 57.2598 77.5507C56.6633 79.2214 56.9615 81.1825 58.0305 82.5972C56.1486 83.1409 54.4303 84.59 53.5884 86.3584C52.749 88.1268 52.8045 90.328 53.8549 91.9803C54.9054 93.6326 56.9589 94.6276 58.8883 94.2977C59.044 95.7494 59.5956 97.2301 60.4983 98.3782C61.0763 99.112 61.7969 99.7481 62.6547 100.118C64.3466 100.841 66.4792 100.347 67.6801 98.9536C70.0952 100.793 73.9461 100.484 76.113 98.3598C78.2826 96.235 78.5914 92.4844 76.8019 90.0324C79.0217 89.2617 80.6634 87.0367 80.7056 84.6876C80.7452 82.3386 78.5756 80.4329 76.3849 79.5857V79.583Z" fill="#FF9022"/>
<path d="M74.9933 80.6941C75.2229 78.6037 73.9322 76.4394 71.9844 75.6475C70.0365 74.8557 67.603 75.4997 66.307 77.1547C65.2143 76.1306 63.5092 75.7479 62.0549 76.0989C60.6006 76.4499 59.3548 77.5717 58.8507 78.9785C58.3466 80.3879 58.5999 82.0428 59.5026 83.2385C57.9163 83.6977 56.4647 84.9224 55.7547 86.4137C55.0447 87.9049 55.0922 89.7631 55.979 91.1567C56.8658 92.5503 58.5973 93.3923 60.2285 93.1125C60.3604 94.3372 60.825 95.5883 61.5877 96.5543C62.0734 97.1745 62.6857 97.7103 63.4089 98.0218C64.8369 98.6341 66.6369 98.2145 67.6505 97.0399C69.6881 98.5945 72.9372 98.3306 74.7689 96.5384C76.598 94.7463 76.862 91.5816 75.3496 89.5123C77.2236 88.8604 78.6093 86.9838 78.6436 85.0016C78.6779 83.0194 76.8461 81.4094 74.9986 80.6941H74.9933Z" fill="#FFC840"/>
<path d="M65.36 83.1725C64.3254 83.9195 63.7447 85.2365 63.8477 86.5087C63.948 87.7809 64.7081 88.9713 65.7929 89.6443C66.4554 90.0534 67.2604 90.2804 68.0206 90.1115C68.8625 89.9241 69.5435 89.2748 69.9764 88.5279C70.5148 87.5962 70.7286 86.4665 70.5042 85.4107C69.9896 82.9983 67.4821 81.6443 65.3627 83.1725H65.36Z" fill="#FF6D24"/>
<path d="M155.051 105.932C155.249 104.114 154.127 102.229 152.432 101.538C150.738 100.846 148.619 101.411 147.489 102.849C146.539 101.96 145.053 101.625 143.788 101.931C142.524 102.237 141.439 103.211 140.999 104.438C140.558 105.666 140.779 107.107 141.566 108.147C140.183 108.545 138.921 109.612 138.304 110.91C137.686 112.209 137.728 113.827 138.499 115.038C139.27 116.252 140.779 116.983 142.197 116.741C142.31 117.807 142.717 118.894 143.379 119.736C143.804 120.275 144.335 120.745 144.963 121.014C146.206 121.547 147.774 121.183 148.655 120.159C150.429 121.51 153.259 121.283 154.85 119.723C156.444 118.163 156.671 115.408 155.357 113.608C156.988 113.04 158.194 111.406 158.223 109.68C158.252 107.954 156.658 106.555 155.051 105.932Z" fill="#FF9022"/>
<path d="M154.029 106.748C154.198 105.212 153.25 103.623 151.82 103.04C150.389 102.456 148.599 102.931 147.647 104.145C146.844 103.393 145.591 103.111 144.524 103.369C143.455 103.628 142.542 104.452 142.17 105.486C141.8 106.521 141.985 107.738 142.648 108.614C141.481 108.952 140.415 109.849 139.895 110.947C139.375 112.045 139.409 113.407 140.061 114.431C140.713 115.455 141.985 116.073 143.181 115.87C143.276 116.77 143.619 117.688 144.178 118.398C144.537 118.852 144.983 119.248 145.517 119.475C146.564 119.924 147.887 119.618 148.631 118.755C150.128 119.895 152.516 119.702 153.86 118.385C155.203 117.068 155.396 114.743 154.287 113.222C155.662 112.745 156.681 111.364 156.708 109.907C156.734 108.45 155.388 107.268 154.029 106.743V106.748Z" fill="#FFC840"/>
<path d="M146.95 108.569C146.189 109.118 145.764 110.084 145.838 111.021C145.912 111.955 146.469 112.832 147.266 113.325C147.752 113.626 148.346 113.792 148.903 113.668C149.523 113.531 150.022 113.053 150.339 112.504C150.734 111.818 150.89 110.989 150.727 110.216C150.349 108.445 148.507 107.447 146.95 108.572V108.569Z" fill="#FF6D24"/>
<path d="M56.9246 20.339L56.5551 25.5123C56.3307 28.6584 58.8197 31.3374 61.9738 31.3427L142.594 31.509C145.714 31.5143 148.201 28.9065 148.042 25.792L147.654 18.1035C147.504 15.1447 145.017 12.8484 142.059 12.9355L62.1955 15.2846C59.403 15.3664 57.1252 17.5518 56.9246 20.339Z" fill="#218D56"/>
<path d="M151.882 38.3689H54.2004C53.0074 38.3689 53.0048 40.2218 54.2004 40.2218H151.882C153.075 40.2218 153.078 38.3689 151.882 38.3689Z" fill="#2A3315"/>
<path d="M158.239 42.8057H50.0813C48.8883 42.8057 48.8856 44.6585 50.0813 44.6585H158.236C159.429 44.6585 159.432 42.8057 158.236 42.8057H158.239Z" fill="#2A3315"/>
<path d="M149.53 22.0125H55.636C54.443 22.0125 54.4403 23.8653 55.636 23.8653H149.53C150.723 23.8653 150.726 22.0125 149.53 22.0125Z" fill="#2A3315"/>
<path d="M121.598 16.7704C120.035 15.588 117.897 15.5642 116.026 15.4983C113.656 15.4164 111.243 15.5141 109.071 16.554C107.062 17.5148 105.716 19.2462 105.141 21.3788C104.853 22.4478 104.732 23.559 104.621 24.657C104.492 25.9265 104.365 27.1987 104.236 28.4683C103.658 34.2011 103.079 39.9339 102.501 45.6667C102.451 46.1655 102.963 46.5931 103.428 46.5931C103.972 46.5931 104.304 46.1655 104.354 45.6667C104.843 40.8181 105.331 35.9695 105.822 31.1209C106.059 28.7639 106.273 26.4016 106.54 24.0473C106.751 22.1733 107.168 20.236 108.683 18.9744C110.216 17.6969 112.315 17.3722 114.247 17.3326C115.347 17.3115 116.459 17.3458 117.557 17.425C118.322 17.4804 119.124 17.5834 119.842 17.8816C120.531 18.1667 121.062 18.6523 121.252 19.3887C121.505 20.3732 121.273 21.495 121.175 22.49C120.935 24.9368 120.695 27.3809 120.455 29.8276L118.85 46.1523C118.8 46.6512 119.312 47.0787 119.776 47.0787C120.317 47.0787 120.653 46.6512 120.703 46.1523C121.207 41.016 121.714 35.8824 122.218 30.7461C122.471 28.178 122.722 25.6098 122.975 23.0417C123.194 20.8246 123.63 18.3092 121.603 16.7757L121.598 16.7704Z" fill="#2A3315"/>
<g style="mix-blend-mode:soft-light">
<path d="M51.0998 70.0576C49.986 74.0167 49.9754 78.1896 49.9754 82.3018C49.9728 91.772 49.9701 101.24 49.9648 110.71C49.9648 113.307 50.3 116.464 52.6597 117.551C55.0879 118.67 57.7696 116.728 59.6673 114.848C65.0332 109.533 69.8396 103.56 73.1652 96.779C76.4909 89.9957 78.2883 82.3573 77.5387 74.8402C77.0689 70.1263 75.48 65.3199 72.0356 62.0708C64.0593 54.5406 53.6521 60.9939 51.0998 70.0603V70.0576Z" fill="white"/>
<path d="M58.149 129.97C59.0965 131.062 60.5455 131.622 61.984 131.783C63.5729 131.96 65.2437 131.683 66.5924 130.825C68.4532 129.64 69.5274 127.462 69.7782 125.271C70.3245 120.491 66.017 116.036 61.2028 118.53C57.8111 120.291 55.5016 126.918 58.149 129.97Z" fill="white"/>
<path d="M140.039 154.3C138.305 156.884 137.482 160.222 138.464 163.176C139.77 167.114 144.4 169.569 148.422 168.555C152.447 167.544 155.348 163.305 154.955 159.175C154.611 155.556 152.064 152.895 148.91 151.409C145.418 149.762 142.193 151.087 140.037 154.3H140.039Z" fill="white"/>
</g>
</svg>
