<svg width="280" height="280" viewBox="0 0 280 280" fill="none" xmlns="http://www.w3.org/2000/svg">
<path d="M159.649 200.366C154.527 199.164 151.782 198.757 151.229 196.974C150.796 195.573 152.084 192.18 153.139 189.724C150.726 187.971 148.044 186.624 145.198 185.736C142.407 184.736 139.485 184.143 136.524 183.976C132.795 190.925 129.704 198.199 127.29 205.707H167.442C167.442 204.478 164.773 201.571 159.649 200.366Z" fill="#DFEE45"/>
<path d="M67.4733 196.068C65.6908 192.852 63.3978 189.947 60.6839 187.467L47.9365 194.451C50.3617 194.033 53.7133 201.76 55.4225 211.708C57.1317 221.655 56.5522 230.055 54.127 230.473C56.952 230.026 58.9691 220.897 59.2658 217.849C59.5625 214.801 59.7422 211.359 62.5575 208.377C64.8442 206.186 67.3377 204.221 70.003 202.511C69.5447 200.232 68.6884 198.051 67.4733 196.068Z" fill="#DFEE45"/>
<path d="M164.877 81.0388C164.877 81.0388 159.194 72.2475 153.19 70.5132C152.137 72.9823 150.628 75.2311 148.744 77.1425C144.983 80.5233 138.296 79.9425 138.362 73.6754C138.431 67.9919 138.105 65.6949 132.306 62.8434C126.549 61.7178 119.24 64.1835 114.15 65.9999L116.646 85.3111L122.178 83.5489L112.587 109.62L138.19 119.328C139.384 116.136 140.779 113.024 142.368 110.009C144.287 106.751 148.218 101.233 149.425 98.2507C150.158 96.3827 150.531 94.3921 150.525 92.3861L153.378 95.3282L164.877 81.0388Z" fill="#218D56"/>
<path d="M149.694 56.9437C150.949 55.9181 152.1 54.7722 153.132 53.5225C153.512 53.0829 153.862 52.6174 154.178 52.1295C153.49 50.9339 153.236 49.5374 153.459 48.1761C153.508 48.0194 153.587 47.8741 153.693 47.7487C153.799 47.6234 153.929 47.5206 154.076 47.4466C154.222 47.3725 154.382 47.3286 154.546 47.3176C154.71 47.3065 154.874 47.3284 155.029 47.3821C155.237 47.4532 155.421 47.5788 155.564 47.7457C156.067 48.3029 156.361 49.0287 156.832 49.5218C157.679 48.4163 158.6 47.3697 159.588 46.3889C161.008 45.1018 162.096 44.9848 162.475 46.9461C162.725 49.7795 162.711 52.6296 162.436 55.4615C163.866 53.0238 166.134 46.0769 164.409 43.4023C162.479 40.4074 158.381 38.9447 154.993 38.7135C152.664 38.5743 150.364 39.2779 148.512 40.6958C146.659 42.1136 145.379 44.1509 144.906 46.4349C144.115 49.6987 145.582 55.2777 149.694 56.9437Z" fill="#218D56"/>
<path d="M148.384 34.4983C147.941 30.6593 146.726 26.9496 144.812 23.5925C143.96 21.9879 142.783 20.578 141.357 19.4525C134.045 14.219 117.955 22.1131 119.32 37.4876C119.716 41.9647 121.773 46.2357 126.129 47.2386C128.296 47.5743 130.483 47.7735 132.676 47.8334C137.637 47.9909 145.035 47.5298 147.629 43.2992C148.934 41.1652 148.7 36.975 148.384 34.4983Z" fill="#218D56"/>
<path d="M153.14 189.73C152.584 190.997 152.093 192.293 151.67 193.611C152.876 193.682 153.934 193.519 154.331 192.319C154.612 191.46 154.131 190.584 153.14 189.73Z" fill="#218D56"/>
<path d="M134.114 188.763C134.893 187.156 135.695 185.56 136.521 183.976C134.26 183.91 132.455 184.324 132.024 185.565C131.708 186.479 132.926 188.269 134.114 188.763Z" fill="#218D56"/>
<path d="M54.1275 230.472C56.5513 230.056 57.1322 221.653 55.423 211.707C53.7124 201.76 50.3622 194.034 47.937 194.451C45.5132 194.867 44.9323 203.269 46.6415 213.216C48.3507 223.163 51.7023 230.889 54.1275 230.472Z" fill="#218D56"/>
<path d="M65.8119 205.503C66.9263 206.511 68.3681 207.555 69.4658 206.991C70.1539 206.637 70.4492 204.901 70.0035 202.505C68.5707 203.454 67.1721 204.454 65.8105 205.503H65.8119Z" fill="#218D56"/>
<path d="M60.6829 187.466C59.6158 186.65 58.6756 186.324 57.993 186.738C57.6325 187.05 57.3735 187.462 57.2494 187.922C57.1253 188.383 57.1417 188.869 57.2965 189.32L60.6843 187.466H60.6829Z" fill="#218D56"/>
<path d="M125.847 145.407C121.376 144.734 116.999 143.545 112.802 141.863C113.686 143.896 120.045 149.174 123.784 150.896C124.473 149.066 125.16 147.237 125.847 145.407Z" fill="#218D56"/>
<path d="M159.042 60.1476C158.168 59.9883 157.351 59.5999 156.676 59.0218C156.001 58.4437 155.491 57.6968 155.199 56.8573C154.649 57.6708 154.2 58.5478 153.86 59.4692C157.27 61.5768 160.15 60.4791 160.686 59.7603C160.456 59.9393 160.19 60.0666 159.906 60.1334C159.623 60.2003 159.328 60.2051 159.042 60.1476Z" fill="#218D56"/>
<path d="M264.687 113.318C261.744 110.868 258.147 109.336 254.342 108.912C250.536 108.488 246.69 109.191 243.281 110.934C240.944 112.126 238.866 113.768 237.165 115.765C235.464 117.761 234.174 120.074 233.368 122.571C232.975 123.832 232.684 125.123 232.497 126.431C232.138 123.16 230.969 120.03 229.096 117.325C227.223 114.619 224.706 112.422 221.771 110.934C218.362 109.191 214.516 108.488 210.71 108.912C206.905 109.336 203.307 110.868 200.365 113.318C197.49 115.498 195.316 118.473 194.114 121.875C192.912 125.277 192.733 128.957 193.601 132.46C195.013 137.753 199.15 144.161 205.899 151.52C214.051 160.13 222.963 167.986 232.528 174.992C242.094 167.987 251.006 160.131 259.157 151.52C265.906 144.166 270.043 137.754 271.457 132.46C272.325 128.957 272.146 125.276 270.943 121.874C269.739 118.471 267.564 115.497 264.687 113.318Z" fill="#DFEE45"/>
<path d="M149.694 56.9438C150.949 55.9186 152.1 54.7727 153.132 53.5226C153.513 53.0834 153.862 52.6179 154.178 52.1296C153.49 50.934 153.236 49.5375 153.459 48.1763C153.508 48.0194 153.587 47.8739 153.694 47.7484C153.8 47.623 153.93 47.5201 154.076 47.4461C154.223 47.372 154.383 47.3281 154.547 47.3172C154.711 47.3062 154.875 47.3283 155.03 47.3823C155.237 47.4538 155.422 47.5793 155.564 47.7458C156.067 48.303 156.361 49.0288 156.832 49.5219C157.679 48.4168 158.6 47.3701 159.588 46.389C161.008 45.1019 162.096 44.9849 162.475 46.9462C162.725 49.7796 162.713 52.6297 162.436 55.4616C163.866 53.0239 166.134 46.077 164.409 43.4024C162.479 40.4075 158.381 38.9449 154.993 38.7136C152.664 38.5744 150.364 39.278 148.512 40.6959C146.659 42.1137 145.379 44.151 144.906 46.435C144.115 49.6988 145.582 55.2778 149.694 56.9438Z" stroke="#218D56" stroke-width="0.769171" stroke-linecap="round" stroke-linejoin="round"/>
<path d="M225.948 83.0483C225.622 82.5326 225.117 82.1564 224.529 81.9926C223.941 81.8289 223.314 81.8894 222.768 82.1623C223.277 81.8527 223.666 81.3799 223.872 80.8209C224.078 80.2619 224.089 79.6496 223.902 79.0838C223.593 78.5373 223.087 78.1292 222.488 77.9423C221.889 77.7555 221.241 77.804 220.676 78.0781C221.197 77.7727 221.594 77.2944 221.799 76.7264C222.004 76.1583 222.003 75.5365 221.797 74.9689C221.494 74.4117 220.985 73.9951 220.379 73.8084C219.773 73.6218 219.118 73.6798 218.554 73.9701C218.869 73.7982 219.142 73.5586 219.354 73.2686C219.565 72.9787 219.71 72.6454 219.777 72.2929C219.846 71.9406 219.836 71.5774 219.748 71.2293C219.661 70.8811 219.498 70.5566 219.27 70.2787C218.94 69.9936 218.54 69.8001 218.112 69.7172C217.683 69.6344 217.24 69.6651 216.827 69.8064C215.977 70.0683 212.688 71.8263 212.688 71.8263C212.261 71.372 211.702 71.0623 211.09 70.9402C210.478 70.8181 209.843 70.8897 209.274 71.1451C204.595 72.7011 203.724 73.3377 202.815 77.4568C202.217 80.1676 202.035 80.4894 200.798 81.3349C196.323 84.3995 182.308 91.7643 176.281 94.9362C173.416 91.9927 170.372 87.4293 164.886 81.0382L153.373 95.3276C157.73 99.8548 164.589 107.101 169.498 110.96C170.33 111.759 171.379 112.296 172.513 112.504C173.648 112.712 174.819 112.581 175.88 112.127C179.683 110.456 224.863 86.0781 225.003 85.9847C225.483 85.6868 225.841 85.228 226.015 84.6902C226.188 84.1523 226.164 83.5704 225.948 83.0483Z" fill="white" stroke="#218D56" stroke-width="0.769171" stroke-linecap="round" stroke-linejoin="round"/>
<path d="M218.55 73.9707L215.067 75.7914" stroke="#218D56" stroke-width="0.769171" stroke-linecap="round" stroke-linejoin="round"/>
<path d="M212.685 71.8268C214.286 73.8946 215.443 76.2704 216.084 78.8057C216.564 81.412 214.882 81.5778 213.679 80.5247C212.477 79.4716 209.686 77.0101 209.686 77.0101C210.219 78.2852 210.451 79.6661 210.365 81.0456C210.278 82.425 209.874 83.7659 209.186 84.9642" stroke="#218D56" stroke-width="0.769171" stroke-linecap="round" stroke-linejoin="round"/>
<path d="M220.671 78.0784L216.041 80.4354" stroke="#218D56" stroke-width="0.769171" stroke-linecap="round" stroke-linejoin="round"/>
<path d="M211.208 78.3514C211.007 78.7492 210.929 79.1975 210.984 79.6396C211.038 80.0817 211.222 80.4978 211.513 80.8352C211.805 81.1723 212.19 81.415 212.62 81.5323C213.05 81.6497 213.505 81.6363 213.927 81.494C214.228 81.3715 214.518 81.2294 214.802 81.1012" stroke="#218D56" stroke-width="0.769171" stroke-linecap="round" stroke-linejoin="round"/>
<path d="M213.927 81.4941C211.531 82.6489 213.411 87.0062 216.349 85.4739C218.621 84.2884 222.757 82.1571 222.757 82.1571" stroke="#218D56" stroke-width="0.769171" stroke-linecap="round" stroke-linejoin="round"/>
<path d="M216.349 85.4792C213.695 86.8332 215.807 90.937 218.666 89.4117" stroke="#218D56" stroke-width="0.769171" stroke-linecap="round" stroke-linejoin="round"/>
<path d="M114.15 65.9995C100.273 70.7646 86.705 76.3869 73.5247 82.8339C70.1425 84.4609 69.3735 85.9402 68.6798 89.3029C67.2492 96.2345 66.1097 103.921 64.7474 111.025C64.101 115.018 63.104 118.946 61.7677 122.763C59.3188 129.137 55.509 134.972 52.4904 141.644C51.6546 143.404 52.8414 144.515 54.5952 142.386C56.9507 139.617 58.1069 137.413 61.3429 132.85C59.6294 137.131 58.1488 141.502 56.9076 145.944C56.4005 147.805 58.2239 148.232 59.1656 146.93C61.607 142.886 63.781 138.686 65.6737 134.358C65.4648 136.652 65.0928 139.011 64.8031 141.146C64.4576 143.687 64.016 148.056 64.0606 149.226C64.1191 150.829 65.5247 151.454 66.2253 149.27C67.4386 145.492 67.6657 144.761 68.3761 142.475C69.0072 140.45 70.4057 136.325 70.4057 136.325C70.5297 137.839 70.5645 140.667 70.8069 143.362C70.9643 145.335 71.2805 147.292 71.7542 149.213C72.3963 151.509 73.9551 151.042 74.1 148.822C74.1459 148.106 74.1975 147.029 74.3117 145.368C74.5165 142.385 74.7059 140.097 74.9302 137.953C75.0583 136.722 75.1809 135.701 75.3188 134.738C75.6295 132.537 77.3067 131.755 78.8013 132.386C80.6483 133.591 82.3994 134.937 84.039 136.411C86.1048 138.055 87.3404 136.261 86.4656 134.684C85.6814 133.258 85.5755 133.058 85.2537 132.485C83.1294 128.697 80.7529 124.795 77.0963 122.288C77.3498 121.108 82.7965 96.0855 82.7965 96.0855L116.646 85.3064L114.15 65.9995Z" fill="white" stroke="#218D56" stroke-width="0.769171" stroke-linecap="round" stroke-linejoin="round"/>
<path d="M148.456 40.7488C148.776 38.6635 148.599 36.1839 148.384 34.4984C147.941 30.6594 146.726 26.9498 144.812 23.5926C143.96 21.988 142.783 20.5781 141.357 19.4526C134.045 14.2191 117.955 22.1132 119.32 37.4878C119.716 41.9649 121.773 46.2358 126.129 47.2388C128.296 47.5745 130.483 47.7737 132.676 47.8336C136.455 47.9534 141.65 47.7152 145.057 45.7232" stroke="#218D56" stroke-width="0.769171" stroke-linecap="round" stroke-linejoin="round"/>
<path d="M221.429 179.143C218.694 179.317 216.126 180.521 214.243 182.513C212.359 184.504 211.301 187.135 211.28 189.876C211.28 191.456 211.249 192.417 211.249 192.417H183.282C177.656 192.417 172.483 193.757 170.643 200.218C170.293 202.026 170.145 203.868 170.2 205.709H140.33C131.694 205.635 127.21 209.239 127.254 218.313V218.996H98.2937C89.6208 218.952 85.2078 222.617 85.2761 231.533L85.2482 232.336H56.4201C46.9059 232.336 43.1309 236.578 43.259 245.038L43.2702 246.069H252.276V179.127C252.276 179.127 221.936 179.114 221.429 179.143Z" stroke="#218D56" stroke-width="0.769171" stroke-linecap="round" stroke-linejoin="round"/>
<path d="M132.024 185.565L145.75 145.655C134.408 147.575 115.629 145.35 105.833 137.994C98.2412 132.296 98.7636 119.089 112.588 109.613L161.277 128.076C164.735 129.386 167.551 131.983 169.136 135.323C170.722 138.663 170.954 142.487 169.783 145.994L154.33 192.305" fill="#DFEE45"/>
<path d="M132.024 185.565L145.75 145.655C134.408 147.575 115.629 145.35 105.833 137.994C98.2412 132.296 98.7636 119.089 112.588 109.613L161.277 128.076C164.735 129.386 167.551 131.983 169.136 135.323C170.722 138.663 170.954 142.487 169.783 145.994L154.33 192.305" stroke="#218D56" stroke-width="0.769171" stroke-linecap="round" stroke-linejoin="round"/>
<path d="M134.103 188.755C132.917 188.254 131.709 186.472 132.024 185.561C132.981 182.794 140.777 184.14 145.195 185.731C150.476 187.634 155.077 190.049 154.33 192.309C153.855 193.745 152.216 193.674 151.671 193.61" stroke="#218D56" stroke-width="0.769171" stroke-linecap="round" stroke-linejoin="round"/>
<path d="M159.65 200.366C154.528 199.164 151.783 198.757 151.23 196.974C150.796 195.573 152.085 192.179 153.14 189.723C150.727 187.971 148.045 186.624 145.199 185.735C142.408 184.735 139.486 184.143 136.525 183.976C132.796 190.925 129.705 198.198 127.291 205.707H167.443C167.443 204.478 164.774 201.571 159.65 200.366Z" stroke="#218D56" stroke-width="0.769171" stroke-linecap="round" stroke-linejoin="round"/>
<path d="M144.179 185.395L156.692 147.808C157.116 146.53 157.253 145.175 157.094 143.839C156.935 142.503 156.484 141.218 155.773 140.075C155.061 138.933 154.107 137.961 152.977 137.229C151.847 136.498 150.57 136.024 149.237 135.842C141.264 134.837 133.376 133.247 125.637 131.085C116.191 128.452 115.556 118.4 118.177 114.445C118.645 113.739 119.152 113.003 119.645 112.303" stroke="#218D56" stroke-width="0.769171" stroke-linecap="round" stroke-linejoin="round"/>
<path d="M103.047 135.068C101.438 147.779 96.2018 163.578 96.2018 163.578L57.9932 186.738" stroke="#218D56" stroke-width="0.769171" stroke-linecap="round" stroke-linejoin="round"/>
<path d="M69.4658 206.991C69.4658 206.991 96.4134 189.348 102.685 185.284C109.321 180.775 114.519 174.45 117.655 167.065C119.578 162.094 123.784 150.914 125.847 145.408" stroke="#218D56" stroke-width="0.769171" stroke-linecap="round" stroke-linejoin="round"/>
<path d="M67.4697 196.061L99.0476 176.838C103.348 174.221 106.518 170.093 107.935 165.262C110.224 157.615 111.853 149.785 112.802 141.86" stroke="#218D56" stroke-width="0.769171" stroke-linecap="round" stroke-linejoin="round"/>
<path d="M57.2994 189.321C57.1446 188.87 57.1282 188.383 57.2523 187.923C57.3765 187.462 57.6354 187.05 57.9959 186.738C60.0116 185.513 64.2811 190.746 67.4767 196.071C70.6722 201.396 70.6903 206.367 69.4687 206.994C68.371 207.558 66.9334 206.514 65.8148 205.506" stroke="#218D56" stroke-width="0.769171" stroke-linecap="round" stroke-linejoin="round"/>
<path d="M54.1275 230.473C56.5513 230.056 57.1322 221.653 55.423 211.707C53.7138 201.76 50.3622 194.034 47.937 194.451C45.5132 194.867 44.9323 203.269 46.6415 213.216C48.3507 223.163 51.7023 230.889 54.1275 230.473Z" stroke="#218D56" stroke-width="0.769171" stroke-linecap="round" stroke-linejoin="round"/>
<path d="M67.4733 196.068C65.6905 192.852 63.3975 189.947 60.6839 187.466L47.9365 194.451C50.3617 194.033 53.7133 201.76 55.4225 211.707C57.1317 221.655 56.5522 230.055 54.127 230.472C56.952 230.025 58.9691 220.897 59.2658 217.849C59.5625 214.801 59.7422 211.359 62.5575 208.377C64.8442 206.186 67.3377 204.221 70.003 202.511C69.5447 200.231 68.6884 198.05 67.4733 196.068Z" stroke="#218D56" stroke-width="0.769171" stroke-linecap="round" stroke-linejoin="round"/>
<path d="M264.686 113.319C261.743 110.869 258.146 109.337 254.341 108.913C250.535 108.489 246.689 109.192 243.28 110.934C240.943 112.126 238.865 113.768 237.164 115.765C235.463 117.762 234.173 120.075 233.367 122.571C232.974 123.833 232.683 125.123 232.496 126.431C232.137 123.16 230.968 120.031 229.095 117.325C227.222 114.619 224.705 112.423 221.77 110.934C218.361 109.192 214.515 108.489 210.709 108.913C206.904 109.337 203.307 110.869 200.364 113.319C197.489 115.499 195.315 118.474 194.113 121.876C192.911 125.278 192.732 128.958 193.6 132.46C195.012 137.753 199.149 144.161 205.898 151.52C214.05 160.13 222.962 167.986 232.527 174.993C242.093 167.987 251.005 160.131 259.156 151.52C265.905 144.167 270.042 137.755 271.456 132.46C272.324 128.957 272.145 125.276 270.942 121.874C269.738 118.472 267.563 115.497 264.686 113.319Z" stroke="#218D56" stroke-width="0.769171" stroke-linecap="round" stroke-linejoin="round"/>
<path d="M213.967 142.515H228.227L231.673 132.675L232.999 153.851L236.586 142.515H251.796" stroke="#218D56" stroke-width="0.769171" stroke-linecap="round" stroke-linejoin="round"/>
<path d="M164.878 81.0385C164.878 81.0385 159.195 72.2473 153.191 70.513C152.138 72.982 150.629 75.2309 148.745 77.1423C144.983 80.5231 138.297 79.9422 138.363 73.6751C138.431 67.9917 138.106 65.6946 132.307 62.8431C126.55 61.7176 119.239 64.1832 114.151 65.9997L116.647 85.3108L122.179 83.5487L112.588 109.62L138.19 119.328C139.384 116.136 140.78 113.023 142.369 110.009C144.288 106.751 148.219 101.233 149.426 98.2504C150.158 96.3824 150.532 94.3918 150.526 92.3859L153.379 95.3279L164.878 81.0385Z" stroke="#218D56" stroke-width="0.769171" stroke-linecap="round" stroke-linejoin="round"/>
<path d="M162.475 46.9477C162.095 44.9864 161.008 45.1034 159.589 46.3905C158.6 47.3713 157.679 48.418 156.832 49.5234C156.361 49.0303 156.067 48.3045 155.564 47.7473C155.422 47.58 155.238 47.454 155.03 47.3824C154.823 47.3107 154.6 47.2962 154.384 47.3401C154.169 47.3841 153.97 47.4851 153.807 47.6324C153.645 47.7797 153.524 47.9681 153.459 48.1777C153.236 49.5387 153.49 50.9359 154.178 52.1311C153.863 52.6194 153.513 53.0849 153.132 53.5241C147.858 59.897 140.574 62.5563 132.307 62.8446C138.106 65.6961 138.436 67.9987 138.362 73.6766C138.301 79.9451 144.982 80.5246 148.744 77.1438C150.628 75.2319 152.137 72.9832 153.19 70.5145C151.708 68.3303 152.374 64.5873 153.051 62.0353C153.465 60.1999 154.191 58.449 155.196 56.8589C155.489 57.6983 155.998 58.4452 156.674 59.0232C157.349 59.6013 158.165 59.9898 159.04 60.1492C160.724 60.4445 161.672 58.8955 162.136 57.2058C162.682 53.8138 162.795 50.3675 162.475 46.9477Z" fill="white" stroke="#218D56" stroke-width="0.769171" stroke-linecap="round" stroke-linejoin="round"/>
<path d="M159.042 60.1477C158.168 59.9878 157.352 59.599 156.677 59.0211C156.002 58.4431 155.492 57.6965 155.199 56.8574C154.649 57.671 154.2 58.5479 153.86 59.4693C157.27 61.5769 160.15 60.4792 160.686 59.7604C160.456 59.9394 160.19 60.0667 159.906 60.1335C159.623 60.2004 159.328 60.2052 159.042 60.1477Z" stroke="#218D56" stroke-width="0.769171" stroke-linecap="round" stroke-linejoin="round"/>
<path d="M244.678 96.3962V105.523" stroke="#218D56" stroke-width="0.769171" stroke-linecap="round" stroke-linejoin="round"/>
<path d="M249.24 100.96H240.114" stroke="#218D56" stroke-width="0.769171" stroke-linecap="round" stroke-linejoin="round"/>
<path d="M261.012 67.7283V84.7633" stroke="#218D56" stroke-width="0.769171" stroke-linecap="round" stroke-linejoin="round"/>
<path d="M269.528 76.2451H252.493" stroke="#218D56" stroke-width="0.769171" stroke-linecap="round" stroke-linejoin="round"/>
<path d="M184.456 31.7641L191.335 38.6427" stroke="#218D56" stroke-width="0.769171" stroke-linecap="round" stroke-linejoin="round"/>
<path d="M184.456 38.6427L191.335 31.7641" stroke="#218D56" stroke-width="0.769171" stroke-linecap="round" stroke-linejoin="round"/>
<path d="M71.6621 56.6649L78.5268 63.5296" stroke="#218D56" stroke-width="0.769171" stroke-linecap="round" stroke-linejoin="round"/>
<path d="M71.6621 63.5296L78.5268 56.6649" stroke="#218D56" stroke-width="0.769171" stroke-linecap="round" stroke-linejoin="round"/>
<path d="M14.79 167.317V180.645" stroke="#218D56" stroke-width="0.769171" stroke-linecap="round" stroke-linejoin="round"/>
<path d="M21.456 173.981H8.125" stroke="#218D56" stroke-width="0.769171" stroke-linecap="round" stroke-linejoin="round"/>
<path d="M8.50293 223.116L21.0399 213.812" stroke="#218D56" stroke-width="0.769171" stroke-linecap="round" stroke-linejoin="round"/>
<path d="M61.0879 221.991L73.6249 212.685" stroke="#218D56" stroke-width="0.769171" stroke-linecap="round" stroke-linejoin="round"/>
<path d="M106.741 222.016L119.277 212.712" stroke="#218D56" stroke-width="0.769171" stroke-linecap="round" stroke-linejoin="round"/>
<path d="M106.726 178.227L119.261 168.923" stroke="#218D56" stroke-width="0.769171" stroke-linecap="round" stroke-linejoin="round"/>
<path d="M63.5117 261.917L76.0487 252.613" stroke="#218D56" stroke-width="0.769171" stroke-linecap="round" stroke-linejoin="round"/>
<path d="M61.1758 178.419L73.7128 169.115" stroke="#218D56" stroke-width="0.769171" stroke-linecap="round" stroke-linejoin="round"/>
<path d="M8.40527 261.808L20.9409 252.504" stroke="#218D56" stroke-width="0.769171" stroke-linecap="round" stroke-linejoin="round"/>
</svg>
