<svg width="329" height="311" viewBox="0 0 329 311" fill="none" xmlns="http://www.w3.org/2000/svg">
<path d="M104.981 143.833L149.695 154.884C161.657 158.297 174.225 159.029 186.502 157.027C190.284 165.859 192.584 176.953 188.302 185.593L188.303 185.626C193.74 197.774 200.35 209.363 208.039 220.227C226.156 217.348 244.097 213.452 261.776 208.558C268.367 217.643 271.44 223.39 270.089 238.818C250.676 245.469 234.769 250.5 216.142 255.054C210.207 256.51 203.981 256.239 198.196 254.271C192.411 252.303 187.31 248.721 183.495 243.949C173.531 231.133 164.333 217.74 155.95 203.838L173.309 197.368C158.17 201.807 138.498 194.518 125.927 188.4L125.927 188.433L136.822 230.512C129.054 237.043 117.071 239.683 107.311 238.249L83.9575 166.476C82.9842 163.48 82.8288 160.278 83.5074 157.202C84.186 154.126 85.6738 151.287 87.8173 148.978C89.9607 146.67 92.6818 144.976 95.6993 144.071C98.7167 143.166 101.921 143.084 104.981 143.833Z" fill="#DFEE45"/>
<path d="M88.1995 97.6984L79.5766 96.3086L98.0708 -17.6822L109.208 -31.847L88.1995 97.6984Z" fill="#DFEE45"/>
<path d="M110.335 -31.67L116.444 -14.6925L97.9172 99.2989L89.3273 97.9085L110.335 -31.67Z" fill="#DFEE45"/>
<path d="M207.24 164.336C207.32 163.343 208.853 162.255 212.447 161.724L211.884 166.86C209.134 166.581 207.158 165.495 207.24 164.336Z" fill="#218D56"/>
<path d="M225.413 161.874C229.949 162.484 231.78 163.603 231.845 164.661C231.925 165.916 229.478 167.087 226.071 167.019C225.779 166.776 225.556 166.462 225.426 166.106C225.242 164.702 225.237 163.28 225.411 161.874L225.413 161.874Z" fill="#218D56"/>
<path d="M265.07 213.128C268.723 211.628 272.464 210.353 276.272 209.311C286.563 214.967 300.856 220.959 315.442 233.065C315.727 233.293 315.94 233.599 316.054 233.946C307.262 234.477 298.445 234.401 289.665 233.721C283.475 233.343 276.613 232.415 270.45 233.458C270.465 225.761 269.494 220.243 265.07 213.128Z" fill="#218D56"/>
<path d="M111.956 258.362C112.357 252.006 113.32 244.913 112.144 238.695C119.253 238.792 126.263 237.029 132.48 233.579C133.887 237.084 135.113 240.658 136.155 244.288C130.205 254.75 124.138 269.513 111.74 285.088C111.203 276.185 111.277 267.255 111.956 258.362Z" fill="#218D56"/>
<path d="M166.583 57.2908C166.825 56.675 167.27 56.1602 167.844 55.8315C168.418 55.5029 169.088 55.38 169.741 55.4832C170.395 55.5864 170.993 55.9095 171.438 56.3992C171.883 56.8888 172.148 57.5157 172.188 58.176C172.254 58.1748 172.288 58.2072 172.354 58.2059C172.62 57.5714 173.102 57.0512 173.714 56.7365C174.326 56.4219 175.029 56.333 175.7 56.4856C176.372 56.6385 176.968 57.0242 177.383 57.5742C177.797 58.1243 178.004 58.8034 177.966 59.4912C177.999 59.4906 178.033 59.523 178.066 59.5224C178.382 58.8401 178.951 58.3069 179.652 58.0347C180.353 57.7625 181.132 57.7725 181.826 58.0626C182.52 58.3526 183.075 58.9001 183.374 59.5903C183.673 60.2805 183.693 61.0596 183.43 61.7643C183.722 61.2091 184.187 60.7643 184.755 60.497C185.322 60.2296 185.962 60.1544 186.576 60.2826C187.04 60.3869 187.473 60.6019 187.837 60.9092C188.201 61.2166 188.485 61.6073 188.665 62.0481C188.846 62.4889 188.917 62.9667 188.873 63.441C188.83 63.9152 188.672 64.3719 188.414 64.7721C186.533 68.4779 176.924 88.2344 179.306 95.2246C176.341 88.8667 177.622 79.8822 178.211 79.375C183.936 74.4388 179.536 69.1332 176.796 72.7893C175.473 74.5338 174.844 74.4796 174.46 73.3958C173.196 67.7991 166.931 60.0479 163.448 71.3888C167.9 55.9974 166.328 58.1118 166.583 57.2908Z" fill="#11472B"/>
<path d="M192.318 129.077C195.189 130.027 197.976 131.212 200.651 132.622L194 125.375C193.373 126.577 192.811 127.813 192.318 129.077Z" fill="#218D56"/>
<path d="M148.552 150.377L163.303 126.323L148.174 144.432C148.083 146.422 148.21 148.415 148.552 150.377Z" fill="#218D56"/>
<path d="M152.228 197.621C153.457 199.685 154.687 201.74 155.983 203.831L174.894 196.792C168.164 199.334 159.827 199.096 152.228 197.621Z" fill="#218D56"/>
<path d="M86.3094 132.154L80.1734 131.146L81.7719 121.329C83.5643 121.692 85.6853 121.951 87.8824 122.37L86.3094 132.154Z" fill="#218D56"/>
<path d="M85.0305 101.429L85.7127 97.3162L91.8485 98.3235L91.1664 102.436C90.058 102.259 85.6836 101.551 85.0305 101.429Z" fill="#218D56"/>
<path d="M59.5709 280.257C59.5219 280.713 59.2988 281.132 58.9483 281.427C58.5977 281.722 58.1467 281.87 57.6895 281.84C57.2323 281.81 56.8043 281.605 56.4948 281.267C56.1853 280.93 56.0184 280.485 56.0288 280.027L56.2402 277.239C56.2707 276.769 56.4865 276.331 56.8403 276.02C57.194 275.71 57.6566 275.552 58.1263 275.583C58.596 275.613 59.0344 275.829 59.3449 276.183C59.6555 276.537 59.8128 276.999 59.7823 277.469L59.5709 280.257Z" fill="#218D56"/>
<path d="M123.765 276.026C132.826 284.685 143.035 292.056 154.104 297.932C176.795 289.73 197.339 274.626 214.528 255.419" stroke="#218D56" stroke-width="0.769171" stroke-linecap="round" stroke-linejoin="round"/>
<path d="M104.932 54.4308C128.321 44.8422 151.06 33.7403 173.005 21.1955C204.381 43.5184 237.053 63.9615 270.848 82.4175L267.457 131.813C265.179 160.288 257.075 187.991 243.647 213.205" stroke="#218D56" stroke-width="0.769171" stroke-linecap="round" stroke-linejoin="round"/>
<path d="M111.855 263.458C78.4051 224.055 60.9859 167.022 64.3487 117.892L67.7402 68.5296C73.5593 66.5161 79.3501 64.4219 85.111 62.2475" stroke="#218D56" stroke-width="0.769171" stroke-linecap="round" stroke-linejoin="round"/>
<path d="M184.057 100.518C176.899 96.2524 176.897 79.8185 177.619 79.0936C182.596 74.1035 178.775 68.9443 176.359 72.5583C175.513 73.8241 174.612 74.6146 174.283 73.0621C173.004 67.0191 165.645 58.1539 163.083 74.4509C159.58 96.7226 173.694 87.1379 173.694 87.1379" fill="white"/>
<path d="M184.057 100.518C176.899 96.2524 176.897 79.8185 177.619 79.0936C182.596 74.1035 178.775 68.9443 176.359 72.5583C175.513 73.8241 174.612 74.6146 174.283 73.0621C173.004 67.0191 165.645 58.1539 163.083 74.4509C159.58 96.7226 173.694 87.1379 173.694 87.1379" stroke="#218D56" stroke-width="2" stroke-linecap="round" stroke-linejoin="round"/>
<path d="M226.071 167.019C229.478 167.087 231.925 165.914 231.845 164.661C231.664 161.8 221.261 161.454 218.433 161.42C215.686 161.389 207.365 161.591 207.24 164.336C207.247 164.719 207.598 166.417 211.884 166.858" stroke="#218D56" stroke-width="0.769171" stroke-linecap="round" stroke-linejoin="round"/>
<path d="M211.836 167.853C211.316 171.891 211.073 175.961 211.109 180.034C211.548 182.241 217.278 193.27 220.809 198.034C223.052 201.064 226.039 201.904 223.312 195.771C221.748 192.088 220.438 188.301 219.393 184.439C216.483 174.178 224.048 171.852 227.134 175.992C231.561 181.934 234.886 183.648 233.343 179.081C232.399 176.289 231.902 174.612 231.233 172.476C230.715 170.831 227.42 168.433 226.115 167.083C225.823 166.826 225.598 166.501 225.459 166.138C225.293 164.734 225.287 163.314 225.444 161.907C221.154 161.353 216.814 161.314 212.514 161.789C212.514 161.789 212.326 163.305 211.836 167.853Z" stroke="#218D56" stroke-width="0.769171" stroke-linecap="round" stroke-linejoin="round"/>
<path d="M220.943 189.464C223.163 192.026 225.694 194.299 228.478 196.231C231.929 198.511 233.245 196.706 229.334 192.545C226.594 189.63 224.163 186.442 222.077 183.028" stroke="#218D56" stroke-width="0.769171" stroke-linecap="round" stroke-linejoin="round"/>
<path d="M224.683 181.131C223.108 182.496 221.335 183.612 219.422 184.438" stroke="#218D56" stroke-width="0.769171" stroke-linecap="round" stroke-linejoin="round"/>
<path d="M225.205 187.568C227.841 189.09 230.651 190.289 233.574 191.138C237.362 192.195 237.031 189.903 233.05 187.908C229.862 186.145 226.873 184.043 224.135 181.639" stroke="#218D56" stroke-width="0.769171" stroke-linecap="round" stroke-linejoin="round"/>
<path d="M229.168 185.542C231.209 186.035 233.299 186.294 235.399 186.316C238.239 186.151 239.134 184.599 234.919 183.68C231.594 182.974 228.4 181.752 225.453 180.058C225.269 177.963 224.633 175.934 223.587 174.109" stroke="#218D56" stroke-width="0.769171" stroke-linecap="round" stroke-linejoin="round"/>
<path d="M200.651 132.621L194 125.375C193.363 126.572 192.793 127.803 192.288 129.062" stroke="#218D56" stroke-width="0.769171" stroke-linecap="round" stroke-linejoin="round"/>
<path d="M148.551 150.377L163.303 126.356L148.174 144.466" stroke="#218D56" stroke-width="0.769171" stroke-linecap="round" stroke-linejoin="round"/>
<path d="M207.24 164.336C207.664 157.087 208.172 140.149 208.029 136.316C203.641 134.324 197.374 130.561 192.289 129.069C189.163 136.997 187.678 147.51 186.536 157.059C174.26 159.077 161.688 158.345 149.729 154.917C148.525 151.57 147.997 148.018 148.174 144.465C148.34 144.041 140.585 155.063 129.001 148.104L89.744 124.979C91.5203 115.82 95.7869 107.208 103.18 103.067L135.525 124.377C148.748 103.428 148.589 94.9581 170.76 97.7779C186.737 99.8142 203.424 106.757 219.135 117.025C230.847 124.68 231.196 128.996 231.782 140.524C232.273 148.562 232.283 156.621 231.812 164.66" fill="white"/>
<path d="M207.24 164.336C207.664 157.087 208.172 140.149 208.029 136.316C203.641 134.324 197.374 130.561 192.289 129.069C189.163 136.997 187.678 147.51 186.536 157.059C174.26 159.077 161.688 158.345 149.729 154.917C148.525 151.57 147.997 148.018 148.174 144.465C148.34 144.041 140.585 155.063 129.001 148.104L89.744 124.979C91.5203 115.82 95.7869 107.208 103.18 103.067L135.525 124.377C148.748 103.428 148.589 94.9581 170.76 97.7779C186.737 99.8142 203.424 106.757 219.135 117.025C230.847 124.68 231.196 128.996 231.782 140.524C232.273 148.562 232.283 156.621 231.812 164.66" stroke="#218D56" stroke-width="0.769171" stroke-linecap="round" stroke-linejoin="round"/>
<path d="M116.346 183.293C116.346 183.293 120.093 185.602 125.933 188.433" stroke="#218D56" stroke-width="0.769171" stroke-linecap="round" stroke-linejoin="round"/>
<path d="M152.261 197.818C161.6 213.909 172.046 229.332 183.525 243.974C187.339 248.748 192.44 252.331 198.225 254.301C204.009 256.27 210.236 256.544 216.172 255.09C234.797 250.526 250.706 245.505 270.119 238.821C270.517 232.324 270.922 226.151 268.215 219.283C266.595 215.432 264.449 211.823 261.839 208.56C244.16 213.455 226.219 217.351 208.102 220.23C200.324 209.377 193.739 197.717 188.461 185.452" stroke="#218D56" stroke-width="0.769171" stroke-linecap="round" stroke-linejoin="round"/>
<path d="M168.784 89.4072C169.207 92.4653 169.878 95.1289 167.545 97.4773" stroke="#218D56" stroke-width="0.769171" stroke-linecap="round" stroke-linejoin="round"/>
<path d="M316.054 233.942C317.045 233.857 318.102 233.811 319.092 233.719C319.359 233.694 319.617 233.609 319.847 233.47C320.077 233.331 320.272 233.142 320.418 232.917C320.564 232.691 320.657 232.436 320.69 232.17C320.723 231.903 320.695 231.633 320.608 231.379C320.492 231.04 320.278 230.743 319.99 230.527C313.208 225.429 306.011 220.91 298.473 217.016C291.82 213.551 285.858 210.875 281.045 208.156C279.432 208.517 277.851 208.845 276.273 209.305" stroke="#218D56" stroke-width="0.769171" stroke-linecap="round" stroke-linejoin="round"/>
<path d="M265.07 213.127C269.469 220.201 270.468 225.714 270.45 233.458C276.613 232.415 283.475 233.341 289.665 233.721C298.445 234.399 307.262 234.473 316.054 233.942C315.94 233.595 315.727 233.289 315.442 233.061C300.848 220.954 286.558 214.963 276.272 209.307C272.467 210.361 268.727 211.636 265.07 213.127Z" stroke="#218D56" stroke-width="0.769171" stroke-linecap="round" stroke-linejoin="round"/>
<path d="M111.74 285.081C111.821 285.964 111.873 286.877 111.987 287.757C112.022 288.113 112.164 288.451 112.394 288.726C112.623 289.001 112.93 289.2 113.275 289.298C113.62 289.395 113.987 289.385 114.327 289.271C114.666 289.155 114.963 288.941 115.178 288.655C126.649 273.445 132.111 259.336 137.548 249.71C137.149 247.866 136.653 246.09 136.155 244.281" stroke="#218D56" stroke-width="0.769171" stroke-linecap="round" stroke-linejoin="round"/>
<path d="M112.672 248.027C112.844 244.905 112.678 241.774 112.177 238.687C119.286 238.785 126.296 237.021 132.513 233.572C133.918 237.283 135.079 240.412 136.155 244.281C130.205 254.743 124.139 269.504 111.74 285.081C110.595 269.835 112.425 254.699 112.672 248.027Z" stroke="#218D56" stroke-width="0.769171" stroke-linecap="round" stroke-linejoin="round"/>
<path d="M107.005 100.779L70.4894 94.8287" stroke="#218D56" stroke-width="0.769171" stroke-linecap="round" stroke-linejoin="round"/>
<path d="M311.59 176.599L304.352 185.433L297.572 171.444" stroke="#218D56" stroke-width="0.769171" stroke-linecap="round" stroke-linejoin="round"/>
<path d="M47.9531 279.619L48.7008 268.528L68.4321 269.872L67.6845 280.962C67.612 282.27 67.2807 283.55 66.7098 284.728C66.1389 285.907 65.3398 286.96 64.3587 287.828C63.3776 288.695 62.2341 289.359 60.9945 289.781C59.7549 290.203 58.4438 290.375 57.1373 290.287C55.8308 290.198 54.5551 289.85 53.3841 289.264C52.2131 288.677 51.1702 287.864 50.3158 286.872C49.4615 285.88 48.8127 284.727 48.4071 283.482C48.0015 282.237 47.8472 280.924 47.9531 279.619Z" stroke="#218D56" stroke-width="0.769171" stroke-linecap="round" stroke-linejoin="round"/>
<path d="M68.432 269.872L68.9253 262.787C69.067 260.191 68.1815 257.643 66.4602 255.694C64.7368 253.748 62.3168 252.558 59.7231 252.381C57.1294 252.205 54.5704 253.056 52.5991 254.751C50.6282 256.447 49.4049 258.852 49.194 261.444" stroke="#218D56" stroke-width="0.769171" stroke-linecap="round" stroke-linejoin="round"/>
<path d="M59.5709 280.257C59.5219 280.713 59.2988 281.132 58.9483 281.427C58.5977 281.722 58.1467 281.87 57.6895 281.84C57.2323 281.81 56.8043 281.605 56.4948 281.267C56.1853 280.929 56.0184 280.485 56.0288 280.027L56.2402 277.239C56.2707 276.769 56.4865 276.331 56.8403 276.02C57.194 275.71 57.6566 275.552 58.1263 275.583C58.596 275.613 59.0344 275.829 59.3449 276.183C59.6555 276.537 59.8128 276.999 59.7823 277.469L59.5709 280.257Z" stroke="#218D56" stroke-width="0.769171" stroke-linecap="round" stroke-linejoin="round"/>
<path d="M248.604 27.2284C248.532 28.0331 248.622 28.844 248.868 29.6135C249.114 30.3831 249.51 31.0959 250.035 31.7101C250.56 32.3244 251.202 32.8278 251.924 33.1908C252.645 33.5538 253.432 33.7691 254.238 33.8241C255.044 33.8792 255.853 33.7729 256.617 33.5114C257.382 33.2499 258.086 32.8385 258.69 32.3013C259.293 31.7641 259.783 31.1119 260.131 30.3829C260.479 29.6539 260.679 28.8627 260.717 28.0558C260.793 26.4687 260.244 24.9151 259.187 23.7284C258.131 22.5417 256.651 21.8164 255.066 21.7082C253.481 21.5999 251.916 22.1173 250.708 23.1493C249.5 24.1813 248.744 25.6457 248.604 27.2284Z" stroke="#218D56" stroke-width="0.769171" stroke-linecap="round" stroke-linejoin="round"/>
<path d="M80.914 116.187C77.504 115.955 76.9948 120.56 79.7863 120.937C80.0183 120.969 86.6506 121.997 90.2047 122.855C91.9508 115.581 95.3336 108.903 100.671 104.732C98.1012 103.458 94.9182 102.99 85.8642 101.533C84.5708 101.326 81.0557 100.692 79.8268 100.491C76.4805 99.9421 75.6591 104.696 78.3977 105.312C78.6948 105.38 81.5839 105.948 81.9156 106.006C81.7497 105.976 80.2298 105.935 80.0622 105.909C76.4948 105.357 75.7139 110.224 78.635 110.829L81.4526 111.206C81.2536 111.176 80.6244 111.122 80.4254 111.093C76.9144 110.763 76.2525 115.389 79.1257 115.945C79.5574 116.041 80.45 116.13 80.914 116.187Z" stroke="#218D56" stroke-width="0.769171" stroke-linecap="round" stroke-linejoin="round"/>
<path d="M163.448 71.7965L166.55 57.2913C166.811 56.6788 167.268 56.1709 167.85 55.8481C168.432 55.5253 169.105 55.4061 169.762 55.5096C170.42 55.613 171.024 55.9331 171.478 56.419C171.933 56.905 172.212 57.5289 172.272 58.1916C172.484 57.718 172.815 57.3074 173.233 56.9998C173.651 56.6921 174.142 56.4979 174.657 56.4361C175.172 56.3742 175.695 56.4468 176.174 56.6468C176.653 56.8468 177.072 57.1674 177.39 57.5774C177.816 58.1277 178.037 58.8086 178.017 59.504C179.562 55.9594 184.957 58.4252 183.432 61.764C183.633 61.3818 183.917 61.0496 184.263 60.7917C184.61 60.5339 185.01 60.357 185.434 60.2741C185.857 60.1913 186.294 60.2045 186.713 60.3129C187.131 60.4212 187.519 60.622 187.849 60.9003C188.404 61.3613 188.772 62.0093 188.882 62.7223C188.992 63.4353 188.838 64.1641 188.448 64.7713C186.568 68.4771 176.959 88.2005 179.34 95.1976" stroke="#218D56" stroke-width="0.769171" stroke-linecap="round" stroke-linejoin="round"/>
<path d="M48.0088 39.4127L47.6238 45.2392" stroke="#218D56" stroke-width="0.769171" stroke-linecap="round" stroke-linejoin="round"/>
<path d="M52.7279 51.0934L58.555 51.5114" stroke="#218D56" stroke-width="0.769171" stroke-linecap="round" stroke-linejoin="round"/>
<path d="M35.9427 49.9251L41.7698 50.3432" stroke="#218D56" stroke-width="0.769171" stroke-linecap="round" stroke-linejoin="round"/>
<path d="M46.488 62.0237L46.873 56.1973" stroke="#218D56" stroke-width="0.769171" stroke-linecap="round" stroke-linejoin="round"/>
<path d="M41.7693 50.3433C42.8532 50.4189 43.9352 50.1708 44.8779 49.6305C45.8207 49.0902 46.5816 48.282 47.0643 47.3085C47.3846 46.6621 47.5746 45.959 47.6235 45.2392C47.5739 45.9589 47.6666 46.6812 47.8963 47.3649C48.126 48.0487 48.4882 48.6805 48.9622 49.2242C49.4363 49.7679 50.0128 50.2128 50.6589 50.5335C51.3049 50.8543 52.0079 51.0446 52.7275 51.0935C51.6438 51.0195 50.5625 51.2683 49.6201 51.8084C48.6777 52.3485 47.9165 53.1558 47.4325 54.1282C47.1125 54.7747 46.9223 55.4779 46.8733 56.1975C46.9487 55.1136 46.7005 54.0317 46.1602 53.089C45.62 52.1463 44.8119 51.3853 43.8386 50.9025C43.1921 50.5824 42.4889 50.3922 41.7693 50.3433Z" stroke="#218D56" stroke-width="0.769171" stroke-linecap="round" stroke-linejoin="round"/>
<path d="M155.885 203.867L174.303 197.082" stroke="#218D56" stroke-width="0.769171" stroke-linecap="round" stroke-linejoin="round"/>
<path d="M149.762 154.916L105.048 143.865C101.984 143.108 98.7725 143.184 95.7473 144.085C92.722 144.986 89.9925 146.68 87.8415 148.99C85.6904 151.3 84.1959 154.143 83.5126 157.225C82.8293 160.307 82.9822 163.515 83.9553 166.518L107.309 238.291C112.271 238.984 117.318 238.744 122.191 237.583C127.551 236.419 132.562 234.011 136.819 230.554L125.925 188.44C137.368 194.031 153.444 199.804 166.798 198.585C182.069 197.191 193.163 187.148 190.158 168.905C189.46 164.832 188.24 160.866 186.528 157.105" stroke="#218D56" stroke-width="0.769171" stroke-linecap="round" stroke-linejoin="round"/>
<path d="M135.525 124.372L133.822 126.918" stroke="#218D56" stroke-width="0.769171" stroke-linecap="round" stroke-linejoin="round"/>
<path d="M116.445 -14.6925L109.814 -31.6147L98.0706 -17.682L79.5764 96.3088L97.9173 99.299L116.445 -14.6925Z" stroke="#218D56" stroke-width="0.769171" stroke-linejoin="round"/>
<path d="M109.803 -31.6024L88.7833 97.6422" stroke="#218D56" stroke-width="0.769171" stroke-linecap="round"/>
<path d="M86.3094 132.154L80.1734 131.146L81.7719 121.329C83.5643 121.692 85.6853 121.951 87.8824 122.37L86.3094 132.154Z" stroke="#218D56" stroke-width="0.769171" stroke-linejoin="round"/>
<path d="M85.0305 101.429L85.7127 97.316L91.8485 98.3233L91.1664 102.436C90.058 102.259 85.6836 101.55 85.0305 101.429Z" stroke="#218D56" stroke-width="0.769171" stroke-linejoin="round"/>
</svg>
