<svg width="32" height="32" viewBox="0 0 32 32" fill="none" xmlns="http://www.w3.org/2000/svg">
<g clip-path="url(#clip0_345_22803)">
<path d="M7.09188 19.3388L5.978 23.4971L1.90681 23.5832C0.690125 21.3265 0 18.7446 0 16.0008C0 13.3476 0.64525 10.8456 1.789 8.64258H1.78988L5.41437 9.30708L7.00212 12.9098C6.66981 13.8786 6.48869 14.9186 6.48869 16.0008C6.48881 17.1753 6.70156 18.3006 7.09188 19.3388Z" fill="#FBBB00"/>
<path d="M31.7207 13.0117C31.9045 13.9796 32.0003 14.9792 32.0003 16.0007C32.0003 17.1462 31.8799 18.2636 31.6504 19.3414C30.8716 23.0091 28.8364 26.2117 26.0171 28.4781L26.0162 28.4772L21.4509 28.2443L20.8048 24.2108C22.6756 23.1137 24.1376 21.3968 24.9077 19.3414H16.3521V13.0117H25.0325H31.7207Z" fill="#518EF8"/>
<path d="M26.0157 28.4763L26.0166 28.4772C23.2747 30.6811 19.7915 31.9998 15.9999 31.9998C9.90674 31.9998 4.60918 28.5941 1.90674 23.5823L7.0918 19.3379C8.44299 22.944 11.9217 25.5111 15.9999 25.5111C17.7529 25.5111 19.3951 25.0372 20.8043 24.21L26.0157 28.4763Z" fill="#28B446"/>
<path d="M26.2128 3.6835L21.0295 7.927C19.5711 7.01538 17.8471 6.48875 16.0001 6.48875C11.8295 6.48875 8.28575 9.17356 7.00225 12.909L1.78994 8.64175H1.78906C4.45194 3.50769 9.81631 0 16.0001 0C19.8822 0 23.4418 1.38287 26.2128 3.6835Z" fill="#F14336"/>
</g>
<defs>
<clipPath id="clip0_345_22803">
<rect width="32" height="32" fill="white"/>
</clipPath>
</defs>
</svg>
