<svg width="49" height="48" viewBox="0 0 49 48" fill="none" xmlns="http://www.w3.org/2000/svg">
<path d="M28.9572 0.825562C28.5475 1.02109 27.8492 1.67286 25.5587 3.97268C22.5885 6.95219 21.825 7.60396 20.5307 8.24642C19.3296 8.84232 18.9479 8.91681 17.1322 8.9075C15.3818 8.9075 15.6611 8.94474 11.5922 8.06951C10.2514 7.78087 9.8231 7.725 8.75233 7.71569C7.58846 7.70638 7.46742 7.725 7.10429 7.92984C6.5177 8.26504 5.86593 9.252 5.86593 9.79204C5.86593 10.1738 6.22906 10.3507 7.83986 10.7883C11.6667 11.8125 13.9199 12.7436 14.8976 13.7027C15.298 14.0844 15.3445 14.1868 15.4004 14.671C15.4656 15.2576 15.3538 16.1608 15.1304 16.7939C14.7021 18.0043 13.6685 19.4941 12.486 20.63C11.4246 21.6449 10.7635 21.9336 10 21.7287C8.73371 21.3935 7.53259 19.9038 4.77654 15.3041L3.37058 12.9485L2.98883 14.1589C2.41155 15.9932 2.365 16.2632 2.55122 17.0919C2.67226 17.6133 3.0447 18.4606 3.99442 20.3879C5.45624 23.3116 5.82868 24.2148 6.20112 25.6766C6.42459 26.5704 6.46183 26.8684 6.45252 28.0043C6.45252 29.5965 6.24768 30.4717 5.44693 32.2874C4.00373 35.6021 4.00373 35.5462 5.11174 37.6412L5.65177 38.6747L6.14526 37.9485C6.76909 37.0639 8.51025 34.8107 9.18995 34.0379C10.1117 32.9857 10.5866 32.8554 11.6946 33.3581C13.2961 34.0844 15.8939 37.5946 15.9963 39.1868C16.0335 39.7176 16.0149 39.7734 15.7356 40.09C15.2328 40.6673 14.311 40.9094 11.3501 41.2725C9.60894 41.4773 9.21788 41.5798 9.21788 41.8311C9.21788 42.0732 9.91621 42.6412 10.4842 42.846C11.4711 43.2185 13.0633 43.4233 16.3873 43.6002C20.3818 43.8144 21.1453 44.0285 23.8361 45.6487C25.568 46.6915 27.1415 47.455 27.8399 47.5946C28.2589 47.6784 28.4451 47.6691 28.8454 47.5574C29.7859 47.2781 29.6927 47.0639 27.6071 44.8945C26.6574 43.9075 25.8846 43.0509 25.8846 42.995C25.8846 42.7902 27.1508 41.6729 27.7747 41.3284C29.1527 40.5555 31.6481 39.8386 33.3985 39.7176C34.3389 39.6524 34.9348 39.8293 35.149 40.2483C35.3818 40.6952 35.3166 41.6263 34.9628 43.1626C34.7765 43.9261 34.6089 44.8014 34.5717 45.1086C34.5158 45.6393 34.5251 45.6487 34.7486 45.6487C35.2328 45.6487 36.8622 44.4568 37.2905 43.7958C37.4022 43.6095 37.5326 43.2371 37.5605 42.9578C37.6909 41.9149 38.3985 40.3693 39.4972 38.7399C40.6983 36.9522 41.5084 36.0863 43.203 34.82C46.5922 32.2967 48.0354 30.8256 48.0447 29.9038C48.0447 29.7641 47.9795 29.6058 47.905 29.5406C47.7095 29.3824 47.3184 29.5406 45.7821 30.4159C44.3389 31.2259 43.5754 31.5611 42.7467 31.7287C41.0894 32.0825 40.1769 31.1328 39.9907 28.8889C39.8697 27.3712 40.2793 24.8665 40.8659 23.6282C41.2663 22.7716 41.8063 22.4643 42.9237 22.4643C43.743 22.4643 44.6369 22.7064 46.3967 23.3861C47.9516 23.9913 48.352 24.0658 48.5103 23.7771C48.6685 23.4792 48.622 22.4643 48.4265 22.0453C48.1657 21.468 47.2719 20.6952 45.6145 19.6151C43.8175 18.4419 42.9423 17.7529 42.2533 16.9522C40.5214 14.9503 39.8417 12.9298 39.3762 8.35815C39.1155 5.74176 38.8548 4.80135 38.2495 4.24269C37.9609 3.97268 36.4805 3.09744 36.3222 3.09744C36.2104 3.09744 36.2011 3.44195 36.2756 5.39725C36.3222 6.67286 36.3594 8.73059 36.3594 9.98757C36.3594 11.9708 36.3408 12.3339 36.1825 12.7809C35.9497 13.4885 35.6332 13.9168 35.1676 14.1868C33.7896 14.9783 29.1434 13.5351 27.365 11.7567C26.3222 10.7231 26.257 10.2203 26.9832 8.76783C27.4954 7.73431 28.3892 6.34698 30.0186 4.03785C31.1266 2.46429 31.8436 1.34698 31.8436 1.17938C31.8436 1.04902 30.6145 0.676586 29.9628 0.62072C29.5531 0.574165 29.3855 0.611408 28.9572 0.825562ZM27.3743 17.0639C29.9255 17.3805 32.0112 18.414 33.7151 20.211C34.9721 21.5425 35.6704 22.7902 36.1825 24.6338C36.5084 25.7976 36.5922 27.9764 36.3687 29.1961C35.9777 31.2352 35.0373 33.0323 33.5661 34.5127C31.0987 37.0081 27.7281 38.1906 24.5065 37.6971C21.7877 37.2781 19.0317 35.6207 17.3836 33.4047C15.1117 30.3507 14.73 26.4401 16.3873 23.0602C17.2253 21.3377 18.4544 19.9503 20.149 18.8237C21.797 17.7157 22.8119 17.3339 24.9535 17.0267C25.4562 16.9615 26.6294 16.9801 27.3743 17.0639Z" fill="#FF605A"/>
<path d="M17.719 1.56076C16.6203 1.85871 15.5681 2.62221 15.1584 3.41364C14.7022 4.28888 14.8884 5.40619 15.6147 6.17901C16.6203 7.25908 18.3335 7.37081 20.0374 6.47696C22.0951 5.39688 22.542 3.63711 21.1175 2.24977C20.354 1.49558 18.9946 1.21625 17.719 1.56076Z" fill="#FF605A"/>
<path d="M42.7469 10.3876C42.3652 10.5832 42.1883 10.9277 42.0765 11.6912C41.9927 12.2498 41.9927 12.585 42.0765 13.0878C42.5234 15.8439 45.2329 17.3336 46.0616 15.2945C46.5458 14.112 46.1454 12.1567 45.2143 11.1232C44.5532 10.397 43.3987 10.0524 42.7469 10.3876Z" fill="#FF605A"/>
<path d="M2.34651 23.1815C2.002 23.3491 1.31299 24.2523 1.02435 24.9227C0.456378 26.189 0.810195 27.8649 1.89027 29.0381C2.49548 29.7085 2.88655 29.932 3.43589 29.9413C4.20871 29.9506 4.81392 29.4106 5.16774 28.377C5.76364 26.5986 5.13981 24.6433 3.59418 23.4981C3.00759 23.0512 2.73757 22.986 2.34651 23.1815Z" fill="#FF605A"/>
<path d="M42.8772 36.6538C42.0206 37.0541 40.894 38.1994 40.5774 39.0001C40.2608 39.8009 40.2888 40.9089 40.624 40.9741C40.8567 41.0206 42.0578 40.4061 42.5793 39.9685C43.9107 38.8791 44.8511 36.9797 44.2739 36.5607C44.0132 36.3651 43.3986 36.4024 42.8772 36.6538Z" fill="#FF605A"/>
<path d="M16.8342 44.7642C14.6927 45.4532 18.9012 47.8554 21.1545 47.2316C21.648 47.0919 22.067 46.7102 22.067 46.4122C22.067 45.8536 21.3873 45.239 20.391 44.8945C19.5902 44.6245 17.5139 44.55 16.8342 44.7642Z" fill="#FF605A"/>
</svg>
