<svg width="28" height="28" viewBox="0 0 28 28" fill="none" xmlns="http://www.w3.org/2000/svg">
<path d="M8.40008 0.666687H19.6001C23.8667 0.666687 27.3334 4.13335 27.3334 8.40002V19.6C27.3334 21.651 26.5187 23.618 25.0684 25.0683C23.6181 26.5186 21.6511 27.3334 19.6001 27.3334H8.40008C4.13341 27.3334 0.666748 23.8667 0.666748 19.6V8.40002C0.666748 6.34901 1.48151 4.38201 2.93179 2.93173C4.38207 1.48145 6.34907 0.666687 8.40008 0.666687V0.666687ZM8.13341 3.33335C6.86038 3.33335 5.63948 3.83907 4.7393 4.73924C3.83913 5.63942 3.33341 6.86031 3.33341 8.13335V19.8667C3.33341 22.52 5.48008 24.6667 8.13341 24.6667H19.8667C21.1398 24.6667 22.3607 24.161 23.2609 23.2608C24.161 22.3606 24.6667 21.1397 24.6667 19.8667V8.13335C24.6667 5.48002 22.5201 3.33335 19.8667 3.33335H8.13341ZM21.0001 5.33335C21.4421 5.33335 21.866 5.50895 22.1786 5.82151C22.4912 6.13407 22.6667 6.55799 22.6667 7.00002C22.6667 7.44205 22.4912 7.86597 22.1786 8.17853C21.866 8.49109 21.4421 8.66669 21.0001 8.66669C20.5581 8.66669 20.1341 8.49109 19.8216 8.17853C19.509 7.86597 19.3334 7.44205 19.3334 7.00002C19.3334 6.55799 19.509 6.13407 19.8216 5.82151C20.1341 5.50895 20.5581 5.33335 21.0001 5.33335ZM14.0001 7.33335C15.7682 7.33335 17.4639 8.03573 18.7141 9.28598C19.9644 10.5362 20.6667 12.2319 20.6667 14C20.6667 15.7681 19.9644 17.4638 18.7141 18.7141C17.4639 19.9643 15.7682 20.6667 14.0001 20.6667C12.232 20.6667 10.5363 19.9643 9.28604 18.7141C8.03579 17.4638 7.33341 15.7681 7.33341 14C7.33341 12.2319 8.03579 10.5362 9.28604 9.28598C10.5363 8.03573 12.232 7.33335 14.0001 7.33335V7.33335ZM14.0001 10C12.9392 10 11.9218 10.4214 11.1717 11.1716C10.4215 11.9217 10.0001 12.9392 10.0001 14C10.0001 15.0609 10.4215 16.0783 11.1717 16.8284C11.9218 17.5786 12.9392 18 14.0001 18C15.0609 18 16.0784 17.5786 16.8285 16.8284C17.5787 16.0783 18.0001 15.0609 18.0001 14C18.0001 12.9392 17.5787 11.9217 16.8285 11.1716C16.0784 10.4214 15.0609 10 14.0001 10Z" fill="url(#paint0_linear_249_516)"/>
<defs>
<linearGradient id="paint0_linear_249_516" x1="14.0001" y1="0.666687" x2="14.0001" y2="27.3334" gradientUnits="userSpaceOnUse">
<stop/>
</linearGradient>
</defs>
</svg>
