<svg width="620" height="400" viewBox="0 0 620 400" fill="none" xmlns="http://www.w3.org/2000/svg">
<g clip-path="url(#clip0_338_21074)">
<path d="M561.498 323.846C556.482 305.385 566.727 286.679 575.606 269.579C583.142 255.066 590.005 239.903 591.92 223.814C593.834 207.726 590.24 190.424 578.954 178.305C558.789 156.651 523.374 158.375 493.155 161.684C462.935 164.983 427.33 166.206 407.758 144.074C396.382 131.21 393.673 113.61 388.746 97.4683C379.464 67.0789 355.728 36.4022 322.474 34.689C300.081 33.5398 279.501 45.8191 261.878 58.9921C235.431 78.7622 211.303 102.065 195.269 130.177C186.547 145.468 180.355 161.94 172.182 177.496C157.066 206.268 133.352 232.944 101.117 242.733C77.4027 249.937 50.4189 247.66 29.0446 259.79C-2.64173 277.773 -8.03848 322.878 11.1189 352.863C16.8515 361.844 24.1741 369.579 32.5827 376.177C52.5575 391.829 77.873 400.001 103.759 400.001H571.206C587.083 400.001 598.111 384.604 591.875 370.729C591.83 370.633 591.797 370.548 591.752 370.452C584.026 353.619 566.335 341.616 561.51 323.846H561.498Z" fill="#FFA09C"/>
<path d="M124.127 200.672C115.483 203.651 104.577 202.247 98.9902 195.543C91.8692 186.999 95.8552 174.698 100.132 164.59C106.929 148.501 139.992 109.95 156.709 138.648C168.387 158.695 144.426 193.67 124.127 200.672Z" fill="#FFA09C"/>
<path d="M460.696 143.787C471.12 143.265 482.081 138.254 485.944 129.039C489.247 121.133 486.459 111.673 480.368 105.427C468.556 93.3079 435.739 87.4449 425.886 105.098C414.264 125.921 441.024 144.787 460.696 143.787Z" fill="#FFA09C"/>
<path d="M324.256 390.094C411.106 390.094 481.512 386.911 481.512 382.986C481.512 379.06 411.106 375.878 324.256 375.878C237.406 375.878 167 379.06 167 382.986C167 386.911 237.406 390.094 324.256 390.094Z" fill="#FFA09C"/>
<path d="M118.205 388.508C139.966 388.508 157.606 386.508 157.606 384.039C157.606 381.571 139.966 379.57 118.205 379.57C96.445 379.57 78.8047 381.571 78.8047 384.039C78.8047 386.508 96.445 388.508 118.205 388.508Z" fill="#FFA09C"/>
<path d="M531.639 388.508C553.4 388.508 571.04 386.508 571.04 384.039C571.04 381.571 553.4 379.57 531.639 379.57C509.879 379.57 492.238 381.571 492.238 384.039C492.238 386.508 509.879 388.508 531.639 388.508Z" fill="#FFA09C"/>
<path d="M80.9279 290.775C81.5325 290.52 81.7676 289.807 81.4094 289.275C59.4081 255.789 49.9917 231.018 54.168 217.324C54.336 216.77 54.0001 216.185 53.4179 216.025C52.8357 215.866 52.2198 216.185 52.0519 216.738C49.4991 225.123 51.6152 237.19 58.3444 252.608C63.1365 263.568 70.2463 276.251 79.5283 290.371C79.8194 290.807 80.4017 290.978 80.8943 290.775C80.8943 290.775 80.9055 290.775 80.9167 290.775H80.9279Z" fill="#3D6D89"/>
<path d="M53.5529 238.393C53.5529 238.393 45.4577 242.574 38.2695 228.774C38.2695 228.774 52.5676 225.709 53.5529 238.393Z" fill="#325465"/>
<path d="M56.8669 245.702C56.8669 245.702 52.0188 238.254 66.1265 230.667C66.1265 230.667 70.1461 244.063 56.8669 245.702Z" fill="#325465"/>
<path d="M52.1654 223.538C52.1654 223.538 44.9772 218.058 55.6252 206.428C55.6252 206.428 64.1122 217.781 52.1654 223.538Z" fill="#325465"/>
<path d="M63.0702 260.577C63.0702 260.577 56.9456 267.121 45.2676 256.438C45.2676 256.438 57.6286 248.958 63.0702 260.577Z" fill="#325465"/>
<path d="M67.6384 267.536C67.6384 267.536 61.5026 261.003 74.0204 251.203C74.0204 251.203 80.4137 263.738 67.6384 267.536Z" fill="#325465"/>
<path d="M72.8888 277.645C72.8888 277.645 66.8986 284.296 55.0078 273.825C55.0078 273.825 67.2233 266.121 72.8888 277.645Z" fill="#325465"/>
<path d="M91.3309 338.552C91.7451 338.062 91.6108 337.328 91.0285 337.009C55.2219 316.983 34.8329 299.15 31.877 285.179C31.7538 284.615 31.1716 284.242 30.5782 284.359C29.9847 284.476 29.5929 285.03 29.716 285.594C31.5299 294.149 39.2779 303.917 52.7474 314.632C62.3317 322.25 74.8047 330.359 89.9089 338.807C90.3791 339.073 90.9726 338.967 91.3197 338.562C91.3197 338.562 91.3197 338.552 91.3309 338.541V338.552Z" fill="#3D6D89"/>
<path d="M41.5718 304.129C41.5718 304.129 36.4326 311.397 23.3438 302.31C23.3438 302.31 34.5291 293.308 41.5718 304.129Z" fill="#325465"/>
<path d="M48.067 309.14C48.067 309.14 40.1398 304.671 48.9627 291.743C48.9627 291.743 59.0508 301.852 48.067 309.14Z" fill="#325465"/>
<path d="M33.1076 291.562C33.1076 291.562 24.0719 289.86 27.8452 274.878C27.8452 274.878 40.9004 281.22 33.1076 291.562Z" fill="#325465"/>
<path d="M60.8084 319.621C60.8084 319.621 58.5579 328.113 43.0059 323.771C43.0059 323.771 50.3284 311.705 60.8084 319.621Z" fill="#325465"/>
<path d="M133.664 349.809C133.037 349.586 132.779 348.884 133.104 348.33C153.314 313.834 161.397 288.637 156.505 275.176C156.303 274.634 156.617 274.038 157.188 273.846C157.759 273.655 158.386 273.953 158.587 274.495C161.588 282.742 160.11 294.904 154.198 310.62C149.999 321.803 143.561 334.795 135.041 349.352C134.772 349.799 134.201 350.001 133.697 349.82C133.697 349.82 133.686 349.82 133.675 349.82L133.664 349.809Z" fill="#3D6D89"/>
<path d="M158.219 296.181C158.219 296.181 166.527 299.979 172.976 285.838C172.976 285.838 158.532 283.455 158.219 296.181Z" fill="#325465"/>
<path d="M155.296 303.639C155.296 303.639 159.741 295.967 145.253 289.062C145.253 289.062 141.95 302.639 155.296 303.639Z" fill="#325465"/>
<path d="M158.834 281.284C158.834 281.284 165.72 275.463 154.479 264.365C154.479 264.365 146.596 276.112 158.834 281.284Z" fill="#325465"/>
<path d="M127.774 383.52C125.299 383.849 122.825 383.956 120.373 383.881C119.69 383.86 119.018 383.828 118.335 383.786C98.2034 382.434 80.468 369.846 80.468 369.846C80.468 369.846 46.8111 350.332 56.9216 335.02C67.0321 319.708 77.6689 336.914 84.8459 336.776C92.0229 336.637 81.4533 319.261 74.5786 302.641C67.7039 286.02 76.9523 278.359 83.4575 281.849C89.9627 285.35 94.0047 276.848 89.9403 266.697C85.6296 255.939 82.5506 232.009 96.1768 233.52C111.751 235.254 106.231 265.409 117.484 270.091C128.737 274.773 124.112 259.546 133.047 262.366C141.971 265.186 142.598 286.669 132.017 300.47C121.448 314.271 125.03 331.221 130.259 328.167C135.488 325.113 140.168 309.227 148.443 310.174C164.442 312.026 151.443 380.412 127.762 383.509L127.774 383.52Z" fill="#3D6D89"/>
<path d="M120.361 383.892C119.678 383.87 119.006 383.838 118.323 383.796C113.475 343.053 98.5608 256.364 98.404 255.428C98.3144 254.907 98.6839 254.417 99.2326 254.332C99.7812 254.247 100.296 254.598 100.386 255.119C100.543 256.056 115.546 343.213 120.361 383.892Z" fill="#2F5469"/>
<path d="M106.981 303.513C106.825 303.46 106.679 303.375 106.556 303.258C106.175 302.864 106.209 302.268 106.612 301.907C106.724 301.811 117.976 291.947 122.533 284.041C122.802 283.584 123.418 283.413 123.899 283.669C124.381 283.924 124.56 284.499 124.303 284.967C119.578 293.15 108.448 302.907 107.978 303.322C107.698 303.567 107.317 303.63 106.981 303.524V303.513Z" fill="#2F5469"/>
<path d="M108.134 314.238C108.134 314.238 108.101 314.228 108.078 314.217C107.496 313.994 93.8361 308.758 85.4498 301.629C85.0356 301.278 85.002 300.672 85.3715 300.278C85.7409 299.884 86.3791 299.852 86.7934 300.203C94.8997 307.109 108.683 312.387 108.828 312.44C109.343 312.632 109.59 313.196 109.388 313.685C109.187 314.153 108.638 314.398 108.134 314.238Z" fill="#2F5469"/>
<path d="M115.233 356.556C114.998 356.481 114.785 356.321 114.662 356.087C114.404 355.619 114.594 355.045 115.087 354.8C115.244 354.725 130.438 347.149 135.028 339.19C135.297 338.733 135.902 338.562 136.394 338.807C136.887 339.062 137.055 339.637 136.797 340.105C131.916 348.575 116.666 356.172 116.016 356.492C115.77 356.619 115.49 356.63 115.233 356.556Z" fill="#2F5469"/>
<path d="M101.06 361.845C95.6069 360.121 89.7175 357.737 85.1717 354.577C84.7239 354.268 84.6231 353.673 84.959 353.247C85.2837 352.821 85.9219 352.726 86.3585 353.045C97.208 360.6 116.791 363.653 116.992 363.685C117.541 363.77 117.911 364.26 117.821 364.781C117.731 365.303 117.216 365.654 116.668 365.569C116.175 365.494 109.088 364.388 101.048 361.855L101.06 361.845Z" fill="#2F5469"/>
<path d="M562.361 337.403C561.88 337.009 561.869 336.285 562.361 335.892C592.536 310.908 608.525 290.595 608.726 276.868C608.726 276.315 609.219 275.868 609.801 275.868C610.384 275.868 610.854 276.336 610.854 276.89C610.731 285.296 605.211 295.851 594.451 308.258C586.792 317.079 576.491 326.858 563.761 337.403C563.369 337.732 562.776 337.732 562.384 337.403C562.384 337.403 562.384 337.403 562.373 337.392L562.361 337.403Z" fill="#3D6D89"/>
<path d="M603.07 296.436C603.07 296.436 609.284 302.459 620 291.648C620 291.648 607.728 284.998 603.07 296.436Z" fill="#325465"/>
<path d="M597.855 302.278C597.855 302.278 604.528 296.713 593.769 285.955C593.769 285.955 586.099 297.223 597.855 302.278Z" fill="#325465"/>
<path d="M608.75 283.125C608.75 283.125 616.991 279.986 610.62 266.44C610.62 266.44 599.435 274.634 608.75 283.125Z" fill="#325465"/>
<path d="M587.744 314.345C587.744 314.345 591.45 322.006 605.379 315.281C605.379 315.281 596.198 305.088 587.744 314.345Z" fill="#325465"/>
<path d="M581.473 319.526C581.473 319.526 589.053 315.142 580.42 302.777C580.42 302.777 570.825 312.62 581.473 319.526Z" fill="#325465"/>
<path d="M573.646 327.443C573.646 327.443 577.207 335.168 591.259 328.698C591.259 328.698 582.279 318.334 573.646 327.443Z" fill="#325465"/>
<path d="M516.971 378.104C517.474 377.721 517.497 377.008 517.038 376.593C487.882 350.545 472.71 329.668 473.058 315.952C473.069 315.399 472.61 314.931 472.016 314.92C471.434 314.909 470.941 315.346 470.93 315.91C470.717 324.316 475.812 335.063 486.079 347.853C493.379 356.94 503.277 367.091 515.582 378.072C515.963 378.412 516.545 378.434 516.959 378.125H516.971V378.104Z" fill="#3D6D89"/>
<path d="M477.927 335.7C477.927 335.7 471.478 341.489 461.199 330.306C461.199 330.306 473.728 324.102 477.927 335.7Z" fill="#325465"/>
<path d="M482.91 341.733C482.91 341.733 476.472 335.934 487.646 325.57C487.646 325.57 494.857 337.105 482.91 341.733Z" fill="#325465"/>
<path d="M472.787 322.198C472.787 322.198 464.68 318.771 471.577 305.46C471.577 305.46 482.427 314.058 472.787 322.198Z" fill="#325465"/>
<path d="M492.538 354.14C492.538 354.14 488.53 361.663 474.881 354.438C474.881 354.438 484.465 344.575 492.538 354.14Z" fill="#325465"/>
<path d="M498.584 359.556C498.584 359.556 491.183 354.896 500.309 342.851C500.309 342.851 509.512 353.034 498.584 359.556Z" fill="#325465"/>
<path d="M506.097 367.739C506.097 367.739 502.234 375.336 488.451 368.356C488.451 368.356 497.834 358.322 506.097 367.739Z" fill="#325465"/>
<path d="M529.051 341.509C529.477 341.307 529.611 340.786 529.342 340.413C512.301 317.238 504.598 299.851 507.05 289.924C507.151 289.519 506.882 289.115 506.457 289.019C506.031 288.923 505.606 289.179 505.505 289.583C504.004 295.67 505.986 304.225 511.405 315.014C515.257 322.686 520.844 331.496 528.032 341.275C528.256 341.573 528.682 341.679 529.029 341.52C529.029 341.52 529.029 341.52 529.04 341.52L529.051 341.509Z" fill="#3D6D89"/>
<path d="M507.43 305.012C507.43 305.012 501.809 308.289 496.121 298.67C496.121 298.67 506.232 295.967 507.43 305.012Z" fill="#325465"/>
<path d="M510.095 310.12C510.095 310.12 506.333 304.97 516.13 299.043C516.13 299.043 519.533 308.481 510.095 310.12Z" fill="#325465"/>
<path d="M505.85 294.436C505.85 294.436 500.498 290.765 507.653 282.082C507.653 282.082 514.169 289.903 505.85 294.436Z" fill="#325465"/>
<path d="M524.795 385.434C527.179 385.743 529.564 385.849 531.927 385.785C532.587 385.764 533.237 385.732 533.886 385.689C553.279 384.391 570.365 372.261 570.365 372.261C570.365 372.261 602.79 353.459 593.049 338.711C583.308 323.964 573.063 340.531 566.144 340.403C559.224 340.276 569.413 323.538 576.041 307.524C582.659 291.51 573.757 284.125 567.487 287.498C561.217 290.871 557.321 282.678 561.24 272.9C565.393 262.536 568.361 239.488 555.227 240.946C540.224 242.617 545.542 271.665 534.704 276.177C523.865 280.688 528.31 266.015 519.711 268.728C511.112 271.442 510.519 292.138 520.697 305.428C530.886 318.728 527.426 335.051 522.387 332.104C517.349 329.167 512.837 313.855 504.876 314.77C489.458 316.547 501.976 382.423 524.795 385.413V385.434Z" fill="#3D6D89"/>
<path d="M531.926 385.785C532.586 385.764 533.236 385.732 533.885 385.689C538.554 346.447 552.919 262.929 553.076 262.035C553.166 261.535 552.807 261.056 552.281 260.982C551.755 260.897 551.251 261.237 551.173 261.748C551.016 262.652 536.572 346.606 531.937 385.796L531.926 385.785Z" fill="#2F5469"/>
<path d="M544.827 308.365C544.972 308.322 545.118 308.237 545.23 308.109C545.588 307.737 545.566 307.152 545.174 306.811C545.062 306.715 534.235 297.213 529.835 289.605C529.577 289.158 528.984 288.999 528.525 289.243C528.054 289.488 527.886 290.052 528.144 290.488C532.69 298.362 543.416 307.769 543.875 308.162C544.144 308.396 544.513 308.46 544.838 308.354L544.827 308.365Z" fill="#2F5469"/>
<path d="M543.705 318.685C543.705 318.685 543.738 318.675 543.761 318.664C544.32 318.451 557.488 313.408 565.56 306.534C565.963 306.193 565.997 305.608 565.639 305.236C565.28 304.853 564.665 304.821 564.273 305.161C556.458 311.812 543.19 316.898 543.055 316.951C542.563 317.143 542.316 317.675 542.518 318.143C542.708 318.6 543.234 318.824 543.716 318.675L543.705 318.685Z" fill="#2F5469"/>
<path d="M536.875 359.45C537.11 359.376 537.312 359.227 537.424 359.003C537.67 358.557 537.491 357.993 537.009 357.759C536.864 357.684 522.219 350.385 517.807 342.723C517.55 342.277 516.956 342.117 516.497 342.362C516.027 342.606 515.859 343.16 516.117 343.607C520.819 351.768 535.509 359.089 536.125 359.397C536.371 359.514 536.64 359.525 536.875 359.45Z" fill="#2F5469"/>
<path d="M550.535 364.557C555.786 362.897 561.463 360.609 565.841 357.555C566.278 357.257 566.367 356.683 566.054 356.268C565.74 355.853 565.136 355.768 564.699 356.066C554.252 363.344 535.375 366.281 535.196 366.313C534.67 366.398 534.311 366.866 534.39 367.366C534.479 367.866 534.972 368.207 535.498 368.132C535.968 368.058 542.798 366.994 550.535 364.557Z" fill="#2F5469"/>
<mask id="mask0_338_21074" style="mask-type:luminance" maskUnits="userSpaceOnUse" x="173" y="35" width="370" height="370">
<path d="M543 35H173V405H543V35Z" fill="white"/>
</mask>
<g mask="url(#mask0_338_21074)">
<path d="M287.982 125.488C287.982 125.488 279.819 135.597 268.919 129.292C263.317 126.051 268.89 114.862 268.89 114.862C268.89 114.862 269.356 115.069 270.051 115.017C271.272 114.914 273.204 113.966 274.514 109.526L289.706 111.095C289.706 111.095 288.248 114.706 287.545 118.48C287.057 121.13 286.946 123.86 287.982 125.481V125.488Z" fill="#F69887"/>
<path d="M289.713 111.103C289.713 111.103 288.255 114.714 287.552 118.488C282.668 119.901 274.114 121.241 270.059 115.017C271.28 114.914 273.211 113.966 274.521 109.526L289.713 111.11V111.103Z" fill="#D46766"/>
<path d="M268.017 99.5368C269.046 97.7682 271.835 97.4796 274.255 98.893C276.675 100.299 277.792 102.874 276.764 104.643C275.735 106.411 272.945 106.7 270.526 105.287C268.106 103.881 266.988 101.305 268.017 99.5368Z" fill="#D46766"/>
<path d="M275.684 92.418C281.841 85.5212 291.372 83.9746 296.966 88.9696C302.561 93.9646 302.479 103.969 295.945 110.511C289.411 117.053 279.014 118.214 274.441 114.181C267.84 108.38 269.534 99.3148 275.691 92.418H275.684Z" fill="#F69887"/>
<path d="M296.063 107.226C296.211 104.037 296.352 100.855 296.433 97.88C294.901 97.7394 293.347 97.4434 292.03 96.6664C290.713 95.8746 289.662 94.069 289.544 92.515C286.362 93.8988 283.35 92.1524 281.1 90.258C279.909 90.1988 279.546 90.1174 278.747 90.1692C278.059 90.4282 277.326 90.8722 276.66 91.1534C277.467 89.7474 278.51 88.4746 279.953 87.3128C286.924 87.2166 293.91 88.7558 300.385 91.849C300.947 95.6008 300.792 99.4562 300.052 103.23C299.26 104.999 297.595 106.198 296.056 107.234L296.063 107.226Z" fill="#D46766"/>
<path d="M305.631 98.9894C304.632 104.85 298.52 112.272 298.52 112.272C298.52 112.272 296.67 112.324 293.48 112.102C295.36 107.166 296.522 101.964 297.032 96.3032C295.53 96.5104 293.969 96.133 292.725 95.2598C291.49 94.394 290.609 93.0398 290.158 91.5228C287.36 92.1666 284.26 91.3304 281.87 89.3102C280.915 89.2954 279.953 89.2658 279.124 89.3768C278.207 90.139 277.282 90.8864 276.312 91.8558C275.853 90.4868 276.024 88.9032 277.592 87.1494C277.437 86.7794 277.4 86.4094 277.459 86.0394C277.629 84.7592 278.865 83.59 280.175 83.1238C281.862 82.5244 283.742 82.5762 285.362 81.8436C287.079 81.0592 288.493 79.4386 290.365 79.3572C292.496 79.2906 294.065 81.2072 295.93 82.221C297.565 83.1164 299.474 83.3236 301.235 83.9082C302.619 84.367 304.033 85.2032 304.736 86.439C304.935 86.772 305.076 87.1272 305.15 87.5194C304.114 87.3196 301.887 86.6388 301.79 87.7266C301.724 88.5406 303.011 89.2066 305.076 90.4942C307.17 91.804 306.045 96.5844 305.631 98.9968V98.9894Z" fill="#17194D"/>
<path d="M304.745 86.439C303.975 86.0394 302.651 85.3438 301.8 85.1884C299.987 84.885 298.544 85.1218 296.819 84.4484C295.206 83.812 293.356 81.9176 291.639 81.703C289.575 81.444 288.11 83.3532 286.082 83.8046C284.276 84.2042 282.375 83.7602 280.562 84.1598C279.511 84.3966 278.297 85.3142 277.461 86.0394C277.631 84.7592 278.867 83.59 280.177 83.1238C281.864 82.5244 283.744 82.5762 285.364 81.8436C287.081 81.0592 288.494 79.4386 290.367 79.3572C292.498 79.2906 294.067 81.2072 295.931 82.221C297.567 83.1164 299.476 83.3236 301.237 83.9082C302.621 84.367 304.034 85.2032 304.737 86.439H304.745Z" fill="#2E396E"/>
<path d="M295.026 107.677C297.824 107.677 300.088 109.334 300.088 111.377C300.088 113.419 297.824 115.077 295.026 115.077C292.229 115.077 289.965 113.419 289.965 111.377C289.965 109.334 292.229 107.677 295.026 107.677Z" fill="#F69887"/>
<path d="M278.732 99.0928C278.103 99.6552 277.696 100.454 277.6 101.298" stroke="#A33E4F" stroke-miterlimit="10" stroke-linecap="round"/>
<path d="M276.816 109.393C276.158 108.491 275.965 107.099 276.165 105.997C276.283 105.338 276.55 104.628 277.157 104.317C277.571 104.11 278.074 104.147 278.503 104.332C278.933 104.517 279.266 104.865 279.539 105.242C280.405 106.478 280.501 108.224 279.784 109.541C279.451 110.126 277.904 110.873 276.824 109.386L276.816 109.393Z" fill="white"/>
<path d="M284.949 96.6294C286.029 95.734 287.465 95.2974 288.856 95.4454C290.247 95.5934 291.564 96.326 292.423 97.4286C289.973 97.177 287.509 97.0734 284.941 96.6294H284.949Z" fill="#17194D"/>
<path d="M286.148 101.853C286.753 101.853 287.243 101.363 287.243 100.758C287.243 100.153 286.753 99.6631 286.148 99.6631C285.543 99.6631 285.053 100.153 285.053 100.758C285.053 101.363 285.543 101.853 286.148 101.853Z" fill="#222D4D"/>
<path d="M279.414 95.3492C279.554 94.2836 279.044 93.144 278.134 92.552C277.231 91.96 275.987 91.923 275.062 92.4854C276.424 93.2846 277.793 94.0912 279.414 95.3492Z" fill="#17194D"/>
<path d="M275.062 98.6054C275.667 98.6054 276.157 98.1151 276.157 97.5102C276.157 96.9054 275.667 96.415 275.062 96.415C274.457 96.415 273.967 96.9054 273.967 97.5102C273.967 98.1151 274.457 98.6054 275.062 98.6054Z" fill="#222D4D"/>
<path d="M250.375 97.9686L241.14 109.564C241.14 109.564 238.72 106.723 235.908 103.467C233.407 100.551 230.595 97.3026 228.922 95.4378C225.415 91.5306 211.555 70.2038 211.555 70.2038L218.414 64.8906C218.414 64.8906 226.651 73.7558 230.928 77.6778C235.212 81.6072 238.365 88.5706 239.756 90.3466C240.407 91.1902 242.79 92.9144 245.121 94.535C247.778 96.3258 250.368 97.9686 250.368 97.9686H250.375Z" fill="#F69887"/>
<path d="M250.375 97.9688L241.14 109.565C241.14 109.565 238.72 106.723 235.908 103.467C238.025 99.6856 241.288 96.5332 245.121 94.5352C247.778 96.326 250.368 97.9688 250.368 97.9688H250.375Z" fill="#D46766"/>
<path d="M212.375 70.7209C210.636 71.3869 208.727 70.2843 207.395 69.0041C206.063 67.7165 204.856 66.1477 203.088 65.5853C202.585 65.4225 202.037 65.3485 201.578 65.0895C201.119 64.8305 200.735 64.3051 200.875 63.8019C201.06 63.1211 201.956 62.9583 202.666 62.9879C204.797 63.0545 206.914 63.6317 208.771 64.6529C209.792 59.7393 210.813 54.8109 211.835 49.8973C211.938 49.3941 212.049 48.8761 212.382 48.4765C212.715 48.0769 213.322 47.8623 213.766 48.1287C214.225 48.4173 214.284 49.0463 214.277 49.5865C214.262 52.1987 214.092 54.8183 213.781 57.4157C214.476 54.8035 215.475 52.2579 216.748 49.8677C217.155 49.1129 218.028 48.2545 218.731 48.7577C219.22 49.1055 219.138 49.8233 219.013 50.4079C218.48 52.8203 217.947 55.2253 217.414 57.6451C217.762 56.4315 218.117 55.1957 218.776 54.1153C219.434 53.0349 220.781 50.9185 221.684 51.8139C222.631 52.7537 220.063 57.6303 218.939 60.4349C219.582 59.1029 220.226 57.7783 220.87 56.4463C221.151 55.8765 221.625 55.1957 222.254 55.3363C223.053 55.5065 222.957 56.6757 222.668 57.4305C222.121 58.8661 221.573 60.2869 221.018 61.7225C220.234 63.7575 219.434 65.8295 218.014 67.4871C216.593 69.1447 214.306 69.9809 212.375 70.7283V70.7209Z" fill="#F69887"/>
<path d="M269.933 280.689C268.276 283.486 269.016 286.846 267.136 293.536C265.878 298.005 259.137 302.105 256.991 299.337C256.761 299.041 256.591 298.434 256.48 297.606C255.622 291.626 257.324 273.859 257.324 273.859L262.866 267.895C262.866 267.895 268.106 268.331 270.696 269.648C271.384 269.996 271.887 270.411 272.05 270.892C272.901 273.26 272.383 276.545 269.941 280.689H269.933Z" fill="#CF3045"/>
<path d="M269.934 280.69C268.276 283.487 269.016 286.846 267.136 293.536C265.878 298.005 259.137 302.105 256.991 299.337C256.762 299.041 256.591 298.435 256.48 297.606C258.345 297.917 260.432 297.265 261.912 296.007C263.969 294.268 265.064 291.656 265.723 289.037C266.389 286.432 266.685 283.731 267.521 281.171C268.313 278.721 269.586 276.449 270.289 273.978C270.688 272.594 270.859 271.092 270.688 269.671C271.377 270.011 271.88 270.426 272.043 270.907C272.894 273.267 272.376 276.553 269.934 280.697V280.69Z" fill="#F0979A"/>
<path d="M256.576 279.054C258.056 278.625 259.677 278.751 261.075 279.387" stroke="#F0979A" stroke-width="3" stroke-miterlimit="10" stroke-linecap="round"/>
<path d="M256.221 282.969C257.656 282.421 259.292 282.451 260.713 283.05" stroke="#F0979A" stroke-width="3" stroke-miterlimit="10" stroke-linecap="round"/>
<path d="M256.096 286.365C257.354 285.98 258.738 286.002 259.988 286.409" stroke="#F0979A" stroke-width="3" stroke-miterlimit="10" stroke-linecap="round"/>
<path d="M265.065 268.419C263.733 278.823 257.08 277.107 257.08 277.107C254.328 269.559 231.713 237.702 229.101 233.417C227.991 231.597 227.843 226.75 228.05 221.799C228.331 215.198 229.219 208.435 229.219 208.435L250.376 221.814L248.711 229.118L247.727 233.424C247.727 233.424 254.72 235.445 256.71 243.311C260.181 257.06 265.058 268.426 265.058 268.426L265.065 268.419Z" fill="#F69887"/>
<path d="M250.377 221.8L248.712 229.103C238.796 227.794 231.625 224.057 228.051 221.792C228.332 215.191 229.22 208.428 229.22 208.428L250.377 221.807V221.8Z" fill="#D46766"/>
<path d="M296.259 249.143C296.259 256.077 290.658 260.147 286.306 256.958C285.404 256.299 284.619 254.863 283.968 253.102C282.103 248.137 281.186 240.581 281.186 240.581L289.192 228.815C289.192 228.815 293.743 237.451 295.549 244.444C295.963 246.161 296.252 247.789 296.252 249.151L296.259 249.143Z" fill="#CF3045"/>
<path d="M296.258 249.144C296.258 256.078 290.656 260.148 286.305 256.958C285.402 256.3 284.618 254.864 283.967 253.103C284.033 253.207 284.115 253.31 284.196 253.414C285.61 255.264 288.015 256.559 290.257 255.952C292.166 255.441 293.505 253.71 294.297 251.904C295.333 249.551 295.651 247.02 295.555 244.438C295.97 246.154 296.258 247.782 296.258 249.144Z" fill="#F0979A"/>
<path d="M283.961 243.031C285.249 241.913 286.958 241.292 288.66 241.321" stroke="#F0979A" stroke-width="3" stroke-miterlimit="10" stroke-linecap="round"/>
<path d="M284.834 246.101C286.255 245.236 287.883 244.681 289.54 244.488" stroke="#F0979A" stroke-width="3" stroke-miterlimit="10" stroke-linecap="round"/>
<path d="M285.486 249.624C287.144 249.136 288.802 248.662 290.474 248.174" stroke="#F0979A" stroke-width="3" stroke-miterlimit="10" stroke-linecap="round"/>
<path d="M284.309 224.775C284.309 224.775 291.901 227.395 290.044 233.419C288.186 239.435 284.434 242.38 280.986 241.729C277.538 241.078 272.432 237.91 272.432 237.91L284.316 224.775H284.309Z" fill="#D46766"/>
<path d="M286.359 226.182C286.322 233.027 283.954 237.977 278.278 239.072C272.994 240.094 268.591 235.328 265.579 230.533C263.929 227.921 262.708 225.294 261.976 223.592C261.48 222.43 261.221 221.69 261.221 221.69L261.983 221.579L285.493 217.931C286.055 220.868 286.358 223.651 286.351 226.182H286.359Z" fill="#F69887"/>
<path d="M286.358 226.182C277.922 231.147 269.9 231.088 265.578 230.533C263.928 227.921 262.707 225.294 261.975 223.592V221.579L285.492 217.931C286.054 220.868 286.358 223.651 286.35 226.182H286.358Z" fill="#D46766"/>
<path d="M288.286 218.366C285.052 228.674 261.046 228.815 261.046 228.815L255.763 211.632L252.973 226.018C244.263 227.683 225.119 218.255 225.119 218.255C225.119 207.806 233.089 183.216 236.456 173.315C237.359 170.673 237.921 169.067 237.921 169.067L280.101 182.321L281.248 187.368L288.286 218.366Z" fill="white"/>
<path d="M281.242 187.382C252.596 187.633 240.549 177.932 236.457 173.322C237.36 170.68 237.922 169.074 237.922 169.074L280.102 182.328L281.242 187.382Z" fill="#C5D1DE"/>
<path d="M255.142 209.405C251.59 204.358 249.178 198.519 248.098 192.451C248.216 195.589 248.349 198.749 249.119 201.79C249.903 204.824 251.376 207.777 255.135 209.405H255.142Z" fill="#C5D1DE"/>
<path d="M253.891 209.678C248.497 206.193 243.657 201.864 239.609 196.876C241.104 203.514 247.106 208.871 253.891 209.678Z" fill="#C5D1DE"/>
<path d="M270.037 114.336C270.037 114.336 268.55 125.148 270.2 125.673C272.486 126.406 287.945 124.393 287.945 124.393C287.945 124.393 297.202 131.356 298.853 134.331C300.51 137.298 302.02 152.061 300.569 158.181C300.569 158.181 290.92 169.274 285.274 169.074L283.609 163.472L281.47 174.335C281.47 174.335 283.335 178.132 281.433 183.704C281.433 183.704 248.925 183.504 236.678 171.257C236.678 171.257 239.771 147.288 249.213 126.998L238.424 111.332C238.424 111.332 238.779 99.2327 249.006 92.3359C249.006 92.3359 252.965 97.1681 258.293 101.127C262.548 104.287 265.227 106.714 270.037 114.336Z" fill="#CF3045"/>
<path d="M284.061 162.081C283.646 153.282 286.961 144.373 293.022 137.986C289.152 140.465 286.081 144.188 284.401 148.472C282.714 152.742 282.418 157.559 284.061 162.081Z" fill="#A1223B"/>
<path d="M283.186 159.321C281.454 152.55 280.492 145.29 282.668 138.652C279.264 145.86 279.834 154.807 283.186 159.321Z" fill="#A1223B"/>
<path d="M249.863 126.346C252.653 120.005 256.494 114.129 261.17 109.016C255.028 112.701 250.625 119.131 249.863 126.346Z" fill="#A1223B"/>
<path d="M249.686 125.347C249.627 118.902 250.678 112.441 252.787 106.344C248.976 111.901 247.555 119.042 249.686 125.347Z" fill="#A1223B"/>
<path d="M278.828 175.053C272.516 175.689 266.13 176.156 259.847 175.245C253.565 174.335 247.349 171.93 242.812 167.49C253.92 172.041 265.982 174.254 278.821 175.053H278.828Z" fill="#A1223B"/>
<path d="M251.7 130.483C252.395 128.048 254.327 126.464 256.006 126.945C257.686 127.426 258.493 129.794 257.79 132.229C257.087 134.664 255.163 136.247 253.483 135.766C251.803 135.285 250.997 132.917 251.7 130.483Z" fill="white"/>
<path d="M291.889 127.242C291.452 124.674 289.891 122.321 287.686 120.93C282.772 124.067 275.942 125.71 270.451 125.673C274.795 126.872 279.139 130.291 280.656 134.523C284.726 132.792 288.418 130.143 291.889 127.242Z" fill="#FCCCD0"/>
<path d="M259.115 119.117C260.906 114.825 263.555 112.323 267.662 110.155C269.564 110.673 271.451 111.702 272.383 113.507C270.903 116.645 269.519 121.61 270.096 125.673C267.995 122.106 264.384 118.835 259.107 119.117H259.115Z" fill="#FCCCD0"/>
<path d="M321.349 151.352L321.267 160.69C321.267 160.69 296.966 179.294 293.547 178.983C291.704 178.82 289.736 174.321 288.308 170.222C287.102 166.751 286.295 163.576 286.295 163.576C286.295 163.576 294.376 159.247 297.676 159.247C298.209 159.247 299.171 159.048 300.414 158.707C306.963 156.924 321.356 151.352 321.356 151.352H321.349Z" fill="#F69887"/>
<path d="M300.415 158.707C298.483 161.815 294.332 167.527 288.316 170.221C287.109 166.75 286.303 163.576 286.303 163.576C286.303 163.576 294.384 159.247 297.684 159.247C298.217 159.239 299.179 159.04 300.422 158.699L300.415 158.707Z" fill="#D46766"/>
<path d="M319.211 154.119C321.409 150.604 323.103 146.364 326.848 143.929C329.467 142.227 334.499 143.167 336.564 143.67C336.993 143.774 337.467 148.687 337.918 151.211C338.014 151.743 338.081 152.358 337.704 152.728C337.289 153.157 336.52 152.987 336.113 152.557C335.706 152.121 335.565 151.514 335.447 150.937C335.254 150.004 335.062 149.035 334.485 148.288C333.9 147.54 332.797 147.096 331.946 147.977C334.625 150.078 335.935 153.786 335.158 157.108C335.047 157.612 334.862 158.13 334.455 158.455C334.055 158.773 333.367 158.796 333.086 158.359C333.249 159.573 331.887 160.712 330.725 160.342C330.526 161.341 329.238 161.785 328.276 161.474C327.314 161.164 326.596 160.342 325.945 159.565C324.361 161.252 321.638 161.719 319.581 160.668C319.618 158.27 319.633 155.858 319.218 154.134L319.211 154.119Z" fill="#F69887"/>
<path d="M343.446 111.169L332.945 144.099" stroke="#A5B0CF" stroke-width="3" stroke-miterlimit="10"/>
<path d="M324.679 157.996L329.778 142.109C330.081 141.169 331.08 140.658 332.013 140.962L335.905 142.212C336.845 142.516 337.355 143.515 337.052 144.447L331.953 160.335C331.65 161.275 330.651 161.785 329.719 161.482L325.826 160.231C324.886 159.935 324.376 158.936 324.679 157.996Z" fill="#222736"/>
<path d="M342.549 84.3874C347.011 82.0194 351.481 79.6366 355.943 77.2686" stroke="#D1D8F0" stroke-miterlimit="10"/>
<path d="M340.623 90.1967C346.765 86.8815 352.907 83.5515 359.042 80.2363" stroke="#D1D8F0" stroke-miterlimit="10"/>
<path d="M339.24 96.08C346.159 92.2986 353.093 88.5246 360.019 84.7432" stroke="#D1D8F0" stroke-miterlimit="10"/>
<path d="M340.371 100.742C346.853 97.3525 353.321 93.9781 359.804 90.5889" stroke="#D1D8F0" stroke-miterlimit="10"/>
<path d="M341.039 105.9C346.9 102.807 352.753 99.7065 358.621 96.6133" stroke="#D1D8F0" stroke-miterlimit="10"/>
<path d="M347.942 78.2383C347.683 88.0359 347.905 97.8483 348.608 107.631" stroke="#D1D8F0" stroke-miterlimit="10"/>
<path d="M344.531 80.0508C343.176 89.619 343.117 99.387 344.368 108.97" stroke="#D1D8F0" stroke-miterlimit="10"/>
<path d="M352.463 76.2998C352.655 85.4684 352.833 94.6444 353.025 103.813" stroke="#D1D8F0" stroke-miterlimit="10"/>
<path d="M356.92 75.5967C357.157 83.8551 357.386 92.1135 357.616 100.364" stroke="#D1D8F0" stroke-miterlimit="10"/>
<path d="M356.032 74.2874C350.519 72.3708 343.267 78.794 339.834 88.6508C336.4 98.5002 338.087 108.046 343.6 109.955C349.113 111.887 356.365 105.449 359.791 95.5994C363.232 85.75 361.545 76.2114 356.032 74.2874ZM357.882 94.9408C355.063 103.036 349.172 108.335 344.703 106.781C340.248 105.227 338.916 97.4124 341.743 89.3242C344.555 81.2286 350.453 75.9302 354.922 77.4768C359.377 79.0308 360.716 86.8452 357.882 94.9408Z" fill="#222736"/>
<path d="M342.046 107.521L340.588 112.338C340.588 112.338 342.504 114.47 345.472 113.604L347.211 109.068L342.053 107.514L342.046 107.521Z" fill="#222736"/>
<path d="M324.991 147.851C327.159 146.941 329.401 146.193 331.68 145.601C332.147 145.483 332.642 145.364 333.123 145.446C333.604 145.527 334.071 145.853 334.174 146.334C334.293 146.926 333.834 147.466 333.39 147.873C332.309 148.872 331.125 149.738 329.845 150.47C329.298 153.482 326.641 155.983 323.6 156.339" fill="#F69887"/>
<path d="M324.991 147.851C327.159 146.941 329.401 146.193 331.68 145.601C332.147 145.483 332.642 145.364 333.123 145.446C333.604 145.527 334.071 145.853 334.174 146.334C334.293 146.926 333.834 147.466 333.39 147.873C332.309 148.872 331.125 149.738 329.845 150.47C329.298 153.482 326.641 155.983 323.6 156.339" stroke="#A33E4F" stroke-miterlimit="10" stroke-linecap="round"/>
<path d="M370.944 213.031L366.008 209.619C366.008 209.619 363.825 210.374 363.152 214.259C362.478 218.144 360.71 236.045 363.832 242.342L369.427 239.752L370.936 213.031H370.944Z" fill="#C47123"/>
<path d="M372.166 262.662L373.106 267.99L419.607 266.999L419.326 262.27C405.584 241.617 389.571 244.828 372.166 262.662Z" fill="#3A424F"/>
<path d="M386.972 219.136C377.604 221.948 371.802 210.582 371.802 210.582C373.637 209.775 373.319 206.504 372.683 203.766C372.165 201.576 371.439 199.719 371.439 199.719L387.364 199.297C387.364 199.297 387.823 202.146 389.088 203.544C389.362 203.855 389.673 204.085 390.028 204.21C390.561 204.403 391.723 203.781 392.655 203.182C393.432 202.686 394.054 202.205 394.054 202.205C395.097 206.66 396.333 216.317 386.972 219.136Z" fill="#BF6565"/>
<path d="M392.655 203.182C388.874 210.227 377.123 208.088 372.683 203.766C372.165 201.576 371.439 199.719 371.439 199.719L387.364 199.297C387.364 199.297 387.823 202.146 389.088 203.544C389.362 203.855 389.673 204.085 390.028 204.21C390.561 204.403 391.723 203.781 392.655 203.182Z" fill="#91474C"/>
<path d="M391.006 187.397C393.929 186.028 397.044 186.524 397.969 188.493C398.894 190.461 397.266 193.169 394.343 194.531C391.42 195.893 388.305 195.404 387.38 193.436C386.462 191.467 388.083 188.759 391.006 187.397Z" fill="#91474C"/>
<path d="M362.155 193.398C357.167 184.097 359.136 173.759 367.12 169.474C375.105 165.19 384.584 165.907 390.608 178.554C395.144 188.078 394.952 199.97 386.53 203.174C378.072 206.385 367.157 202.693 362.162 193.398H362.155Z" fill="#BF6565"/>
<path d="M393.426 188.396C392.686 182.55 389.681 176.911 386.24 172.345C383.835 172.671 381.615 171.761 379.366 171.768C377.864 171.783 376.406 172.205 374.97 172.627C373.113 173.167 371.233 173.729 369.642 174.81C368.421 175.638 367.178 176.815 365.728 176.578C366.016 180.715 365.95 183.327 365.728 184.533C365.535 185.636 364.492 191.208 364.44 195.559C362.893 194.871 363.167 196.64 361.458 196.58C360.666 196.536 359.682 196.247 359.149 195.633C358.624 195.012 358.446 194.175 358.305 193.384C358.172 192.577 358.046 191.748 357.602 191.075C356.988 190.135 355.804 189.602 355.419 188.544C354.916 187.145 356.078 185.702 356.085 184.215C356.085 183.09 355.449 182.032 354.887 181.003C354.302 179.908 353.784 178.85 354.198 177.733C354.665 176.475 356.137 175.897 356.833 174.75C357.802 173.174 357.099 170.91 358.261 169.467C359.534 167.876 362.116 168.364 363.885 167.35C365.321 166.529 366.12 164.753 367.681 164.198C369.391 163.591 371.248 164.701 373.068 164.553C374.941 164.405 376.687 162.918 378.515 163.362C379.81 163.68 380.735 164.916 382.037 165.249C383.377 165.597 385.071 164.99 386.018 166.004C386.522 166.544 386.581 167.365 386.936 168.024C387.491 169.06 388.668 169.563 389.63 170.222C390.355 170.725 391.028 171.546 391.11 172.486C391.139 172.789 391.11 173.115 390.991 173.433C390.621 174.181 390.991 175.091 391.457 175.779C391.938 176.467 392.53 177.118 392.693 177.94C392.849 178.724 392.56 179.553 392.701 180.352C392.826 181.077 393.293 181.699 393.589 182.365C394.417 184.237 393.922 186.413 393.418 188.396H393.426Z" fill="#372247"/>
<path d="M391.11 172.486C390.451 171.473 389.497 170.651 388.372 170.192C386.833 169.556 385.005 169.571 383.666 168.572C382.748 167.884 382.141 166.774 381.083 166.344C379.329 165.634 377.457 167.136 375.563 167.181C373.801 167.232 372.092 166.004 370.383 166.426C368.496 166.885 367.541 169.112 365.758 169.874C363.819 170.696 361.11 169.711 359.771 171.332C359.112 172.124 359.09 173.241 358.802 174.233C358.269 176.083 356.789 177.481 355.745 179.102C355.383 179.672 355.072 180.33 354.894 180.996C354.31 179.901 353.792 178.843 354.206 177.726C354.672 176.468 356.145 175.89 356.841 174.743C357.81 173.167 357.107 170.903 358.269 169.46C359.542 167.869 362.124 168.357 363.893 167.343C365.328 166.522 366.128 164.746 367.689 164.191C369.398 163.584 371.256 164.694 373.076 164.546C374.948 164.398 376.695 162.911 378.523 163.355C379.818 163.673 380.743 164.909 382.045 165.242C383.384 165.59 385.079 164.983 386.026 165.997C386.529 166.537 386.589 167.358 386.944 168.017C387.499 169.053 388.675 169.556 389.637 170.215C390.363 170.718 391.036 171.539 391.117 172.479L391.11 172.486Z" fill="#5F436E"/>
<path d="M358.143 195.434C358.632 193.317 361.569 192.178 364.714 192.896C367.859 193.613 370.02 195.915 369.532 198.039C369.043 200.162 366.106 201.295 362.961 200.577C359.816 199.859 357.655 197.558 358.143 195.434Z" fill="#BF6565"/>
<path d="M376.553 177.644C375.043 176.749 373.349 176.053 371.595 176.09C369.841 176.12 368.021 177.037 367.303 178.628C370.655 177.948 372.601 177.733 376.553 177.644Z" fill="#372247"/>
<path d="M383.427 176.874C383.39 176.201 383.457 175.498 383.753 174.884C384.049 174.269 384.589 173.751 385.255 173.603C386.202 173.389 387.142 173.951 387.963 174.484C386.321 174.854 384.619 175.838 383.435 176.874H383.427Z" fill="#372247"/>
<path d="M383.828 179.693C384.598 180.781 385.042 182.15 385.094 183.541" stroke="#6E2B39" stroke-miterlimit="10" stroke-linecap="round"/>
<path d="M388.164 185.931C388.164 185.931 380.527 185.095 379.04 186.878C377.552 188.662 377.538 197.327 378.107 198.356C378.677 199.384 388.771 197.964 389.622 196.469C390.036 195.751 388.157 185.924 388.157 185.924L388.164 185.931Z" fill="white"/>
<path d="M374.089 179.48C374.644 179.494 375.081 180.035 375.066 180.701C375.051 181.359 374.592 181.885 374.03 181.877C373.475 181.862 373.038 181.322 373.053 180.656C373.068 179.998 373.527 179.472 374.089 179.48Z" fill="#313A47"/>
<path d="M386.825 178.325C387.38 178.34 387.817 178.88 387.802 179.546C387.787 180.205 387.329 180.73 386.766 180.723C386.211 180.708 385.775 180.168 385.789 179.502C385.804 178.843 386.263 178.318 386.825 178.325Z" fill="#313A47"/>
<path d="M475.247 228.437C475.247 228.437 451.959 231.197 440.312 231.286C438.24 231.301 436.537 231.241 435.398 231.056C424.52 229.325 412.502 225.003 412.502 225.003C412.502 225.003 412.058 228.844 410.712 230.583L398.435 203.477L397.688 201.826C397.688 201.826 405.835 197.608 410.445 199.806C415.063 202.004 417.764 205.06 418.763 205.97C419.747 206.881 435.191 214.399 437.011 214.821C438.824 215.235 442.487 214.177 448.659 215.598C460.003 218.203 474.721 219.231 474.721 219.231L475.247 228.43V228.437Z" fill="#BF6565"/>
<path d="M440.312 231.286C438.24 231.301 436.538 231.241 435.399 231.056C424.521 229.325 412.503 225.003 412.503 225.003C412.503 225.003 412.059 228.844 410.712 230.583L398.436 203.477C404.97 207.695 410.179 213.918 413.028 221.533C421.331 226.653 430.766 229.917 440.312 231.286Z" fill="#91474C"/>
<path d="M471.727 220.26C475.323 217.448 480.703 212.135 482.834 211.802C484.159 211.595 488.895 212.298 491.951 213.445C494.008 214.222 496.383 215.864 496.931 217.559C497.109 218.099 496.554 218.676 496.006 218.824C495.458 218.972 494.859 218.81 494.356 218.528C493.86 218.247 493.438 217.855 492.972 217.507C491.522 216.434 489.79 216.153 488.081 216.375C490.574 217.085 492.669 218.773 494.504 220.593C494.918 221 495.325 221.422 495.577 221.94C495.828 222.458 495.962 223.109 495.666 223.605C495.088 224.582 494.149 224.382 494.149 224.382C494.149 224.382 494.001 225.477 493.608 225.78C492.691 226.498 492.017 226.039 491.647 226.232C491.263 226.994 490.774 227.024 489.923 226.92C489.072 226.824 488.295 226.417 487.503 226.091C486.712 225.766 485.831 225.536 485.128 226.091C481.879 228.696 477.328 229.569 473.325 228.341C472.748 225.647 472.156 222.954 471.727 220.267V220.26Z" fill="#BF6565"/>
<path d="M493.773 223.923C492.382 222.176 490.421 220.889 488.26 220.312" stroke="#6E2B39" stroke-miterlimit="10" stroke-linecap="round"/>
<path d="M490.923 225.602C489.384 224.115 487.49 222.975 485.447 222.316" stroke="#6E2B39" stroke-miterlimit="10" stroke-linecap="round"/>
<path d="M477.617 216.937C480.651 216.242 483.693 215.531 486.727 214.836C487.652 214.621 488.813 214.495 489.354 215.265C489.783 215.857 489.561 216.737 489.058 217.27C487.962 218.417 486.053 219.039 485.313 219.387C484.862 222.065 482.42 224.271 479.704 224.448" fill="#BF6565"/>
<path d="M477.617 216.937C480.651 216.242 483.693 215.531 486.727 214.836C487.652 214.621 488.813 214.495 489.354 215.265C489.783 215.857 489.561 216.737 489.058 217.27C487.962 218.417 486.053 219.039 485.313 219.387C484.862 222.065 482.42 224.271 479.704 224.448" stroke="#6E2B39" stroke-miterlimit="10" stroke-linecap="round"/>
<path d="M366.927 240.291C365.291 238.93 363.967 237.672 362.494 236.31C361.029 234.971 359.438 233.557 357.233 231.863C354.428 231.567 351.387 231.175 348.293 230.775C343.158 230.102 337.867 229.428 333.175 229.199C323.925 228.229 309.029 223.545 296.516 217.795C295.369 217.27 294.236 216.73 293.134 216.182C293.8 213.452 289.264 205.474 289.552 205.067C290.647 205.504 298.499 208.249 299.72 208.531C306.631 210.159 315.245 209.692 321.787 211.113C326.619 212.164 329.734 213.762 333.138 214.502C335.181 214.954 343.846 215.02 348.782 214.717C350.499 214.613 351.771 214.451 352.149 214.251C354.976 212.741 359.712 211.727 363.93 211.291C365.802 211.091 367.578 211.002 369.036 211.032C373.809 219.727 373.994 232.803 366.941 240.291H366.927Z" fill="#BF6565"/>
<path d="M366.927 240.292C365.291 238.93 363.967 237.672 362.494 236.31C363.619 235.593 364.566 234.52 365.188 233.343C366.431 230.96 366.631 228.178 366.801 225.492C366.986 222.702 367.156 219.882 366.646 217.122C366.246 214.991 365.365 212.882 363.922 211.291C365.795 211.091 367.571 211.002 369.028 211.032C373.801 219.727 373.986 232.803 366.934 240.292H366.927Z" fill="#91474C"/>
<path d="M348.286 230.768C343.15 230.094 337.859 229.421 333.167 229.192C323.917 228.222 309.021 223.538 296.508 217.788C298.336 216.404 299.786 212.305 299.705 208.523C306.616 210.151 315.23 209.685 321.771 211.106C326.604 212.157 329.719 213.755 333.123 214.495C335.165 214.947 343.831 215.013 348.767 214.71C351.534 220.053 350.913 227.023 348.286 230.768Z" fill="white"/>
<path d="M425.734 319.264L428.687 324.725C428.687 324.725 410.705 328.707 396.837 319.915L393.566 312.678L424.262 311.494L425.734 319.257V319.264Z" fill="#C47123"/>
<path d="M394.861 412.859C394.832 413.407 394.713 414.014 394.469 414.598C393.885 416.064 392.567 417.373 389.94 417.314C386.285 417.233 377.383 405.763 377.316 401.493C377.227 395.64 375.644 397.127 374.415 395.773C372.047 393.161 371.736 386.73 372.291 385.294C372.647 384.384 374.053 383.689 375.799 383.163C379.447 382.046 384.553 381.676 384.553 381.676L394.114 390.186C392.982 397.438 394.995 410.921 394.861 412.859Z" fill="#8B94B0"/>
<path d="M394.469 414.591C393.892 416.057 392.567 417.366 389.94 417.307C386.285 417.226 377.383 405.756 377.316 401.486C377.227 395.633 375.644 397.12 374.415 395.766C372.047 393.154 371.736 386.723 372.291 385.287C372.647 384.377 374.053 383.682 375.799 383.156C374.963 386.516 375.496 390.238 377.338 393.183C378.226 394.589 379.381 395.847 379.958 397.394C380.461 398.718 380.498 400.154 380.72 401.553C381.356 405.571 383.65 409.308 386.936 411.698C389.141 413.304 391.768 414.295 394.469 414.591Z" fill="#D1DBE8"/>
<path d="M426.333 342.471C425.408 345.246 420.65 352.757 414.959 361.2C404.984 375.985 392.167 393.634 392.167 393.634C387.52 393.235 383.768 385.472 383.672 382.712C383.672 382.712 390.014 369.562 391.471 364.286C393.366 357.419 394.764 353.238 397.125 349.693C399.16 346.637 401.92 344.062 406.316 340.665L401.306 326.168L397.451 315.039L424.142 314.913C424.142 314.913 425.378 320.1 426.251 326.205C427.088 332.051 427.583 338.734 426.34 342.471H426.333Z" fill="#BF6565"/>
<path d="M426.244 326.205C421.301 324.2 411.555 321.58 401.299 326.168L397.443 315.039L424.135 314.913C424.135 314.913 425.371 320.1 426.244 326.205Z" fill="#91474C"/>
<path d="M414.959 361.2C404.984 375.986 392.167 393.635 392.167 393.635C387.52 393.235 383.768 385.472 383.672 382.712C383.672 382.712 390.014 369.562 391.471 364.286C393.366 357.419 394.764 353.238 397.125 349.693C399.034 353.268 401.913 356.339 405.428 358.366C408.321 360.046 411.622 360.993 414.959 361.2Z" fill="white"/>
<path d="M387.047 394.13C387.262 391.488 386.522 388.721 387.758 386.449C388.379 385.302 389.778 384.488 390.999 384.939C392.05 385.324 397.948 386.774 398.658 387.033C399.472 387.322 399.79 388.373 399.553 389.194C399.287 390.134 392.398 395.44 392.398 395.44C392.398 395.44 388.971 394.152 387.04 394.137L387.047 394.13Z" fill="#8B94B0"/>
<path d="M386.697 395.543C388.999 394.84 391.522 394.884 393.801 395.684" stroke="#D1DBE8" stroke-width="3" stroke-miterlimit="10" stroke-linecap="round"/>
<path d="M386.727 400.182C389.05 399.761 391.44 399.746 393.757 400.138" stroke="#D1DBE8" stroke-width="3" stroke-miterlimit="10" stroke-linecap="round"/>
<path d="M428.696 324.726C428.696 324.726 407.472 315.536 396.713 319.887L387.744 310.629C387.744 310.629 373.04 307.743 371.523 297.435C371.101 294.549 370.939 292.07 370.946 289.932C370.924 284.411 371.915 281.111 371.967 278.846C372.034 275.709 368.748 270.27 372.5 266.089C372.5 266.089 383.918 259.954 400.428 261.271C414.088 262.359 420.06 265.149 420.06 265.149C420.06 265.149 426.187 288.2 428.118 312.908C428.437 316.83 428.636 320.797 428.696 324.719V324.726Z" fill="#FFC061"/>
<path d="M428.697 324.726C428.697 324.726 407.474 315.535 396.714 319.886L387.746 310.629C387.746 310.629 373.042 307.743 371.525 297.435C371.103 294.549 370.94 292.07 370.948 289.931C372.561 291.722 376.387 298.87 384.26 294.26C389.174 291.381 391.15 282.96 395.826 279.712C399.208 277.366 403.493 276.9 408.947 276.004C403.707 270.661 397.144 266.621 390.017 264.342C394.931 264.505 399.785 266.229 403.7 269.211C406.112 271.054 408.258 273.392 411.122 274.421C413.979 275.449 417.923 274.413 418.626 271.461C418.337 274.465 416.724 277.329 414.312 279.134C416.406 280.703 418.84 281.813 421.401 282.368C418.826 283.885 415.799 284.647 412.809 284.514C413.105 293.009 418.108 301.194 425.53 305.323C422.94 306.64 419.869 307.003 417.05 306.322C420.061 309.452 423.954 311.717 428.135 312.901C428.453 316.823 428.653 320.789 428.712 324.711L428.697 324.726Z" fill="#F0A04A"/>
<path d="M388.92 337.995C388.92 337.995 387.129 353.098 385.138 360.454C385.116 360.528 385.101 360.609 385.079 360.676C384.717 361.963 384.361 362.992 383.999 363.636C379.981 370.888 363.094 368.749 365.306 353.905C365.321 353.786 365.336 353.66 365.358 353.549C365.388 353.379 365.417 353.216 365.447 353.046C367.134 344.396 375.622 333.518 375.622 333.518L388.92 337.995Z" fill="#8B94B0"/>
<path d="M385.079 360.675C384.717 361.963 384.361 362.991 383.999 363.635C379.981 370.887 363.094 368.749 365.306 353.904C365.321 353.786 365.336 353.66 365.358 353.549C365.388 353.379 365.417 353.216 365.447 353.046C365.773 355.059 366.572 356.99 367.822 358.603C370.479 362.022 375.052 363.85 379.337 363.199C381.438 362.888 383.422 361.985 385.079 360.675Z" fill="#D1DBE8"/>
<path d="M405.266 279.749L407.804 274.066C407.804 274.066 400.493 269.137 394.425 270.44C387.957 271.824 377.405 281.821 382.2 304.176L405.266 279.742V279.749Z" fill="#B55C62"/>
<path d="M410.765 279.134C410.166 284.27 408.959 286.504 408.959 286.504C408.959 286.504 407.642 294.452 401.374 306.973C396.979 315.771 392.613 327.967 390.4 334.449C389.46 337.194 388.905 338.919 388.905 338.919C386.027 345.771 374.705 343.758 374.594 335.907C374.594 335.907 376.917 325.872 378.272 318.909C378.701 316.659 379.026 314.735 379.145 313.566C379.618 308.823 381.18 288.421 389.89 280.858C394.729 276.648 396.35 271.009 403.239 272.185C403.239 272.185 411.372 273.984 410.772 279.127L410.765 279.134Z" fill="#BF6565"/>
<path d="M390.392 334.456C389.453 337.201 388.898 338.926 388.898 338.926C386.019 345.778 374.697 343.765 374.586 335.914C374.586 335.914 376.91 325.879 378.264 318.916C378.967 321.994 380.047 324.969 381.764 327.618C383.784 330.726 386.914 333.302 390.392 334.456Z" fill="#B55C62"/>
<path d="M399.153 275.071C398.723 277.802 399.212 280.666 400.507 283.108C398.857 282.76 397.488 281.354 397.177 279.696C396.866 278.053 397.613 276.24 399.16 275.071H399.153Z" fill="#91474C"/>
<path d="M375.305 342.124C375.549 339.312 375.786 336.507 376.03 333.702C376.082 333.118 376.133 332.518 376.363 331.971C376.6 331.438 377.051 330.964 377.599 330.883C378.413 330.765 379.086 331.482 379.722 332.015C380.929 333.029 382.49 333.569 384.044 333.503C384.717 333.473 385.391 333.332 386.064 333.369C386.738 333.392 387.441 333.628 387.862 334.176C388.499 335.02 388.247 336.255 387.922 337.277C387.47 338.712 386.915 340.133 386.294 341.502C385.79 342.59 385.161 343.737 384.103 344.181C383.297 344.521 382.401 344.395 381.535 344.27C379.36 343.944 377.036 343.537 375.305 342.116V342.124Z" fill="#8B94B0"/>
<path d="M375.438 342.923C378.064 342.435 380.847 343.108 383.148 344.795" stroke="#D1DBE8" stroke-width="3" stroke-miterlimit="10" stroke-linecap="round"/>
<path d="M374.244 346.956C376.871 346.468 379.654 347.141 381.955 348.828" stroke="#D1DBE8" stroke-width="3" stroke-miterlimit="10" stroke-linecap="round"/>
<path d="M373.172 351.515C375.799 351.026 378.581 351.7 380.883 353.387" stroke="#D1DBE8" stroke-width="3" stroke-miterlimit="10" stroke-linecap="round"/>
<path d="M419.689 263.277C419.689 263.277 410.358 259.991 401.396 259.274C391.214 258.467 375.644 261.619 371.967 265.134C371.967 265.134 370.205 264.269 370.265 261.967C370.279 261.346 370.42 260.628 370.768 259.792C371.93 256.994 370.672 255.3 369.206 253.132C368.6 252.236 367.963 251.252 367.438 250.083C366.195 247.286 364.937 244.622 364.278 243.275C363.997 242.69 363.834 242.357 363.834 242.357C363.834 242.357 372.773 229.718 365.721 209.62L366.787 209.494L370.435 209.05L371.789 208.88C371.789 208.88 377.554 217.412 386.996 215.688C395.639 214.111 394.233 208.354 393.449 201.746L394.492 201.465L396.927 200.821L398.444 200.414C398.444 200.414 403.824 208.11 406.332 214.592C407.76 218.263 410.55 223.065 412.704 227.061C414.339 230.118 415.597 232.7 415.575 233.921C415.516 236.741 416.455 247.293 416.455 247.293C416.455 247.293 420.274 259.651 419.689 263.27V263.277Z" fill="#FFC061"/>
<path d="M374.904 213.985C384.524 224.479 397.541 231.812 411.497 234.617C397.164 235.053 382.889 227.032 374.904 213.985Z" fill="#F0A04A"/>
<path d="M383.452 257.002C383.067 257.882 381.898 258.001 380.936 258.052C377.118 258.267 373.181 259.562 370.265 261.96C370.28 261.338 370.421 260.62 370.768 259.784C371.93 256.987 370.672 255.292 369.207 253.124C372.137 254.944 375.712 255.729 379.101 255.063C380.078 254.878 381.069 254.574 382.039 254.811C382.993 255.048 383.844 256.091 383.445 257.002H383.452Z" fill="#F0A04A"/>
<path d="M364.284 243.267C364.003 242.683 363.84 242.35 363.84 242.35C363.84 242.35 372.779 229.711 365.727 209.612L366.792 209.486C371.713 220.179 370.692 233.403 364.291 243.267H364.284Z" fill="#3A424F"/>
<path d="M394.284 212.905C392.59 215.362 389.681 216.465 387.387 216.968C383.88 217.745 380.091 217.234 376.916 215.584C374.134 214.141 371.84 211.803 370.441 209.05L371.796 208.88C371.796 208.88 377.56 217.412 387.003 215.688C395.646 214.104 394.24 208.354 393.455 201.746L394.499 201.465C394.935 203.344 396.541 209.642 394.292 212.898L394.284 212.905Z" fill="#3A424F"/>
<path d="M412.703 227.061C409.721 223.635 407.479 219.506 405.429 215.414C402.898 210.374 400.493 205.15 396.934 200.821L398.451 200.414C398.451 200.414 403.83 208.11 406.339 214.592C407.767 218.263 410.557 223.065 412.71 227.061H412.703Z" fill="#3A424F"/>
<path d="M389.461 235.889C389.099 237.102 388.196 238.153 386.945 238.612C387.049 239.344 387.145 240.062 387.36 240.995C388.07 240.928 388.773 240.854 389.809 240.95C389.979 244.31 390.497 247.647 391.334 250.933C390.653 251.073 389.979 251.199 389.284 251.355C389.387 252.228 389.498 253.116 389.809 254.093C391.852 253.597 393.946 253.301 396.144 253.227C395.996 252.331 395.84 251.436 395.7 250.385C395.063 250.385 394.419 250.393 393.746 250.333C392.747 246.263 392.022 242.364 392.17 235.881C390.86 235.896 390.86 235.755 389.461 235.896V235.889Z" fill="#3A424F"/>
<path d="M398.149 249.957L397.032 239.249C396.817 237.192 398.342 235.386 400.317 235.357L403.707 235.305C405.446 235.283 406.911 236.637 407.096 238.435L408.213 248.988C408.421 250.986 407 252.754 405.076 252.873L401.687 253.087C399.896 253.191 398.342 251.814 398.142 249.95L398.149 249.957Z" fill="#3A424F"/>
<path d="M400.376 248.136L399.784 241.084C399.673 239.73 400.443 238.546 401.442 238.531L403.158 238.509C404.039 238.494 404.787 239.39 404.883 240.581L405.475 247.53C405.586 248.847 404.861 250.009 403.891 250.083L402.182 250.216C401.272 250.282 400.472 249.38 400.376 248.144V248.136Z" fill="#FFC061"/>
<path d="M290.959 206.755C291.3 206.415 291.685 206.082 292.01 205.712C292.018 205.638 292.314 205.172 292.373 205.083C292.965 204.313 293.623 203.854 294.563 203.647C295.044 203.048 295.533 202.448 296.014 201.842L293.505 194.627C293.505 194.627 281.961 188.825 279.023 192.843C276.085 196.854 280.03 205.83 280.03 205.83L286.956 211.395C288.125 209.715 289.516 208.206 290.959 206.755Z" fill="#91474C"/>
<path d="M315.954 192.023C315.887 194.872 315.184 197.55 313.978 199.941C313.593 200.718 313.142 201.45 312.653 202.153C312.439 202.464 312.217 202.753 311.987 203.049C311.847 203.241 311.691 203.426 311.536 203.604L311.492 203.655L311.418 203.737L311.122 204.062L310.737 204.477C310.737 204.477 310.707 204.514 310.685 204.529C310.567 204.654 310.448 204.773 310.315 204.891C309.582 205.609 308.783 206.26 307.94 206.837C307.71 206.993 307.481 207.141 307.259 207.281C307.251 207.289 307.229 207.296 307.222 207.296C307.089 207.385 306.941 207.466 306.8 207.548C306.356 207.814 305.905 208.058 305.446 208.273C305.253 208.369 305.054 208.451 304.854 208.539C304.691 208.613 304.528 208.687 304.365 208.747C304.084 208.858 303.803 208.969 303.514 209.057C303.122 209.191 302.737 209.316 302.338 209.427C301.968 209.516 301.598 209.612 301.22 209.694C300.976 209.746 300.732 209.783 300.488 209.82C300.288 209.849 300.081 209.879 299.874 209.908C299.289 209.982 298.69 210.034 298.09 210.049C297.876 210.064 297.646 210.064 297.432 210.049C297.358 210.049 297.291 210.049 297.217 210.049H297.128C296.447 210.034 295.774 209.982 295.108 209.886H295.093C294.849 209.864 294.612 209.82 294.368 209.783C293.887 209.701 293.413 209.598 292.947 209.472C292.733 209.413 292.518 209.361 292.311 209.294C292.281 209.294 292.266 209.287 292.259 209.287C291.845 209.168 291.452 209.035 291.06 208.88C290.92 208.835 290.772 208.776 290.638 208.717C290.535 208.68 290.431 208.628 290.328 208.584C290.157 208.517 289.987 208.443 289.817 208.354C289.647 208.28 289.477 208.206 289.306 208.11C289.166 208.044 289.033 207.977 288.899 207.903C288.825 207.873 288.766 207.836 288.714 207.799C288.581 207.733 288.448 207.659 288.322 207.585C288.159 207.489 288.004 207.4 287.841 207.296C287.649 207.185 287.456 207.059 287.286 206.934C286.901 206.689 286.539 206.423 286.191 206.142C285.962 205.957 285.732 205.772 285.51 205.579C285.362 205.461 285.222 205.328 285.088 205.202C284.918 205.054 284.763 204.906 284.615 204.751C284.415 204.558 284.223 204.358 284.038 204.151C283.86 203.966 283.697 203.781 283.534 203.589C283.342 203.367 283.164 203.152 283.002 202.93C282.898 202.804 282.802 202.671 282.713 202.545C282.572 202.368 282.454 202.198 282.336 202.027C282.299 201.983 282.269 201.939 282.239 201.887L282.136 201.724L281.98 201.487L281.573 200.829C281.263 200.281 280.974 199.726 280.722 199.156C280.597 198.868 280.463 198.572 280.352 198.283C280.167 197.802 280.005 197.321 279.864 196.825C279.82 196.707 279.797 196.588 279.76 196.47C279.635 196.033 279.538 195.604 279.457 195.16C279.427 195.034 279.398 194.901 279.383 194.775C279.287 194.257 279.22 193.747 279.183 193.221C279.161 193.022 279.146 192.822 279.139 192.629C279.124 192.533 279.117 192.43 279.117 192.333C279.117 192.259 279.117 192.193 279.117 192.126C279.102 191.823 279.102 191.512 279.117 191.209C279.117 190.883 279.139 190.565 279.168 190.247C279.183 189.958 279.22 189.669 279.25 189.396C279.279 189.122 279.324 188.848 279.376 188.582C279.39 188.463 279.405 188.352 279.435 188.234C279.487 187.967 279.546 187.694 279.605 187.435C280.101 185.244 281.004 183.209 282.21 181.396L282.905 180.449C283.15 180.131 283.394 179.813 283.66 179.509C286.161 176.623 289.558 174.529 293.413 173.656C294.094 173.493 294.79 173.375 295.5 173.308C296.299 173.212 297.121 173.175 297.95 173.19C301.716 173.271 305.202 174.485 308.08 176.497C308.413 176.727 308.754 176.978 309.072 177.245C312.942 180.345 315.517 184.978 315.917 190.195C315.954 190.609 315.969 191.031 315.961 191.453C315.976 191.645 315.969 191.83 315.961 192.023H315.954Z" fill="#F78431"/>
<path opacity="0.59" d="M312.653 202.145C312.439 202.456 312.217 202.745 311.987 203.041C311.839 203.226 311.691 203.411 311.529 203.596C311.521 203.611 311.499 203.633 311.492 203.648L311.418 203.729L311.122 204.055L310.737 204.469C310.737 204.469 310.707 204.506 310.685 204.521C310.567 204.647 310.448 204.765 310.315 204.883C309.582 205.601 308.783 206.252 307.94 206.83C307.71 206.985 307.481 207.133 307.259 207.274C307.251 207.281 307.229 207.288 307.222 207.288C307.089 207.377 306.941 207.459 306.8 207.54C306.356 207.806 305.905 208.051 305.446 208.265C305.253 208.361 305.054 208.443 304.854 208.532C304.691 208.606 304.528 208.68 304.365 208.739C304.084 208.85 303.803 208.961 303.514 209.05C303.122 209.183 302.737 209.309 302.338 209.42C301.968 209.508 301.598 209.605 301.22 209.686C300.976 209.738 300.732 209.775 300.488 209.812C300.288 209.841 300.081 209.871 299.874 209.901C299.289 209.975 298.69 210.026 298.09 210.041C297.876 210.056 297.646 210.056 297.432 210.041C297.358 210.041 297.291 210.041 297.217 210.041H297.128C296.447 210.026 295.774 209.975 295.108 209.878H295.093C294.849 209.856 294.612 209.812 294.368 209.775C293.887 209.693 293.413 209.59 292.947 209.464C292.733 209.405 292.518 209.353 292.311 209.286C292.281 209.286 292.266 209.279 292.259 209.279C291.845 209.161 291.452 209.027 291.06 208.872C290.92 208.828 290.772 208.768 290.638 208.709C290.535 208.672 290.431 208.62 290.328 208.576C290.157 208.509 289.987 208.435 289.817 208.347C289.647 208.273 289.477 208.199 289.306 208.102C289.166 208.036 289.033 207.969 288.899 207.895C288.825 207.866 288.766 207.829 288.714 207.792C288.581 207.725 288.448 207.651 288.322 207.577C288.159 207.481 288.004 207.392 287.841 207.288C287.649 207.177 287.456 207.052 287.286 206.926C286.901 206.682 286.539 206.415 286.191 206.134C285.962 205.949 285.732 205.764 285.51 205.572C285.362 205.453 285.222 205.32 285.088 205.194C284.918 205.046 284.763 204.898 284.615 204.743C284.415 204.55 284.223 204.351 284.038 204.143C283.86 203.958 283.697 203.773 283.534 203.581C283.342 203.359 283.164 203.144 283.002 202.922C282.898 202.797 282.802 202.663 282.713 202.538C282.572 202.36 282.454 202.19 282.336 202.02C282.299 201.975 282.269 201.931 282.239 201.879L282.136 201.716L281.98 201.479L281.573 200.821C281.263 200.273 280.974 199.718 280.722 199.148C280.597 198.86 280.463 198.564 280.352 198.275C280.167 197.794 280.005 197.313 279.864 196.817C279.82 196.699 279.797 196.581 279.76 196.462C279.635 196.026 279.538 195.596 279.457 195.152C279.427 195.027 279.398 194.893 279.383 194.768C279.287 194.25 279.22 193.739 279.183 193.214C279.161 193.014 279.146 192.814 279.139 192.622C279.124 192.525 279.117 192.422 279.117 192.326C279.117 192.252 279.117 192.185 279.117 192.118C279.102 191.815 279.102 191.504 279.117 191.201C279.117 190.875 279.139 190.557 279.168 190.239C279.183 189.95 279.22 189.662 279.25 189.388C279.279 189.114 279.324 188.84 279.376 188.574C279.39 188.455 279.405 188.344 279.435 188.226C279.487 187.96 279.546 187.686 279.605 187.427C279.612 189.062 279.812 190.653 280.182 192.17C280.249 192.466 280.33 192.77 280.412 193.058C280.907 194.738 281.61 196.329 282.498 197.787C282.698 198.112 282.905 198.445 283.127 198.756C284.815 201.228 287.057 203.292 289.669 204.78C290.291 205.135 290.934 205.453 291.6 205.742C293.857 206.719 296.329 207.288 298.926 207.34C302.871 207.429 306.571 206.341 309.708 204.395C310.115 204.136 310.53 203.855 310.922 203.559H310.929C311.536 203.122 312.106 202.649 312.661 202.138L312.653 202.145Z" fill="#F07030"/>
<path d="M315.953 192.022C315.887 194.871 315.184 197.55 313.978 199.94C311.972 201.428 309.656 202.53 307.155 203.159C306.407 203.359 305.63 203.5 304.831 203.603C303.292 203.81 301.679 203.833 300.058 203.662C293.502 202.952 288.055 199.2 285.11 194.042C284.925 193.732 284.755 193.413 284.6 193.095C283.134 190.165 282.461 186.85 282.809 183.409C282.809 183.364 282.824 183.312 282.824 183.268C282.89 182.639 282.994 182.025 283.134 181.411C283.268 180.767 283.438 180.13 283.652 179.516C286.154 176.63 289.55 174.536 293.406 173.663C294.086 173.5 294.782 173.382 295.492 173.315C296.292 173.219 297.113 173.182 297.942 173.197C301.708 173.278 305.194 174.492 308.072 176.504C308.405 176.734 308.746 176.985 309.064 177.252C312.934 180.352 315.509 184.985 315.909 190.202C315.946 190.616 315.961 191.038 315.953 191.46C315.968 191.652 315.961 191.837 315.953 192.03V192.022Z" fill="#F78F39"/>
<path d="M282.234 201.887C282.471 200.821 282.767 199.785 283.122 198.757C283.507 197.558 283.98 196.381 284.521 195.234C284.654 194.938 284.794 194.657 284.942 194.361C285.002 194.257 285.053 194.139 285.113 194.035C285.608 193.073 286.163 192.134 286.755 191.231C286.933 190.964 287.111 190.698 287.303 190.432C287.873 189.61 288.487 188.811 289.146 188.056C289.863 187.22 290.64 186.428 291.447 185.681C291.662 185.466 291.891 185.266 292.106 185.074C296.842 180.9 302.828 178.162 309.059 177.252C308.741 176.986 308.408 176.734 308.067 176.505C301.999 177.548 296.22 180.279 291.588 184.334C291.358 184.534 291.136 184.741 290.914 184.941C290.048 185.74 289.22 186.591 288.457 187.486C287.858 188.175 287.296 188.892 286.77 189.632C286.563 189.899 286.378 190.165 286.215 190.439C285.623 191.297 285.083 192.185 284.595 193.103C284.476 193.31 284.373 193.51 284.269 193.717C284.121 193.991 283.98 194.265 283.847 194.553C283.337 195.619 282.885 196.699 282.493 197.802C282.13 198.801 281.82 199.807 281.561 200.836L282.227 201.894L282.234 201.887Z" fill="#332726"/>
<path d="M315.955 191.452C312.751 188.448 308.192 186.813 303.826 187.212C302.931 187.294 301.998 187.449 301.096 187.604C298.52 188.041 295.849 188.492 293.466 187.308C292.66 186.901 291.986 186.339 291.453 185.68C291.254 185.444 291.076 185.192 290.928 184.933C289.529 182.646 289.448 179.531 290.536 177.237C291.165 175.883 292.156 174.662 293.414 173.655C294.095 173.493 294.791 173.374 295.501 173.308C293.614 174.388 292.164 175.883 291.35 177.614C290.403 179.627 290.447 182.321 291.609 184.326C291.764 184.593 291.927 184.844 292.119 185.074C292.586 185.658 293.178 186.147 293.881 186.494C295.997 187.56 298.409 187.146 300.955 186.716C301.873 186.554 302.82 186.398 303.752 186.309C308.14 185.91 312.588 187.368 315.925 190.194C315.962 190.609 315.977 191.031 315.97 191.452H315.955Z" fill="#332726"/>
<path d="M310.738 204.469C310.397 204.454 310.049 204.44 309.702 204.403C308.066 204.269 306.438 203.996 304.84 203.603C300.022 202.419 295.464 200.103 291.734 196.84C289.847 195.19 288.182 193.303 286.762 191.238C286.577 190.972 286.399 190.705 286.229 190.431C284.801 188.241 283.661 185.873 282.817 183.401C282.588 182.743 282.388 182.069 282.203 181.389L282.899 180.441C282.965 180.76 283.047 181.085 283.136 181.403C283.935 184.297 285.171 187.079 286.784 189.625C286.947 189.899 287.124 190.172 287.302 190.439C288.723 192.555 290.402 194.479 292.319 196.159C296.485 199.8 301.695 202.22 307.156 203.159C308.399 203.374 309.657 203.522 310.915 203.566H310.923C311.13 203.589 311.315 203.596 311.522 203.596H311.529L310.73 204.469H310.738Z" fill="#332726"/>
<path d="M297.195 210.041L295.101 209.878H295.086C292.97 208.554 291.12 206.83 289.662 204.795C289.137 204.055 288.671 203.278 288.256 202.478C287.834 201.657 287.472 200.799 287.124 199.97C286.739 199.06 286.347 198.12 285.873 197.247C285.459 196.47 285.015 195.796 284.527 195.241C284.319 194.982 284.097 194.745 283.861 194.553C283.32 194.05 282.758 193.672 282.151 193.421C281.626 193.199 281.026 193.073 280.412 193.066C279.998 193.066 279.583 193.11 279.184 193.228C279.162 193.029 279.147 192.829 279.139 192.636C279.125 192.54 279.117 192.437 279.117 192.34C279.458 192.237 279.813 192.192 280.175 192.185C280.938 192.141 281.737 192.274 282.492 192.599C283.121 192.866 283.72 193.236 284.275 193.717C284.512 193.917 284.741 194.139 284.941 194.375C285.585 195.049 286.147 195.87 286.665 196.825C287.146 197.742 287.561 198.704 287.953 199.629C288.293 200.443 288.641 201.28 289.048 202.071C289.729 203.411 290.58 204.639 291.586 205.749C293.155 207.525 295.064 208.99 297.195 210.049V210.041Z" fill="#332726"/>
<path d="M293.623 216.405C293.623 216.405 285.224 213.519 282.516 211.247C279.807 208.975 279.016 204.047 279.371 201.805C279.608 200.288 280.614 198.512 282.508 196.543C284.462 194.508 284.817 197.357 284.403 198.638C283.988 199.918 283.411 202.382 283.411 202.382L284.203 205.157C284.203 205.157 289.479 204.787 291.788 209.005C294.104 213.208 293.623 216.398 293.623 216.398V216.405Z" fill="#BF6565"/>
<path d="M328.172 388.492L331.672 392.703L334.521 397.365L294.361 414.074L302.657 398.601L328.172 388.492Z" fill="#6F7B9E"/>
<path d="M339.101 425.322C336.03 431.523 330.036 437.599 325.011 437.791C322.984 437.873 312.454 438.228 300.214 438.642C282.114 439.249 260.298 439.959 256.828 439.959C256.828 439.959 248.118 429.74 256.354 423.605C256.354 423.605 272.368 419.624 280.826 417.545C290.735 415.11 300.236 417.019 300.236 417.019L300.155 416.871L298.519 413.645L296.24 409.168L326.454 386.85C326.454 386.85 329.969 394.072 333.351 402.345C337.118 411.551 340.722 422.066 339.094 425.33L339.101 425.322Z" fill="#F69887"/>
<path d="M333.351 402.338C322.754 399.185 303.655 410.433 298.519 413.645L296.24 409.168L326.454 386.85C326.454 386.85 329.969 394.072 333.351 402.345V402.338Z" fill="#DB6F60"/>
<path d="M269.934 370.895C269.934 370.895 291.638 407.429 294.161 414.089C294.161 414.089 324.738 393.887 328.357 393.043C331.975 392.2 334.447 397.328 334.447 397.328L319.913 356.487L269.934 370.888V370.895Z" fill="#C5D1DE"/>
<path d="M314.638 369.903C311.441 382.439 305.869 394.36 298.299 404.846C303.36 393.694 308.422 382.55 314.638 369.903Z" fill="#A1B2CC"/>
<path d="M312.677 370.133C307.497 379.22 299.697 386.805 290.447 391.696C297.84 385.392 305.018 378.82 312.677 370.133Z" fill="#A1B2CC"/>
<path d="M315.92 372.532L319.302 374.271L324.896 360.943L316.024 361.913L315.92 372.532Z" fill="#6F7B9E"/>
<path d="M429.316 362.889C429.812 364.339 430.819 365.412 432.306 366.085C440.72 365.59 443.665 359.522 450.325 356.51C457.155 353.431 464.903 352.95 471.593 349.569C478.689 345.987 481.612 340.896 481.612 340.896C481.612 340.896 480.754 338.128 480.191 338.217C464.274 345.351 447.572 352.684 429.316 362.889Z" fill="#2E191F"/>
<path d="M433.549 365.235C434.022 365.872 434.503 366.508 434.984 367.137C435.776 367.041 436.561 366.819 437.286 366.493C437.167 365.827 437.049 365.161 436.945 364.495" fill="#2E191F"/>
<path d="M437.805 363.88C438.323 364.487 438.833 365.093 439.351 365.693C440.136 365.552 440.95 365.086 441.601 364.494C441.445 363.835 441.098 363.014 440.935 362.355" fill="#2E191F"/>
<path d="M442.48 360.543C442.998 361.15 443.509 361.757 444.027 362.356C444.811 362.215 445.625 361.749 446.277 361.157C446.121 360.499 445.773 359.677 445.611 359.019" fill="#2E191F"/>
<path d="M457.711 353.483C458.162 354.142 458.606 354.793 459.065 355.452C459.857 355.393 460.708 355.008 461.426 354.482C461.337 353.809 461.078 352.951 460.989 352.292" fill="#2E191F"/>
<path d="M464.531 351.345C464.983 352.003 465.427 352.655 465.885 353.313C466.677 353.254 467.528 352.869 468.246 352.344C468.157 351.67 467.898 350.812 467.809 350.153" fill="#2E191F"/>
<path d="M471.355 348.614C471.807 349.273 472.251 349.924 472.71 350.583C473.501 350.523 474.352 350.139 475.07 349.613C474.981 348.94 474.722 348.081 474.634 347.423" fill="#2E191F"/>
<path d="M476.943 344.13C477.395 344.789 478.031 346.024 478.497 346.683C479.289 346.624 480.532 345.847 481.25 345.329C481.161 344.655 480.318 343.02 480.229 342.361" fill="#2E191F"/>
<path d="M424.831 347.393C424.831 347.393 424.506 362.045 429.131 363.888C434.873 366.189 442.85 359.196 445.322 357.169C447.793 355.141 459.293 351.545 463.296 350.686C467.307 349.828 481.412 343.827 480.635 337.248C480.057 332.327 476.239 331.787 473.331 332.438C466.752 333.888 444.197 334.147 436.908 334.414L424.839 347.393H424.831Z" fill="#CF3045"/>
<path d="M445.359 333.977C444.323 335.893 443.65 338.002 443.391 340.17" stroke="#F7D9D7" stroke-width="4" stroke-miterlimit="10" stroke-linecap="round"/>
<path d="M450.621 333.977C449.585 335.893 448.911 338.002 448.652 340.17" stroke="#F7D9D7" stroke-width="4" stroke-miterlimit="10" stroke-linecap="round"/>
<path d="M456.445 333.977C455.409 335.893 454.736 338.002 454.477 340.17" stroke="#F7D9D7" stroke-width="4" stroke-miterlimit="10" stroke-linecap="round"/>
<path d="M439.218 334.696L425.787 351.316C425.787 351.316 412.148 350.798 404.822 350.554C398.999 350.354 383.769 352.826 369.31 349.015C365.551 348.023 361.843 346.603 358.365 344.612C358.365 344.612 344.128 354.114 330.134 360.759C323.644 363.845 317.206 366.309 312.256 366.923L322.187 327.451C322.187 327.451 325.117 326.682 329.291 325.624C338.023 323.411 352.216 319.97 356.293 319.815C357.781 319.763 363.604 320.643 371.53 322.005C395.654 326.134 439.225 334.689 439.225 334.689L439.218 334.696Z" fill="#F69887"/>
<path d="M439.218 334.696L425.787 351.316C425.787 351.316 412.149 350.798 404.823 350.554C398.999 350.354 383.77 352.826 369.31 349.015C368.385 346.921 367.793 344.634 367.393 342.37C366.602 337.73 366.52 332.883 367.963 328.413C368.718 326.082 369.932 323.862 371.523 322.005C395.647 326.134 439.218 334.688 439.218 334.688V334.696Z" fill="#271F64"/>
<path d="M330.126 360.758C323.637 363.844 317.199 366.308 312.248 366.922L322.179 327.451C322.179 327.451 325.109 326.681 329.283 325.623C327.3 330.796 319.766 352.603 330.126 360.758Z" fill="#DB6F60"/>
<path d="M443.252 334.518C441.025 331.188 438.605 329.249 434.898 327.502C434.291 327.214 433.603 326.947 432.944 327.11C431.834 327.391 431.427 328.709 431.486 329.796C431.545 330.892 431.886 332.016 431.486 333.045C431.146 333.94 430.265 334.725 430.421 335.664C430.554 336.456 431.375 336.96 432.115 337.359C434.335 338.543 436.57 339.72 438.79 340.904C440.433 339.039 441.299 336.419 443.267 334.51L443.252 334.518Z" fill="#CF3045"/>
<path d="M329.299 324.949C324.962 332.32 322.476 343.664 321.048 353.609C319.449 364.828 319.198 374.278 319.198 374.278C319.198 374.278 288.984 381.152 277.602 378.029C270.469 376.076 263.764 370.925 261.744 358.967C259.45 345.41 265.141 330.262 265.141 330.262L275.664 331.742L286.978 333.333L329.291 324.949H329.299Z" fill="#E4EAF0"/>
<path opacity="0.78" d="M329.298 324.949C324.961 332.32 322.475 343.664 321.047 353.609C321.047 352.573 320.965 351.537 320.766 350.524C320.344 348.37 319.3 346.261 317.502 344.996C315.771 343.782 313.58 343.494 311.479 343.294C304.367 342.65 297.041 342.754 290.292 345.092C283.544 347.423 277.394 352.24 274.76 358.878C276.025 351.848 279.851 345.307 285.371 340.763C278.963 342.273 272.902 345.218 267.752 349.317C272.414 343.767 278.423 339.364 285.112 336.597C280.103 335.065 274.826 334.355 269.58 334.495C271.6 333.57 273.628 332.645 275.67 331.742L286.985 333.333L329.298 324.949Z" fill="white"/>
<path d="M300.24 331.469C287.874 337.352 278.062 349.17 273.637 362.134C275.339 348.333 286.047 335.302 300.24 331.469Z" fill="#BDCBDE"/>
<path d="M300.238 331.469C289.161 335.043 273.539 344.012 265.029 351.952C271.697 342.169 288.043 332.52 300.238 331.469Z" fill="#BDCBDE"/>
<path d="M355.769 274.806C355.769 274.806 376.57 280.829 377.443 289.731C378.316 298.626 372.271 301.986 367.838 301.83C360.283 301.564 343.277 293.246 343.277 293.246L355.769 274.806Z" fill="#DB6F60"/>
<path d="M246.36 279.297C244.555 280.422 241.506 281.754 237.843 283.145C224.989 288.015 203.507 294.016 203.507 294.016L200.621 282.642C204.402 280.518 218.263 271.335 224.952 268.249C228.045 266.821 232.278 266.052 235.926 265.637C240.107 265.171 243.519 265.171 243.593 265.171L246.353 279.297H246.36Z" fill="#F69887"/>
<path d="M246.361 279.297C244.556 280.422 241.507 281.754 237.844 283.145C236.231 277.581 235.572 271.594 235.935 265.637C240.116 265.171 243.527 265.171 243.601 265.171L246.361 279.297Z" fill="#DB6F60"/>
<path d="M186.851 298.937C186.851 298.937 184.956 304.354 192.445 303.94C195.316 303.784 199.135 300.972 200.829 298.649C202.524 296.325 203.797 293.683 206.202 291.33C204.729 288.696 203.449 285.95 202.109 283.212C198.017 281.273 193.614 280.015 189.115 279.497C187.953 279.364 186.747 279.29 185.659 279.742C184.216 280.341 183.306 281.754 182.551 283.116C181.456 285.099 180.501 287.149 179.68 289.258C179.192 290.538 178.74 291.9 178.977 293.247C179.273 294.956 180.642 296.318 182.203 297.058C183.765 297.798 186.851 298.93 186.851 298.93V298.937Z" fill="#F69887"/>
<path d="M187.168 298.559C188.271 295.954 188.9 293.157 189.025 290.33" stroke="#BD3E42" stroke-miterlimit="10" stroke-linecap="round"/>
<path d="M188.278 295.228C187.168 293.933 185.799 292.868 184.268 292.091" stroke="#BD3E42" stroke-miterlimit="10" stroke-linecap="round"/>
<path d="M286.897 333.429C282.627 334.198 268.671 335.375 262.987 337.958C259.62 337.425 258.858 334.376 259.606 332.001C260.353 329.625 262.188 327.783 263.957 326.036C261.145 309.978 263.491 298.538 265.407 288.933C257.852 288.94 253.419 288.896 246.619 288.415C240.38 281.681 237.413 270.433 236.273 260.517C245.886 261.19 254.396 259.118 264.038 257.261C273.68 255.396 283.929 251.97 294.312 255.581C317.644 257.712 340.576 264.143 361.622 274.577C354.984 282.953 348.354 291.323 342.574 299.404C338.164 299.404 332.251 298.782 327.804 298.338C326.65 302.652 324.111 311.554 323.046 316.024C324.851 319.754 325.651 322.543 325.088 326.169C310.777 329.366 290.708 332.741 286.897 333.436V333.429Z" fill="#4EC2DD"/>
<path d="M286.369 258.053C286.369 264.461 304.329 281.185 304.329 281.185C304.329 281.185 317.457 273.482 316.384 266.933C307.607 264.269 296.618 262.737 286.369 258.053Z" fill="#DB6F60"/>
<path d="M304.337 281.185C315.312 273.23 317.909 267.391 316.325 260.516C317.902 260.058 319.507 259.599 321.143 259.636C327.137 259.791 328.661 266.88 329.882 275.538C323.185 273.23 311.797 277.3 304.33 281.185H304.337Z" fill="#D9FBFF"/>
<path d="M304.337 281.185C295.117 271.964 293.829 265.497 295.561 257.039C292.09 255.581 289.137 254.456 285.46 255.248C282.44 261.967 280.812 266.133 280.812 274.591C286.74 273.326 298.299 276.515 304.345 281.185H304.337Z" fill="#D9FBFF"/>
<path d="M328.041 297.235C330.365 290.849 332.104 284.256 333.221 277.559C333.791 284.404 332.037 291.419 328.041 297.235Z" fill="#3792C4"/>
<path d="M329.137 295.474C334.102 290.19 338.091 283.974 340.829 277.255C339.97 281.169 338.661 285.017 336.589 288.451C334.509 291.885 331.631 294.874 329.137 295.474Z" fill="#3792C4"/>
<path d="M320.13 316.475C310.71 314.566 300.972 314.27 291.463 315.602C300.75 311.843 311.598 312.154 320.13 316.475Z" fill="#3792C4"/>
<path d="M266.916 288.288C270.956 282.339 273.665 275.494 274.797 268.39C275.278 275.767 272.229 283.286 266.916 288.288Z" fill="#3792C4"/>
<path d="M267.914 289.036C272.28 285.536 276.024 281.266 278.925 276.485C278.955 280.045 277.46 283.604 274.892 286.076C272.324 288.547 268.721 289.902 267.914 289.036Z" fill="#3792C4"/>
<path d="M316.815 296.118C317.674 293.372 319.983 291.641 321.966 292.262C323.949 292.884 324.859 295.614 324.001 298.367C323.142 301.113 320.834 302.844 318.85 302.223C316.867 301.601 315.957 298.87 316.815 296.118Z" fill="#FFC061"/>
<path d="M356.412 280.8C360.452 280.43 364.582 280.075 368.526 281.037C372.47 281.999 376.259 284.537 377.635 288.355C379.137 292.559 377.228 297.561 373.595 300.158C369.961 302.756 364.981 303.059 360.808 301.476C356.634 299.892 353.252 296.592 350.98 292.751C352.838 288.925 354.695 285.099 356.405 280.8H356.412Z" fill="#F08678"/>
<path d="M342.108 282.28C339.784 283.375 338.363 286.054 338.63 288.599C338.896 291.152 340.753 293.432 343.151 294.342C345.556 295.252 348.375 294.815 350.477 293.343C348.708 289.28 346.096 285.58 342.1 282.272L342.108 282.28Z" fill="#F08678"/>
<path d="M363.893 286.076C362.894 282.435 359.719 279.682 356.737 277.373C353.748 275.065 349.663 273.821 346.126 275.139C344.091 275.893 342.411 277.418 341.175 279.194C340.391 280.326 339.739 281.628 339.754 282.997C339.769 284.374 340.613 285.809 342.307 286.653C341.878 287.933 342.137 289.428 342.981 290.479C343.824 291.53 345.208 292.129 347.406 292.048C347.354 293.202 347.857 294.364 348.738 295.104C349.618 295.844 350.862 296.14 352.564 296.273C353.015 298.16 355.346 299.115 357.226 298.619C359.098 298.123 360.519 296.576 361.532 294.926C362.872 292.751 365.003 290.124 363.893 286.076Z" fill="#F69887"/>
<path d="M342.639 285.95C344.052 283.464 346.02 281.296 348.366 279.66" stroke="#BD3E42" stroke-miterlimit="10" stroke-linecap="round"/>
<path d="M347.789 291.737C349.824 289.732 351.615 287.482 353.11 285.048" stroke="#BD3E42" stroke-miterlimit="10" stroke-linecap="round"/>
<path d="M353.473 295.66C355.397 293.787 356.951 291.538 358.031 289.081" stroke="#BD3E42" stroke-miterlimit="10" stroke-linecap="round"/>
<path d="M322.86 250.061C326.819 248.374 331.022 249.336 332.25 252.207C333.471 255.078 331.251 258.778 327.292 260.465C323.333 262.153 319.13 261.191 317.902 258.319C316.681 255.448 318.901 251.748 322.86 250.061Z" fill="#DB6F60"/>
<path d="M284.647 254.049C282.471 240.226 290.286 227.52 302.089 225.663C313.892 223.805 324.799 226.839 327.397 247.337C329.15 261.22 325.265 274.259 313.462 276.116C301.659 277.973 286.822 267.872 284.647 254.049Z" fill="#F69887"/>
<path d="M309.71 252.377C308.363 250.786 306.232 249.987 304.145 249.905C302.058 249.824 299.986 250.401 298.055 251.185C301.755 251.748 305.492 252.051 309.71 252.377Z" fill="#271F64"/>
<path d="M319.441 251.333C319.352 249.624 320.403 248.092 321.801 247.108C323.207 246.123 325.139 246.212 326.441 246.686C324.081 248.121 321.868 249.801 319.441 251.333Z" fill="#271F64"/>
<path d="M306.571 260.221C307.323 260.221 307.932 259.482 307.932 258.571C307.932 257.66 307.323 256.921 306.571 256.921C305.819 256.921 305.209 257.66 305.209 258.571C305.209 259.482 305.819 260.221 306.571 260.221Z" fill="#323F6E"/>
<path d="M322.932 256.906C323.684 256.906 324.294 256.167 324.294 255.256C324.294 254.344 323.684 253.605 322.932 253.605C322.18 253.605 321.57 254.344 321.57 255.256C321.57 256.167 322.18 256.906 322.932 256.906Z" fill="#323F6E"/>
<path d="M319.553 256.609C320.175 258.541 320.13 260.679 319.42 262.581" stroke="#BD3E42" stroke-miterlimit="10" stroke-linecap="round"/>
<path d="M318.865 271.269C319.553 270.603 319.783 269.974 320.049 269.056C320.315 268.139 320.36 267.132 319.997 266.244C319.627 265.364 318.806 264.638 317.851 264.579C316.86 264.52 315.964 265.127 315.209 265.778C313.966 266.851 312.834 268.205 312.59 269.826C312.508 270.381 312.545 270.965 312.789 271.469C313.189 272.26 314.077 272.727 314.958 272.823C315.838 272.926 317.148 272.926 318.865 271.269Z" fill="white"/>
<path d="M327.795 254.012C327.499 249.202 326.685 242.024 325.086 237.71C318.042 239.619 304.862 240.507 295.183 239.923C295.183 247.182 292.941 253.783 290.04 260.524C288.116 259.644 286.162 258.327 284.601 256.913C281.989 250.261 280.302 244.252 279.443 237.229C279.31 236.127 279.236 234.957 279.347 233.847C279.48 232.515 279.887 231.257 280.783 230.288C281.922 229.045 283.654 228.497 284.83 227.291C286.592 225.485 286.777 222.57 288.516 220.735C290.38 218.781 293.451 218.648 296.123 219.033C298.794 219.432 301.525 220.217 304.159 219.617C306.261 219.136 308.244 217.775 310.39 218.041C313.468 218.433 315.333 221.941 318.36 222.592C319.84 222.91 321.46 222.503 322.859 223.08C324.724 223.85 325.501 226.026 325.96 227.994C326.137 228.771 326.3 229.563 326.448 230.347C326.929 232.908 327.255 235.475 327.514 237.954C328.054 243.157 328.624 248.255 327.787 254.005L327.795 254.012Z" fill="#271F64"/>
<path d="M326.456 230.348C326.352 230.17 326.234 230 326.123 229.822C324.835 227.98 322.859 226.5 320.617 226.367C318.478 226.241 316.266 227.329 314.26 226.574C312.492 225.908 311.367 223.962 309.517 223.555C306.705 222.933 304.411 226.211 301.532 226.418C298.58 226.626 295.96 223.54 293.074 224.221C290.603 224.805 289.589 227.706 287.746 229.445C286.029 231.058 283.624 231.628 281.471 232.583C280.738 232.908 279.998 233.33 279.34 233.841C279.473 232.509 279.88 231.251 280.775 230.281C281.915 229.038 283.647 228.49 284.823 227.284C286.584 225.479 286.769 222.563 288.508 220.728C290.373 218.774 293.444 218.641 296.116 219.026C298.787 219.425 301.518 220.21 304.152 219.61C306.254 219.129 308.237 217.768 310.383 218.034C313.461 218.426 315.326 221.934 318.353 222.585C319.833 222.903 321.453 222.496 322.852 223.074C324.717 223.843 325.494 226.019 325.952 227.987C326.13 228.764 326.293 229.556 326.441 230.34L326.456 230.348Z" fill="#45478C"/>
<path d="M278.838 257.542C279.748 254.552 283.818 253.146 287.94 254.404C292.061 255.662 294.666 259.096 293.756 262.078C292.846 265.068 288.776 266.474 284.654 265.216C280.532 263.965 277.927 260.524 278.838 257.542Z" fill="#F69887"/>
<path d="M519.063 302.238C519.063 302.415 519.063 302.593 519.056 302.778C518.767 316.734 507.371 327.967 493.333 327.967C479.296 327.967 467.604 316.446 467.604 302.238C467.604 295.666 470.068 289.665 474.13 285.107C478.844 279.83 485.704 276.508 493.333 276.508C507.549 276.508 519.063 288.022 519.063 302.238Z" fill="white"/>
<path d="M517.56 310.903C514.008 320.848 504.499 327.967 493.325 327.967C479.11 327.967 467.596 316.445 467.596 302.237C467.596 297.834 468.706 293.69 470.652 290.064C469.683 292.773 469.157 295.688 469.157 298.73C469.157 312.938 480.672 324.46 494.887 324.46C504.692 324.46 513.217 318.969 517.56 310.903Z" fill="#CBD2D8"/>
<mask id="mask1_338_21074" style="mask-type:luminance" maskUnits="userSpaceOnUse" x="467" y="276" width="53" height="52">
<path d="M519.061 302.237C519.061 302.414 519.061 302.592 519.054 302.777C518.765 316.733 507.369 327.966 493.331 327.966C479.294 327.966 467.602 316.445 467.602 302.237C467.602 295.665 470.066 289.664 474.128 285.106C478.842 279.829 485.702 276.507 493.331 276.507C507.547 276.507 519.061 288.021 519.061 302.237Z" fill="white"/>
</mask>
<g mask="url(#mask1_338_21074)">
<path d="M518.351 316.756C516.804 316.823 515.243 316.49 513.852 315.801C515.058 312.634 515.761 309.571 515.842 306.292C517.455 305.686 519.069 305.086 520.341 304.687C522.08 309.001 521.488 314.166 518.351 316.756Z" fill="#222F38"/>
<path d="M505.935 295.37C505.832 292.055 505.38 289.147 504.581 285.943C500.8 283.915 496.663 283.131 493.074 284.5C491.572 286.905 490.358 289.502 489.566 292.536C491.357 295.459 493.407 298.212 495.901 301.231C499.342 299.285 502.783 297.331 505.943 295.37H505.935Z" fill="#222F38"/>
<path d="M487.035 319.08C487.065 321.056 487.464 322.98 488.182 324.911C491.86 326.236 495.545 326.325 499.097 325.614C500.614 324.238 501.251 322.713 502.102 320.937C500.4 319.139 497.654 317.437 495.264 315.558C491.853 317.371 490.188 318.014 487.035 319.08Z" fill="#222F38"/>
<path d="M496.098 298.479C495.758 305.109 495.403 311.739 495.062 318.37" stroke="#222F38" stroke-miterlimit="10"/>
<path d="M491.756 292.181C483.949 292.787 476.593 297.531 472.805 304.383" stroke="#222F38" stroke-miterlimit="10"/>
<path d="M503.885 294.46C510.219 296.34 515.273 301.949 516.502 308.446" stroke="#222F38" stroke-miterlimit="10"/>
<path d="M503.869 287.045C506.148 285.58 508.235 283.819 510.07 281.813" stroke="#222F38" stroke-miterlimit="10"/>
<path d="M494.627 285.225C492.511 282.043 489.321 279.608 485.695 278.417" stroke="#222F38" stroke-miterlimit="10"/>
<path d="M471.154 316.327C472.967 315.491 474.787 314.662 476.593 313.818C474.824 310.34 473.862 306.537 473.566 302.504C471.368 301.793 468.978 301.682 466.477 302.607C465.189 307.639 467.128 313.345 471.146 316.327H471.154Z" fill="#222F38"/>
<path d="M477.193 280.022C480.567 279.712 483.942 279.401 487.405 279.675C487.856 277.98 488.308 276.293 488.759 274.591C484.549 275.449 480.197 276.359 477.186 280.022H477.193Z" fill="#222F38"/>
<path d="M489.24 324.267C487.316 325.169 485.392 326.072 483.461 326.982" stroke="#222F38" stroke-miterlimit="10"/>
<path d="M498.557 325.621C500.037 327.027 501.184 328.788 501.857 330.712" stroke="#222F38" stroke-miterlimit="10"/>
<path d="M501.146 320.804C506.215 320.338 511.114 318.14 514.829 314.662" stroke="#222F38" stroke-miterlimit="10"/>
<path d="M488.625 319.368C483.371 319.287 478.213 316.63 475.105 312.397" stroke="#222F38" stroke-miterlimit="10"/>
</g>
</g>
</g>
<defs>
<clipPath id="clip0_338_21074">
<rect width="620" height="400" fill="white"/>
</clipPath>
</defs>
</svg>
