<svg width="1389" height="963" viewBox="0 0 1389 963" fill="none" xmlns="http://www.w3.org/2000/svg">
<g clip-path="url(#clip0_345_22435)">
<path d="M1257.94 779.66C1246.7 735.214 1269.65 690.179 1289.54 649.013C1306.43 614.071 1321.8 577.566 1326.09 538.833C1330.38 500.1 1322.33 458.447 1297.04 429.269C1251.87 377.138 1172.53 381.288 1104.83 389.255C1037.12 397.196 957.356 400.142 913.51 346.858C888.024 315.887 881.954 273.516 870.917 234.655C850.123 161.493 796.944 87.6384 722.445 83.514C672.277 80.7473 626.173 110.31 586.691 142.024C527.442 189.62 473.386 245.722 437.466 313.402C417.926 350.214 404.054 389.869 385.743 427.322C351.88 496.591 298.752 560.813 226.535 584.38C173.407 601.723 112.955 596.241 65.0694 625.445C-5.91822 668.738 -18.0087 777.329 24.91 849.518C37.753 871.139 54.1579 889.763 72.9959 905.645C117.746 943.328 174.461 963.002 232.455 963.002H1279.69C1315.25 963.002 1339.96 925.934 1325.99 892.529C1325.89 892.299 1325.81 892.094 1325.71 891.863C1308.41 851.337 1268.77 822.441 1257.96 779.66H1257.94Z" fill="#FFA09C"/>
<path d="M278.084 483.118C258.719 490.291 234.287 486.909 221.77 470.771C205.817 450.2 214.747 420.586 224.329 396.25C239.555 357.517 313.628 264.706 351.078 333.796C377.241 382.058 323.561 466.262 278.084 483.118Z" fill="#FFA09C"/>
<path d="M1032.11 346.167C1055.46 344.911 1080.02 332.846 1088.67 310.661C1096.07 291.628 1089.83 268.854 1076.18 253.817C1049.72 224.639 976.195 210.524 954.121 253.023C928.084 303.155 988.035 348.575 1032.11 346.167Z" fill="#FFA09C"/>
<path d="M726.439 939.15C921.011 939.15 1078.74 931.489 1078.74 922.038C1078.74 912.587 921.011 904.926 726.439 904.926C531.866 904.926 374.134 912.587 374.134 922.038C374.134 931.489 531.866 939.15 726.439 939.15Z" fill="#FFA09C"/>
<path d="M264.818 935.333C313.569 935.333 353.089 930.516 353.089 924.574C353.089 918.632 313.569 913.814 264.818 913.814C216.068 913.814 176.548 918.632 176.548 924.574C176.548 930.516 216.068 935.333 264.818 935.333Z" fill="#FFA09C"/>
<path d="M1191.04 935.333C1239.79 935.333 1279.31 930.516 1279.31 924.574C1279.31 918.632 1239.79 913.814 1191.04 913.814C1142.29 913.814 1102.77 918.632 1102.77 924.574C1102.77 930.516 1142.29 935.333 1191.04 935.333Z" fill="#FFA09C"/>
<path d="M181.306 700.042C182.66 699.427 183.187 697.711 182.384 696.43C133.094 615.813 111.998 556.176 121.355 523.207C121.731 521.875 120.979 520.466 119.674 520.081C118.37 519.697 116.99 520.466 116.614 521.798C110.895 541.984 115.636 571.034 130.711 608.153C141.447 634.539 157.375 665.075 178.17 699.068C178.822 700.119 180.127 700.529 181.23 700.042C181.23 700.042 181.255 700.042 181.28 700.042H181.306Z" fill="#3D6D89"/>
<path d="M119.976 573.929C119.976 573.929 101.841 583.997 85.7368 550.771C85.7368 550.771 117.769 543.394 119.976 573.929Z" fill="#325465"/>
<path d="M127.401 591.527C127.401 591.527 116.539 573.595 148.145 555.33C148.145 555.33 157.15 587.582 127.401 591.527Z" fill="#325465"/>
<path d="M116.868 538.167C116.868 538.167 100.764 524.974 124.619 496.975C124.619 496.975 143.632 524.308 116.868 538.167Z" fill="#325465"/>
<path d="M141.298 627.34C141.298 627.34 127.577 643.095 101.415 617.375C101.415 617.375 129.107 599.366 141.298 627.34Z" fill="#325465"/>
<path d="M151.533 644.094C151.533 644.094 137.787 628.365 165.83 604.771C165.83 604.771 180.153 634.948 151.533 644.094Z" fill="#325465"/>
<path d="M163.295 668.431C163.295 668.431 149.876 684.442 123.236 659.235C123.236 659.235 150.603 640.688 163.295 668.431Z" fill="#325465"/>
<path d="M204.611 815.065C205.539 813.887 205.238 812.119 203.934 811.35C123.715 763.139 78.0371 720.205 71.4149 686.569C71.139 685.212 69.8346 684.315 68.5052 684.597C67.1757 684.879 66.2978 686.211 66.5737 687.568C70.6373 708.165 87.9954 731.681 118.171 757.478C139.643 775.819 167.587 795.34 201.425 815.68C202.479 816.32 203.808 816.064 204.586 815.091C204.586 815.091 204.586 815.065 204.611 815.039V815.065Z" fill="#3D6D89"/>
<path d="M93.1346 732.192C93.1346 732.192 81.621 749.689 52.2979 727.812C52.2979 727.812 77.3567 706.14 93.1346 732.192Z" fill="#325465"/>
<path d="M107.686 744.257C107.686 744.257 89.9265 733.498 109.693 702.373C109.693 702.373 132.293 726.709 107.686 744.257Z" fill="#325465"/>
<path d="M74.172 701.937C74.172 701.937 53.9292 697.838 62.3825 661.77C62.3825 661.77 91.6304 677.037 74.172 701.937Z" fill="#325465"/>
<path d="M136.231 769.49C136.231 769.49 131.189 789.933 96.3472 779.481C96.3472 779.481 112.752 750.431 136.231 769.49Z" fill="#325465"/>
<path d="M299.45 842.166C298.045 841.628 297.468 839.937 298.195 838.605C343.472 755.554 361.583 694.892 350.621 662.487C350.169 661.18 350.872 659.746 352.151 659.285C353.43 658.824 354.835 659.541 355.286 660.847C362.009 680.701 358.698 709.981 345.454 747.818C336.047 774.741 321.624 806.02 302.535 841.064C301.933 842.14 300.654 842.627 299.525 842.191C299.525 842.191 299.5 842.191 299.475 842.191L299.45 842.166Z" fill="#3D6D89"/>
<path d="M354.461 713.055C354.461 713.055 373.073 722.2 387.522 688.155C387.522 688.155 355.163 682.416 354.461 713.055Z" fill="#325465"/>
<path d="M347.914 731.011C347.914 731.011 357.872 712.542 325.413 695.916C325.413 695.916 318.013 728.603 347.914 731.011Z" fill="#325465"/>
<path d="M355.84 677.19C355.84 677.19 371.267 663.178 346.082 636.459C346.082 636.459 328.423 664.74 355.84 677.19Z" fill="#325465"/>
<path d="M286.254 923.323C280.711 924.117 275.167 924.373 269.674 924.194C268.144 924.142 266.639 924.066 265.109 923.963C220.008 920.71 180.275 890.405 180.275 890.405C180.275 890.405 104.872 843.423 127.523 806.56C150.174 769.697 174.004 811.12 190.082 810.787C206.161 810.454 182.482 768.621 167.08 728.607C151.679 688.593 172.398 670.148 186.972 678.551C201.546 686.979 210.601 666.511 201.496 642.072C191.838 616.173 184.94 558.56 215.467 562.198C250.359 566.373 237.993 638.972 263.202 650.244C288.412 661.515 278.052 624.857 298.069 631.646C318.061 638.434 319.466 690.155 295.761 723.381C272.082 756.606 280.109 797.414 291.823 790.062C303.537 782.71 314.022 744.464 332.559 746.744C368.404 751.201 339.282 915.843 286.229 923.297L286.254 923.323Z" fill="#3D6D89"/>
<path d="M269.647 924.218C268.117 924.167 266.612 924.09 265.082 923.988C254.22 825.9 220.808 617.197 220.457 614.943C220.257 613.687 221.084 612.509 222.313 612.304C223.543 612.099 224.696 612.944 224.897 614.2C225.248 616.454 258.861 826.284 269.647 924.218Z" fill="#2F5469"/>
<path d="M239.673 730.709C239.322 730.581 238.996 730.376 238.72 730.094C237.867 729.146 237.942 727.712 238.845 726.841C239.096 726.61 264.306 702.863 274.515 683.829C275.117 682.728 276.496 682.318 277.575 682.933C278.654 683.548 279.055 684.931 278.478 686.058C267.893 705.758 242.959 729.249 241.906 730.248C241.279 730.837 240.426 730.991 239.673 730.734V730.709Z" fill="#2F5469"/>
<path d="M242.256 756.528C242.256 756.528 242.181 756.502 242.13 756.476C240.826 755.938 210.224 743.335 191.436 726.171C190.508 725.326 190.432 723.866 191.26 722.918C192.088 721.97 193.518 721.893 194.446 722.739C212.607 739.364 243.485 752.07 243.811 752.198C244.965 752.659 245.517 754.017 245.065 755.195C244.614 756.323 243.385 756.912 242.256 756.528Z" fill="#2F5469"/>
<path d="M258.158 858.407C257.632 858.227 257.155 857.843 256.879 857.28C256.302 856.152 256.729 854.769 257.832 854.18C258.184 854.001 292.223 835.761 302.507 816.599C303.109 815.498 304.464 815.088 305.567 815.677C306.671 816.292 307.047 817.675 306.47 818.803C295.534 839.194 261.369 857.484 259.914 858.253C259.363 858.56 258.735 858.586 258.158 858.407Z" fill="#2F5469"/>
<path d="M226.407 871.141C214.191 866.991 200.997 861.253 190.813 853.645C189.809 852.902 189.583 851.467 190.336 850.443C191.063 849.418 192.493 849.187 193.471 849.956C217.778 868.144 261.65 875.496 262.101 875.573C263.33 875.778 264.158 876.956 263.957 878.212C263.757 879.467 262.603 880.312 261.374 880.107C260.27 879.928 244.392 877.264 226.382 871.167L226.407 871.141Z" fill="#2F5469"/>
<path d="M1259.87 812.296C1258.79 811.348 1258.77 809.607 1259.87 808.659C1327.47 748.51 1363.29 699.606 1363.74 666.56C1363.74 665.228 1364.85 664.152 1366.15 664.152C1367.46 664.152 1368.51 665.279 1368.51 666.612C1368.23 686.849 1355.87 712.261 1331.76 742.131C1314.6 763.368 1291.53 786.91 1263.01 812.296C1262.13 813.09 1260.8 813.09 1259.92 812.296C1259.92 812.296 1259.92 812.296 1259.9 812.271L1259.87 812.296Z" fill="#3D6D89"/>
<path d="M1351.07 713.669C1351.07 713.669 1364.99 728.169 1389 702.142C1389 702.142 1361.51 686.131 1351.07 713.669Z" fill="#325465"/>
<path d="M1339.39 727.734C1339.39 727.734 1354.34 714.336 1330.23 688.438C1330.23 688.438 1313.05 715.566 1339.39 727.734Z" fill="#325465"/>
<path d="M1363.8 681.623C1363.8 681.623 1382.26 674.066 1367.99 641.455C1367.99 641.455 1342.93 661.18 1363.8 681.623Z" fill="#325465"/>
<path d="M1316.74 756.784C1316.74 756.784 1325.04 775.229 1356.24 759.039C1356.24 759.039 1335.67 734.498 1316.74 756.784Z" fill="#325465"/>
<path d="M1302.69 769.257C1302.69 769.257 1319.67 758.703 1300.33 728.936C1300.33 728.936 1278.83 752.631 1302.69 769.257Z" fill="#325465"/>
<path d="M1285.15 788.318C1285.15 788.318 1293.13 806.916 1324.61 791.341C1324.61 791.341 1304.49 766.39 1285.15 788.318Z" fill="#325465"/>
<path d="M1158.18 910.285C1159.31 909.363 1159.36 907.647 1158.33 906.647C1093.01 843.937 1059.02 793.676 1059.8 760.655C1059.83 759.323 1058.8 758.196 1057.47 758.17C1056.16 758.145 1055.06 759.195 1055.04 760.553C1054.56 780.79 1065.97 806.664 1088.97 837.456C1105.33 859.333 1127.5 883.771 1155.07 910.208C1155.92 911.028 1157.23 911.079 1158.16 910.336H1158.18V910.285Z" fill="#3D6D89"/>
<path d="M1070.71 808.198C1070.71 808.198 1056.26 822.134 1033.24 795.21C1033.24 795.21 1061.3 780.275 1070.71 808.198Z" fill="#325465"/>
<path d="M1081.87 822.723C1081.87 822.723 1067.45 808.762 1092.48 783.811C1092.48 783.811 1108.64 811.58 1081.87 822.723Z" fill="#325465"/>
<path d="M1059.19 775.69C1059.19 775.69 1041.03 767.442 1056.49 735.395C1056.49 735.395 1080.79 756.093 1059.19 775.69Z" fill="#325465"/>
<path d="M1103.44 852.592C1103.44 852.592 1094.46 870.703 1063.89 853.309C1063.89 853.309 1085.36 829.562 1103.44 852.592Z" fill="#325465"/>
<path d="M1116.99 865.631C1116.99 865.631 1100.41 854.411 1120.85 825.412C1120.85 825.412 1141.47 849.928 1116.99 865.631Z" fill="#325465"/>
<path d="M1133.82 885.332C1133.82 885.332 1125.17 903.622 1094.29 886.818C1094.29 886.818 1115.31 862.661 1133.82 885.332Z" fill="#325465"/>
<path d="M1185.25 822.182C1186.2 821.695 1186.5 820.44 1185.9 819.543C1147.72 763.749 1130.46 721.89 1135.96 697.99C1136.18 697.016 1135.58 696.043 1134.63 695.812C1133.67 695.582 1132.72 696.196 1132.49 697.17C1129.13 711.823 1133.57 732.419 1145.71 758.395C1154.34 776.865 1166.86 798.076 1182.96 821.618C1183.47 822.335 1184.42 822.591 1185.2 822.207C1185.2 822.207 1185.2 822.207 1185.22 822.207L1185.25 822.182Z" fill="#3D6D89"/>
<path d="M1136.81 734.315C1136.81 734.315 1124.21 742.205 1111.47 719.047C1111.47 719.047 1134.12 712.54 1136.81 734.315Z" fill="#325465"/>
<path d="M1142.78 746.613C1142.78 746.613 1134.35 734.214 1156.3 719.945C1156.3 719.945 1163.92 742.668 1142.78 746.613Z" fill="#325465"/>
<path d="M1133.27 708.853C1133.27 708.853 1121.28 700.015 1137.31 679.111C1137.31 679.111 1151.91 697.94 1133.27 708.853Z" fill="#325465"/>
<path d="M1175.71 927.932C1181.05 928.675 1186.4 928.931 1191.69 928.778C1193.17 928.726 1194.62 928.65 1196.08 928.547C1239.52 925.422 1277.8 896.218 1277.8 896.218C1277.8 896.218 1350.44 850.953 1328.62 815.447C1306.8 779.942 1283.85 819.828 1268.34 819.52C1252.84 819.213 1275.67 778.917 1290.52 740.364C1305.34 701.81 1285.4 684.031 1271.35 692.152C1257.31 700.273 1248.58 680.547 1257.36 657.005C1266.66 632.054 1273.31 576.567 1243.89 580.077C1210.28 584.099 1222.19 654.034 1197.91 664.895C1173.63 675.757 1183.59 640.431 1164.32 646.963C1145.06 653.496 1143.73 703.321 1166.53 735.317C1189.36 767.338 1181.6 806.635 1170.32 799.539C1159.03 792.469 1148.92 755.606 1131.09 757.809C1096.54 762.087 1124.59 920.683 1175.71 927.881V927.932Z" fill="#3D6D89"/>
<path d="M1191.69 928.776C1193.17 928.725 1194.62 928.648 1196.08 928.546C1206.54 834.07 1238.72 633.001 1239.07 630.849C1239.27 629.645 1238.47 628.492 1237.29 628.313C1236.11 628.108 1234.98 628.927 1234.8 630.157C1234.45 632.335 1202.1 834.454 1191.71 928.802L1191.69 928.776Z" fill="#2F5469"/>
<path d="M1220.59 742.388C1220.91 742.285 1221.24 742.081 1221.49 741.773C1222.29 740.877 1222.24 739.468 1221.37 738.648C1221.11 738.417 1196.86 715.541 1187 697.225C1186.42 696.149 1185.09 695.765 1184.07 696.354C1183.01 696.943 1182.64 698.301 1183.21 699.351C1193.4 718.308 1217.43 740.953 1218.46 741.901C1219.06 742.465 1219.89 742.619 1220.61 742.362L1220.59 742.388Z" fill="#2F5469"/>
<path d="M1218.07 767.236C1218.07 767.236 1218.15 767.21 1218.2 767.185C1219.45 766.672 1248.95 754.53 1267.04 737.981C1267.94 737.161 1268.02 735.752 1267.21 734.856C1266.41 733.934 1265.03 733.857 1264.15 734.677C1246.64 750.687 1216.92 762.932 1216.62 763.06C1215.52 763.521 1214.96 764.802 1215.42 765.929C1215.84 767.031 1217.02 767.569 1218.1 767.21L1218.07 767.236Z" fill="#2F5469"/>
<path d="M1202.77 865.376C1203.3 865.197 1203.75 864.838 1204 864.3C1204.55 863.224 1204.15 861.866 1203.07 861.303C1202.75 861.124 1169.94 843.55 1160.06 825.106C1159.48 824.03 1158.15 823.646 1157.12 824.235C1156.07 824.824 1155.69 826.156 1156.27 827.232C1166.8 846.88 1199.71 864.505 1201.09 865.248C1201.65 865.53 1202.25 865.555 1202.77 865.376Z" fill="#2F5469"/>
<path d="M1233.38 877.669C1245.14 873.673 1257.86 868.166 1267.67 860.813C1268.64 860.096 1268.85 858.713 1268.14 857.714C1267.44 856.715 1266.09 856.51 1265.11 857.227C1241.7 874.749 1199.41 881.82 1199.01 881.896C1197.83 882.101 1197.03 883.228 1197.21 884.432C1197.41 885.636 1198.51 886.456 1199.69 886.277C1200.74 886.098 1216.04 883.536 1233.38 877.669Z" fill="#2F5469"/>
<path d="M764.829 876.715C753.56 864.244 738.976 870.552 735.75 881.891C732.524 893.231 742.068 923.637 744.935 927.585C747.803 931.534 764.717 945.425 775.269 942.151C785.821 938.877 775.829 928.091 773.992 925.371C772.155 922.65 764.135 898.816 762.186 890.679" fill="#3E2468"/>
<path d="M841.045 953.443C817.589 955.248 760.595 909.65 753.09 903.054C745.585 896.481 742.829 882.975 752.015 877.534C754.546 876.042 758.198 875.584 762.163 875.705C772.671 876.017 785.418 880.351 785.418 880.351L787.076 879.219L827.693 851.533C827.693 851.533 844.092 878.69 853.882 900.093C863.695 921.495 864.457 951.637 841.023 953.443H841.045Z" fill="url(#paint0_linear_345_22435)"/>
<path d="M815.617 921.183L762.186 875.705C772.693 876.018 785.44 880.352 785.44 880.352L787.098 879.22L788.353 879.533L815.617 921.183Z" fill="#CE5284"/>
<path d="M630.522 802.13L621.561 815.468L609.62 833.211L585.828 917.425L596.491 933.002C596.828 933.483 596.984 934.061 596.984 934.615C596.984 935.241 596.783 935.843 596.402 936.372C595.663 937.359 594.363 937.672 593.31 937.094L582.624 931.533C581.593 931.003 580.361 931.268 579.599 932.183L567.434 946.845C565.329 949.397 561.901 950.191 558.988 948.771L543.508 941.308C539.722 939.478 538.109 934.615 539.968 930.642L543.799 922.409L563.917 909.312L572.408 821.631L593.557 777.236L594.027 776.273L612.532 779.524L630.477 802.13H630.522Z" fill="url(#paint1_linear_345_22435)"/>
<path d="M630.522 802.129L621.583 815.467L593.624 777.236L594.072 776.297L612.577 779.547L630.522 802.129Z" fill="#CE5284"/>
<path d="M796.754 736.429L780.22 724.103C780.22 724.103 782.662 738.259 785.328 753.378C787.568 766.042 789.966 779.403 791.22 785.711C791.601 787.637 791.87 788.889 792.004 789.274C792.049 789.394 792.094 789.515 792.139 789.611C793.259 792.476 795.365 793.559 795.073 798.158C794.76 802.924 761.827 809.352 736.691 809.834C711.577 810.34 694.416 801.263 694.102 797.171C694.035 796.376 694.102 795.774 694.214 795.293C694.685 793.294 695.984 793.487 693.027 791.248C692.982 791.224 692.96 791.176 692.915 791.152C688.681 787.878 654.583 758 654.583 758L648.422 769.316L630.522 802.13L594.072 776.273L619.948 727.786C625.907 716.616 635.988 708.695 647.683 705.95L683.55 697.572L685.701 696.826L703.803 690.542L709.09 688.376L758.332 668.369C765.837 665.312 774.283 666.636 780.691 671.86L817.97 702.339L796.731 736.429H796.754Z" fill="url(#paint2_linear_345_22435)"/>
<path d="M792.139 789.635C782.685 795.051 765.748 798.59 751.791 800.131C744.622 800.926 737.677 801.311 731.113 801.311C716.013 801.311 703.041 799.264 694.237 795.316C694.707 793.318 696.007 793.511 693.05 791.272C693.005 791.248 692.982 791.199 692.938 791.175C718.522 801.6 774.552 795.485 791.243 785.734C791.624 787.66 791.893 788.912 792.027 789.297C792.072 789.418 792.117 789.538 792.161 789.635H792.139Z" fill="url(#paint3_linear_345_22435)"/>
<path d="M712.047 706.985C710.591 720.732 702.324 726.654 694.125 724.175C685.925 721.719 683.774 709.441 685.096 700.051C685.253 698.896 685.455 697.812 685.723 696.825L703.825 690.542L709.112 688.375C713.727 689.555 713.145 696.585 712.047 706.961V706.985Z" fill="white"/>
<path d="M654.583 758.025L648.422 769.316L641.858 746.469L654.583 758.025Z" fill="url(#paint4_linear_345_22435)"/>
<path d="M785.328 753.378L752.776 723.092L780.198 724.079C780.198 724.079 782.64 738.235 785.306 753.354L785.328 753.378Z" fill="url(#paint5_linear_345_22435)"/>
<path d="M833.45 840.554C828.32 843.78 822.383 846.453 815.886 848.354C810.42 849.943 805.021 850.834 799.913 851.075C782.752 851.918 768.817 845.49 765.949 834.054C762.23 819.224 778.518 801.577 802.377 794.643C803.654 794.282 804.909 793.945 806.163 793.656C821.689 789.997 836.206 792.019 844.809 798.303C848.595 801.047 851.238 804.634 852.314 808.944C855.025 819.729 847.139 832.008 833.473 840.554H833.45Z" fill="url(#paint6_linear_345_22435)"/>
<path opacity="0.25" d="M765.546 831.984C790.862 838.797 830.225 830.563 852.673 815.854" stroke="white" stroke-width="0.53" stroke-linecap="round" stroke-linejoin="round"/>
<path opacity="0.25" d="M777.711 807.596C798.031 813.855 801.884 838.604 792.945 850.979" stroke="white" stroke-width="0.53" stroke-linecap="round" stroke-linejoin="round"/>
<path d="M833.45 840.554C828.32 843.78 822.383 846.452 815.886 848.354C810.42 849.943 805.021 850.834 799.913 851.074C802.87 845.513 804.774 835.955 804.438 833.861C804.057 831.381 798.008 831.79 797.381 827.361C796.754 822.931 809.882 810.58 810.017 807.86C810.129 805.862 808.493 800.589 806.141 793.68C821.666 790.02 836.183 792.042 844.786 798.326C845.548 811.038 840.35 829.672 833.45 840.578V840.554Z" fill="url(#paint7_linear_345_22435)"/>
<path d="M846.601 738.26L835.825 810.364C835.825 810.364 837.348 827 833.674 836.702C830 846.429 822.338 847.584 816.043 849.558C809.77 851.533 796.283 856.131 800.562 849.558C804.841 842.986 810.218 825.845 810.218 825.845C810.218 825.845 796.731 833.91 797.65 827.987C798.569 822.065 811.585 810.87 812.66 808.222C813.735 805.598 811.742 748.299 811.742 748.299L797.919 737.369L796.731 736.43L817.97 702.34L828.275 710.453L839.23 719.048C844.854 723.454 847.676 730.869 846.579 738.26H846.601Z" fill="url(#paint8_linear_345_22435)"/>
<path d="M828.298 710.453L797.941 737.369L796.754 736.43L817.992 702.34L828.298 710.453Z" fill="#CE5284"/>
<path d="M832.845 854.252L785.328 884.876L776.703 876.185L773.992 873.464L737.699 836.967L718.813 841.011L690.115 847.199L686.037 848.065L676.695 850.063L672.595 850.954L663.231 852.976L632.225 814.24L638.923 812.049L642.732 810.821L651.491 807.956L655.3 806.728L699.793 792.259L723.921 788.07L792.408 795.871L823.951 841.421L826.08 844.502L832.845 854.252Z" fill="#3E2468"/>
<path d="M826.08 844.502L776.703 876.184L773.992 873.464L823.951 841.42L826.08 844.502Z" fill="#6D45BA"/>
<path d="M737.699 836.967L718.813 841.035C714.512 830.081 708.642 814.625 708.642 814.625L737.699 836.991V836.967Z" fill="#221242"/>
<path d="M690.114 847.199L686.037 848.065L651.491 807.956L655.3 806.729L690.114 847.199Z" fill="#6D45BA"/>
<path d="M683.08 907.845C683.08 907.845 647.503 939.046 660.161 943.572C672.819 948.098 683.08 941.43 692.131 939.455C701.159 937.481 715.408 932.209 715.878 927.442C716.348 922.675 714.892 905.221 708.642 903.078" fill="#3E2468"/>
<path d="M625.1 814.602C646.204 805.116 674.365 851.846 683.864 866.002C693.363 880.158 708.642 903.053 708.642 903.053C708.642 903.053 689.689 918.702 685.544 917.378C681.4 916.054 681.713 911.287 681.713 911.287C681.713 911.287 635.899 864.028 625.1 848.234C614.302 832.417 615.669 818.839 625.1 814.602Z" fill="url(#paint9_linear_345_22435)"/>
<path d="M656.891 677.422C648.086 672.318 644.166 657.994 645.555 654.96C646.944 651.903 651.088 655.297 651.088 655.297C651.088 655.297 646.249 645.162 647.481 641.478C648.714 637.771 652.612 645.089 661.887 644.367C671.162 643.621 692.915 638.613 699.815 644.536C706.716 650.458 704.251 658.355 704.251 658.355C704.251 658.355 712.988 657.705 713.817 667.166C714.646 676.628 711.51 685.68 707.455 688.737C703.4 691.795 688.614 690.134 688.614 690.134" fill="#3E2468"/>
<path d="M711.913 679.276C710.569 683.248 706.693 685.391 703.221 684.042C699.771 682.694 698.046 678.385 699.39 674.412C700.734 670.44 704.61 668.297 708.082 669.646C711.532 670.994 713.257 675.303 711.913 679.276Z" fill="url(#paint10_linear_345_22435)"/>
<path d="M699.86 719.312C694.932 719.794 692.243 716.014 690.854 712.643C689.779 710.067 689.443 707.708 689.443 707.708L688.524 703.856L687.919 701.352C687.919 701.352 688.524 699.956 689.465 697.982C690.16 696.489 691.078 694.708 692.064 692.878C695.268 687.028 699.502 680.985 701.518 685.078C701.675 685.415 701.854 685.752 702.033 686.041C704.363 690.133 706.716 690.422 707.97 691.313C708.508 691.698 708.844 692.228 708.866 693.239C708.956 696.706 708.575 718.518 699.838 719.336L699.86 719.312Z" fill="url(#paint11_linear_345_22435)"/>
<path d="M707.992 691.314C705.17 702.99 697.037 711.031 690.854 712.645C689.778 710.068 689.442 707.709 689.442 707.709L688.524 703.857L689.465 697.983C690.159 696.49 691.078 694.709 692.064 692.879C694.461 690.905 698.538 687.751 702.033 686.018C704.363 690.11 706.715 690.399 707.97 691.29L707.992 691.314Z" fill="#CE5284"/>
<path d="M698.964 677.205L705.192 680.503V682.935C705.192 682.935 702.347 711.44 686.172 714.136C669.996 716.832 663.791 700.389 659.422 689.772C655.054 679.155 653.284 669.02 653.284 669.02C659.333 680.142 675.351 680.142 674.88 679.564C674.41 678.987 667.375 672.823 667.375 672.823C667.375 672.823 671.206 674.172 679.316 675.086C687.426 676.001 690.921 674.557 690.921 674.557C690.921 674.557 696.32 681.972 697.821 682.863C699.322 683.778 698.941 677.229 698.941 677.229" fill="url(#paint12_linear_345_22435)"/>
<path d="M974.882 561.813C938.701 573.971 923.623 607.844 879.108 600.959C878.481 592.846 878.01 584.588 877.719 576.306L930.77 556.805C930.77 556.805 962.717 544.961 970.737 556.805C971.611 558.105 973.045 559.791 974.904 561.837L974.882 561.813Z" fill="#221242"/>
<path d="M1025.36 489.661C1011.42 495.704 992.401 518.84 991.662 519.706L988.01 514.771L972.597 493.97C971.992 504.9 975.957 562.319 975.957 562.319C975.957 562.319 937.805 570.071 918.515 577.799C914.796 579.292 911.57 580.496 908.68 581.459C896.56 585.479 890.355 584.974 878.884 581.675C874.471 562.656 872.186 544.215 871.11 528.662C870.236 516.432 870.102 505.984 870.169 498.448C870.237 491.081 870.55 486.483 870.595 485.688V485.568L855.361 495.824C853.882 472.134 824.422 466.886 824.422 466.886C824.422 466.886 836.072 449.576 848.797 441.15C860.558 433.349 879.198 427.331 909.263 422.492C911.705 422.106 914.236 421.721 916.835 421.336H931.039C931.039 421.336 932.585 421.673 935.183 422.275C946.968 425.019 980.505 433.181 989.534 439.368C1000.56 446.928 1025.36 489.661 1025.36 489.661Z" fill="url(#paint13_linear_345_22435)"/>
<path d="M908.703 581.484C896.583 585.504 890.377 584.999 878.906 581.7C874.493 562.681 872.208 544.24 871.133 528.687C870.259 516.457 870.124 506.008 870.192 498.473C870.259 491.106 870.572 486.508 870.617 485.713V485.593C879.13 476.902 888.809 473.676 889.257 473.531C888.988 473.892 879.758 486.532 881.416 518.624C882.513 539.93 898.061 566.027 908.68 581.508L908.703 581.484Z" fill="url(#paint14_linear_345_22435)"/>
<path d="M929.493 443.196C920.196 445.194 911.145 436.985 909.285 422.492C911.727 422.106 914.259 421.721 916.857 421.336H931.061C931.061 421.336 932.607 421.673 935.206 422.275C939.261 430.749 939.037 441.15 929.493 443.196Z" fill="white"/>
<path d="M1134.03 476.132C1134.82 476.493 1145.12 483.956 1144.5 487.856C1143.85 491.828 1128.59 484.774 1128.59 484.774C1128.59 484.774 1136.12 494.573 1134.84 498.112C1133.59 501.579 1119.27 491.203 1118.73 490.817C1119.11 491.203 1125.45 497.968 1124.11 501.29C1122.74 504.709 1114.16 495.488 1114.16 495.488L1049.8 553.099C1040.7 561.237 1027.28 560.37 1019.17 551.125L1001.16 530.589L991.64 519.731C992.357 518.865 1011.38 495.729 1025.33 489.686L1025.54 490.047L1035.24 506.442L1039.74 514.05L1099.09 485.015C1099.09 485.015 1113.71 468.837 1118.26 466.092C1122.81 463.372 1148.46 470.089 1149.11 473.965C1149.72 477.721 1134.57 476.228 1133.99 476.132H1134.03Z" fill="url(#paint15_linear_345_22435)"/>
<path d="M1039.78 514.048L1028.54 518.598L1035.28 506.416L1039.78 514.048Z" fill="#CE5284"/>
<path d="M1025.58 490.023C1012.03 500.929 1004.81 518.263 1001.18 530.589L991.662 519.731C992.379 518.864 1011.4 495.728 1025.36 489.686L1025.56 490.047L1025.58 490.023Z" fill="#CE5284"/>
<path d="M953.375 519.129C952.098 522.909 939.866 517.011 939.866 517.011C939.866 517.011 949.141 528.543 947.147 530.589C945.22 532.611 936.416 523.92 936.035 523.559C936.214 523.944 940 532.106 937.244 534.947C934.422 537.836 928.619 527.195 928.619 527.195C928.619 527.195 930.456 537.812 929.045 539.184C927.634 540.556 918.874 527.05 918.874 527.05L871.11 528.687L817.074 530.541C797.964 531.191 787.927 506.442 801.391 491.852L824.422 466.887C824.422 466.887 825.228 467.031 826.573 467.368C833.383 469.102 854.129 476.035 855.383 495.825H855.45C856.212 495.969 862.463 497.101 870.192 498.449C883.611 500.832 901.422 503.986 902.206 504.083C903.483 504.227 915.625 494.669 923.534 495.801C931.442 496.932 954.629 515.302 953.352 519.105L953.375 519.129Z" fill="url(#paint16_linear_345_22435)"/>
<path d="M828.723 490.888L843.554 489.661C843.554 489.661 841.426 476.732 826.55 467.367C833.361 469.101 854.106 476.034 855.361 495.824L828.723 490.888Z" fill="#CE5284"/>
<path d="M988.01 514.795L972.597 493.994C972.597 493.994 970.02 460.361 970.872 460.963C971.723 461.565 984.291 488.288 986.845 505.454C987.361 508.969 987.741 512.074 988.01 514.795Z" fill="url(#paint17_linear_345_22435)"/>
<path d="M1020.63 703.64C987.294 696.056 945.444 680.865 945.444 680.865V644.728L977.212 644.969L1009.74 645.21L1041.13 637.434C1041.13 637.434 1059.07 652.023 1062.88 672.824C1066.69 693.625 1053.99 711.248 1020.63 703.64Z" fill="url(#paint18_linear_345_22435)"/>
<path d="M1021.12 691.242C1016.04 689.653 978.31 670.754 959.222 665.963C953.801 664.615 949.23 662.858 945.444 661.004V644.705L977.212 644.946L1002.26 674.173C1002.26 674.173 1026.23 692.855 1021.12 691.242Z" fill="#CE5284"/>
<path d="M988.279 877.364C986.688 893.639 985.322 900.259 996.658 916.534C1007.99 932.809 1025.38 957.871 1044.04 955.15C1062.7 952.406 1056.34 937.6 1047.85 925.201C1039.38 912.778 1015.75 866.314 1006.63 863.473" fill="#3E2468"/>
<path d="M1015.97 880.252C1010.46 867.348 999.996 867.18 997.867 877.821C995.762 888.438 998.002 895.444 992.939 890.364C988.413 885.862 959.2 838.579 926.827 757.109C922.705 746.757 918.538 735.875 914.371 724.439L962.314 712.209C962.851 715.796 963.859 720.298 965.181 725.498C977.391 772.902 1018.39 878.206 1015.97 880.252Z" fill="url(#paint19_linear_345_22435)"/>
<path d="M965.181 725.475C955.749 739.222 939.686 750.032 926.827 757.085C922.705 746.733 918.538 735.851 914.371 724.416L962.314 712.186C962.851 715.773 963.859 720.275 965.181 725.475Z" fill="#CE5284"/>
<path d="M1000.29 682.815C997.711 679.54 983.35 662.592 971.477 648.652C962.538 638.131 954.988 629.296 954.988 629.296C954.988 629.296 970.312 697.404 973.135 712.186C967.198 731.229 904.469 742.641 902.766 737.657C901.243 733.204 884.485 671.596 879.086 600.936C878.458 592.822 877.988 584.565 877.697 576.283L930.748 556.782C930.748 556.782 962.695 544.937 970.715 556.782C971.589 558.082 973.023 559.767 974.882 561.814C990.094 578.474 1034.59 617.307 1046.93 633.003C1047.78 661.869 1004.81 688.593 1000.31 682.815H1000.29Z" fill="#3E2468"/>
<path d="M976.831 603.775L971.477 648.651C962.538 638.13 954.988 629.295 954.988 629.295L976.831 603.775Z" fill="#221242"/>
<path d="M1100.27 802.347C1100.27 805.188 1100 807.956 1099.47 810.629C1098.77 814.192 1097.61 817.562 1096.06 820.692C1094.51 823.846 1092.59 826.735 1090.35 829.311C1086.63 833.596 1082.01 836.991 1076.86 839.134C1073.01 840.747 1068.86 841.686 1064.52 841.806C1064.18 841.806 1063.87 841.806 1063.53 841.806C1058.8 841.806 1054.3 840.843 1050.16 839.109C1045.68 837.232 1041.64 834.439 1038.22 830.948C1033.06 825.676 1029.32 818.838 1027.69 811.11C1027.1 808.293 1026.77 805.332 1026.77 802.323C1026.77 799.626 1027.01 796.978 1027.51 794.426C1028.69 788.119 1031.27 782.389 1034.88 777.574C1037.34 774.275 1040.3 771.386 1043.66 769.099C1048.63 765.657 1054.44 763.466 1060.71 762.96C1061.65 762.888 1062.57 762.84 1063.53 762.84C1066.11 762.84 1068.64 763.129 1071.06 763.682C1081.1 765.921 1089.61 772.566 1094.81 781.618C1096.58 784.7 1097.97 788.046 1098.91 791.634C1099.65 794.45 1100.09 797.388 1100.23 800.421C1100.25 801.047 1100.27 801.697 1100.27 802.347Z" fill="url(#paint20_linear_345_22435)"/>
<path d="M1096.08 820.693C1094.54 823.847 1092.61 826.736 1090.37 829.312C1089.56 828.782 1088.74 828.252 1087.88 827.771C1076.73 821.343 1065.12 821.415 1052.85 820.332C1043.68 819.513 1034.77 817.178 1027.73 811.135C1027.15 808.318 1026.81 805.357 1026.81 802.348C1026.81 799.651 1027.06 797.003 1027.55 794.451C1029.88 799.194 1033.44 803.263 1037.88 805.766C1048.36 811.689 1061.36 809.57 1072.72 811.376C1081.05 812.7 1089 815.95 1096.08 820.693Z" fill="url(#paint21_linear_345_22435)"/>
<path d="M1100.27 802.348C1100.27 805.189 1100 807.957 1099.47 810.63C1086.81 807.717 1071.64 808.92 1061.34 806.585C1046.12 803.142 1037.54 791.61 1034.9 777.623C1037.36 774.325 1040.32 771.436 1043.68 769.148C1043.73 777.84 1046.24 786.362 1053.16 791.731C1061.81 798.424 1073.97 797.629 1084.1 798.231C1089.36 798.544 1094.87 799.218 1100.23 800.446C1100.25 801.072 1100.27 801.722 1100.27 802.372V802.348Z" fill="url(#paint22_linear_345_22435)"/>
<path d="M1098.93 791.658C1096.17 792.164 1093.4 792.525 1090.55 792.694C1082.96 793.151 1071.6 793.416 1065.19 788.192C1058.85 783.015 1058.45 772.808 1060.15 765.152C1060.31 764.429 1060.51 763.707 1060.71 763.009C1061.65 762.937 1062.57 762.889 1063.53 762.889C1066.11 762.889 1068.64 763.178 1071.06 763.731C1070.45 765.055 1069.96 766.452 1069.65 767.969C1069.04 770.785 1068.68 774.685 1069.76 777.454C1070.86 780.271 1073.12 780.704 1075.7 781.21C1081.99 782.438 1088.44 782.558 1094.81 781.667C1096.58 784.749 1097.97 788.095 1098.91 791.682L1098.93 791.658Z" fill="url(#paint23_linear_345_22435)"/>
<path d="M1076.86 839.158C1073.01 840.771 1068.86 841.71 1064.52 841.83C1063.49 841.228 1062.34 840.723 1061.09 840.29C1057.48 839.086 1053.81 838.797 1050.18 839.134C1045.7 837.256 1041.67 834.463 1038.24 830.973C1047.56 828.18 1057.3 827.145 1066.53 831.189C1070.92 833.115 1074.26 835.836 1076.86 839.158Z" fill="url(#paint24_linear_345_22435)"/>
<path d="M922.033 405.518C916.723 406.602 913.43 397.261 912.758 391.988C912.086 386.716 906.395 378.241 907.179 374.221C907.941 370.2 916.79 366.18 916.79 366.18C916.79 366.18 914.416 357.007 915.738 353.685C917.082 350.362 950.933 347.04 953.733 348.075C956.534 349.135 951.247 357.561 951.247 357.561C951.247 357.561 971.656 364.013 972.53 365.891C973.403 367.793 965.697 370.754 965.697 370.754C965.697 370.754 970.939 373.787 971.656 376.941C972.373 380.095 949.387 390.977 949.387 390.977L922.033 405.518Z" fill="#3E2468"/>
<path d="M908.524 395.503C910.854 398.488 914.864 399.018 917.463 396.659C920.061 394.299 920.285 389.99 917.955 387.005C915.626 384.019 911.615 383.49 909.017 385.849C906.418 388.208 906.194 392.518 908.524 395.503Z" fill="url(#paint25_linear_345_22435)"/>
<path d="M934.534 428.461C935.049 430.58 935.161 440.474 926.536 439.271C917.888 438.091 912.87 428.509 913.228 424.248C913.497 420.998 916.499 413.462 918.381 405.686C918.964 403.254 919.456 400.799 919.703 398.439L939.866 410.164C937.603 412.74 935.206 421.527 934.623 426.029C934.467 427.161 934.444 428.028 934.556 428.437L934.534 428.461Z" fill="url(#paint26_linear_345_22435)"/>
<path d="M939.866 410.188C937.603 412.764 935.206 421.551 934.624 426.053C927.992 423.453 921.697 417.098 918.381 405.686C918.964 403.254 919.457 400.799 919.703 398.439L939.866 410.164V410.188Z" fill="#CE5284"/>
<path d="M956.982 372.848C956.982 372.848 957.721 376.05 957.072 386.74C956.422 397.429 955.884 413.776 941.076 416.954C926.267 420.132 915.401 396.394 915.401 396.394L914.685 394.275L919.12 389.292C919.12 389.292 919.591 393.505 920.509 393.769C921.45 394.034 928.216 374.076 928.216 374.076C928.216 374.076 953.935 376.435 956.959 372.824L956.982 372.848Z" fill="url(#paint27_linear_345_22435)"/>
<path d="M414.107 717.988C414.107 718.493 397.416 752.223 403.532 762.43C409.671 772.638 425.756 755.352 436.308 743.339C446.86 731.325 453.156 715.195 452.237 714.353C451.318 713.534 424.659 704.65 424.659 704.65" fill="#3E2468"/>
<path d="M444.911 699.21L434.494 724.055L378.351 734.696C376.693 735.009 375.058 735.178 373.422 735.178C364.327 735.178 355.634 730.459 350.257 722.298C343.738 712.427 343.245 699.33 349.048 688.93L377.813 637.289L405.235 677.47L407.968 678.963L430.102 691.073L444.911 699.186V699.21Z" fill="url(#paint28_linear_345_22435)"/>
<path d="M430.102 691.096V691.12L392.734 701.376L407.946 678.986L430.102 691.096Z" fill="#CE5284"/>
<path d="M462.251 878.425C460.638 892.004 424.793 935.844 424.793 944.968C424.793 954.093 441.147 957.8 457.905 948.05C474.663 938.3 503.384 908.278 504.997 900.767C506.61 893.231 490.166 871.756 483.176 872.623" fill="#3E2468"/>
<path d="M479.367 889.042C465.096 892.87 461.668 886.562 461.668 886.562L426.697 772.952C423.269 761.829 423 749.888 425.935 738.621L431.715 716.328L433.62 708.961L489.471 706.023L471.212 752.922L469.465 757.375L490.837 875.921C490.837 875.921 493.615 885.165 479.345 888.993L479.367 889.042Z" fill="url(#paint29_linear_345_22435)"/>
<path d="M489.493 706.072L471.235 752.97C458.89 746.085 441.102 733.831 431.715 716.376L433.62 709.009L489.471 706.072H489.493Z" fill="#CE5284"/>
<path d="M522.426 611.214C522.426 611.214 520.365 622.265 517.565 637.288C511.829 668.055 503.047 715.483 502.577 719.119C501.882 724.559 503.943 734.189 487.186 735.899C470.406 737.632 428.579 715.652 429.274 710.957C429.968 706.263 452.259 638.925 452.259 638.925L430.954 673.569L422.396 687.484C390.225 681.297 374.139 645.738 374.139 640.321C374.139 635.241 418.251 575.006 424.255 566.315C424.681 565.713 424.927 565.352 424.927 565.279L522.449 611.19L522.426 611.214Z" fill="#3E2468"/>
<path d="M522.426 611.214C522.426 611.214 520.365 622.264 517.565 637.287C469.577 636.059 446.031 610.78 424.233 566.338C424.659 565.736 424.905 565.375 424.905 565.303L522.426 611.214Z" fill="#221242"/>
<path d="M452.259 638.95L430.931 673.618L424.681 617.836L452.259 638.95Z" fill="#221242"/>
<path d="M491.778 258.228C491.778 265.571 490.412 272.576 487.925 278.956C487.454 280.136 486.962 281.292 486.424 282.423C480.778 294.388 471.1 303.753 459.316 308.472C458.106 308.978 456.852 309.411 455.597 309.796C451.251 311.12 446.658 311.819 441.931 311.819C437.204 311.819 432.701 311.12 428.377 309.82C427.167 309.459 426.025 309.05 424.86 308.593C418.497 306.113 412.74 302.261 407.901 297.374C398.155 287.599 392.084 273.684 392.084 258.228C392.084 254.448 392.442 250.764 393.137 247.201C393.383 245.901 393.675 244.625 394.011 243.373C398.379 227.099 409.715 214.026 424.3 208.104C425.622 207.55 426.943 207.092 428.31 206.659C432.634 205.335 437.204 204.637 441.931 204.637C454.746 204.637 466.418 209.837 475.267 218.359C476.163 219.226 477.015 220.117 477.844 221.032C486.11 230.253 491.33 242.627 491.778 256.326C491.801 256.952 491.823 257.578 491.823 258.228H491.778Z" fill="url(#paint30_linear_345_22435)"/>
<path d="M491.779 258.228C491.779 265.571 490.412 272.577 487.925 278.957C487.455 280.136 486.962 281.292 486.424 282.424C480.779 294.389 471.1 303.754 459.316 308.473C458.107 308.978 456.852 309.412 455.597 309.797C451.251 311.121 446.658 311.819 441.931 311.819C437.204 311.819 432.701 311.121 428.377 309.821C427.168 309.46 426.025 309.051 424.86 308.593C418.498 306.113 412.74 302.261 407.901 297.374C406.064 286.276 425.196 283.7 444.082 285.963C468.681 288.924 470.585 249.561 491.756 256.326C491.779 256.952 491.801 257.578 491.801 258.228H491.779Z" fill="#B72A48"/>
<path d="M477.821 221.056C475.536 224.547 473.699 228.736 471.772 233.214C468.3 241.183 464.514 249.898 457.076 255.147C456.113 255.845 455.082 256.471 453.984 257.025C451.498 258.276 448.675 259.215 445.404 259.673C442.94 260.01 440.587 260.178 438.369 260.178C427.302 260.178 419.102 256.302 411.709 252.835C405.414 249.874 399.724 247.178 393.115 247.25C393.361 245.95 393.652 244.674 393.988 243.422C400.956 243.591 406.938 246.383 413.143 249.321C421.992 253.485 431.155 257.795 444.933 255.869C448.047 255.411 450.713 254.545 452.999 253.293C454.096 252.715 455.082 252.041 456.023 251.295C461.937 246.672 465.164 239.257 468.524 231.577C470.518 227.003 472.557 222.332 475.223 218.408C476.119 219.275 476.97 220.166 477.799 221.081L477.821 221.056Z" fill="#3E2468"/>
<path d="M487.925 278.956C487.454 280.135 486.962 281.291 486.424 282.423C479.188 278.739 471.324 275.513 460.369 276.115C459.719 276.139 459.047 276.187 458.375 276.259C457.882 276.308 457.412 276.356 456.941 276.428C444.059 278.306 439.086 288.61 433.844 299.468C432.141 303.007 430.393 306.594 428.355 309.82C427.145 309.459 426.002 309.05 424.837 308.592C426.966 305.414 428.78 301.659 430.685 297.71C435.905 286.925 441.797 274.719 456.605 272.624C457.076 272.552 457.546 272.504 458.039 272.456C458.711 272.383 459.361 272.335 460.033 272.311C471.862 271.637 480.465 275.2 487.902 278.98L487.925 278.956Z" fill="#3E2468"/>
<path d="M459.316 308.473C458.106 308.978 456.852 309.412 455.597 309.797C457.277 298.072 457.703 286.901 456.964 276.453C456.874 275.153 456.762 273.877 456.628 272.649C456.09 267.232 455.194 262.032 453.984 257.024C453.693 255.773 453.357 254.521 453.021 253.293C447.913 234.972 438.257 219.636 424.277 208.128C425.599 207.574 426.921 207.117 428.288 206.684C441.393 218.191 450.848 233.359 456.045 251.295C456.381 252.45 456.717 253.63 457.008 254.81C457.031 254.906 457.076 255.026 457.076 255.122C458.442 260.612 459.428 266.341 460.033 272.288C460.167 273.54 460.279 274.816 460.369 276.116C461.108 286.372 460.75 297.23 459.294 308.473H459.316Z" fill="#3E2468"/>
<path d="M485.707 305.126L476.768 313.143L449.033 373.403L462.833 408.649L465.567 415.631L437.943 444.4L436.779 445.628L436.465 444.858L426.182 419.266L416.168 394.324C412.449 385.104 413.009 374.559 417.669 365.819L443.903 316.61C445.964 312.758 449.033 309.628 452.73 307.63L475.245 295.545L474.394 287.624C474.371 287.455 474.371 287.263 474.371 287.094C474.371 285.265 475.402 283.579 477.015 282.881C479.277 281.894 481.876 283.17 482.638 285.698L487.051 300.119C487.589 301.924 487.074 303.923 485.707 305.126Z" fill="url(#paint31_linear_345_22435)"/>
<path d="M465.589 415.63L437.966 444.399C437.451 444.544 436.958 444.688 436.487 444.857L426.204 419.265C435.882 416.328 450.646 411.922 462.856 408.672L465.589 415.654V415.63Z" fill="#CE5284"/>
<path d="M561.408 516.215C556.792 522.017 552.401 526.23 552.401 526.23C552.401 526.23 549.131 534.151 545.188 543.829C543.843 547.127 542.41 550.618 540.998 554.085C539.43 557.937 537.884 561.765 536.495 565.183C535.621 567.374 534.815 569.372 534.098 571.178C533.179 573.465 532.44 575.367 531.947 576.667C531.566 577.678 531.208 578.882 530.894 580.206C530.424 582.06 530.021 584.178 529.64 586.465C529.192 589.162 528.766 592.099 528.363 595.06C528.072 597.203 527.803 599.322 527.511 601.368C526.481 608.783 525.383 615.259 523.703 617.161C520.029 621.35 446.255 606.544 424.658 566.291C424.658 565.231 426.473 561.692 429.251 556.853C430.192 555.192 431.29 553.386 432.432 551.46C434.157 548.596 436.061 545.466 438.033 542.288C439.108 540.53 440.228 538.773 441.326 536.991C443.074 534.175 444.844 531.382 446.546 528.686C447.689 526.856 448.809 525.074 449.862 523.389C454.298 516.335 457.725 510.822 458.42 509.233C459.182 507.5 458.958 503.696 458.308 499.362C457.031 490.623 454.051 479.789 454.051 479.789C454.051 479.789 428.31 437.104 429.677 435.636C431.066 434.167 463.931 404.699 465.432 407.949C466.911 411.199 484.385 440.571 486.222 442.304C486.76 442.834 490.277 444.327 494.96 446.205L496.035 446.638C498.23 447.529 500.605 448.444 503.047 449.382C505.735 450.418 508.469 451.453 511.045 452.416C518.012 455.04 523.703 457.135 523.703 457.135C527.041 459.831 531.208 462.455 535.689 465.079C538.22 466.572 540.886 468.041 543.53 469.533L546.487 471.219L549.198 472.759L550.52 473.53C559.839 478.971 568.128 484.556 570.929 490.695C574.155 497.773 567.591 508.414 561.385 516.191L561.408 516.215Z" fill="url(#paint32_linear_345_22435)"/>
<path d="M561.945 509.064L561.407 516.215C556.792 522.017 552.401 526.23 552.401 526.23C552.401 526.23 549.13 534.151 545.187 543.829L522.403 521.752L561.923 509.089L561.945 509.064Z" fill="url(#paint33_linear_345_22435)"/>
<path d="M535.734 465.079C532.575 471.435 524.465 478.2 513.935 476.467C500.247 474.204 499.777 461.107 511.09 452.416C518.058 455.04 523.748 457.135 523.748 457.135C527.086 459.831 531.253 462.455 535.734 465.079Z" fill="url(#paint34_linear_345_22435)"/>
<path d="M573.819 507.742C572.071 523.848 551.124 528.254 528.43 529.241C515.66 529.818 502.33 529.313 491.554 529.217C484.564 529.168 477.821 528.711 471.593 528.061C452.729 526.087 440.116 506.297 445.18 486.7C455.059 448.445 469.577 392.182 469.845 390.665C470.249 388.378 463.752 376.653 464.334 373.186C464.894 369.816 472.399 375.546 472.78 375.835C472.534 375.498 467.784 369.07 469.465 367.071C471.145 365.073 478.56 372.055 478.986 372.44C478.807 372.079 475.85 366.132 477.687 363.821C479.546 361.462 484.363 370.683 484.632 371.188C484.475 370.61 482.145 361.727 484.632 360.595C487.23 359.416 491.532 371.044 492.226 376.075C492.876 380.842 490.927 387.896 490.703 388.715C491.084 387.944 494.534 381.059 496.707 382.672C498.992 384.405 497.625 391.002 495.564 394.782C493.503 398.537 487.746 402.751 487.746 402.751L484.9 480.729L495.049 480.441L517.923 479.791C519.939 479.766 521.866 479.742 523.77 479.742C561.206 479.646 576.485 483.715 573.864 507.693L573.819 507.742Z" fill="url(#paint35_linear_345_22435)"/>
<path d="M573.819 507.742C572.071 523.848 551.124 528.254 528.43 529.241C532.462 513.953 534.994 492.021 523.725 479.791C561.161 479.694 576.44 483.763 573.819 507.742Z" fill="url(#paint36_linear_345_22435)"/>
<path d="M495.004 480.489C491.151 491.299 485.192 507.67 484.856 506.514C484.385 504.781 484.856 480.754 484.856 480.754L495.004 480.465V480.489Z" fill="#CE5284"/>
<g opacity="0.43">
<path d="M528.385 595.037C528.094 597.18 527.825 599.299 527.534 601.345C497.984 596.602 465.992 582.061 429.273 556.83C430.214 555.169 431.312 553.364 432.455 551.438C468.434 576.187 499.664 590.415 528.385 595.013V595.037Z" fill="white"/>
<path d="M530.895 580.207C530.424 582.061 530.021 584.179 529.64 586.466C501.972 580.375 472.019 565.882 438.056 542.289C439.131 540.531 440.251 538.774 441.349 536.992C474.685 560.128 503.944 574.308 530.895 580.207Z" fill="white"/>
<path d="M536.518 565.161C535.644 567.352 534.838 569.35 534.121 571.155C507.573 564.872 478.919 550.908 446.591 528.687C447.734 526.857 448.854 525.076 449.907 523.391C482.033 545.491 510.373 559.19 536.518 565.185V565.161Z" fill="white"/>
</g>
<path d="M504.661 395.431C505.198 384.694 519.312 380.577 537.235 388.883C555.158 397.189 554.306 408.793 549.333 419.675C544.359 430.533 536.652 450.226 519.738 443.389" fill="#3E2468"/>
<path d="M507.259 459.663C506.05 461.638 506.027 468.451 513.846 469.967C521.642 471.508 529.573 467.56 530.536 463.034C531.276 459.567 530.536 450.732 531.052 442.04C531.209 439.32 531.477 436.624 531.948 434.096L507.484 438.887C509.007 442.353 508.716 452.296 507.909 457.135C507.708 458.363 507.484 459.254 507.237 459.639L507.259 459.663Z" fill="url(#paint37_linear_345_22435)"/>
<path d="M507.506 438.887C509.029 442.353 508.738 452.296 507.931 457.135C515.571 456.871 524.062 452.609 531.052 442.04C531.208 439.32 531.477 436.624 531.948 434.096L507.483 438.887H507.506Z" fill="#CE5284"/>
<path d="M545.412 437.442C541.895 439.344 537.705 438.02 536.047 434.505C534.39 430.966 535.891 426.561 539.408 424.659C542.925 422.757 547.115 424.081 548.772 427.596C550.43 431.135 548.929 435.541 545.412 437.442Z" fill="url(#paint38_linear_345_22435)"/>
<path d="M506.139 392.59C506.139 392.59 504.123 395.431 500.516 406.385C496.909 417.339 490.927 433.878 504.414 443.846C517.901 453.813 538.176 435.154 538.176 435.154L539.722 433.373L537.28 426.391C537.28 426.391 535.129 430.388 534.098 430.195C533.068 430.026 534.255 407.035 534.255 407.035C534.255 407.035 507.685 397.549 506.117 392.59H506.139Z" fill="url(#paint39_linear_345_22435)"/>
</g>
<defs>
<linearGradient id="paint0_linear_345_22435" x1="796.463" y1="944.102" x2="834.242" y2="778.245" gradientUnits="userSpaceOnUse">
<stop stop-color="#FFC5D7"/>
<stop offset="1" stop-color="#ED83A9"/>
</linearGradient>
<linearGradient id="paint1_linear_345_22435" x1="562.618" y1="910.419" x2="767.141" y2="617.134" gradientUnits="userSpaceOnUse">
<stop stop-color="#FFC5D7"/>
<stop offset="1" stop-color="#ED83A9"/>
</linearGradient>
<linearGradient id="paint2_linear_345_22435" x1="696.432" y1="679.372" x2="721.622" y2="815.559" gradientUnits="userSpaceOnUse">
<stop stop-color="#79D0FF"/>
<stop offset="1" stop-color="#0E3BF0"/>
</linearGradient>
<linearGradient id="paint3_linear_345_22435" x1="736.624" y1="764.982" x2="768.723" y2="884.583" gradientUnits="userSpaceOnUse">
<stop stop-color="#79D0FF"/>
<stop offset="1" stop-color="#0E3BF0"/>
</linearGradient>
<linearGradient id="paint4_linear_345_22435" x1="649.318" y1="720.034" x2="647.559" y2="765.31" gradientUnits="userSpaceOnUse">
<stop stop-color="#79D0FF"/>
<stop offset="1" stop-color="#0E3BF0"/>
</linearGradient>
<linearGradient id="paint5_linear_345_22435" x1="773.925" y1="853.241" x2="767.563" y2="722.893" gradientUnits="userSpaceOnUse">
<stop stop-color="#79D0FF"/>
<stop offset="1" stop-color="#0E3BF0"/>
</linearGradient>
<linearGradient id="paint6_linear_345_22435" x1="767.092" y1="791.465" x2="878.111" y2="860.122" gradientUnits="userSpaceOnUse">
<stop offset="0.01" stop-color="#FF8D92"/>
<stop offset="1" stop-color="#DE2C8F"/>
</linearGradient>
<linearGradient id="paint7_linear_345_22435" x1="835.086" y1="726.462" x2="824.497" y2="785.149" gradientUnits="userSpaceOnUse">
<stop offset="0.01" stop-color="#FF8D92"/>
<stop offset="1" stop-color="#DE2C8F"/>
</linearGradient>
<linearGradient id="paint8_linear_345_22435" x1="824.511" y1="820.283" x2="810.73" y2="616.902" gradientUnits="userSpaceOnUse">
<stop stop-color="#FFC5D7"/>
<stop offset="1" stop-color="#ED83A9"/>
</linearGradient>
<linearGradient id="paint9_linear_345_22435" x1="654.068" y1="910.035" x2="688.866" y2="757.212" gradientUnits="userSpaceOnUse">
<stop stop-color="#FFC5D7"/>
<stop offset="1" stop-color="#ED83A9"/>
</linearGradient>
<linearGradient id="paint10_linear_345_22435" x1="705.551" y1="702.893" x2="705.68" y2="672.535" gradientUnits="userSpaceOnUse">
<stop stop-color="#FFC5D7"/>
<stop offset="1" stop-color="#ED83A9"/>
</linearGradient>
<linearGradient id="paint11_linear_345_22435" x1="712.429" y1="735.033" x2="696.748" y2="700.036" gradientUnits="userSpaceOnUse">
<stop stop-color="#FFC5D7"/>
<stop offset="1" stop-color="#ED83A9"/>
</linearGradient>
<linearGradient id="paint12_linear_345_22435" x1="679.137" y1="702.797" x2="679.266" y2="672.414" gradientUnits="userSpaceOnUse">
<stop stop-color="#FFC5D7"/>
<stop offset="1" stop-color="#ED83A9"/>
</linearGradient>
<linearGradient id="paint13_linear_345_22435" x1="961.754" y1="256.422" x2="885.101" y2="656.035" gradientUnits="userSpaceOnUse">
<stop stop-color="#D4B6FF"/>
<stop offset="1" stop-color="#7D35F0"/>
</linearGradient>
<linearGradient id="paint14_linear_345_22435" x1="934.937" y1="324.218" x2="879.238" y2="547.189" gradientUnits="userSpaceOnUse">
<stop stop-color="#D4B6FF"/>
<stop offset="1" stop-color="#5835C1"/>
</linearGradient>
<linearGradient id="paint15_linear_345_22435" x1="1089.36" y1="515.205" x2="872.145" y2="439.795" gradientUnits="userSpaceOnUse">
<stop stop-color="#FFC5D7"/>
<stop offset="1" stop-color="#ED83A9"/>
</linearGradient>
<linearGradient id="paint16_linear_345_22435" x1="918.381" y1="569.23" x2="709.739" y2="355.501" gradientUnits="userSpaceOnUse">
<stop stop-color="#FFC5D7"/>
<stop offset="1" stop-color="#ED83A9"/>
</linearGradient>
<linearGradient id="paint17_linear_345_22435" x1="999.257" y1="396.225" x2="974.359" y2="495.899" gradientUnits="userSpaceOnUse">
<stop stop-color="#D4B6FF"/>
<stop offset="1" stop-color="#5835C1"/>
</linearGradient>
<linearGradient id="paint18_linear_345_22435" x1="994.306" y1="722.37" x2="1035.2" y2="518.12" gradientUnits="userSpaceOnUse">
<stop stop-color="#FFC5D7"/>
<stop offset="1" stop-color="#ED83A9"/>
</linearGradient>
<linearGradient id="paint19_linear_345_22435" x1="963.254" y1="880.903" x2="973.059" y2="540.785" gradientUnits="userSpaceOnUse">
<stop stop-color="#FFC5D7"/>
<stop offset="1" stop-color="#ED83A9"/>
</linearGradient>
<linearGradient id="paint20_linear_345_22435" x1="1043.64" y1="768.112" x2="1090.8" y2="838.417" gradientUnits="userSpaceOnUse">
<stop stop-color="#7BFFB9"/>
<stop offset="1" stop-color="#0E9DFB"/>
</linearGradient>
<linearGradient id="paint21_linear_345_22435" x1="1027.04" y1="737.682" x2="1075.32" y2="831.563" gradientUnits="userSpaceOnUse">
<stop stop-color="#7BFFB9"/>
<stop offset="1" stop-color="#0E9DFB"/>
</linearGradient>
<linearGradient id="paint22_linear_345_22435" x1="1040.86" y1="730.58" x2="1089.16" y2="824.434" gradientUnits="userSpaceOnUse">
<stop stop-color="#7BFFB9"/>
<stop offset="1" stop-color="#0E9DFB"/>
</linearGradient>
<linearGradient id="paint23_linear_345_22435" x1="1052.44" y1="724.609" x2="1100.75" y2="818.488" gradientUnits="userSpaceOnUse">
<stop stop-color="#7BFFB9"/>
<stop offset="1" stop-color="#0E9DFB"/>
</linearGradient>
<linearGradient id="paint24_linear_345_22435" x1="1016.55" y1="743.075" x2="1064.86" y2="836.953" gradientUnits="userSpaceOnUse">
<stop stop-color="#7BFFB9"/>
<stop offset="1" stop-color="#0E9DFB"/>
</linearGradient>
<linearGradient id="paint25_linear_345_22435" x1="916.16" y1="411.235" x2="908.632" y2="367.349" gradientUnits="userSpaceOnUse">
<stop stop-color="#FFC5D7"/>
<stop offset="1" stop-color="#ED83A9"/>
</linearGradient>
<linearGradient id="paint26_linear_345_22435" x1="919.21" y1="437.73" x2="931.683" y2="408.029" gradientUnits="userSpaceOnUse">
<stop stop-color="#FFC5D7"/>
<stop offset="1" stop-color="#ED83A9"/>
</linearGradient>
<linearGradient id="paint27_linear_345_22435" x1="939.328" y1="407.265" x2="931.801" y2="363.379" gradientUnits="userSpaceOnUse">
<stop stop-color="#FFC5D7"/>
<stop offset="1" stop-color="#ED83A9"/>
</linearGradient>
<linearGradient id="paint28_linear_345_22435" x1="382.272" y1="740.884" x2="439.767" y2="578.358" gradientUnits="userSpaceOnUse">
<stop stop-color="#FFC5D7"/>
<stop offset="1" stop-color="#ED83A9"/>
</linearGradient>
<linearGradient id="paint29_linear_345_22435" x1="435.815" y1="880.712" x2="544.945" y2="572.213" gradientUnits="userSpaceOnUse">
<stop stop-color="#FFC5D7"/>
<stop offset="1" stop-color="#ED83A9"/>
</linearGradient>
<linearGradient id="paint30_linear_345_22435" x1="428.691" y1="206.539" x2="458.891" y2="308.829" gradientUnits="userSpaceOnUse">
<stop offset="0.01" stop-color="#FF8D92"/>
<stop offset="1" stop-color="#F23C5C"/>
</linearGradient>
<linearGradient id="paint31_linear_345_22435" x1="436.039" y1="329.322" x2="496.926" y2="409.89" gradientUnits="userSpaceOnUse">
<stop stop-color="#FFC5D7"/>
<stop offset="1" stop-color="#ED83A9"/>
</linearGradient>
<linearGradient id="paint32_linear_345_22435" x1="507.438" y1="409.394" x2="480.598" y2="605.168" gradientUnits="userSpaceOnUse">
<stop offset="0.01" stop-color="#FFFF6F"/>
<stop offset="1" stop-color="#F57400"/>
</linearGradient>
<linearGradient id="paint33_linear_345_22435" x1="486.849" y1="682.453" x2="552.549" y2="513.587" gradientUnits="userSpaceOnUse">
<stop offset="0.01" stop-color="#FFFF6F"/>
<stop offset="1" stop-color="#F57400"/>
</linearGradient>
<linearGradient id="paint34_linear_345_22435" x1="484.542" y1="555" x2="525.022" y2="463.864" gradientUnits="userSpaceOnUse">
<stop offset="0.01" stop-color="#FFFF6F"/>
<stop offset="1" stop-color="#F57400"/>
</linearGradient>
<linearGradient id="paint35_linear_345_22435" x1="449.234" y1="409.082" x2="553.265" y2="546.745" gradientUnits="userSpaceOnUse">
<stop stop-color="#FFC5D7"/>
<stop offset="1" stop-color="#ED83A9"/>
</linearGradient>
<linearGradient id="paint36_linear_345_22435" x1="557.98" y1="416.329" x2="531.14" y2="612.079" gradientUnits="userSpaceOnUse">
<stop offset="0.01" stop-color="#FFFF6F"/>
<stop offset="1" stop-color="#F57400"/>
</linearGradient>
<linearGradient id="paint37_linear_345_22435" x1="520.574" y1="471.149" x2="518.654" y2="439.146" gradientUnits="userSpaceOnUse">
<stop stop-color="#FFC5D7"/>
<stop offset="1" stop-color="#ED83A9"/>
</linearGradient>
<linearGradient id="paint38_linear_345_22435" x1="531.617" y1="449.455" x2="558.227" y2="410.313" gradientUnits="userSpaceOnUse">
<stop stop-color="#FFC5D7"/>
<stop offset="1" stop-color="#ED83A9"/>
</linearGradient>
<linearGradient id="paint39_linear_345_22435" x1="510.116" y1="434.831" x2="536.726" y2="395.689" gradientUnits="userSpaceOnUse">
<stop stop-color="#FFC5D7"/>
<stop offset="1" stop-color="#ED83A9"/>
</linearGradient>
<clipPath id="clip0_345_22435">
<rect width="1389" height="963" fill="white"/>
</clipPath>
</defs>
</svg>
