<svg width="620" height="400" viewBox="0 0 620 400" fill="none" xmlns="http://www.w3.org/2000/svg">
<g clip-path="url(#clip0_338_20649)">
<path d="M561.498 323.846C556.482 305.385 566.727 286.679 575.606 269.579C583.142 255.066 590.005 239.903 591.92 223.814C593.834 207.726 590.24 190.424 578.954 178.305C558.789 156.651 523.374 158.375 493.155 161.684C462.935 164.983 427.33 166.206 407.758 144.074C396.382 131.21 393.673 113.61 388.746 97.4683C379.464 67.0789 355.728 36.4022 322.474 34.689C300.081 33.5398 279.501 45.8191 261.878 58.9921C235.431 78.7622 211.303 102.065 195.269 130.177C186.547 145.468 180.355 161.94 172.182 177.496C157.066 206.268 133.352 232.944 101.117 242.733C77.4027 249.937 50.4189 247.66 29.0446 259.79C-2.64173 277.773 -8.03848 322.878 11.1189 352.863C16.8515 361.844 24.1741 369.579 32.5827 376.177C52.5575 391.829 77.873 400.001 103.759 400.001H571.206C587.083 400.001 598.111 384.604 591.875 370.729C591.83 370.633 591.797 370.548 591.752 370.452C584.026 353.619 566.335 341.616 561.51 323.846H561.498Z" fill="#FFA09C"/>
<path d="M124.127 200.672C115.483 203.651 104.577 202.247 98.9902 195.543C91.8692 186.999 95.8552 174.698 100.132 164.59C106.929 148.501 139.992 109.95 156.709 138.648C168.387 158.695 144.426 193.67 124.127 200.672Z" fill="#FFA09C"/>
<path d="M460.696 143.787C471.12 143.265 482.081 138.254 485.944 129.039C489.247 121.133 486.459 111.673 480.368 105.427C468.556 93.3079 435.739 87.4449 425.886 105.098C414.264 125.921 441.024 144.787 460.696 143.787Z" fill="#FFA09C"/>
<path d="M324.256 390.094C411.106 390.094 481.512 386.911 481.512 382.986C481.512 379.06 411.106 375.878 324.256 375.878C237.406 375.878 167 379.06 167 382.986C167 386.911 237.406 390.094 324.256 390.094Z" fill="#FFA09C"/>
<path d="M118.205 388.508C139.966 388.508 157.606 386.508 157.606 384.039C157.606 381.571 139.966 379.57 118.205 379.57C96.445 379.57 78.8047 381.571 78.8047 384.039C78.8047 386.508 96.445 388.508 118.205 388.508Z" fill="#FFA09C"/>
<path d="M531.639 388.508C553.4 388.508 571.04 386.508 571.04 384.039C571.04 381.571 553.4 379.57 531.639 379.57C509.879 379.57 492.238 381.571 492.238 384.039C492.238 386.508 509.879 388.508 531.639 388.508Z" fill="#FFA09C"/>
<path d="M80.9279 290.775C81.5325 290.52 81.7676 289.807 81.4094 289.275C59.4081 255.789 49.9917 231.018 54.168 217.324C54.336 216.77 54.0001 216.185 53.4179 216.025C52.8357 215.866 52.2198 216.185 52.0519 216.738C49.4991 225.123 51.6152 237.19 58.3444 252.608C63.1365 263.568 70.2463 276.251 79.5283 290.371C79.8194 290.807 80.4017 290.978 80.8943 290.775C80.8943 290.775 80.9055 290.775 80.9167 290.775H80.9279Z" fill="#3D6D89"/>
<path d="M53.5529 238.393C53.5529 238.393 45.4577 242.574 38.2695 228.774C38.2695 228.774 52.5676 225.709 53.5529 238.393Z" fill="#325465"/>
<path d="M56.8669 245.702C56.8669 245.702 52.0188 238.254 66.1265 230.667C66.1265 230.667 70.1461 244.063 56.8669 245.702Z" fill="#325465"/>
<path d="M52.1654 223.538C52.1654 223.538 44.9772 218.058 55.6252 206.428C55.6252 206.428 64.1122 217.781 52.1654 223.538Z" fill="#325465"/>
<path d="M63.0702 260.577C63.0702 260.577 56.9456 267.121 45.2676 256.438C45.2676 256.438 57.6286 248.958 63.0702 260.577Z" fill="#325465"/>
<path d="M67.6384 267.536C67.6384 267.536 61.5026 261.003 74.0204 251.203C74.0204 251.203 80.4137 263.738 67.6384 267.536Z" fill="#325465"/>
<path d="M72.8888 277.645C72.8888 277.645 66.8986 284.296 55.0078 273.825C55.0078 273.825 67.2233 266.121 72.8888 277.645Z" fill="#325465"/>
<path d="M91.3309 338.552C91.7451 338.062 91.6108 337.328 91.0285 337.009C55.2219 316.983 34.8329 299.15 31.877 285.179C31.7538 284.615 31.1716 284.242 30.5782 284.359C29.9847 284.476 29.5929 285.03 29.716 285.594C31.5299 294.149 39.2779 303.917 52.7474 314.632C62.3317 322.25 74.8047 330.359 89.9089 338.807C90.3791 339.073 90.9726 338.967 91.3197 338.562C91.3197 338.562 91.3197 338.552 91.3309 338.541V338.552Z" fill="#3D6D89"/>
<path d="M41.5718 304.129C41.5718 304.129 36.4326 311.397 23.3438 302.31C23.3438 302.31 34.5291 293.308 41.5718 304.129Z" fill="#325465"/>
<path d="M48.067 309.14C48.067 309.14 40.1398 304.671 48.9627 291.743C48.9627 291.743 59.0508 301.852 48.067 309.14Z" fill="#325465"/>
<path d="M33.1076 291.562C33.1076 291.562 24.0719 289.86 27.8452 274.878C27.8452 274.878 40.9004 281.22 33.1076 291.562Z" fill="#325465"/>
<path d="M60.8084 319.621C60.8084 319.621 58.5579 328.113 43.0059 323.771C43.0059 323.771 50.3284 311.705 60.8084 319.621Z" fill="#325465"/>
<path d="M133.664 349.809C133.037 349.586 132.779 348.884 133.104 348.33C153.314 313.834 161.397 288.637 156.505 275.176C156.303 274.634 156.617 274.038 157.188 273.846C157.759 273.655 158.386 273.953 158.587 274.495C161.588 282.742 160.11 294.904 154.198 310.62C149.999 321.803 143.561 334.795 135.041 349.352C134.772 349.799 134.201 350.001 133.697 349.82C133.697 349.82 133.686 349.82 133.675 349.82L133.664 349.809Z" fill="#3D6D89"/>
<path d="M158.219 296.181C158.219 296.181 166.527 299.979 172.976 285.838C172.976 285.838 158.532 283.455 158.219 296.181Z" fill="#325465"/>
<path d="M155.296 303.639C155.296 303.639 159.741 295.967 145.253 289.062C145.253 289.062 141.95 302.639 155.296 303.639Z" fill="#325465"/>
<path d="M158.834 281.284C158.834 281.284 165.72 275.463 154.479 264.365C154.479 264.365 146.596 276.112 158.834 281.284Z" fill="#325465"/>
<path d="M127.774 383.52C125.299 383.849 122.825 383.956 120.373 383.881C119.69 383.86 119.018 383.828 118.335 383.786C98.2034 382.434 80.468 369.846 80.468 369.846C80.468 369.846 46.8111 350.332 56.9216 335.02C67.0321 319.708 77.6689 336.914 84.8459 336.776C92.0229 336.637 81.4533 319.261 74.5786 302.641C67.7039 286.02 76.9523 278.359 83.4575 281.849C89.9627 285.35 94.0047 276.848 89.9403 266.697C85.6296 255.939 82.5506 232.009 96.1768 233.52C111.751 235.254 106.231 265.409 117.484 270.091C128.737 274.773 124.112 259.546 133.047 262.366C141.971 265.186 142.598 286.669 132.017 300.47C121.448 314.271 125.03 331.221 130.259 328.167C135.488 325.113 140.168 309.227 148.443 310.174C164.442 312.026 151.443 380.412 127.762 383.509L127.774 383.52Z" fill="#3D6D89"/>
<path d="M120.361 383.892C119.678 383.87 119.006 383.838 118.323 383.796C113.475 343.053 98.5608 256.364 98.404 255.428C98.3144 254.907 98.6839 254.417 99.2326 254.332C99.7812 254.247 100.296 254.598 100.386 255.119C100.543 256.056 115.546 343.213 120.361 383.892Z" fill="#2F5469"/>
<path d="M106.981 303.513C106.825 303.46 106.679 303.375 106.556 303.258C106.175 302.864 106.209 302.268 106.612 301.907C106.724 301.811 117.976 291.947 122.533 284.041C122.802 283.584 123.418 283.413 123.899 283.669C124.381 283.924 124.56 284.499 124.303 284.967C119.578 293.15 108.448 302.907 107.978 303.322C107.698 303.567 107.317 303.63 106.981 303.524V303.513Z" fill="#2F5469"/>
<path d="M108.134 314.238C108.134 314.238 108.101 314.228 108.078 314.217C107.496 313.994 93.8361 308.758 85.4498 301.629C85.0356 301.278 85.002 300.672 85.3715 300.278C85.7409 299.884 86.3791 299.852 86.7934 300.203C94.8997 307.109 108.683 312.387 108.828 312.44C109.343 312.632 109.59 313.196 109.388 313.685C109.187 314.153 108.638 314.398 108.134 314.238Z" fill="#2F5469"/>
<path d="M115.233 356.556C114.998 356.481 114.785 356.321 114.662 356.087C114.404 355.619 114.594 355.045 115.087 354.8C115.244 354.725 130.438 347.149 135.028 339.19C135.297 338.733 135.902 338.562 136.394 338.807C136.887 339.062 137.055 339.637 136.797 340.105C131.916 348.575 116.666 356.172 116.016 356.492C115.77 356.619 115.49 356.63 115.233 356.556Z" fill="#2F5469"/>
<path d="M101.06 361.845C95.6069 360.121 89.7175 357.737 85.1717 354.577C84.7239 354.268 84.6231 353.673 84.959 353.247C85.2837 352.821 85.9219 352.726 86.3585 353.045C97.208 360.6 116.791 363.653 116.992 363.685C117.541 363.77 117.911 364.26 117.821 364.781C117.731 365.303 117.216 365.654 116.668 365.569C116.175 365.494 109.088 364.388 101.048 361.855L101.06 361.845Z" fill="#2F5469"/>
<path d="M562.361 337.403C561.88 337.009 561.869 336.285 562.361 335.892C592.536 310.908 608.525 290.595 608.726 276.868C608.726 276.315 609.219 275.868 609.801 275.868C610.384 275.868 610.854 276.336 610.854 276.89C610.731 285.296 605.211 295.851 594.451 308.258C586.792 317.079 576.491 326.858 563.761 337.403C563.369 337.732 562.776 337.732 562.384 337.403C562.384 337.403 562.384 337.403 562.373 337.392L562.361 337.403Z" fill="#3D6D89"/>
<path d="M603.07 296.436C603.07 296.436 609.284 302.459 620 291.648C620 291.648 607.728 284.998 603.07 296.436Z" fill="#325465"/>
<path d="M597.855 302.278C597.855 302.278 604.528 296.713 593.769 285.955C593.769 285.955 586.099 297.223 597.855 302.278Z" fill="#325465"/>
<path d="M608.75 283.125C608.75 283.125 616.991 279.986 610.62 266.44C610.62 266.44 599.435 274.634 608.75 283.125Z" fill="#325465"/>
<path d="M587.744 314.345C587.744 314.345 591.45 322.006 605.379 315.281C605.379 315.281 596.198 305.088 587.744 314.345Z" fill="#325465"/>
<path d="M581.473 319.526C581.473 319.526 589.053 315.142 580.42 302.777C580.42 302.777 570.825 312.62 581.473 319.526Z" fill="#325465"/>
<path d="M573.646 327.443C573.646 327.443 577.207 335.168 591.259 328.698C591.259 328.698 582.279 318.334 573.646 327.443Z" fill="#325465"/>
<path d="M516.971 378.104C517.474 377.721 517.497 377.008 517.038 376.593C487.882 350.545 472.71 329.668 473.058 315.952C473.069 315.399 472.61 314.931 472.016 314.92C471.434 314.909 470.941 315.346 470.93 315.91C470.717 324.316 475.812 335.063 486.079 347.853C493.379 356.94 503.277 367.091 515.582 378.072C515.963 378.412 516.545 378.434 516.959 378.125H516.971V378.104Z" fill="#3D6D89"/>
<path d="M477.927 335.7C477.927 335.7 471.478 341.489 461.199 330.306C461.199 330.306 473.728 324.102 477.927 335.7Z" fill="#325465"/>
<path d="M482.91 341.733C482.91 341.733 476.472 335.934 487.646 325.57C487.646 325.57 494.857 337.105 482.91 341.733Z" fill="#325465"/>
<path d="M472.787 322.198C472.787 322.198 464.68 318.771 471.577 305.46C471.577 305.46 482.427 314.058 472.787 322.198Z" fill="#325465"/>
<path d="M492.538 354.14C492.538 354.14 488.53 361.663 474.881 354.438C474.881 354.438 484.465 344.575 492.538 354.14Z" fill="#325465"/>
<path d="M498.584 359.556C498.584 359.556 491.183 354.896 500.309 342.851C500.309 342.851 509.512 353.034 498.584 359.556Z" fill="#325465"/>
<path d="M506.097 367.739C506.097 367.739 502.234 375.336 488.451 368.356C488.451 368.356 497.834 358.322 506.097 367.739Z" fill="#325465"/>
<path d="M529.051 341.509C529.477 341.307 529.611 340.786 529.342 340.413C512.301 317.238 504.598 299.851 507.05 289.924C507.151 289.519 506.882 289.115 506.457 289.019C506.031 288.923 505.606 289.179 505.505 289.583C504.004 295.67 505.986 304.225 511.405 315.014C515.257 322.686 520.844 331.496 528.032 341.275C528.256 341.573 528.682 341.679 529.029 341.52C529.029 341.52 529.029 341.52 529.04 341.52L529.051 341.509Z" fill="#3D6D89"/>
<path d="M507.43 305.012C507.43 305.012 501.809 308.289 496.121 298.67C496.121 298.67 506.232 295.967 507.43 305.012Z" fill="#325465"/>
<path d="M510.095 310.12C510.095 310.12 506.333 304.97 516.13 299.043C516.13 299.043 519.533 308.481 510.095 310.12Z" fill="#325465"/>
<path d="M505.85 294.436C505.85 294.436 500.498 290.765 507.653 282.082C507.653 282.082 514.169 289.903 505.85 294.436Z" fill="#325465"/>
<path d="M524.795 385.434C527.179 385.743 529.564 385.849 531.927 385.785C532.587 385.764 533.237 385.732 533.886 385.689C553.279 384.391 570.365 372.261 570.365 372.261C570.365 372.261 602.79 353.459 593.049 338.711C583.308 323.964 573.063 340.531 566.144 340.403C559.224 340.276 569.413 323.538 576.041 307.524C582.659 291.51 573.757 284.125 567.487 287.498C561.217 290.871 557.321 282.678 561.24 272.9C565.393 262.536 568.361 239.488 555.227 240.946C540.224 242.617 545.542 271.665 534.704 276.177C523.865 280.688 528.31 266.015 519.711 268.728C511.112 271.442 510.519 292.138 520.697 305.428C530.886 318.728 527.426 335.051 522.387 332.104C517.349 329.167 512.837 313.855 504.876 314.77C489.458 316.547 501.976 382.423 524.795 385.413V385.434Z" fill="#3D6D89"/>
<path d="M531.926 385.785C532.586 385.764 533.236 385.732 533.885 385.689C538.554 346.447 552.919 262.929 553.076 262.035C553.166 261.535 552.807 261.056 552.281 260.982C551.755 260.897 551.251 261.237 551.173 261.748C551.016 262.652 536.572 346.606 531.937 385.796L531.926 385.785Z" fill="#2F5469"/>
<path d="M544.827 308.365C544.972 308.322 545.118 308.237 545.23 308.109C545.588 307.737 545.566 307.152 545.174 306.811C545.062 306.715 534.235 297.213 529.835 289.605C529.577 289.158 528.984 288.999 528.525 289.243C528.054 289.488 527.886 290.052 528.144 290.488C532.69 298.362 543.416 307.769 543.875 308.162C544.144 308.396 544.513 308.46 544.838 308.354L544.827 308.365Z" fill="#2F5469"/>
<path d="M543.705 318.685C543.705 318.685 543.738 318.675 543.761 318.664C544.32 318.451 557.488 313.408 565.56 306.534C565.963 306.193 565.997 305.608 565.639 305.236C565.28 304.853 564.665 304.821 564.273 305.161C556.458 311.812 543.19 316.898 543.055 316.951C542.563 317.143 542.316 317.675 542.518 318.143C542.708 318.6 543.234 318.824 543.716 318.675L543.705 318.685Z" fill="#2F5469"/>
<path d="M536.875 359.45C537.11 359.376 537.312 359.227 537.424 359.003C537.67 358.557 537.491 357.993 537.009 357.759C536.864 357.684 522.219 350.385 517.807 342.723C517.55 342.277 516.956 342.117 516.497 342.362C516.027 342.606 515.859 343.16 516.117 343.607C520.819 351.768 535.509 359.089 536.125 359.397C536.371 359.514 536.64 359.525 536.875 359.45Z" fill="#2F5469"/>
<path d="M550.535 364.557C555.786 362.897 561.463 360.609 565.841 357.555C566.278 357.257 566.367 356.683 566.054 356.268C565.74 355.853 565.136 355.768 564.699 356.066C554.252 363.344 535.375 366.281 535.196 366.313C534.67 366.398 534.311 366.866 534.39 367.366C534.479 367.866 534.972 368.207 535.498 368.132C535.968 368.058 542.798 366.994 550.535 364.557Z" fill="#2F5469"/>
<path d="M284.696 247.744C276.176 250.244 266.177 244.35 264.005 235.614C259.896 219.131 253.906 196.275 246.684 171.749C244.893 170.887 237.727 171.483 238.634 169.355C239.541 167.663 244.702 166.195 246.718 165.577C250.312 164.535 252.764 165.971 252.517 168.951C268.73 192.275 289.007 204.99 288.033 215.609L284.685 247.733L284.696 247.744Z" fill="#FF695F"/>
<path d="M262.831 182.071C260.48 179.315 249.776 181.794 250.593 185.391L246.686 171.75L251.466 167.525L252.519 168.951L262.82 182.071H262.831Z" fill="#FFFDEE"/>
<path d="M249.013 170.44C248.957 170.727 248.688 172.813 246.863 172.387C246.807 172.175 246.74 171.962 246.684 171.749C244.893 170.887 237.727 171.483 238.634 169.355C239.541 167.663 244.702 166.195 246.718 165.577C250.312 164.535 252.764 165.971 252.517 168.951C251.722 167.823 249.27 168.887 249.002 170.44H249.013Z" fill="#002A4C"/>
<path style="mix-blend-mode:multiply" d="M246.684 171.75C244.926 170.899 237.973 171.463 238.623 169.452C241.332 169.047 245.374 168.526 247.155 168.664C249.954 168.898 258.217 189.903 264.744 201.437C271.272 212.972 286.835 210.003 285.357 207.843L285.749 207.992C287.406 210.705 288.28 213.206 288.056 215.611L284.708 247.734C278.415 249.926 267.252 246.457 264.017 235.604C260.176 220.686 252.372 190.999 246.695 171.739L246.684 171.75Z" fill="url(#paint0_linear_338_20649)"/>
<path d="M302.499 198.043C302.476 201.874 300.987 220.633 293.844 217.611L303.786 239.339L316.629 228.134L307.47 203.182L302.499 198.043Z" fill="#FF695F"/>
<path d="M364.517 134.381C364.988 129.305 365.637 126.858 365.234 123.378C368.212 122.474 386.373 120.75 390.281 119.271C406.471 127.837 425.684 119.111 443.017 115.845C446.443 116.951 444.819 119.016 447.215 119.941C449.511 120.825 453.026 119.431 452.276 117.611C451.716 115.855 451.235 115.451 450.014 114.919C450.776 115.377 451.369 115.802 451.772 115.898C454.314 116.473 452.758 112.876 446.308 112.961C445.469 112.972 442.39 112.099 442.39 112.099C421.34 103.257 370.586 99.437 343.087 93.6592L328.912 96.0001C328.912 96.0001 337.276 133.242 337.354 133.721C337.41 134.019 349.301 139.414 357.184 140.382C361.752 140.946 364.204 137.349 364.204 137.349L364.517 134.381Z" fill="#FF695F"/>
<path d="M365.234 123.378C365.234 123.378 357.071 124.421 351.607 121.889C351.607 121.889 358.986 131.987 359.355 144.5C359.434 149.98 357.676 166.121 353.836 172.708C353.836 172.708 356.937 169.526 358.941 162.44C360.945 155.353 362.882 148.416 363.767 140.744C364.651 133.083 365.693 126.549 365.234 123.389V123.378Z" fill="#C65A5F"/>
<path d="M351.494 121.835C356.186 123.25 388.309 109.077 397.568 113.386C406.828 117.696 440.787 113.759 444.146 114.301C447.505 114.855 450.875 119.792 452.297 118.526C451.804 119.845 449.106 120.654 447.214 119.93C444.818 119.004 446.441 116.94 443.015 115.834C425.694 119.1 406.469 127.825 390.279 119.26C386.372 120.739 368.211 122.473 365.232 123.367C365.266 123.697 365.288 124.005 365.311 124.314C363.575 123.91 361.974 123.622 360.776 123.601C355.738 123.484 351.494 121.835 351.494 121.835Z" fill="#C65A5F"/>
<path d="M252.539 24.6652C252.225 75.3143 250.434 79.4003 292.981 108.598C292.981 108.598 306.294 99.745 306.753 98.4682C307.212 97.1913 314.68 85.476 314.68 85.476C300.763 78.3043 288.917 70.0472 272.547 68.6959C270.666 68.5363 270.297 68.6959 270.454 67.3871C272.323 51.8199 260.477 37.3488 255.618 24.9951C255.45 24.6759 255.461 24.197 255.461 23.8778C255.797 23.0798 257.645 23.0904 257.488 21.9732C256.995 20.3771 255.137 22.601 254.789 23.0691C254.241 21.1006 254.868 19.1641 254.33 17.3232C252.472 18.9087 252.449 22.3137 252.55 24.6546L252.539 24.6652Z" fill="#FF695F"/>
<path d="M343.512 93.7541C336.335 93.7541 332.808 105.31 337.466 117.6C344.778 136.87 362.905 142.701 364.517 134.38C362.748 153.235 356.008 177.027 351.104 172.973L308.747 166.589C307.583 161.088 307.952 162.481 305.97 157.204C305.567 156.31 305.31 153.352 305.31 153.352C305.31 153.352 304.044 152.83 303.686 151.979C297.898 138.327 292.523 120.356 293.016 105.118C293.307 96.0418 301.861 84.2308 316.54 85.5715C318.734 86.6994 316.797 85.7418 319.104 86.6781C326.55 89.7213 333.749 91.7005 343.501 93.7435L343.512 93.7541Z" fill="#007F6E"/>
<path d="M358.539 138.008C358.975 140.062 359.277 142.233 359.345 144.488C359.423 149.968 357.665 166.099 353.836 172.686C353.836 172.686 353.847 172.675 353.858 172.665C354.037 172.484 355.269 171.111 356.635 168.398C357.419 166.716 358.203 164.684 358.942 162.396C359.927 158.906 360.901 155.459 361.73 151.937C362.536 148.287 363.23 144.446 363.767 140.668C363.991 138.764 364.215 136.934 364.428 135.199C364.45 134.922 364.484 134.646 364.506 134.369C363.98 137.104 361.651 138.296 358.527 137.998L358.539 138.008Z" fill="#005B6E"/>
<path d="M326.461 87.9234C325.856 86.0613 320.269 85.7847 319.877 79.794C319.664 76.5167 322.956 74.3461 326.449 74.8249C334.22 75.8889 333.1 80.3154 333.111 84.146C333.123 87.4871 333.078 88.2533 331.566 88.6789C330.032 89.1045 326.461 87.9128 326.461 87.9128V87.9234Z" fill="#FF695F"/>
<path d="M320.705 84.0713C321.534 85.9972 321.803 86.4441 321.892 87.7955L319.328 86.7633C319.328 87.8274 319.877 90.03 320.996 91.3069C324.221 95.0417 329.629 91.9879 333.324 91.3069L329.92 90.3492C329.674 90.1045 329.674 89.8704 329.584 89.6257C329.259 88.1041 329.931 88.0828 329.103 86.6463" fill="#FF695F"/>
<path d="M284.83 247.851C274.44 240.445 261.553 225.889 261.553 225.889C261.553 225.889 278.784 244.51 278.538 248.127C278.538 248.127 281.158 248.787 284.83 247.851Z" fill="#002A4C"/>
<g style="mix-blend-mode:multiply">
<path d="M303.282 198.553C303.26 202.383 300.517 220.334 293.844 217.621L304.57 239.849L317.413 228.644L308.254 203.692L303.282 198.553Z" fill="url(#paint1_linear_338_20649)"/>
</g>
<path d="M245.284 208.981C260.422 222.686 273.533 242.562 292.277 252.469C310.079 262.109 323.381 256.289 333.491 244.808L317.715 232.401L309.889 230.868C309.889 230.868 308.556 233.294 307.672 233.06C305.567 232.496 306.451 222.196 296.083 218.44C278.594 212.098 265.237 209.396 247.367 203.331C243.359 200.458 240.66 201.926 239.518 205.118C238.835 206.821 235.555 212.12 237.57 212.982C239.138 213.418 243.941 209.406 245.284 208.981Z" fill="#FF695F"/>
<path d="M318.13 239.435C318.13 239.435 328.498 245.787 326.55 251.299C326.55 251.299 329.775 248.862 332.44 245.957C332.44 245.957 324.378 243.936 318.119 239.435H318.13Z" fill="#002A4C"/>
<path d="M301.938 196.021C301.938 196.021 301.076 209.598 297.706 212.46C294.325 215.312 309.72 225.623 309.72 225.623L312.172 209.694L306.742 200.702L301.938 196.021Z" fill="#FFA743"/>
<path d="M309.296 225.335L301.939 196.021C301.939 196.021 306.788 214.503 303.574 221.047L309.307 225.335H309.296Z" fill="#FF9443"/>
<path d="M307.695 163.503C316.596 156.278 351.586 166.259 353.702 177.506C360.398 215.003 345.17 248.329 345.17 248.329C332.104 247.01 316.988 242.37 309.901 230.879L309.475 228.325C309.509 223.217 307.751 217.674 305.993 212.556C301.627 196.35 295.928 177.165 307.706 163.513" fill="#FFBB43"/>
<path d="M351.518 173.431C355.851 180.124 344.397 230.815 333.726 234.103C323.056 237.391 309.889 230.879 309.889 230.879C309.889 230.879 315.621 245.223 345.158 248.33C345.158 248.33 354.272 226.58 355.235 203.437C356.198 180.294 351.518 173.441 351.518 173.441V173.431Z" fill="#FFA743"/>
<path d="M293.027 105.119C293.139 101.597 294.505 97.6705 296.968 94.2549C285.649 90.7967 269.447 77.4322 264.733 72.5375C260.02 67.6428 253.705 34.2634 252.518 24.1123C252.518 24.2932 252.518 24.4847 252.529 24.6656C252.216 75.3147 250.424 79.4007 292.971 108.598C292.971 108.598 292.982 108.598 292.982 108.588L293.005 108.492C292.982 107.353 292.982 106.226 293.005 105.119H293.027Z" fill="#C65A5F"/>
<path d="M336.952 98.5967C335.832 101.97 336.818 121.963 349.615 134.168C349.615 134.168 342.293 129.007 338.251 119.516C334.209 110.025 335.396 102.768 336.952 98.5967Z" fill="#C65A5F"/>
<path style="mix-blend-mode:multiply" d="M305.981 157.204C306.026 149.862 333.077 147.17 338.541 133.348C338.541 133.348 334.913 140.434 322.799 142.818C310.684 145.201 304.839 148.691 303.697 151.979L305.321 153.352L305.981 157.204Z" fill="url(#paint2_linear_338_20649)"/>
<path d="M332.63 78.3999C331.991 77.9211 332.025 79.3576 330.771 79.2405C328.968 79.0596 327.759 77.1975 326.516 78.368C325.621 79.198 325.643 79.879 325.654 80.4961C325.688 81.8581 325.072 81.9007 324.758 81.3686C323.93 79.9854 322.049 82.3369 324.232 83.8692C322.351 82.8796 321.971 85.0396 321.265 85.2631C317.066 78.7511 321.735 71.9837 329.416 74.0799C331.096 74.5161 333.212 76.6017 332.641 78.4106" fill="#002A4C"/>
<path d="M263.211 208.258C263.211 208.258 253.134 212.014 256.325 220.228L245.285 208.992L243.449 204.161L245.532 202.405L247.368 203.342L263.211 208.268V208.258Z" fill="#FFFDEE"/>
<path d="M237.569 212.982C235.565 212.12 238.835 206.821 239.518 205.118C240.66 201.937 243.358 200.458 247.366 203.331C245.586 202.235 243.436 205.033 244.433 206.31C245.429 207.598 246.851 208.14 245.273 208.981C244.041 209.641 239.932 212.269 239.238 212.599C238.543 212.918 237.95 213.088 237.558 212.982H237.569Z" fill="#002A4C"/>
<path style="mix-blend-mode:multiply" d="M292.276 252.469C273.533 242.562 260.422 222.696 245.284 208.981C243.94 209.396 239.137 213.418 237.569 212.982C235.565 212.12 238.835 206.821 239.518 205.118C239.574 204.98 239.63 204.842 239.686 204.714C239.686 204.714 240.514 207.683 243.66 206.225C246.807 204.778 261.519 216.121 277.44 228.644C287.271 236.38 303.293 248.479 308.802 244.903C314.311 241.317 309.899 230.868 309.899 230.868L332.684 245.712C322.675 256.597 309.608 261.854 292.287 252.469H292.276Z" fill="url(#paint3_linear_338_20649)"/>
<path d="M274.003 0.000364477C263.12 -0.0634789 254.241 8.26808 254.174 18.6107C254.107 28.9533 262.874 37.3913 273.757 37.4551C284.64 37.519 293.519 29.1874 293.586 18.8448C293.653 8.50217 284.886 0.0642078 274.003 0.000364477Z" fill="#FFBB43"/>
<path d="M235.575 168.217C235.575 168.217 201.381 182.72 189.938 179.549C172.046 174.591 148.197 140.764 148.197 140.764L149.877 137.349C149.877 137.349 178.798 149.947 190.352 155.821C192.301 154.576 210.741 148.106 219.318 145.223C223.282 143.893 236.65 140.083 244.219 141.733" fill="#C4706A"/>
<path d="M238.956 151.639H238.877C235.608 154.831 232.787 158.417 229.36 161.449C219.205 170.451 206.889 174.995 193.341 177.889C191.561 178.272 188.269 178.336 184.82 177.463C186.276 178.357 188.829 179.23 189.948 179.549C201.358 182.784 235.586 168.217 235.586 168.217L238.967 151.639H238.956Z" fill="#AE646A"/>
<path d="M159.785 66.422L159.477 67.5L175.628 71.6788L175.936 70.6008L159.785 66.422Z" fill="#9BC2EE"/>
<path d="M154.504 70.2472L154.195 71.3252L178.773 77.6843L179.082 76.6063L154.504 70.2472Z" fill="#9BC2EE"/>
<path d="M150.754 74.461L150.445 75.5391L179.128 82.9604L179.437 81.8823L150.754 74.461Z" fill="#9BC2EE"/>
<path d="M149.36 79.2901L149.051 80.3682L177.734 87.7895L178.043 86.7114L149.36 79.2901Z" fill="#9BC2EE"/>
<path d="M147.977 84.131L147.668 85.209L176.351 92.6303L176.66 91.5523L147.977 84.131Z" fill="#9BC2EE"/>
<path d="M148.965 89.5626L148.656 90.6406L172.607 96.8376L172.916 95.7596L148.965 89.5626Z" fill="#9BC2EE"/>
<path d="M151.483 95.4015L151.174 96.4795L167.325 100.658L167.634 99.5803L151.483 95.4015Z" fill="#9BC2EE"/>
<path d="M156.86 68.0502L149.521 93.666L150.656 93.9595L157.994 68.3437L156.86 68.0502Z" fill="#9BC2EE"/>
<path d="M162.823 65.6581L153.379 98.625L154.513 98.9185L163.958 65.9516L162.823 65.6581Z" fill="#9BC2EE"/>
<path d="M168.006 65.8425L157.959 100.914L159.093 101.208L169.141 66.136L168.006 65.8425Z" fill="#9BC2EE"/>
<path d="M172.608 68.171L163.193 101.035L164.328 101.329L173.743 68.4645L172.608 68.171Z" fill="#9BC2EE"/>
<path d="M176.465 73.1342L169.127 98.75L170.261 99.0435L177.6 73.4277L176.465 73.1342Z" fill="#9BC2EE"/>
<path d="M145.398 146.957C143.864 146.564 142.968 145.063 143.382 143.606L148.712 125.017L154.254 126.453L148.925 145.053C148.51 146.511 146.932 147.362 145.398 146.968V146.957Z" fill="#4F7CC1"/>
<path d="M157.571 99.5781L148.465 131.364L151.047 132.032L160.153 100.246L157.571 99.5781Z" fill="#4F7CC1"/>
<path d="M158.23 102.15C149.687 99.9364 145.141 89.7959 148.075 79.5384C151.019 69.2809 160.346 62.7263 168.889 64.9396C177.421 67.1528 181.978 77.2933 179.045 87.5508C176.1 97.8083 166.773 104.363 158.23 102.15ZM168.273 67.0783C160.984 65.1949 152.934 71.0366 150.336 80.113C147.739 89.1894 151.557 98.1062 158.846 99.9896C166.135 101.873 174.185 96.0313 176.783 86.9549C179.38 77.8785 175.574 68.9617 168.273 67.0783Z" fill="#4F7CC1"/>
<path d="M152.799 139.157C153.291 137.656 153.123 135.975 152.351 134.581C152.082 134.102 151.712 133.634 151.186 133.411C150.817 133.262 150.391 133.241 149.988 133.262C149.171 133.283 148.365 133.411 147.57 133.624C147.391 133.677 147.189 133.741 147.066 133.868C146.607 134.358 147.536 134.72 147.928 134.73C148.409 134.752 148.891 134.709 149.372 134.783C149.328 135.528 149.037 136.263 149.07 137.007C149.115 137.976 149.708 138.827 150.324 139.593C150.761 140.136 151.354 140.721 152.082 140.657" fill="#C4706A"/>
<path d="M146.438 132.912C146.047 132.805 145.711 132.837 145.364 133.05C145.016 133.263 144.781 133.614 144.725 134.008C144.647 134.572 144.949 135.125 145.319 135.572C145.688 136.008 146.136 136.381 146.64 136.657C146.942 136.827 147.289 136.976 147.648 136.966C148.006 136.955 148.375 136.753 148.465 136.423C148.521 136.21 148.465 135.976 148.375 135.774C147.995 134.816 147.189 133.965 146.315 133.359" fill="#C4706A"/>
<path d="M145.654 134.157C145.263 134.05 144.826 134.104 144.479 134.316C144.132 134.529 143.897 134.88 143.841 135.274C143.762 135.838 144.065 136.391 144.434 136.838C144.803 137.274 145.251 137.647 145.755 137.923C146.058 138.094 146.405 138.243 146.763 138.232C147.121 138.221 147.491 138.019 147.58 137.689C147.636 137.477 147.58 137.242 147.491 137.04C147.11 136.083 146.438 135.231 145.565 134.636" fill="#C4706A"/>
<path d="M144.872 135.37C144.502 135.263 144.099 135.327 143.775 135.519C143.461 135.71 143.237 136.051 143.181 136.402C143.103 136.923 143.383 137.445 143.73 137.86C144.066 138.264 144.491 138.604 144.95 138.87C145.23 139.03 145.555 139.168 145.88 139.158C146.216 139.158 146.551 138.955 146.641 138.647C146.697 138.445 146.641 138.232 146.551 138.04C146.204 137.147 145.566 136.359 144.76 135.806" fill="#C4706A"/>
<path d="M144.278 137.072C143.942 136.987 143.561 137.029 143.27 137.2C142.979 137.37 142.766 137.657 142.722 137.966C142.654 138.423 142.912 138.87 143.237 139.232C143.55 139.583 143.942 139.881 144.368 140.115C144.625 140.253 144.927 140.381 145.23 140.37C145.532 140.37 145.857 140.19 145.924 139.934C145.969 139.764 145.924 139.572 145.846 139.402C145.521 138.625 144.939 137.934 144.188 137.455" fill="#C4706A"/>
<path d="M216.777 221.164C216.777 221.164 176.671 248.883 174.891 263.428C173.111 277.963 204.73 328.666 204.73 328.666H208.01C208.01 328.666 214.594 299.872 208.604 282.092C204.595 270.206 199.635 269.196 199.994 266.206C200.363 263.216 253.323 242.647 253.323 242.647" fill="#C4706A"/>
<path d="M200.731 238.338L188.482 244.648C187.844 246.946 188.729 249.393 189.983 251.447C191.237 253.501 192.871 255.352 193.935 257.502C194.831 259.31 195.2 261.279 195.491 263.279L195.267 263.545C195.447 264.875 195.592 265.971 195.782 266.333C195.861 266.472 195.928 266.599 196.006 266.738C196.208 267.929 196.477 269.1 196.891 270.217C198.66 274.931 202.131 278.878 203.967 283.571C205.12 286.508 209.174 297.946 208.838 314.439C208.994 315.482 209.677 317.025 209.845 318.068C211.211 308.065 212.275 293.009 208.591 282.103C204.583 270.217 199.623 269.206 199.981 266.216C200.093 265.269 205.501 262.556 212.812 259.289C212.868 259.268 212.913 259.247 212.969 259.215C213.462 259.002 213.955 258.778 214.458 258.555C214.458 258.555 214.47 258.555 214.481 258.555C215.018 258.321 215.567 258.076 216.115 257.842C212.633 250.223 208.132 242.658 200.72 238.349L200.731 238.338Z" fill="#AE646A"/>
<path d="M209.567 326.548C210.933 327.825 212.411 328.612 212.434 329.464C212.456 330.315 195.303 340.764 195.796 340.296C196.288 339.817 203.924 330.432 203.891 329.059L196.277 314.429C201.853 309.757 210.575 311.822 210.575 311.822L209.567 326.548Z" fill="#F9ECDD"/>
<path d="M197.363 316.535C198.147 316.131 200.969 314.716 204.003 314.333C207.015 313.96 209.568 314.418 210.385 314.492" stroke="#9BC2EE" stroke-miterlimit="10"/>
<g style="mix-blend-mode:multiply">
<path d="M209.568 326.548L210.576 311.821C210.576 311.821 209.859 311.651 208.717 311.523C208.672 312.587 209.311 320.206 209.087 326.42C209.031 327.963 210.15 329.293 211.192 330.581C211.975 330.006 212.446 329.602 212.446 329.453C212.423 328.602 210.945 327.814 209.579 326.537L209.568 326.548Z" fill="#F9ECDD"/>
</g>
<path d="M217.459 336.136C216.418 338.306 211.256 340.477 210.405 340.924C209.017 341.658 207.08 343.297 204.919 344.744C201.078 347.308 197.742 347.915 196.297 347.904C195.122 347.894 193.722 346.957 193.207 345.031C193.409 343.403 216.149 333.071 216.149 333.071C216.149 333.071 218.153 334.721 217.47 336.136H217.459Z" fill="#3A62EF"/>
<path d="M210.194 326.783C211.067 326.41 212.926 328.081 214.337 329.975C215.725 331.837 217.046 333.55 216.699 334.625C215.949 336.913 210.496 338.966 209.645 339.413C208.257 340.147 206.32 341.786 204.159 343.233C200.318 345.798 195.952 347.287 194.631 346.734C193.298 346.17 192.481 344.17 192.716 343.563C193.175 342.35 199.669 336.2 201.774 332.635C202.524 331.369 202.457 330.731 202.468 329.901C202.468 329.326 203.554 328.741 203.89 329.071C204.237 329.39 204.64 330.699 205.872 330.656C206.768 330.624 208.246 330.135 209.455 328.975C210.619 327.858 209.321 327.166 210.194 326.794V326.783Z" fill="#9BC2EE"/>
<path d="M205.737 335.38C205.524 335.454 205.289 335.39 205.143 335.22C204.203 334.124 202.994 333.23 201.639 332.656C201.37 332.539 201.247 332.241 201.37 331.985C201.493 331.73 201.807 331.613 202.076 331.73C203.576 332.379 204.919 333.369 205.961 334.582C206.151 334.795 206.118 335.124 205.882 335.295C205.838 335.337 205.782 335.359 205.726 335.38H205.737Z" fill="#3A62EF"/>
<path d="M203.654 337.359C203.441 337.434 203.195 337.359 203.049 337.189C202.277 336.231 201.124 335.348 199.959 334.848C199.69 334.731 199.567 334.433 199.69 334.178C199.814 333.922 200.127 333.805 200.396 333.922C201.717 334.486 203.027 335.476 203.9 336.572C204.08 336.795 204.035 337.115 203.8 337.285C203.755 337.317 203.71 337.338 203.654 337.359Z" fill="#3A62EF"/>
<path d="M201.495 339.455C201.271 339.53 201.013 339.455 200.868 339.264C200.308 338.487 199.166 337.349 198.281 336.849C198.024 336.7 197.945 336.391 198.102 336.146C198.259 335.902 198.584 335.827 198.841 335.976C199.894 336.572 201.125 337.827 201.752 338.689C201.92 338.923 201.853 339.232 201.618 339.392C201.584 339.413 201.539 339.434 201.495 339.455Z" fill="#3A62EF"/>
<path d="M241.03 200.809C231.032 205.139 195.796 232.911 186.771 243.36C189.604 250.308 197.923 260.066 206.198 267.631C213.52 274.324 224.246 277.133 224.246 277.133C224.246 277.133 259.46 248.329 263.099 228.527" fill="#9BC2EE"/>
<path d="M255.015 227.229C254.332 229.697 252.731 231.974 251.264 234.071C249.025 237.252 246.573 240.306 244.042 243.285C238.074 250.34 231.737 257.107 225.277 263.758C222.153 266.982 218.984 270.163 215.771 273.302C215.48 273.59 215.939 274.037 216.23 273.739C222.444 267.673 228.524 261.459 234.379 255.075C240.235 248.691 246.102 242.211 250.962 235.124C252.608 232.719 254.444 230.08 255.149 227.25C255.172 227.165 255.037 227.133 255.015 227.218V227.229Z" fill="white"/>
<path d="M252.372 226.187C251.689 228.655 250.088 230.932 248.621 233.029C246.382 236.21 243.93 239.264 241.4 242.243C235.432 249.298 229.095 256.065 222.634 262.716C219.51 265.94 216.342 269.121 213.128 272.26C212.837 272.548 213.296 272.995 213.587 272.697C219.801 266.631 225.881 260.417 231.737 254.033C237.593 247.649 243.46 241.169 248.319 234.082C249.965 231.677 251.801 229.038 252.507 226.208C252.529 226.123 252.395 226.091 252.372 226.176V226.187Z" fill="white"/>
<g style="mix-blend-mode:multiply">
<path d="M224.246 277.144C224.246 277.144 238.488 265.482 249.797 251.905C250.066 243.892 249.472 235.837 247.244 228.123L240.549 228.495C238.858 230.836 237.94 233.582 237.044 236.284C234.794 243.094 232.543 249.894 230.293 256.704C228.042 263.492 225.691 270.462 221.447 276.25C223.16 276.857 224.246 277.133 224.246 277.133V277.144Z" fill="#9BC2EE"/>
</g>
<path d="M238.139 232.325C238.139 232.325 239.09 272.695 244.935 294.956C252.459 323.632 278.514 358.011 278.514 358.011L282.869 357.458C282.869 357.458 286.351 328.856 281.425 315.566C276.498 302.276 269.915 299.542 269.556 294.094C269.198 288.646 282.477 257.565 278.178 229.154" fill="#C4706A"/>
<path d="M268.044 253.724L266.645 266.312C265.57 266.333 264.495 266.386 263.443 266.461C258.102 266.822 252.672 267.599 247.947 269.972L266.052 271.653L265.884 273.196C260.05 276.984 252.716 278.474 246.681 282.07C246.211 282.347 245.696 282.773 245.819 283.283C245.909 283.645 246.29 283.869 246.648 284.039C249.537 285.401 252.638 286.316 255.56 287.614C259.39 289.317 261.674 292.328 263.017 295.978C264.607 300.287 267.462 303.99 269.668 308.055C274.74 317.386 278.334 327.442 280.26 337.784C281.324 343.477 281.895 349.255 283.149 354.916C283.865 347.637 285.478 326.463 281.436 315.556C276.509 302.266 269.926 299.532 269.567 294.084C269.299 289.902 277.013 270.685 278.715 249.148C274.841 250 271.135 251.362 268.056 253.713L268.044 253.724Z" fill="#AE646A"/>
<path d="M240.467 215.705C236.649 225.494 232.517 268.823 233.939 282.272C241.116 285.262 254.261 286.55 265.749 286.305C275.904 286.092 285.567 280.847 285.567 280.847C285.567 280.847 288.914 236.816 276.699 220.387" fill="#9BC2EE"/>
<path d="M269.745 220.919C273.172 226.984 274.269 234.082 275.041 240.838C276.06 249.83 276.228 258.895 276.486 267.929C276.643 273.356 276.665 278.793 277.158 284.199C277.18 284.465 277.605 284.475 277.605 284.199C277.65 279.315 277.46 274.441 277.348 269.557C277.236 264.673 277.102 260.055 276.889 255.299C276.508 246.978 276.016 238.519 274.011 230.389C273.183 227.048 272.086 223.601 270.059 220.728C269.936 220.547 269.645 220.706 269.745 220.898V220.919Z" fill="white"/>
<path d="M266.857 220.919C270.283 226.984 271.38 234.082 272.153 240.838C273.172 249.83 273.34 258.895 273.597 267.929C273.754 273.356 273.776 278.793 274.269 284.199C274.291 284.465 274.717 284.475 274.717 284.199C274.762 279.315 274.571 274.441 274.459 269.557C274.347 264.673 274.213 260.055 274 255.299C273.62 246.978 273.127 238.519 271.123 230.389C270.294 227.048 269.197 223.601 267.17 220.728C267.047 220.547 266.756 220.706 266.857 220.898V220.919Z" fill="white"/>
<g style="mix-blend-mode:multiply">
<path d="M240.322 217.642C231.543 217.067 221.78 216.291 221.713 215.631C222.385 221.834 228.509 226.261 234.69 228.368C240.87 230.474 247.599 231.081 253.511 233.784C254.441 234.209 255.381 234.72 255.907 235.561C258.292 239.402 252.492 244.68 251.854 248.351C252.47 248.468 253.075 248.585 253.69 248.691C252.716 250.936 251.91 253.245 251.249 255.597C251.988 255.682 252.739 255.565 253.41 255.256C253.242 255.969 253.063 256.672 252.895 257.384C253.97 257.055 254.967 256.48 255.773 255.725C255.695 256.139 255.616 256.554 255.538 256.959C256.389 256.427 257.24 255.895 258.091 255.363C258.113 255.671 258.135 255.969 258.169 256.278C259.871 255.012 261.763 253.799 263.924 253.66C265.805 253.533 267.641 254.245 269.321 255.075C271.594 256.182 276.084 259.928 282.443 276.048C283.149 277.825 283.753 279.634 284.47 281.4C285.175 281.06 285.578 280.836 285.578 280.836C285.578 280.836 288.926 236.806 276.711 220.377C269.03 219.387 261.562 218.993 253.847 218.451C252.649 218.365 246.748 218.046 240.322 217.631V217.642Z" fill="#9BC2EE"/>
</g>
<path d="M283.911 343.849C283.911 343.849 280.462 343.221 276.028 344.444C272.781 345.338 270.777 347.147 270.777 347.147C270.777 347.147 277.618 357.192 278.144 358.66C277.842 360.001 267.608 367.268 267.004 367.63C266.41 367.981 285.657 361.618 285.836 360.788C286.027 359.958 284.616 359.022 283.597 357.479L283.911 343.849Z" fill="#F9ECDD"/>
<path d="M289.095 368.386C287.55 370.269 281.996 371.227 281.056 371.482C279.522 371.897 277.238 373.057 274.786 373.983C270.419 375.632 267.026 375.472 265.627 375.142C264.496 374.876 263.354 373.653 263.32 371.663C263.925 370.131 288.557 365.108 288.557 365.108C288.557 365.108 290.103 367.151 289.084 368.386H289.095Z" fill="#3A62EF"/>
<path d="M284.324 357.682C285.265 357.522 286.664 359.554 287.571 361.704C288.467 363.821 289.329 365.779 288.724 366.747C287.437 368.812 281.626 369.588 280.685 369.844C279.151 370.259 276.867 371.418 274.415 372.344C270.049 373.993 265.447 374.472 264.294 373.632C263.14 372.791 262.838 370.663 263.207 370.12C263.946 369.046 271.773 364.491 274.695 361.491C275.736 360.416 275.826 359.788 276.039 358.98C276.184 358.426 277.371 358.097 277.629 358.49C277.886 358.884 277.953 360.246 279.163 360.469C280.036 360.64 281.603 360.491 283.059 359.629C284.459 358.799 283.373 357.831 284.313 357.671L284.324 357.682Z" fill="#9BC2EE"/>
<path d="M277.886 365.056C277.662 365.077 277.449 364.971 277.348 364.769C276.71 363.492 275.747 362.364 274.572 361.491C274.336 361.321 274.292 361.002 274.482 360.778C274.661 360.555 274.997 360.523 275.232 360.693C276.531 361.662 277.606 362.917 278.311 364.332C278.434 364.588 278.322 364.886 278.065 365.013C278.009 365.035 277.953 365.056 277.897 365.056H277.886Z" fill="#3A62EF"/>
<path d="M275.367 366.523C275.143 366.545 274.919 366.428 274.818 366.226C274.303 365.119 273.396 364.012 272.388 363.267C272.153 363.097 272.108 362.778 272.287 362.555C272.467 362.331 272.803 362.289 273.038 362.459C274.191 363.299 275.21 364.555 275.792 365.811C275.915 366.066 275.792 366.364 275.512 366.481C275.456 366.502 275.411 366.513 275.355 366.523H275.367Z" fill="#3A62EF"/>
<path d="M272.759 368.078C272.524 368.099 272.289 367.971 272.199 367.758C271.841 366.886 271.012 365.513 270.285 364.832C270.072 364.641 270.072 364.311 270.285 364.109C270.486 363.906 270.833 363.906 271.046 364.109C271.919 364.928 272.815 366.407 273.218 367.397C273.319 367.663 273.184 367.95 272.916 368.056C272.871 368.078 272.826 368.078 272.781 368.088L272.759 368.078Z" fill="#3A62EF"/>
<path d="M272.211 349.275C272.816 348.881 274.663 347.338 277.507 346.626C281.135 345.71 282.758 345.934 283.811 345.966" stroke="#9BC2EE" stroke-miterlimit="10"/>
<g style="mix-blend-mode:multiply">
<path d="M283.91 343.849C283.91 343.849 282.634 343.615 280.641 343.711C281.122 349.286 282.275 354.809 284.1 360.129C284.257 360.576 284.425 361.033 284.627 361.48C285.366 361.15 285.813 360.906 285.847 360.789C286.037 359.959 284.627 359.022 283.608 357.479L283.921 343.849H283.91Z" fill="#F9ECDD"/>
</g>
<path d="M245.653 142.083C245.653 142.083 243.336 141.349 239.809 141.179C235.274 143.615 228.478 152.16 226.395 165.62C223.07 187.157 221.435 205.065 221.435 209.449C221.435 213.832 217.74 213.396 217.74 215.897C217.74 218.397 235.263 227.282 252.629 229.027C268.27 230.591 281.359 229.527 282.568 227.282C284.864 223.005 282.568 220.196 282.568 217.035C282.568 213.875 288.312 166.131 277.407 151.862C274.193 147.659 265.281 143.86 255.137 143.264C252.707 143.115 249.27 142.626 245.653 142.083Z" fill="#DC3D3E"/>
<g style="mix-blend-mode:multiply" opacity="0.55">
<path d="M277.407 151.873C276.299 150.426 274.496 149.021 272.201 147.776L260.052 153.884C254.51 162.279 253.267 173.122 256.761 182.454C260.131 191.445 270.409 199.266 269.558 208.268C268.741 216.94 269.11 218.664 264.632 222.92C263.49 224.005 246.784 227.346 243 227.464C246.034 228.145 249.259 228.698 252.618 229.038C268.26 230.602 281.348 229.538 282.558 227.293C284.853 223.016 282.558 220.207 282.558 217.046C282.558 213.886 288.313 166.142 277.396 151.873H277.407Z" fill="#B36F73"/>
</g>
<path d="M248.708 119.11C248.406 118.94 248.025 119.046 247.701 119.163C246.659 119.525 246.603 118.578 245.596 119.025C243.939 119.759 242.505 121.089 241.654 122.621C240.949 123.898 240.232 126.314 242.427 126.622C243.614 126.782 244.845 126.643 245.954 126.218" fill="#4B012A"/>
<path d="M249.435 120.302C245.673 120.036 245.125 120.036 241.296 126.591C239.168 130.241 238.183 134.082 240.153 136.657C241.844 138.87 250.41 140.434 254.104 135.401C257.81 130.368 255.963 120.771 249.435 120.313V120.302Z" fill="#C4706A"/>
<path d="M244.353 137.263L244.207 142.221C244.207 142.221 240.971 147.733 247.555 148.212C253.926 148.68 255.146 143.264 255.146 143.264L252.459 135.858" fill="#C4706A"/>
<path d="M252.437 132.23C251.664 131.56 251.754 130.368 252.101 129.432C252.437 128.485 252.974 127.548 252.84 126.559C252.661 125.112 251.16 124.165 249.738 123.601C248.551 123.133 246.984 122.728 246.066 121.834C245.081 120.877 244.789 119.047 244.946 117.78C244.98 117.482 245.047 117.185 245.204 116.929C245.719 116.089 247.018 116.025 247.958 116.418C248.171 116.504 248.395 116.621 248.63 116.61C248.82 116.61 248.988 116.525 249.167 116.461C252.717 115.11 256.087 118.121 258.483 120.217C259.323 120.951 260.42 121.675 260.666 122.803C260.812 123.462 260.621 124.186 260.879 124.814C261.047 125.208 261.383 125.527 261.629 125.878C262.301 126.878 262.211 128.187 261.819 129.304C260.733 132.379 257.688 134.38 254.844 136.167C254.273 136.518 253.534 136.88 252.963 136.54C252.717 136.391 252.56 136.135 252.47 135.869C252.157 134.933 252.661 133.816 253.59 133.39" fill="#4B012A"/>
<path d="M251.183 131.23C251.642 130.623 251.944 130.836 252.728 130.804C252.997 130.794 253.277 130.825 253.489 130.974C255.18 132.134 253.434 134.858 251.844 135.199C251.317 135.316 250.668 135.092 250.5 134.603" fill="#C4706A"/>
<path d="M258.583 176.006C258.583 176.006 268.011 194.329 279.611 205.363C269.444 215.025 260.599 248.862 260.599 248.862L262.334 250.426C262.334 250.426 298.858 224.314 298.858 204.235C298.858 190.179 291.244 173.239 287.773 164.695C283.921 155.225 271.415 144.446 263.633 149.915C255.852 155.374 254.821 165.216 258.583 176.006Z" fill="#C4706A"/>
<path d="M298.871 204.246C298.871 190.19 291.257 173.25 287.786 164.705C285.02 157.917 277.821 150.458 271.092 148.787C284.92 153.224 293.955 195.425 293.955 204.693C293.955 212.205 287.842 222.526 281.314 234.156C290.204 225.229 298.871 214.024 298.871 204.246Z" fill="#AE646A"/>
<path d="M261.484 246.201C258.472 245.967 256.501 246.552 253.669 247.563C252.851 247.85 251.261 248.627 251.508 249.255C251.754 249.882 253.143 249.489 253.96 249.169C251.732 250.319 250.086 255.373 250.881 255.66C251.485 255.884 252.325 254.873 252.683 253.883C253.042 252.894 254.072 251.51 254.99 251.127C253.445 252.596 252.728 254.713 252.672 256.926C252.672 257.214 252.706 257.554 252.963 257.703C253.4 257.948 253.859 257.437 254.083 257.001C255.068 255.107 255.527 253.224 257.128 251.755C255.919 253.245 254.945 257.033 255.415 257.033C255.886 257.033 256.3 256.809 256.602 256.341C256.905 255.873 257.252 255.224 257.442 254.713C257.789 253.745 258.36 252.851 259.11 252.106C257.946 253.639 257.453 256.32 258.181 256.522C258.92 256.714 259.211 254.16 260.387 253.202C260.734 252.915 261.618 252.372 261.988 252.106C263.175 251.255 263.343 250.255 263.343 249.457" fill="#C4706A"/>
<path d="M123.228 77.2514L118.85 79.1455C118.85 79.1455 117.786 80.2627 116.129 81.4013C114.472 82.5398 110.889 83.54 110.889 83.54L108.09 82.8058L109.848 80.3053C109.848 80.3053 114.17 78.8369 115.547 78.5815C116.935 78.3261 118.738 78.656 118.738 78.656L123.485 76.6875" fill="#CEE2F7"/>
<path d="M122.948 77.3049L118.234 78.2306C118.234 78.2306 116.947 79.0925 115.054 79.8586C113.173 80.6248 109.445 80.8376 109.445 80.8376L106.881 79.5288L109.176 77.4645C109.176 77.4645 113.733 76.9431 115.144 76.9857C116.555 77.0282 118.245 77.7305 118.245 77.7305L123.329 76.8154" fill="#CEE2F7"/>
<path d="M123.027 74.3462L118.425 72.9948C118.425 72.9948 117.227 72.0159 115.424 71.0795C113.621 70.1432 109.938 69.5898 109.938 69.5898L107.262 70.6539L109.344 72.9203C109.344 72.9203 113.823 73.8567 115.234 73.9418C116.644 74.027 118.391 73.4843 118.391 73.4843L123.362 74.8569" fill="#CEE2F7"/>
<path d="M122.758 74.3351L117.955 73.9839C117.955 73.9839 116.556 73.2816 114.585 72.7496C112.614 72.2176 108.886 72.4517 108.886 72.4517L106.523 74.0584L109.076 75.8354C109.076 75.8354 113.667 75.8035 115.055 75.5906C116.455 75.3778 118.034 74.4734 118.034 74.4734L123.195 74.7713" fill="#CEE2F7"/>
<path d="M122.914 75.8781H118.1C118.1 75.8781 116.655 75.2823 114.64 74.8886C112.636 74.5055 108.941 75.0056 108.941 75.0056L106.713 76.7826L109.4 78.368C109.4 78.368 113.968 78.0063 115.345 77.687C116.723 77.3785 118.223 76.357 118.223 76.357L123.396 76.2718" fill="#CEE2F7"/>
<path d="M123.352 77.7833L118.773 79.2092C118.773 79.2092 117.586 80.2094 115.805 81.167C114.025 82.1247 110.353 82.7418 110.353 82.7418L107.654 81.7203L109.692 79.422C109.692 79.422 114.16 78.4217 115.559 78.3153C116.97 78.2089 118.728 78.7303 118.728 78.7303L123.677 77.2832" fill="#9BC2EE"/>
<path d="M123.23 76.3889L118.516 77.1657C118.516 77.1657 117.228 77.985 115.347 78.6979C113.466 79.4002 109.738 79.5066 109.738 79.5066L107.174 78.1233L109.469 76.1335C109.469 76.1335 114.026 75.7505 115.437 75.8356C116.848 75.9207 118.538 76.6762 118.538 76.6762L123.622 75.9207" fill="#9BC2EE"/>
<path d="M123.084 73.6975L118.359 72.8356C118.359 72.8356 117.049 71.9843 115.156 71.2501C113.264 70.516 109.536 70.3457 109.536 70.3457L106.994 71.6864L109.323 73.7188C109.323 73.7188 113.88 74.1763 115.291 74.1125C116.702 74.0486 118.381 73.3251 118.381 73.3251L123.476 74.1657" fill="#9BC2EE"/>
<path d="M123.15 75.0797L118.369 74.8669C118.369 74.8669 116.981 74.2072 115.022 73.7284C113.062 73.2496 109.345 73.6007 109.345 73.6007L106.982 75.2819L109.524 76.9844C109.524 76.9844 114.092 76.8142 115.481 76.5588C116.869 76.3034 118.448 75.3458 118.448 75.3458L123.598 75.4841" fill="#9BC2EE"/>
<path d="M122.209 73.3889C124.258 73.2612 125.982 74.2614 126.083 75.6234C126.173 76.9748 124.594 78.1772 122.545 78.3048L122.22 73.3889H122.209Z" fill="#3A62EF"/>
<path d="M121.593 78.3363C121.761 76.7402 121.593 75.1016 121.324 73.5268C121.313 73.4523 121.201 73.4842 121.201 73.5587C121.436 75.1441 121.459 76.7402 121.492 78.3363C121.492 78.3895 121.571 78.3895 121.582 78.3363H121.593Z" fill="#9BC2EE"/>
<path d="M120.518 78.6237C120.664 76.9425 120.574 75.2506 120.362 73.5694C120.35 73.4417 120.138 73.4417 120.149 73.5694C120.317 75.2506 120.373 76.9318 120.418 78.6237C120.418 78.6875 120.507 78.6769 120.518 78.6237Z" fill="#9BC2EE"/>
<path d="M416.973 210.226C418.854 211.631 420.724 212.759 423.03 212.588C425.751 212.312 427.71 210.556 429.401 208.364C429.782 207.875 430.117 205.906 430.476 205.374C431.707 203.576 432.872 203.118 434.115 201.586L431.472 218.334C428.852 220.707 429.569 223.889 430.14 227.347L420.645 220.164L416.973 210.215V210.226Z" fill="#FF695F"/>
<path d="M485.271 280.028C482.595 276.453 482.819 286.572 485.147 283.103L485.271 280.028Z" fill="#FF695F"/>
<path d="M425.872 273.036C432.489 280.134 441.648 291.242 445.22 292.966C448.803 294.701 480.209 303.841 487.151 294.871C489.569 291.753 492.133 284.72 489.614 281.9C487.711 279.548 481.25 281.56 482.404 291.764C481.844 291.36 461.903 279.346 454.211 278.282C452.464 278.038 453.08 277.931 452.71 276.186C451.243 269.099 448.702 256.437 448.702 256.437L447.918 252.617C447.918 252.617 423.308 251.755 420.621 256.586C418.583 260.342 419.949 270.802 425.861 273.026L425.872 273.036Z" fill="#E79F80"/>
<path d="M431.707 259.108C425.324 262.992 443.709 284.699 447.796 287.444C451.883 290.19 483.211 296.127 482.517 294.903L484.017 297.202C473.604 301.894 448.401 294.499 445.221 292.967C441.638 291.232 432.479 280.134 425.873 273.037C424.35 272.462 423.13 271.334 422.189 269.919L423.679 261.215L431.707 259.119V259.108Z" fill="#E79277"/>
<path d="M344.585 216.567C337.419 218.748 328.731 221.887 324.151 227.74L323.132 229.166C313.615 232.219 308.409 233.326 300.683 237.508L298.455 252.639L310.29 280.123C319.527 279.581 328.809 278.304 334.508 275.346L337.923 279.581L360.686 282.549L376.73 273.079L377.917 267.972C372.733 261.226 366.474 254.788 359.23 250.053L347.283 233.975L344.316 222.952L344.585 216.546" fill="#FFFDEE"/>
<path d="M377.93 267.982C388.119 281.251 394.121 295.722 395.24 300.734C398.566 315.705 400.458 332.017 404.153 346.903C405.72 353.224 409.964 367.504 414.364 369.802C416.928 371.143 427.363 368.589 424.754 373.388C419.078 377.378 414.207 379.464 411.341 381.943C409.012 383.943 404.97 383.624 403.761 375.984C402.16 365.833 369.264 329.9 372.578 315.79C364.786 306.852 349.928 293.935 337.947 279.602C348.853 282.975 368.66 279.4 377.941 267.993L377.93 267.982Z" fill="#E79F80"/>
<path d="M379.889 311.066C380.371 318.365 374.459 324.771 407.466 374.898C409.258 377.612 416.099 378.293 420.466 376.165C416.648 378.484 413.434 380.112 411.329 381.932C409 383.932 404.958 383.613 403.749 375.973C402.148 365.822 369.252 329.889 372.567 315.779C364.774 306.841 349.916 293.934 337.936 279.591C343.075 281.176 350.196 281.219 357.261 279.633C364.371 289.444 379.419 303.756 379.9 311.066H379.889Z" fill="#E79277"/>
<path d="M310.292 280.134C313.125 273.867 298.267 249.936 300.686 237.518C299.465 238.178 298.189 238.912 296.823 239.742C290.34 243.679 279.882 252.266 271.922 251.553C265.864 250.532 262.505 242.158 256.28 239.083C246.864 234.422 236.518 233.166 227.314 227.569C222.612 225.899 223.944 218.514 218.436 221.281C214.326 223.335 211.359 225.91 208.191 228.953C205.336 231.602 200.857 236.433 206.836 236.316C211.628 236.22 215.737 229.634 225.355 238.997C235.286 248.648 245.095 258.831 255.754 267.993C267.813 278.346 278.55 281.56 293.587 280.698C297.842 280.464 304.213 280.506 310.304 280.144L310.292 280.134Z" fill="#E79F80"/>
<path d="M217.986 229.752C222.431 229.22 265.079 267.345 271.181 269.154C278.559 271.346 299.631 264.632 306.193 262.589C309.048 270.324 311.634 277.177 310.302 280.124C304.211 280.486 297.84 280.433 293.585 280.678C278.548 281.539 267.811 278.326 255.752 267.973C245.093 258.811 235.285 248.639 225.353 238.977C215.735 229.624 211.626 236.2 206.834 236.296C206.543 236.296 206.285 236.296 206.039 236.275C206.039 236.275 213.552 230.273 217.986 229.741V229.752Z" fill="#E79277"/>
<path d="M405.663 352.415C407.723 359.268 410.992 368.035 414.362 369.791C416.926 371.132 427.362 368.578 424.753 373.377C419.076 377.367 414.206 379.453 411.339 381.932C409.01 383.932 404.968 383.613 403.759 375.973C403.266 372.877 399.874 367.397 395.496 360.874C395.496 360.874 395.496 360.874 395.496 360.885C397.377 363.651 406.793 355.969 405.663 352.415Z" fill="#FFFDEE"/>
<path d="M410.771 372.175C410.838 368.185 410.681 365.376 411.89 367.344C412.696 368.504 413.525 369.366 414.354 369.802C416.918 371.143 427.353 368.589 424.744 373.388C419.067 377.378 414.197 379.464 411.33 381.943C409.002 383.944 404.96 383.624 403.75 375.984C403.683 375.569 403.549 375.091 403.381 374.591V374.58C404.176 376.538 410.703 376.165 410.771 372.186V372.175Z" fill="#002A4C"/>
<path d="M227.056 240.646C226.485 240.093 225.925 239.529 225.354 238.976C215.736 229.623 211.627 236.199 206.835 236.295C200.856 236.412 205.346 231.591 208.19 228.931C211.359 225.888 214.326 223.313 218.435 221.259C223.943 218.493 222.611 225.877 227.314 227.548C229.9 229.123 232.565 230.346 235.286 231.4C233.147 230.527 225.13 238.742 227.056 240.625V240.646Z" fill="#FFFDEE"/>
<path d="M217.987 229.751C218.323 231.687 219.823 234.73 217.449 234.134C212.96 233.251 210.048 236.241 206.835 236.305C200.856 236.422 205.346 231.602 208.19 228.942C211.359 225.899 214.326 223.324 218.435 221.27C223.44 218.759 222.813 224.6 226.172 226.952V226.984C220.976 223.877 217.651 227.803 217.987 229.751Z" fill="#002A4C"/>
<path d="M366.689 211.939C369.286 213.759 371.929 215.514 374.661 217.132C377.169 218.621 379.755 219.983 382.42 221.218C383.931 221.92 385.476 222.569 387.033 223.186C387.078 223.207 387.167 223.112 387.111 223.09C384.402 221.994 381.737 220.781 379.15 219.441C376.497 218.057 373.922 216.536 371.413 214.918C369.857 213.918 368.334 212.886 366.834 211.822C366.767 211.779 366.644 211.907 366.7 211.95L366.689 211.939Z" fill="#002A4C"/>
<path d="M381.277 183.06C360.933 172.536 339.581 165.077 318.318 155.628C314.903 154.096 308.185 153.437 304.311 151.564C303.281 151.17 302.251 150.766 301.132 150.457C299.396 150 298.814 150.968 300.728 151.851C299.855 151.532 299.62 151.457 298.747 151.138C298.041 150.989 296.395 150.957 297.381 152.053C297.761 152.436 298.299 152.649 299.06 152.947C298.422 152.628 296.709 151.649 296.048 152.011C294.145 153.053 297.761 154.203 299.15 154.862C299.284 154.926 299.418 154.99 299.564 155.043C298.366 154.564 297.549 154.128 296.295 153.99C295.432 153.937 294.66 154.128 295.164 154.894C295.668 155.66 296.922 155.788 297.638 156.107C299.385 156.735 301.132 157.384 302.889 158.086C303.998 158.533 304.95 159.225 304.558 160.012C303.83 160.715 300.829 160.151 300.023 161.087C298.288 163.088 302.184 162.555 303.416 162.353C307.234 161.747 307.133 162.928 308.23 163.992C309.529 165.248 313.291 167.333 318.038 171.366C333.187 184.252 347.933 198.68 364.09 209.991L368.949 213.205L383.023 186.784L381.288 183.049L381.277 183.06Z" fill="#E79F80"/>
<path d="M308.891 160.683C308.891 160.683 315.844 165.865 318.296 167.844C320.737 169.824 321.576 168.249 321.576 168.249C321.576 168.249 339.972 183.997 349.646 192.179C359.309 200.362 372.286 205.097 376.07 198.521L376.126 199.745L368.949 213.216L364.09 210.002C349.21 199.575 335.505 186.497 321.588 174.42C320.558 175.208 318.856 173.633 317.669 172.622C310.436 165.865 308.107 165.216 308.241 163.993C307.144 162.929 307.245 161.747 303.427 162.354C302.542 162.492 300.258 162.811 299.721 162.216C304.02 160.822 308.488 161.747 308.902 160.662L308.891 160.683Z" fill="#E79277"/>
<path d="M431.45 256.916C428.404 258.278 425.269 259.448 422.067 260.417C419.033 261.332 415.931 262.066 412.796 262.587C411.061 262.875 409.314 263.109 407.567 263.279C407.478 263.279 407.355 263.481 407.478 263.47C410.59 263.183 413.681 262.704 416.726 262.023C419.906 261.321 423.041 260.406 426.098 259.299C427.911 258.64 429.692 257.916 431.45 257.129C431.573 257.075 431.629 256.841 431.45 256.916Z" fill="#002A4C"/>
<path d="M308.221 163.651C308.366 162.385 308.904 160.512 309.352 159.214C310.079 157.086 310.908 154.692 311.703 152.638C311.972 151.968 312.666 151.968 314.099 152.564C315.532 153.16 320.772 155.628 323.381 156.639C325.99 157.65 325.71 158.853 325.71 158.853C323.829 159.587 320.246 171.494 320.738 173.579C320.772 173.696 320.794 173.781 320.828 173.866L321.433 174.377C321.433 174.377 321.074 175.484 318.331 173.196C315.588 170.908 311.098 166.758 309.99 166.067C308.881 165.375 308.131 164.535 308.232 163.651H308.221Z" fill="#002A4C"/>
<path d="M499.425 252.362L499.279 252.351L503.12 204.182L503.265 204.192L499.425 252.362Z" fill="#002A4C"/>
<path d="M503.254 248.734L503.098 248.723L506.322 208.278L506.468 208.289L503.254 248.734Z" fill="#002A4C"/>
<path d="M507.308 242.743L507.162 242.733L509.547 212.812L509.693 212.822L507.308 242.743Z" fill="#002A4C"/>
<path d="M509.368 238.009L509.223 237.998L510.958 216.312L511.104 216.323L509.368 238.009Z" fill="#002A4C"/>
<path d="M495.864 254.405L495.719 254.395L499.615 202.66L499.761 202.671L495.864 254.405Z" fill="#002A4C"/>
<path d="M496.35 201.577L491.873 255.763L492.018 255.774L496.495 201.588L496.35 201.577Z" fill="#002A4C"/>
<path d="M492.679 200.779L488.52 254.731L488.665 254.742L492.824 200.79L492.679 200.779Z" fill="#002A4C"/>
<path d="M489.117 200.94L484.885 255.324L485.03 255.334L489.262 200.95L489.117 200.94Z" fill="#002A4C"/>
<path d="M485.673 200.689L481.586 253.707L481.731 253.717L485.818 200.699L485.673 200.689Z" fill="#002A4C"/>
<path d="M478.42 250.203L478.264 250.192L482.182 201.927L482.328 201.937L478.42 250.203Z" fill="#002A4C"/>
<path d="M475.175 245.84H475.029L478.108 205.129L478.254 205.14L475.175 245.84Z" fill="#002A4C"/>
<path d="M474.488 209.012L472.057 240.551L472.202 240.561L474.633 209.022L474.488 209.012Z" fill="#002A4C"/>
<path d="M497.466 252.405L497.32 252.394L501.161 204.225L501.317 204.235L497.466 252.405Z" fill="#002A4C"/>
<path d="M504.459 206.048L501.166 248.762L501.311 248.772L504.604 206.058L504.459 206.048Z" fill="#002A4C"/>
<path d="M505.405 245.254L505.26 245.243L507.902 210.257L508.048 210.267L505.405 245.254Z" fill="#002A4C"/>
<path d="M493.917 254.448L493.771 254.438L497.668 202.703L497.813 202.714L493.917 254.448Z" fill="#002A4C"/>
<path d="M494.349 201.609L489.922 255.798L490.067 255.809L494.495 201.62L494.349 201.609Z" fill="#002A4C"/>
<path d="M490.71 200.81L486.551 254.762L486.696 254.772L490.855 200.82L490.71 200.81Z" fill="#002A4C"/>
<path d="M487.171 200.989L482.979 255.376L483.124 255.386L487.316 200.999L487.171 200.989Z" fill="#002A4C"/>
<path d="M483.716 200.729L479.629 253.747L479.774 253.757L483.861 200.739L483.716 200.729Z" fill="#002A4C"/>
<path d="M476.606 248.415L476.461 248.404L480.234 201.969L480.38 201.979L476.606 248.415Z" fill="#002A4C"/>
<path d="M473.427 243.179L473.281 243.168L476.159 205.171L476.304 205.182L473.427 243.179Z" fill="#002A4C"/>
<path d="M472.538 209.033L470.402 236.475L470.548 236.485L472.683 209.043L472.538 209.033Z" fill="#002A4C"/>
<path d="M478.588 252.607C480.246 254.331 484.545 261.726 484.747 263.822C485.239 268.951 484.847 271.962 484.545 278.91C484.399 280.198 484.276 282.549 486.001 283.209C488.117 284.071 488.811 282.741 488.956 280.879C489.348 275.761 489.718 269.132 489.975 264.258C490.065 262.481 495.562 256.672 497.242 255.522C511.249 245.925 516.87 225.005 510.532 211.981C504.934 200.128 490.446 194.626 479.82 201.426C463.619 212.364 465.634 239.051 478.611 252.607H478.588ZM483.381 256.161C483.381 256.161 487.143 259.289 491.297 257.587C491.173 257.821 487.098 262.311 487.098 262.311L483.381 256.161ZM480.929 204.171C490.446 198.095 503.4 203.011 508.416 213.62C514.697 226.506 507.677 248.297 494.32 253.565C491.789 254.565 487.557 255.852 483.896 253.096C469.116 241.934 464.94 214.961 480.929 204.182V204.171Z" fill="#007F6E"/>
<path d="M487.153 294.871C486.705 295.371 482.495 292.988 482.394 291.764L481.823 291.477C481.823 291.477 481.353 294.084 484.018 297.212C484.018 297.212 486.078 296.488 487.153 294.86V294.871Z" fill="#FFFDEE"/>
<g style="mix-blend-mode:multiply" opacity="0.5">
<path d="M334.509 275.357C331.34 268.408 325.552 242.552 325.552 242.541C329.616 263.237 312.508 260.066 306.182 262.598C306.182 262.598 312.228 276.985 310.291 280.134C310.291 280.134 330.993 277.038 334.509 275.357Z" fill="#B2B4C1"/>
</g>
<g style="mix-blend-mode:multiply" opacity="0.2">
<path d="M329.324 258.236C329.324 258.236 341.45 279.911 348.056 279.9C348.056 279.9 340.263 280.858 337.923 279.592C335.583 278.326 333.803 274.048 332.672 270.281C331.552 266.525 329.324 258.236 329.324 258.236Z" fill="#B2B4C1"/>
</g>
<g style="mix-blend-mode:multiply" opacity="0.5">
<path d="M342.111 222.866C342.47 239.838 356.152 255.235 377.918 267.982L366.206 255.373C366.206 255.373 343.253 243.179 342.111 222.855V222.866Z" fill="#B2B4C1"/>
</g>
<path d="M405.384 263.567C410.31 262.854 418.517 271.888 425.873 273.026C418.506 263.663 446.923 246.68 448.715 256.427C443.71 229.272 421.272 208.119 400.995 194.829C394.355 190.477 388.925 187.306 382.14 183.805L381.277 183.05C381.871 188.891 370.114 212.96 365.389 210.928C357.821 207.981 340.276 213.407 342.291 224.601C346.288 246.808 372.656 266.61 405.384 263.567Z" fill="#002A4C"/>
<path d="M431.573 221.633C431.573 221.633 431.193 224.027 423.758 224.272C423.758 224.272 424.687 214.078 422.045 211.429L428.684 215.323L431.562 221.633H431.573Z" fill="#FF695F"/>
<path d="M365.927 211.056C362.512 210.268 355.951 214.078 354.675 221.664C354.675 221.664 354.272 212.811 358.437 210.236C358.437 210.236 363.587 210.226 365.916 211.045L365.927 211.056Z" fill="#1D1D1D"/>
<path d="M365.928 211.055C369.88 213.098 384.816 227.059 384.816 227.059L369.298 208.991C369.298 208.991 368.077 211.024 365.939 211.055H365.928Z" fill="#1D1D1D"/>
<g style="mix-blend-mode:multiply" opacity="0.5">
<path d="M389.037 245.744C408.81 251.607 419.201 255.001 422.381 258.396C424.788 260.971 427.744 262.886 430.576 260.077C425.863 264.11 422.862 269.238 425.885 273.08C418.529 271.941 410.322 262.907 405.395 263.62C372.668 266.663 346.3 246.861 342.303 224.654C340.287 213.461 357.843 208.034 365.401 210.981C365.569 211.056 365.748 211.088 365.927 211.098H365.939C357.048 217.1 369.264 239.892 389.048 245.755L389.037 245.744Z" fill="#B2B4C1"/>
</g>
<g style="mix-blend-mode:multiply" opacity="0.5">
<path d="M431.473 218.334L430.555 219.388L431.361 221.165C430.801 221.59 429.144 222.644 428.058 220.75C426.043 217.249 428.506 212.014 430.051 209.152C430.264 208.747 430.017 206.108 430.017 206.108L431.551 204.363C431.551 204.363 432.839 205.502 432.929 206.002C433.007 206.502 433.287 212.631 433.231 212.865C433.175 213.099 431.473 218.324 431.473 218.324V218.334Z" fill="#B2B4C1"/>
</g>
<path d="M440.285 214.428C437.62 218.493 433.343 221.291 431.417 218.887C430.745 218.046 429.749 215.418 429.838 212.992C429.861 212.279 430.678 210.417 430.678 209.715C429.648 209.746 429.693 208.533 429.793 207.821C430.432 203.203 433.108 200.787 436.142 200.436C440.24 199.957 443.509 203.607 443.498 207.672C443.498 209.321 441.315 212.864 440.296 214.418L440.285 214.428Z" fill="#FF695F"/>
<path d="M441.302 212.599C441.918 211.662 442.735 209.534 442.522 208.438C442.198 206.8 438.144 203.458 436.599 204.065C435.468 204.554 432.221 209.438 431.718 209.077C431.203 208.726 432.602 204.746 431.147 205.438C430.172 205.927 430.161 207.576 429.456 208.321C428.762 203.267 435.222 196.287 440.081 200.085C442.388 201.841 445.12 205.406 443.687 208.566C443.082 209.864 442.31 211.173 441.537 212.386" fill="#002A4C"/>
<path d="M419.694 319.366C419.85 322.941 423.03 325.729 426.792 325.601C430.554 325.463 433.477 322.462 433.32 318.887C433.163 315.312 429.983 312.524 426.221 312.652C422.459 312.779 419.537 315.791 419.694 319.366Z" fill="#FF9B26"/>
</g>
<defs>
<linearGradient id="paint0_linear_338_20649" x1="292.924" y1="208.677" x2="235.711" y2="208.299" gradientUnits="userSpaceOnUse">
<stop stop-color="white" stop-opacity="0"/>
<stop offset="0.02" stop-color="#F6F6F8" stop-opacity="0.05"/>
<stop offset="0.09" stop-color="#E1E2E7" stop-opacity="0.19"/>
<stop offset="0.17" stop-color="#CFD1D9" stop-opacity="0.31"/>
<stop offset="0.27" stop-color="#C2C3CE" stop-opacity="0.39"/>
<stop offset="0.38" stop-color="#B8BAC6" stop-opacity="0.46"/>
<stop offset="0.55" stop-color="#B3B5C2" stop-opacity="0.49"/>
<stop offset="1" stop-color="#B2B4C1" stop-opacity="0.5"/>
</linearGradient>
<linearGradient id="paint1_linear_338_20649" x1="317.486" y1="219.283" x2="293.851" y2="219.127" gradientUnits="userSpaceOnUse">
<stop stop-color="white" stop-opacity="0"/>
<stop offset="0.02" stop-color="#F6F6F8" stop-opacity="0.05"/>
<stop offset="0.09" stop-color="#E1E2E7" stop-opacity="0.19"/>
<stop offset="0.17" stop-color="#CFD1D9" stop-opacity="0.31"/>
<stop offset="0.27" stop-color="#C2C3CE" stop-opacity="0.39"/>
<stop offset="0.38" stop-color="#B8BAC6" stop-opacity="0.46"/>
<stop offset="0.55" stop-color="#B3B5C2" stop-opacity="0.49"/>
<stop offset="1" stop-color="#B2B4C1" stop-opacity="0.5"/>
</linearGradient>
<linearGradient id="paint2_linear_338_20649" x1="338.466" y1="145.381" x2="303.757" y2="145.151" gradientUnits="userSpaceOnUse">
<stop stop-color="white" stop-opacity="0"/>
<stop offset="0.02" stop-color="#F6F6F8" stop-opacity="0.05"/>
<stop offset="0.09" stop-color="#E1E2E7" stop-opacity="0.19"/>
<stop offset="0.17" stop-color="#CFD1D9" stop-opacity="0.31"/>
<stop offset="0.27" stop-color="#C2C3CE" stop-opacity="0.39"/>
<stop offset="0.38" stop-color="#B8BAC6" stop-opacity="0.46"/>
<stop offset="0.55" stop-color="#B3B5C2" stop-opacity="0.49"/>
<stop offset="1" stop-color="#B2B4C1" stop-opacity="0.5"/>
</linearGradient>
<linearGradient id="paint3_linear_338_20649" x1="332.791" y1="231.367" x2="236.816" y2="230.732" gradientUnits="userSpaceOnUse">
<stop stop-color="white" stop-opacity="0"/>
<stop offset="0.02" stop-color="#F6F6F8" stop-opacity="0.05"/>
<stop offset="0.09" stop-color="#E1E2E7" stop-opacity="0.19"/>
<stop offset="0.17" stop-color="#CFD1D9" stop-opacity="0.31"/>
<stop offset="0.27" stop-color="#C2C3CE" stop-opacity="0.39"/>
<stop offset="0.38" stop-color="#B8BAC6" stop-opacity="0.46"/>
<stop offset="0.55" stop-color="#B3B5C2" stop-opacity="0.49"/>
<stop offset="1" stop-color="#B2B4C1" stop-opacity="0.5"/>
</linearGradient>
<clipPath id="clip0_338_20649">
<rect width="620" height="400" fill="white"/>
</clipPath>
</defs>
</svg>
