<svg width="620" height="400" viewBox="0 0 620 400" fill="none" xmlns="http://www.w3.org/2000/svg">
<g clip-path="url(#clip0_342_21813)">
<path d="M561.498 323.846C556.482 305.385 566.727 286.679 575.606 269.579C583.142 255.066 590.005 239.903 591.92 223.814C593.834 207.726 590.24 190.424 578.954 178.305C558.789 156.651 523.374 158.375 493.155 161.684C462.935 164.983 427.33 166.206 407.758 144.074C396.382 131.21 393.673 113.61 388.746 97.4683C379.464 67.0789 355.728 36.4022 322.474 34.689C300.081 33.5398 279.501 45.8191 261.878 58.9921C235.431 78.7622 211.303 102.065 195.269 130.177C186.547 145.468 180.355 161.94 172.182 177.496C157.066 206.268 133.352 232.944 101.117 242.733C77.4027 249.937 50.4189 247.66 29.0446 259.79C-2.64173 277.773 -8.03848 322.878 11.1189 352.863C16.8515 361.844 24.1741 369.579 32.5827 376.177C52.5575 391.829 77.873 400.001 103.759 400.001H571.206C587.083 400.001 598.111 384.604 591.875 370.729C591.83 370.633 591.797 370.548 591.752 370.452C584.026 353.619 566.335 341.616 561.51 323.846H561.498Z" fill="#FFA09C"/>
<path d="M124.127 200.672C115.483 203.651 104.577 202.247 98.9902 195.543C91.8692 186.999 95.8552 174.698 100.132 164.59C106.929 148.501 139.992 109.95 156.709 138.648C168.387 158.695 144.426 193.67 124.127 200.672Z" fill="#FFA09C"/>
<path d="M460.696 143.787C471.12 143.265 482.081 138.254 485.944 129.039C489.247 121.133 486.459 111.673 480.368 105.427C468.556 93.3079 435.739 87.4449 425.886 105.098C414.264 125.921 441.024 144.787 460.696 143.787Z" fill="#FFA09C"/>
<path d="M324.256 390.094C411.106 390.094 481.512 386.911 481.512 382.986C481.512 379.06 411.106 375.878 324.256 375.878C237.406 375.878 167 379.06 167 382.986C167 386.911 237.406 390.094 324.256 390.094Z" fill="#FFA09C"/>
<path d="M118.205 388.508C139.966 388.508 157.606 386.508 157.606 384.039C157.606 381.571 139.966 379.57 118.205 379.57C96.445 379.57 78.8047 381.571 78.8047 384.039C78.8047 386.508 96.445 388.508 118.205 388.508Z" fill="#FFA09C"/>
<path d="M531.639 388.508C553.4 388.508 571.04 386.508 571.04 384.039C571.04 381.571 553.4 379.57 531.639 379.57C509.879 379.57 492.238 381.571 492.238 384.039C492.238 386.508 509.879 388.508 531.639 388.508Z" fill="#FFA09C"/>
<path d="M80.9279 290.775C81.5325 290.52 81.7676 289.807 81.4094 289.275C59.4081 255.789 49.9917 231.018 54.168 217.324C54.336 216.77 54.0001 216.185 53.4179 216.025C52.8357 215.866 52.2198 216.185 52.0519 216.738C49.4991 225.123 51.6152 237.19 58.3444 252.608C63.1365 263.568 70.2463 276.251 79.5283 290.371C79.8194 290.807 80.4017 290.978 80.8943 290.775C80.8943 290.775 80.9055 290.775 80.9167 290.775H80.9279Z" fill="#3D6D89"/>
<path d="M53.5529 238.393C53.5529 238.393 45.4577 242.574 38.2695 228.774C38.2695 228.774 52.5676 225.709 53.5529 238.393Z" fill="#325465"/>
<path d="M56.8669 245.702C56.8669 245.702 52.0188 238.254 66.1265 230.667C66.1265 230.667 70.1461 244.063 56.8669 245.702Z" fill="#325465"/>
<path d="M52.1654 223.538C52.1654 223.538 44.9772 218.058 55.6252 206.428C55.6252 206.428 64.1122 217.781 52.1654 223.538Z" fill="#325465"/>
<path d="M63.0702 260.577C63.0702 260.577 56.9456 267.121 45.2676 256.438C45.2676 256.438 57.6286 248.958 63.0702 260.577Z" fill="#325465"/>
<path d="M67.6384 267.536C67.6384 267.536 61.5026 261.003 74.0204 251.203C74.0204 251.203 80.4137 263.738 67.6384 267.536Z" fill="#325465"/>
<path d="M72.8888 277.645C72.8888 277.645 66.8986 284.296 55.0078 273.825C55.0078 273.825 67.2233 266.121 72.8888 277.645Z" fill="#325465"/>
<path d="M91.3309 338.552C91.7451 338.062 91.6108 337.328 91.0285 337.009C55.2219 316.983 34.8329 299.15 31.877 285.179C31.7538 284.615 31.1716 284.242 30.5782 284.359C29.9847 284.476 29.5929 285.03 29.716 285.594C31.5299 294.149 39.2779 303.917 52.7474 314.632C62.3317 322.25 74.8047 330.359 89.9089 338.807C90.3791 339.073 90.9726 338.967 91.3197 338.562C91.3197 338.562 91.3197 338.552 91.3309 338.541V338.552Z" fill="#3D6D89"/>
<path d="M41.5718 304.129C41.5718 304.129 36.4326 311.397 23.3438 302.31C23.3438 302.31 34.5291 293.308 41.5718 304.129Z" fill="#325465"/>
<path d="M48.067 309.14C48.067 309.14 40.1398 304.671 48.9627 291.743C48.9627 291.743 59.0508 301.852 48.067 309.14Z" fill="#325465"/>
<path d="M33.1076 291.562C33.1076 291.562 24.0719 289.86 27.8452 274.878C27.8452 274.878 40.9004 281.22 33.1076 291.562Z" fill="#325465"/>
<path d="M60.8084 319.621C60.8084 319.621 58.5579 328.113 43.0059 323.771C43.0059 323.771 50.3284 311.705 60.8084 319.621Z" fill="#325465"/>
<path d="M133.664 349.809C133.037 349.586 132.779 348.884 133.104 348.33C153.314 313.834 161.397 288.637 156.505 275.176C156.303 274.634 156.617 274.038 157.188 273.846C157.759 273.655 158.386 273.953 158.587 274.495C161.588 282.742 160.11 294.904 154.198 310.62C149.999 321.803 143.561 334.795 135.041 349.352C134.772 349.799 134.201 350.001 133.697 349.82C133.697 349.82 133.686 349.82 133.675 349.82L133.664 349.809Z" fill="#3D6D89"/>
<path d="M158.219 296.181C158.219 296.181 166.527 299.979 172.976 285.838C172.976 285.838 158.532 283.455 158.219 296.181Z" fill="#325465"/>
<path d="M155.296 303.639C155.296 303.639 159.741 295.967 145.253 289.062C145.253 289.062 141.95 302.639 155.296 303.639Z" fill="#325465"/>
<path d="M158.834 281.284C158.834 281.284 165.72 275.463 154.479 264.365C154.479 264.365 146.596 276.112 158.834 281.284Z" fill="#325465"/>
<path d="M127.774 383.52C125.299 383.849 122.825 383.956 120.373 383.881C119.69 383.86 119.018 383.828 118.335 383.786C98.2034 382.434 80.468 369.846 80.468 369.846C80.468 369.846 46.8111 350.332 56.9216 335.02C67.0321 319.708 77.6689 336.914 84.8459 336.776C92.0229 336.637 81.4533 319.261 74.5786 302.641C67.7039 286.02 76.9523 278.359 83.4575 281.849C89.9627 285.35 94.0047 276.848 89.9403 266.697C85.6296 255.939 82.5506 232.009 96.1768 233.52C111.751 235.254 106.231 265.409 117.484 270.091C128.737 274.773 124.112 259.546 133.047 262.366C141.971 265.186 142.598 286.669 132.017 300.47C121.448 314.271 125.03 331.221 130.259 328.167C135.488 325.113 140.168 309.227 148.443 310.174C164.442 312.026 151.443 380.412 127.762 383.509L127.774 383.52Z" fill="#3D6D89"/>
<path d="M120.361 383.892C119.678 383.87 119.006 383.838 118.323 383.796C113.475 343.053 98.5608 256.364 98.404 255.428C98.3144 254.907 98.6839 254.417 99.2326 254.332C99.7812 254.247 100.296 254.598 100.386 255.119C100.543 256.056 115.546 343.213 120.361 383.892Z" fill="#2F5469"/>
<path d="M106.981 303.513C106.825 303.46 106.679 303.375 106.556 303.258C106.175 302.864 106.209 302.268 106.612 301.907C106.724 301.811 117.976 291.947 122.533 284.041C122.802 283.584 123.418 283.413 123.899 283.669C124.381 283.924 124.56 284.499 124.303 284.967C119.578 293.15 108.448 302.907 107.978 303.322C107.698 303.567 107.317 303.63 106.981 303.524V303.513Z" fill="#2F5469"/>
<path d="M108.134 314.238C108.134 314.238 108.101 314.228 108.078 314.217C107.496 313.994 93.8361 308.758 85.4498 301.629C85.0356 301.278 85.002 300.672 85.3715 300.278C85.7409 299.884 86.3791 299.852 86.7934 300.203C94.8997 307.109 108.683 312.387 108.828 312.44C109.343 312.632 109.59 313.196 109.388 313.685C109.187 314.153 108.638 314.398 108.134 314.238Z" fill="#2F5469"/>
<path d="M115.233 356.556C114.998 356.481 114.785 356.321 114.662 356.087C114.404 355.619 114.594 355.045 115.087 354.8C115.244 354.725 130.438 347.149 135.028 339.19C135.297 338.733 135.902 338.562 136.394 338.807C136.887 339.062 137.055 339.637 136.797 340.105C131.916 348.575 116.666 356.172 116.016 356.492C115.77 356.619 115.49 356.63 115.233 356.556Z" fill="#2F5469"/>
<path d="M101.06 361.845C95.6069 360.121 89.7175 357.737 85.1717 354.577C84.7239 354.268 84.6231 353.673 84.959 353.247C85.2837 352.821 85.9219 352.726 86.3585 353.045C97.208 360.6 116.791 363.653 116.992 363.685C117.541 363.77 117.911 364.26 117.821 364.781C117.731 365.303 117.216 365.654 116.668 365.569C116.175 365.494 109.088 364.388 101.048 361.855L101.06 361.845Z" fill="#2F5469"/>
<path d="M562.361 337.403C561.88 337.009 561.869 336.285 562.361 335.892C592.536 310.908 608.525 290.595 608.726 276.868C608.726 276.315 609.219 275.868 609.801 275.868C610.384 275.868 610.854 276.336 610.854 276.89C610.731 285.296 605.211 295.851 594.451 308.258C586.792 317.079 576.491 326.858 563.761 337.403C563.369 337.732 562.776 337.732 562.384 337.403C562.384 337.403 562.384 337.403 562.373 337.392L562.361 337.403Z" fill="#3D6D89"/>
<path d="M603.07 296.436C603.07 296.436 609.284 302.459 620 291.648C620 291.648 607.728 284.998 603.07 296.436Z" fill="#325465"/>
<path d="M597.855 302.278C597.855 302.278 604.528 296.713 593.769 285.955C593.769 285.955 586.099 297.223 597.855 302.278Z" fill="#325465"/>
<path d="M608.75 283.125C608.75 283.125 616.991 279.986 610.62 266.44C610.62 266.44 599.435 274.634 608.75 283.125Z" fill="#325465"/>
<path d="M587.744 314.345C587.744 314.345 591.45 322.006 605.379 315.281C605.379 315.281 596.198 305.088 587.744 314.345Z" fill="#325465"/>
<path d="M581.473 319.526C581.473 319.526 589.053 315.142 580.42 302.777C580.42 302.777 570.825 312.62 581.473 319.526Z" fill="#325465"/>
<path d="M573.646 327.443C573.646 327.443 577.207 335.168 591.259 328.698C591.259 328.698 582.279 318.334 573.646 327.443Z" fill="#325465"/>
<path d="M516.971 378.104C517.474 377.721 517.497 377.008 517.038 376.593C487.882 350.545 472.71 329.668 473.058 315.952C473.069 315.399 472.61 314.931 472.016 314.92C471.434 314.909 470.941 315.346 470.93 315.91C470.717 324.316 475.812 335.063 486.079 347.853C493.379 356.94 503.277 367.091 515.582 378.072C515.963 378.412 516.545 378.434 516.959 378.125H516.971V378.104Z" fill="#3D6D89"/>
<path d="M477.927 335.7C477.927 335.7 471.478 341.489 461.199 330.306C461.199 330.306 473.728 324.102 477.927 335.7Z" fill="#325465"/>
<path d="M482.91 341.733C482.91 341.733 476.472 335.934 487.646 325.57C487.646 325.57 494.857 337.105 482.91 341.733Z" fill="#325465"/>
<path d="M472.787 322.198C472.787 322.198 464.68 318.771 471.577 305.46C471.577 305.46 482.427 314.058 472.787 322.198Z" fill="#325465"/>
<path d="M492.538 354.14C492.538 354.14 488.53 361.663 474.881 354.438C474.881 354.438 484.465 344.575 492.538 354.14Z" fill="#325465"/>
<path d="M498.584 359.556C498.584 359.556 491.183 354.896 500.309 342.851C500.309 342.851 509.512 353.034 498.584 359.556Z" fill="#325465"/>
<path d="M506.097 367.739C506.097 367.739 502.234 375.336 488.451 368.356C488.451 368.356 497.834 358.322 506.097 367.739Z" fill="#325465"/>
<path d="M529.051 341.509C529.477 341.307 529.611 340.786 529.342 340.413C512.301 317.238 504.598 299.851 507.05 289.924C507.151 289.519 506.882 289.115 506.457 289.019C506.031 288.923 505.606 289.179 505.505 289.583C504.004 295.67 505.986 304.225 511.405 315.014C515.257 322.686 520.844 331.496 528.032 341.275C528.256 341.573 528.682 341.679 529.029 341.52C529.029 341.52 529.029 341.52 529.04 341.52L529.051 341.509Z" fill="#3D6D89"/>
<path d="M507.43 305.012C507.43 305.012 501.809 308.289 496.121 298.67C496.121 298.67 506.232 295.967 507.43 305.012Z" fill="#325465"/>
<path d="M510.095 310.12C510.095 310.12 506.333 304.97 516.13 299.043C516.13 299.043 519.533 308.481 510.095 310.12Z" fill="#325465"/>
<path d="M505.85 294.436C505.85 294.436 500.498 290.765 507.653 282.082C507.653 282.082 514.169 289.903 505.85 294.436Z" fill="#325465"/>
<path d="M524.795 385.434C527.179 385.743 529.564 385.849 531.927 385.785C532.587 385.764 533.237 385.732 533.886 385.689C553.279 384.391 570.365 372.261 570.365 372.261C570.365 372.261 602.79 353.459 593.049 338.711C583.308 323.964 573.063 340.531 566.144 340.403C559.224 340.276 569.413 323.538 576.041 307.524C582.659 291.51 573.757 284.125 567.487 287.498C561.217 290.871 557.321 282.678 561.24 272.9C565.393 262.536 568.361 239.488 555.227 240.946C540.224 242.617 545.542 271.665 534.704 276.177C523.865 280.688 528.31 266.015 519.711 268.728C511.112 271.442 510.519 292.138 520.697 305.428C530.886 318.728 527.426 335.051 522.387 332.104C517.349 329.167 512.837 313.855 504.876 314.77C489.458 316.547 501.976 382.423 524.795 385.413V385.434Z" fill="#3D6D89"/>
<path d="M531.926 385.785C532.586 385.764 533.236 385.732 533.885 385.689C538.554 346.447 552.919 262.929 553.076 262.035C553.166 261.535 552.807 261.056 552.281 260.982C551.755 260.897 551.251 261.237 551.173 261.748C551.016 262.652 536.572 346.606 531.937 385.796L531.926 385.785Z" fill="#2F5469"/>
<path d="M544.827 308.365C544.972 308.322 545.118 308.237 545.23 308.109C545.588 307.737 545.566 307.152 545.174 306.811C545.062 306.715 534.235 297.213 529.835 289.605C529.577 289.158 528.984 288.999 528.525 289.243C528.054 289.488 527.886 290.052 528.144 290.488C532.69 298.362 543.416 307.769 543.875 308.162C544.144 308.396 544.513 308.46 544.838 308.354L544.827 308.365Z" fill="#2F5469"/>
<path d="M543.705 318.685C543.705 318.685 543.738 318.675 543.761 318.664C544.32 318.451 557.488 313.408 565.56 306.534C565.963 306.193 565.997 305.608 565.639 305.236C565.28 304.853 564.665 304.821 564.273 305.161C556.458 311.812 543.19 316.898 543.055 316.951C542.563 317.143 542.316 317.675 542.518 318.143C542.708 318.6 543.234 318.824 543.716 318.675L543.705 318.685Z" fill="#2F5469"/>
<path d="M536.875 359.45C537.11 359.376 537.312 359.227 537.424 359.003C537.67 358.557 537.491 357.993 537.009 357.759C536.864 357.684 522.219 350.385 517.807 342.723C517.55 342.277 516.956 342.117 516.497 342.362C516.027 342.606 515.859 343.16 516.117 343.607C520.819 351.768 535.509 359.089 536.125 359.397C536.371 359.514 536.64 359.525 536.875 359.45Z" fill="#2F5469"/>
<path d="M550.535 364.557C555.786 362.897 561.463 360.609 565.841 357.555C566.278 357.257 566.367 356.683 566.054 356.268C565.74 355.853 565.136 355.768 564.699 356.066C554.252 363.344 535.375 366.281 535.196 366.313C534.67 366.398 534.311 366.866 534.39 367.366C534.479 367.866 534.972 368.207 535.498 368.132C535.968 368.058 542.798 366.994 550.535 364.557Z" fill="#2F5469"/>
<path d="M342.028 150.419C341.928 154.022 341.032 157.605 339.421 160.834C338.987 161.709 338.492 162.572 338.245 163.514C338.098 164.062 338.044 164.657 338.138 165.219H338.111C334.107 168.341 328.519 168.267 323.833 170.212C322.248 170.861 320.764 171.743 319.173 172.385C317.583 173.026 315.818 173.407 314.16 173C312.609 172.625 311.339 171.616 310.316 170.353C309.721 169.617 309.213 168.808 308.779 167.973C304.928 160.647 305.082 151.535 300.938 144.49C300.891 144.403 300.844 144.316 300.784 144.236C299.975 142.952 298.565 141.575 297.448 140.639C296.86 140.145 296.232 139.704 295.644 139.216C293.765 137.658 292.295 135.613 291.412 133.333C291.024 132.324 290.744 131.214 291.018 130.171C292.916 131.087 293.337 133.641 294.902 135.038C295.102 135.218 295.356 135.385 295.617 135.332C295.249 134.449 294.875 133.567 294.507 132.685C293.952 131.361 293.391 130.018 293.13 128.6C292.863 127.183 292.916 125.666 293.545 124.369C293.799 123.834 294.38 123.279 294.922 123.547L295.002 123.413C295.002 123.413 295.022 123.426 295.029 123.433C295.303 123.647 295.47 123.961 295.65 124.255C297.448 127.31 300.817 129.001 303.551 131.261C304.213 131.816 304.862 132.417 305.33 133.146C305.965 134.115 306.259 135.265 306.419 136.408C306.633 137.912 306.386 140.071 306.105 141.682C306.894 142.839 307.963 143.774 308.953 144.771C312.542 148.367 315.156 152.946 316.433 157.866C318.017 155.887 320.156 154.35 322.549 153.481C324.595 152.732 326.867 152.431 328.612 151.128C329.374 150.559 329.989 149.824 330.664 149.162C332.63 147.204 335.263 145.767 337.991 145.599C338.378 145.573 338.766 145.573 339.154 145.599C339.134 145.64 339.12 145.673 339.114 145.72C340.03 145.686 340.945 146.295 341.42 147.103C341.995 148.086 342.062 149.283 342.028 150.419Z" fill="#AF5D25"/>
<path d="M389.683 185.726C389.683 185.726 389.683 185.706 389.67 185.693C388.961 183.554 387.745 181.602 386.2 179.971C383.453 177.07 379.636 175.158 375.639 174.924C372.818 174.757 370.057 175.345 367.423 176.374C365.157 177.257 362.978 178.473 360.946 179.797C356.547 182.678 352.557 186.167 347.944 188.681C345.043 190.265 341.781 191.435 338.506 191.696C337.235 191.796 335.959 191.762 334.695 191.549C334.054 191.455 333.425 191.301 332.797 191.107C334.374 190.893 335.685 188.728 335.852 187.137C336.026 185.552 335.551 183.975 335.27 182.411C334.996 180.84 334.929 179.102 335.812 177.765C336.607 176.555 338.151 175.686 338.198 174.242C338.231 173.293 337.57 172.477 337.202 171.602C336.453 169.803 337.035 167.544 338.566 166.341C338.338 166 338.205 165.612 338.145 165.211C338.058 164.65 338.104 164.055 338.252 163.506C338.499 162.564 338.994 161.695 339.428 160.826C341.039 157.597 341.935 154.014 342.035 150.411C342.068 149.275 342.002 148.078 341.427 147.096C340.952 146.287 340.036 145.679 339.121 145.712C339.121 145.665 339.141 145.632 339.161 145.592C339.528 144.509 340.792 143.834 341.968 143.84C343.292 143.84 344.522 144.482 345.678 145.117C346.38 144.208 347.209 143.225 348.352 143.092C349.315 142.978 350.23 143.499 351.006 144.108C352.797 143.78 354.595 143.526 356.407 143.332C357.156 143.252 357.904 143.179 358.653 143.118C359.462 143.052 360.277 142.998 361.093 142.958C363.433 142.844 365.772 142.831 368.112 142.918C371.955 143.058 375.792 143.479 379.583 144.168C380.091 144.255 380.592 144.355 381.1 144.455C383.908 146.608 388.934 154.77 391.12 161V161.013C392.511 169.215 392.023 177.731 389.703 185.72L389.683 185.726Z" fill="#F9EBDC"/>
<path d="M470.434 113.279C470.381 113.379 470.281 113.44 470.18 113.493C469.378 113.894 468.436 113.907 467.54 113.874C465.254 113.787 462.974 113.406 460.795 112.744L460.762 112.798C462.72 114.175 464.505 115.786 466.063 117.597C466.283 117.851 466.504 118.226 466.31 118.5C466.23 118.613 466.096 118.68 465.956 118.714C465.247 118.914 464.512 118.587 463.857 118.246C462.246 117.417 460.695 116.474 459.218 115.425C456.517 118.533 452.58 120.532 448.475 120.88C439.692 126.388 433.836 136.134 424.331 140.278C421.59 141.475 418.642 142.15 415.941 143.413C411.683 145.399 408.241 148.728 404.624 151.736C400.413 155.232 395.881 158.34 391.094 161.014C390.386 158.982 389.377 156.749 388.233 154.59C385.874 150.105 382.966 145.914 381.074 144.463C382.618 141.782 385.733 140.359 388.681 139.316C391.034 138.487 393.421 137.772 395.847 137.17C401.583 135.746 407.659 134.917 412.626 131.715C414.845 130.285 416.757 128.433 418.809 126.775C422.953 123.446 427.746 120.92 432.84 119.389C437.085 118.105 441.684 117.43 445.34 115.01C445.481 114.629 445.782 114.329 446.036 114.014C446.905 112.945 447.339 111.608 447.82 110.318C448.308 109.028 448.897 107.718 449.959 106.855C450.842 106.147 452.125 105.846 453.135 106.254C455.554 103.312 458.636 100.926 462.092 99.3283C462.453 99.1545 462.854 98.9874 463.262 99.0008C463.462 99.0008 463.683 99.081 463.77 99.2615C463.85 99.4286 463.79 99.6224 463.71 99.7962C463.342 100.659 462.714 101.387 462.085 102.089C460.408 103.954 458.643 105.746 456.791 107.443L456.831 107.484C459.579 105.632 462.687 104.302 465.922 103.6C466.618 103.446 467.319 103.319 468.028 103.359C468.122 103.359 468.222 103.379 468.289 103.439C468.416 103.56 468.342 103.78 468.242 103.934C468.028 104.295 467.761 104.609 467.466 104.903C467.313 105.057 467.159 105.204 466.992 105.338C466.624 105.665 466.216 105.953 465.815 106.227C464.873 106.869 463.89 107.443 462.881 107.951C461.825 108.48 460.742 108.941 459.619 109.329L459.692 109.583C461.504 109.83 463.315 110.024 465.093 110.445C466.872 110.859 468.623 111.514 470.087 112.597C470.307 112.758 470.555 113.032 470.421 113.272L470.434 113.279Z" fill="#A0490D"/>
<path d="M389.671 185.693L389.517 185.753C387.893 186.422 386.035 186.996 384.41 187.665C384.905 185.145 385.807 182.511 386.202 179.978C387.746 181.609 388.962 183.554 389.671 185.7V185.693Z" fill="#272533"/>
<path d="M309.794 240.107C308.945 241.19 308.123 242.293 307.334 243.423C306.472 242.714 305.696 241.886 305.055 240.963C305.148 240.976 305.255 240.963 305.335 240.943C306.806 240.582 308.297 240.301 309.794 240.107Z" fill="#272533"/>
<path d="M337.756 252.72C338.425 255.206 338.398 257.833 337.422 260.2C337.362 260.267 337.308 260.334 337.248 260.4L337.108 260.273C335.504 259.812 334.073 258.783 333.117 257.426C334.641 255.902 336.139 254.351 337.596 252.76L337.756 252.72Z" fill="#272533"/>
<path d="M354.495 322.963C354.422 324.052 353.994 325.382 352.918 325.496C352.349 325.556 351.815 325.222 351.367 324.861C349.174 323.13 347.791 320.603 346.46 318.143C345.966 317.227 345.478 316.318 344.976 315.402C344.421 314.366 343.86 313.323 343.298 312.287C341.741 309.413 340.143 306.077 341.286 303.009C342.155 300.676 344.441 299.205 346.621 298.009C346.54 298.122 346.507 298.45 346.507 298.45C346.467 298.524 346.467 298.637 346.487 298.717C346.868 300.529 348.078 302.1 349.642 303.049C350.518 303.59 351.507 303.945 352.53 304.032C352.557 304.032 352.577 304.032 352.603 304.032C353.085 307.742 353.553 311.472 354.027 315.182C354.362 317.762 354.689 320.356 354.502 322.949L354.495 322.963Z" fill="#3B3849"/>
<path d="M274.012 302.013C274.086 302.026 272.909 306.084 271.806 307.889C270.309 310.349 268.11 312.301 265.79 314.005C263.156 315.944 260.222 317.662 256.98 318.049C256.458 318.116 255.857 318.123 255.469 317.749C255.235 317.515 255.128 317.174 255.081 316.84C255.081 316.793 255.068 316.759 255.068 316.713C254.981 316.011 255.081 315.295 255.208 314.6C255.923 310.67 257.468 306.853 259.974 303.738C262.428 300.683 269.827 297.187 269.908 297.066C269.881 297.447 269.968 297.835 270.108 298.189C270.309 298.684 270.616 299.125 270.93 299.553C271.198 299.921 271.479 300.295 271.793 300.636C271.96 300.83 272.147 301.01 272.341 301.177C272.822 301.585 273.397 301.906 274.005 302.013H274.012Z" fill="#3B3849"/>
<path d="M391.823 116.267C391.409 117.932 389.811 119.249 388.107 119.222C386.536 119.189 385.032 118.126 383.494 118.44C381.121 118.941 380.259 122.35 377.879 122.825C377.224 122.952 376.569 122.825 375.914 122.651C374.731 122.337 373.554 121.842 372.445 122.257C370.82 122.865 370.399 125.018 369.015 126.06C368.013 126.829 366.649 126.889 365.392 126.836C364.129 126.782 362.819 126.649 361.649 127.117C360.74 127.478 359.971 128.333 359.844 129.249C359.978 128.373 359.329 127.471 358.467 127.224C357.605 126.976 356.629 127.331 356.034 128.006C355.439 128.681 355.198 129.623 355.272 130.526C355.412 132.25 356.742 133.801 358.4 134.256C358.173 135.312 357.932 136.368 357.705 137.424C357.21 136.054 355.673 135.152 354.289 134.496C353.821 134.283 353.34 134.042 352.879 133.781C351.729 133.119 350.713 132.264 350.479 131.007C350.252 129.77 350.88 128.527 351.615 127.498C352.357 126.468 353.233 125.499 353.601 124.289C354.109 122.658 353.627 120.753 354.516 119.296C355.486 117.705 357.645 117.364 359.516 117.471C361.382 117.571 363.347 117.932 365.045 117.15C367.364 116.08 368.461 113.186 370.834 112.23C373.835 111.02 377.211 113.507 380.393 112.898C382.151 112.564 383.608 111.327 385.326 110.833C386.97 110.358 388.842 110.646 390.186 111.702C390.941 112.297 391.496 113.139 391.763 114.062C391.977 114.777 392.011 115.545 391.837 116.267H391.823Z" fill="#272533"/>
<path d="M400.647 239.391C400.373 239.338 400.106 239.298 399.832 239.271C395.574 238.763 391.329 240.648 387.579 242.82C384.611 244.552 381.757 246.49 379.063 248.636C377.913 249.532 376.79 250.481 375.694 251.464C373.742 253.208 371.803 255.113 369.564 256.417C368.655 256.945 367.705 257.38 366.676 257.66C367.077 252.339 364.316 247.326 361.422 242.84C358.842 238.843 356.007 234.772 354.951 230.173C355.399 229.043 355.994 227.981 356.823 227.045C359.056 224.505 362.391 223.542 365.707 222.539C368.621 221.65 371.522 220.728 373.655 218.682C376.623 215.848 377.445 211.503 378.167 207.459C378.875 203.521 379.805 199.29 382.733 196.616C386.616 199.705 389.203 204.203 391.048 208.829C393.007 213.756 394.23 218.943 396.115 223.896C398.047 228.956 400.701 233.97 400.654 239.391H400.647Z" fill="#CF3045"/>
<path d="M382.724 196.618C379.796 199.298 378.874 203.523 378.158 207.46C377.436 211.498 376.614 215.843 373.646 218.684C369.067 223.076 360.999 222.287 356.814 227.046C355.985 227.989 355.39 229.045 354.943 230.175C353.418 234.025 353.579 238.751 351.841 242.641C350.765 245.041 349.007 247.06 347.269 249.032C343.986 252.749 340.698 256.479 337.415 260.202C338.385 257.829 338.418 255.202 337.75 252.722C337.075 250.175 335.651 247.769 333.759 245.93C332.796 244.988 331.727 244.179 330.584 243.49C327.215 241.432 323.204 240.375 319.247 239.968C316.112 239.647 312.93 239.7 309.795 240.108C308.29 240.309 306.807 240.583 305.336 240.944C305.256 240.964 305.149 240.977 305.055 240.964C305.055 240.964 305.008 240.897 304.988 240.87C305.182 237.635 307.528 234.961 309.774 232.615C312.067 230.221 314.521 227.594 314.821 224.299C314.948 222.928 314.688 221.558 314.808 220.188C315.069 217.353 317.001 214.9 319.287 213.196C321.493 211.551 324.12 210.408 325.858 208.282C327.275 206.544 327.95 204.332 328.458 202.153C328.966 199.973 329.367 197.734 330.343 195.722C331.246 193.864 332.75 192.179 334.695 191.551C335.952 191.765 337.235 191.798 338.505 191.698C344.307 193.83 350.35 195.294 356.487 196.063C358.713 196.337 360.945 196.524 363.191 196.638C367.617 196.872 372.069 196.858 376.487 196.584C378.352 196.471 380.211 196.317 382.069 196.11C382.289 196.27 382.517 196.444 382.731 196.611L382.724 196.618Z" fill="#CF3045"/>
<path d="M402.827 263.283C401.456 265.81 399.337 267.829 397.145 269.68C389.852 275.844 381.483 280.556 373.474 285.757C365.687 290.81 358.073 296.479 352.585 303.952C352.565 303.979 352.545 304.006 352.525 304.033C351.502 303.946 350.513 303.592 349.637 303.05C348.073 302.101 346.863 300.523 346.482 298.718C346.462 298.638 346.462 298.525 346.502 298.451C346.502 298.451 346.535 298.123 346.616 298.01C349.831 293.698 351.97 288.651 353.982 283.638C356.195 278.143 358.327 272.541 361.723 267.682C363.982 264.446 366.897 261.545 370.306 259.627C369.925 258.591 369.671 257.514 369.564 256.411C371.803 255.108 373.742 253.203 375.694 251.458C376.783 250.482 377.913 249.526 379.063 248.63C381.757 246.485 384.611 244.546 387.579 242.815C391.322 240.642 395.574 238.757 399.832 239.265C401.583 243.009 403.335 246.812 404.164 250.863C405.026 255.021 404.852 259.546 402.827 263.276V263.283Z" fill="#A0490D"/>
<path d="M382.064 196.114C375.8 196.796 369.483 196.977 363.186 196.636C360.94 196.522 358.708 196.335 356.482 196.061C350.345 195.292 344.302 193.828 338.5 191.696C341.769 191.435 345.038 190.265 347.939 188.681C352.551 186.168 356.549 182.678 360.94 179.797C365.339 176.923 370.399 174.61 375.64 174.924C379.637 175.158 383.454 177.07 386.202 179.971C385.814 182.505 382.298 196.088 382.064 196.114Z" fill="#AF5D25"/>
<path d="M377.168 131.014C377.122 133.407 376.707 135.847 375.604 137.973C374.501 140.092 372.636 141.896 370.337 142.572C369.608 142.785 368.853 142.892 368.091 142.892V142.933C367.877 142.933 367.676 142.919 367.462 142.912C364.581 142.826 361.693 142.892 358.826 143.12C358.017 143.18 357.201 143.253 356.393 143.34C356.827 141.368 357.262 139.396 357.696 137.424C357.923 136.368 358.164 135.312 358.391 134.256C356.727 133.801 355.403 132.25 355.263 130.526C355.189 129.623 355.43 128.688 356.025 128.006C356.62 127.337 357.596 126.976 358.458 127.224C359.314 127.471 359.969 128.373 359.835 129.249C359.955 128.327 360.731 127.471 361.64 127.117C362.81 126.649 364.12 126.782 365.383 126.836C366.64 126.896 368.004 126.836 369.006 126.061C370.39 125.018 370.818 122.865 372.436 122.257C373.545 121.843 374.722 122.337 375.905 122.651C376.801 125.339 377.229 128.18 377.168 131.007V131.014Z" fill="#AF5D25"/>
<path d="M337.757 252.721L337.596 252.761C336.139 254.352 334.642 255.903 333.118 257.427C321.767 268.784 308.719 278.377 295.73 287.855C288.745 292.956 281.713 298.07 274.019 302.013C273.404 301.907 272.829 301.586 272.354 301.178C272.154 301.011 271.973 300.824 271.806 300.636C271.492 300.296 271.211 299.928 270.944 299.554C270.63 299.126 270.315 298.685 270.122 298.19C269.981 297.829 269.901 297.448 269.921 297.067C273.29 292.267 275.523 286.766 278.11 281.498C280.85 275.91 284.173 270.362 289.233 266.719C291.105 265.368 293.19 264.312 294.955 262.821C298.638 259.706 300.57 255.067 302.829 250.816C304.186 248.269 305.691 245.796 307.348 243.423C308.137 242.293 308.959 241.183 309.808 240.107C312.937 239.699 316.119 239.646 319.26 239.967C323.218 240.374 327.228 241.431 330.597 243.489C331.741 244.178 332.81 244.994 333.773 245.929C335.671 247.768 337.088 250.174 337.763 252.721H337.757Z" fill="#AF5D25"/>
<path style="mix-blend-mode:overlay" opacity="0.7" d="M370.225 166.944C368.694 169.778 367.264 173.087 367.417 176.382C367.444 176.917 367.511 177.458 367.631 177.993C368.326 181.202 370.532 183.789 372.397 186.389C374.363 189.143 376.067 192.111 376.422 195.54C376.462 195.895 376.482 196.249 376.482 196.597C376.528 199.21 375.706 201.77 374.122 203.883C372.083 206.583 369.135 208.188 366 209.304C361.976 210.728 357.758 211.537 353.7 212.854C347.043 215.019 340.512 219.084 336.989 225.307C336.127 226.831 335.458 228.442 334.957 230.113C334.435 231.858 334.148 233.656 333.687 235.414C332.965 238.215 331.949 240.942 330.578 243.489C330.291 244.044 329.977 244.586 329.649 245.127C325.518 251.885 319.382 256.986 312.857 261.331C309.475 263.577 305.986 265.682 302.67 268.029C299.254 270.448 296.052 273.162 293.031 276.057C287.008 281.826 281.707 288.29 276.513 294.794C274.949 296.753 273.391 298.718 271.794 300.643C267.957 305.262 263.932 309.701 259.287 313.551C257.923 314.674 256.513 315.73 255.062 316.726C254.975 316.024 255.075 315.309 255.202 314.614C255.918 310.683 257.462 306.866 259.968 303.751C262.422 300.696 269.822 297.2 269.902 297.08C273.271 292.28 275.504 286.779 278.091 281.512C280.831 275.923 284.153 270.375 289.214 266.732C291.085 265.382 293.171 264.325 294.936 262.835C298.619 259.72 300.551 255.08 302.81 250.829C304.167 248.282 305.671 245.809 307.329 243.436C306.467 242.727 305.691 241.898 305.05 240.976C305.05 240.976 305.003 240.909 304.983 240.882C305.177 237.647 307.523 234.973 309.769 232.627C312.062 230.234 314.515 227.607 314.816 224.311C314.943 222.941 314.682 221.57 314.803 220.2C315.063 217.366 316.995 214.912 319.281 213.208C321.487 211.563 324.114 210.42 325.852 208.295C327.269 206.557 327.945 204.344 328.453 202.165C328.961 199.986 329.362 197.746 330.338 195.734C331.24 193.876 332.744 192.191 334.689 191.563C334.048 191.469 333.419 191.316 332.791 191.122C334.368 190.908 335.679 188.742 335.846 187.151C336.02 185.567 335.545 183.989 335.264 182.425C334.99 180.854 334.923 179.116 335.806 177.779C336.601 176.569 338.145 175.7 338.192 174.257C338.226 173.307 337.564 172.492 337.196 171.616C336.447 169.818 337.029 167.559 338.56 166.355C338.332 166.014 338.199 165.627 338.139 165.226H338.112C334.108 168.347 328.519 168.274 323.833 170.219C322.249 170.867 320.765 171.75 319.174 172.392C317.583 173.033 315.819 173.414 314.161 173.006C312.61 172.632 311.34 171.623 310.317 170.359C314.321 169.865 318.272 168.835 321.935 167.204C327.089 164.905 331.748 161.255 334.302 156.114C335.505 153.701 336.066 151.054 336.882 148.494C337.196 147.525 337.537 146.535 337.992 145.599C338.379 145.573 338.767 145.573 339.155 145.599C339.522 144.517 340.786 143.841 341.962 143.848C343.286 143.848 344.516 144.49 345.672 145.125C346.374 144.216 347.203 143.233 348.346 143.099C349.309 142.986 350.224 143.507 351 144.115C352.791 143.788 354.59 143.534 356.401 143.34C357.15 143.26 357.898 143.186 358.647 143.126C359.476 143.166 360.292 143.106 361.087 142.966C363.427 142.852 365.766 142.839 368.106 142.926C371.95 143.066 375.786 143.487 379.577 144.176C379.791 145.345 379.824 146.562 379.724 147.759C379.075 155.118 373.601 160.7 370.238 166.937L370.225 166.944Z" fill="url(#paint0_linear_342_21813)"/>
<path style="mix-blend-mode:overlay" opacity="0.7" d="M470.435 113.279C470.382 113.379 470.282 113.439 470.181 113.493C469.379 113.894 468.437 113.907 467.541 113.874C465.255 113.787 462.975 113.406 460.796 112.744L460.763 112.798C462.721 114.175 464.506 115.786 466.064 117.597C466.284 117.851 466.505 118.225 466.311 118.5C466.231 118.613 466.097 118.68 465.957 118.713C465.248 118.914 464.513 118.586 463.858 118.246C462.247 117.417 460.696 116.474 459.219 115.425C456.518 118.533 452.581 120.532 448.476 120.879C439.693 126.387 433.837 136.134 424.331 140.278C421.591 141.475 418.643 142.15 415.942 143.413C411.684 145.399 408.241 148.727 404.625 151.736C400.414 155.232 395.882 158.34 391.095 161.014C390.387 158.982 389.377 156.749 388.234 154.59C388.682 154.195 389.15 153.821 389.611 153.474C391.149 152.304 392.84 151.415 394.471 150.399C396.563 149.095 398.555 147.638 400.494 146.127C404.211 143.226 407.767 140.111 411.697 137.497C415.541 134.957 419.619 132.805 423.736 130.759C427.874 128.694 432.072 126.722 436.13 124.496C438.155 123.393 440.147 122.23 442.079 120.959C444.051 119.663 446.063 118.399 447.942 116.955C449.713 115.592 451.204 114.014 452.674 112.343C453.944 110.899 455.315 109.535 457.126 108.793C458.944 108.045 460.95 107.991 462.895 107.951C461.839 108.479 460.756 108.94 459.633 109.328L459.707 109.582C461.518 109.83 463.33 110.023 465.108 110.445C466.886 110.859 468.637 111.514 470.101 112.597C470.322 112.757 470.569 113.031 470.435 113.272V113.279Z" fill="url(#paint1_linear_342_21813)"/>
<path style="mix-blend-mode:overlay" opacity="0.7" d="M466.74 105.077C466.446 104.79 466.9 104.335 467.194 104.623C467.288 104.717 467.388 104.817 467.488 104.91C467.335 105.064 467.181 105.211 467.014 105.345C466.927 105.258 466.827 105.164 466.74 105.077Z" fill="url(#paint2_linear_342_21813)"/>
<path style="mix-blend-mode:overlay" opacity="0.7" d="M380.147 259.438C379.686 261.404 378.77 263.208 377.533 264.799C376.25 266.45 374.692 267.861 373.161 269.271C369.452 272.701 366.109 276.491 362.84 280.341C357.118 287.079 352.686 294.773 349.638 303.049C349.351 303.831 349.077 304.606 348.816 305.395C347.987 307.889 347.158 310.382 346.149 312.802C345.788 313.684 345.373 314.54 344.972 315.409C344.418 314.373 343.856 313.33 343.295 312.294C341.737 309.419 340.139 306.084 341.282 303.015C342.151 300.682 344.438 299.212 346.617 298.015C349.832 293.704 351.971 288.657 353.983 283.643C356.196 278.149 358.328 272.547 361.724 267.687C363.983 264.452 366.898 261.551 370.307 259.632C369.926 258.596 369.672 257.52 369.565 256.417C368.656 256.945 367.707 257.379 366.677 257.66C367.078 252.339 364.318 247.326 361.423 242.84C358.843 238.843 356.009 234.772 354.953 230.173C355.4 229.043 355.995 227.98 356.824 227.045C359.057 224.504 362.393 223.542 365.708 222.539C366.223 224.498 367.078 226.409 367.901 228.194C369.137 230.881 370.575 233.482 372.079 236.035C374.418 239.999 377.339 244.184 379.064 248.636C380.401 252.072 381.029 255.668 380.154 259.438H380.147Z" fill="url(#paint3_linear_342_21813)"/>
<path style="mix-blend-mode:overlay" opacity="0.7" d="M367.469 142.905C364.588 142.818 361.7 142.885 358.832 143.112C358.845 142.671 360.436 137.664 360.55 137.798C361.051 138.399 361.446 139.77 363.525 141.334C364.661 142.189 366.065 142.684 367.475 142.911L367.469 142.905Z" fill="url(#paint4_linear_342_21813)"/>
<path style="mix-blend-mode:overlay" opacity="0.7" d="M391.749 114.06C390.82 113.606 389.864 113.191 388.822 113.185C387.545 113.185 386.469 113.927 385.466 114.629C383.514 115.992 381.188 117.022 378.755 116.808C377.471 116.694 376.234 116.26 374.958 116.113C373.761 115.972 372.631 116.159 371.602 116.814C370.653 117.423 369.931 118.292 369.336 119.241C368.761 120.157 368.246 121.126 367.478 121.901C364.429 124.97 359.897 122.924 356.247 124.234C355.445 124.529 354.723 125.016 354.175 125.678C353.473 126.541 353.079 127.657 352.778 128.72C352.43 129.93 352.29 131.173 352.524 132.416C352.598 132.838 352.691 133.339 352.865 133.773C351.715 133.112 350.699 132.256 350.465 130.999C350.238 129.763 350.866 128.519 351.602 127.49C352.344 126.46 353.219 125.491 353.587 124.281C354.095 122.65 353.614 120.745 354.503 119.288C355.472 117.697 357.631 117.356 359.503 117.463C361.368 117.563 363.333 117.924 365.031 117.142C367.351 116.072 368.447 113.178 370.82 112.222C373.821 111.012 377.197 113.499 380.379 112.891C382.137 112.556 383.594 111.32 385.312 110.825C386.957 110.35 388.828 110.638 390.172 111.694C390.927 112.289 391.482 113.131 391.749 114.054V114.06Z" fill="url(#paint5_linear_342_21813)"/>
<path d="M331.585 124.296C331.585 124.918 331.551 125.526 331.498 126.128C331.478 126.375 331.451 126.636 331.418 126.883C331.418 126.963 331.398 127.057 331.384 127.137C331.358 127.351 331.324 127.572 331.291 127.785C330.729 130.994 329.412 133.942 327.521 136.435C327.32 136.696 327.12 136.957 326.899 137.211C325.656 138.715 324.192 140.025 322.561 141.101C322.38 141.228 322.2 141.342 322.019 141.456C321.083 142.03 320.101 142.538 319.078 142.96C318.817 143.067 318.55 143.174 318.282 143.267C316.15 144.043 313.844 144.464 311.431 144.464C310.655 144.464 309.9 144.417 309.151 144.337C308.931 144.31 308.697 144.276 308.476 144.25C302.874 143.428 298.015 140.292 294.906 135.847C294.779 135.667 294.659 135.486 294.539 135.306C294.485 135.232 294.445 135.152 294.392 135.078C294.258 134.864 294.131 134.657 294.004 134.437C292.273 131.462 291.283 127.999 291.283 124.309C291.283 123.534 291.33 122.779 291.41 122.03C291.437 121.816 291.464 121.602 291.49 121.388C291.738 119.69 292.199 118.059 292.847 116.529C292.954 116.261 293.068 115.994 293.208 115.733C294.438 113.086 296.25 110.76 298.456 108.895C298.623 108.754 298.797 108.614 298.964 108.48C299.191 108.293 299.432 108.119 299.672 107.952C300 107.711 300.334 107.484 300.682 107.27C303.797 105.298 307.487 104.155 311.444 104.155C312.24 104.155 313.028 104.202 313.804 104.289C314.024 104.316 314.232 104.349 314.445 104.376C314.913 104.449 315.375 104.53 315.823 104.637C316.411 104.757 316.992 104.917 317.561 105.104C321.257 106.274 324.506 108.494 326.932 111.408C327.073 111.575 327.206 111.749 327.34 111.916C327.902 112.631 328.416 113.387 328.871 114.176C328.998 114.389 329.118 114.61 329.232 114.831C330.743 117.658 331.598 120.88 331.598 124.309L331.585 124.296Z" fill="#CF3045"/>
<path d="M327.514 136.443C327.313 136.704 327.113 136.964 326.892 137.218C326.839 134.164 326.431 131.109 325.609 128.161C325.074 126.236 324.352 124.357 323.456 122.579C323.356 122.372 323.249 122.171 323.142 121.971C321.324 118.528 318.851 115.447 315.769 113.02C311.244 109.45 305.408 107.505 299.652 107.946C299.98 107.706 300.314 107.478 300.662 107.265C303.369 107.184 306.076 107.605 308.65 108.461C314.593 110.44 319.519 114.705 322.775 120.012C323.069 120.493 323.349 120.975 323.603 121.476C323.717 121.677 323.824 121.877 323.931 122.084C326.184 126.523 327.333 131.476 327.514 136.456V136.443Z" fill="#F9EBDC"/>
<path d="M331.49 126.134C331.47 126.381 331.444 126.642 331.41 126.889C330.341 125.993 329.278 125.091 328.295 124.095C327.172 122.965 326.236 121.702 325.434 120.331C324.946 120.926 324.451 121.508 323.93 122.069C323.776 122.236 323.616 122.404 323.455 122.571C322.212 123.887 320.875 125.111 319.465 126.247C320.454 128.58 320.935 131.1 320.909 133.654C320.875 136.842 320.147 139.971 319.077 142.965C318.816 143.072 318.549 143.179 318.282 143.273C319.578 139.844 320.427 136.194 320.254 132.504C320.16 130.485 319.712 128.52 318.95 126.668C316.423 128.627 313.669 130.298 310.748 131.595C305.601 133.868 299.999 135.064 294.384 135.071C294.25 134.857 294.123 134.65 293.996 134.429C296.777 134.456 299.545 134.189 302.265 133.634C308.241 132.417 313.89 129.817 318.689 126.06C318.262 125.124 317.76 124.228 317.165 123.379C315.421 120.853 313.041 118.774 310.34 117.337C304.966 114.489 298.482 114.442 292.84 116.528C292.947 116.26 293.06 115.993 293.201 115.732C295.948 114.783 298.869 114.328 301.784 114.449C308.455 114.716 314.752 118.172 318.268 123.901C318.622 124.476 318.923 125.071 319.211 125.672C319.284 125.605 319.371 125.559 319.438 125.492C320.762 124.402 321.998 123.232 323.155 121.976C323.315 121.809 323.469 121.641 323.616 121.474C324.124 120.906 324.625 120.325 325.107 119.73C325.006 119.542 324.893 119.362 324.799 119.175C323.843 117.303 323.095 115.331 322.259 113.406C320.828 110.064 318.997 106.588 315.808 104.636C316.397 104.756 316.978 104.916 317.546 105.104C318.576 105.979 319.465 107.022 320.227 108.152C322.506 111.534 323.596 115.505 325.474 119.095C325.494 119.135 325.514 119.168 325.534 119.202C326.764 117.611 327.887 115.939 328.87 114.181C328.997 114.395 329.117 114.616 329.231 114.837C328.235 116.575 327.112 118.232 325.875 119.803C326.811 121.428 327.928 122.891 329.291 124.188C330 124.863 330.748 125.512 331.504 126.147L331.49 126.134Z" fill="#F9EBDC"/>
<mask id="mask0_342_21813" style="mask-type:luminance" maskUnits="userSpaceOnUse" x="192" y="310" width="40" height="40">
<path d="M211.907 349.761C222.747 349.761 231.533 340.974 231.533 330.135C231.533 319.296 222.747 310.509 211.907 310.509C201.068 310.509 192.281 319.296 192.281 330.135C192.281 340.974 201.068 349.761 211.907 349.761Z" fill="white"/>
</mask>
<g mask="url(#mask0_342_21813)">
<path d="M211.905 349.76C222.745 349.76 231.531 340.973 231.531 330.134C231.531 319.295 222.745 310.508 211.905 310.508C201.066 310.508 192.279 319.295 192.279 330.134C192.279 340.973 201.066 349.76 211.905 349.76Z" fill="#F9EBDC"/>
<path d="M208.737 323.571C205.782 323.772 204.352 323.892 201.611 324.193C200.308 326.726 199.485 327.93 198.148 330.149C199.586 332.368 200.301 333.571 201.604 336.105C204.352 336.406 205.776 336.533 208.73 336.733C210.395 334.2 211.224 332.869 212.701 330.149C211.123 327.428 210.401 326.098 208.737 323.564V323.571Z" fill="#272533"/>
<path d="M206.71 310.409C204.263 311.004 203.08 311.378 200.774 312.281C199.885 315.115 199.33 316.486 198.127 319.059C199.451 320.924 200.166 321.967 201.603 324.2C204.35 323.899 205.774 323.772 208.729 323.578C210.019 320.844 210.614 319.433 211.483 316.566C209.538 313.992 208.548 312.749 206.703 310.416L206.71 310.409Z" fill="#F9EBDC"/>
<path d="M220.475 330.155C217.28 330.155 215.722 330.155 212.667 330.155C211.19 332.876 210.368 334.199 208.703 336.733C209.993 339.467 210.588 340.877 211.457 343.745C214.271 344.039 215.695 344.133 218.576 344.22C220.849 341.452 221.972 340.035 224.018 337.208C222.895 334.393 222.146 332.97 220.481 330.155H220.475Z" fill="#F9EBDC"/>
<path d="M218.59 316.091C215.702 316.178 214.278 316.271 211.464 316.565C210.595 319.426 210 320.844 208.703 323.578C210.368 326.111 211.09 327.441 212.667 330.155C215.722 330.155 217.28 330.155 220.475 330.155C221.999 327.341 222.895 325.917 224.018 323.103C221.972 320.275 220.856 318.865 218.583 316.091H218.59Z" fill="#F9EBDC"/>
<path d="M198.182 330.148C195.415 330.148 194.064 330.148 191.437 330.148C190.194 331.96 189.579 332.762 188.449 334.079C189.853 335.911 190.575 336.947 191.925 339.219C194.385 340.135 195.635 340.543 198.162 341.252C199.486 339.387 200.201 338.344 201.645 336.111C200.341 333.578 199.626 332.368 198.189 330.148H198.182Z" fill="#F9EBDC"/>
<path d="M198.155 341.253C195.621 340.544 194.378 340.136 191.918 339.221C190.815 340.578 190.307 341.132 189.465 341.941C190.855 344.281 191.524 345.564 192.68 348.292C194.632 350.123 195.608 350.932 197.567 352.349C198.716 350.839 199.378 349.956 200.802 348.024C199.92 345.19 199.365 343.82 198.162 341.246L198.155 341.253Z" fill="#272533"/>
<path d="M208.737 336.733C205.782 336.532 204.351 336.412 201.611 336.104C200.174 338.337 199.458 339.373 198.135 341.238C199.338 343.812 199.893 345.182 200.782 348.017C203.081 348.926 204.271 349.3 206.711 349.895C208.556 347.562 209.545 346.319 211.491 343.745C210.622 340.877 210.033 339.467 208.737 336.733Z" fill="#F9EBDC"/>
<path d="M198.152 319.046C195.619 319.754 194.375 320.156 191.915 321.071C190.558 323.344 189.837 324.387 188.439 326.212C189.569 327.529 190.044 328.331 191.427 330.149C194.055 330.149 195.405 330.149 198.172 330.149C199.503 327.93 200.325 326.727 201.635 324.193C200.191 321.96 199.482 320.918 198.152 319.053V319.046Z" fill="#F9EBDC"/>
<path d="M218.574 344.22C215.693 344.133 214.27 344.039 211.455 343.745C209.51 346.319 208.521 347.562 206.676 349.895C207.277 352.823 207.438 354.327 207.291 357.335C209.243 357.923 210.219 358.11 212.177 358.278C214.885 355.55 216.295 354.14 219.069 351.305C219.33 348.498 219.189 347.067 218.574 344.213V344.22Z" fill="#272533"/>
<path d="M224.007 337.161C227.175 337.155 228.786 337.121 232.062 337.007C234.348 334.193 235.391 332.796 237.129 330.109C235.391 327.422 234.341 326.025 232.048 323.21C228.773 323.097 227.162 323.063 223.993 323.057C222.87 325.871 222.122 327.295 220.457 330.109C222.122 332.923 222.877 334.347 224 337.161H224.007Z" fill="#272533"/>
<path d="M211.455 316.519C214.27 316.224 215.693 316.131 218.574 316.044C219.183 313.19 219.33 311.759 219.069 308.952C216.295 306.117 214.885 304.707 212.177 301.979C210.225 302.147 209.249 302.34 207.291 302.922C207.445 305.93 207.277 307.434 206.676 310.362C208.521 312.695 209.51 313.938 211.455 316.512V316.519Z" fill="#272533"/>
<path d="M191.917 321.044C194.377 320.129 195.627 319.721 198.154 319.012C199.357 316.439 199.912 315.068 200.794 312.234C199.377 310.302 198.715 309.427 197.559 307.909C195.607 309.326 194.631 310.135 192.672 311.967C191.516 314.694 190.847 315.978 189.457 318.317C190.299 319.126 190.807 319.681 191.91 321.038L191.917 321.044Z" fill="#272533"/>
</g>
<path style="mix-blend-mode:overlay" opacity="0.7" d="M206.879 324.125C205.542 328.189 205.202 332.594 205.89 336.812C206.679 341.579 208.858 346.244 212.214 349.754C212.113 349.754 212.006 349.754 211.906 349.754C201.064 349.754 192.273 340.97 192.273 330.121C192.273 319.272 201.057 310.488 211.906 310.488C213.497 310.488 215.048 310.682 216.532 311.036C215.228 311.979 214.005 313.035 212.889 314.192C210.175 317.006 208.096 320.395 206.873 324.112L206.879 324.125Z" fill="url(#paint6_linear_342_21813)"/>
<path d="M205.395 262.659C205.174 262.733 204.954 262.813 204.74 262.9C204.198 263.12 203.664 263.408 203.222 263.802C202.186 264.718 201.738 266.088 201.438 267.459C201.371 267.726 201.317 267.994 201.264 268.254C201.237 268.381 201.21 268.515 201.19 268.649C198.51 270.681 195.823 272.706 193.142 274.738C191.899 275.681 190.542 276.664 188.984 276.73C188.115 276.771 187.079 276.329 187.005 275.467C186.959 274.992 187.219 274.558 187.473 274.157C188.998 271.717 190.535 269.277 192.059 266.837C192.748 265.734 193.47 264.598 194.258 263.528C195.983 261.169 198.015 259.09 200.729 258.147C201.431 257.906 202.233 257.753 202.915 258.06C204.539 258.796 204.259 261.376 205.402 262.653L205.395 262.659Z" fill="#272533"/>
<path d="M252.368 280.26C251.719 281.283 251.024 282.279 250.282 283.234C247.702 286.637 244.633 289.685 241.485 292.586C236.699 296.985 231.378 301.25 225.001 302.506C221.819 303.128 218.336 302.907 215.622 301.149C213.216 299.598 211.725 297.105 210.662 294.398C210.736 292.961 210.976 291.523 211.317 290.133C211.317 290.12 211.317 290.113 211.317 290.1C212.761 284.244 216.023 278.863 220.529 274.872C220.589 275.193 220.616 275.52 220.622 275.848C221.371 273.408 222.487 271.082 223.931 268.976C224.239 268.528 224.559 268.094 224.887 267.666C225.215 267.251 225.589 266.83 226.01 266.496C228.798 266.743 231.545 267.425 234.132 268.488C236.786 269.578 239.259 271.075 241.431 272.94C243.343 274.591 245.028 276.496 247.053 277.994C248.016 278.702 249.092 279.324 250.222 279.732C250.917 279.986 251.632 280.166 252.354 280.24L252.368 280.26Z" fill="#F99116"/>
<path d="M285.957 289.992C285.563 290.861 285.095 291.684 284.58 292.486C281.371 297.466 276.251 301.249 271.846 305.367C270.215 306.891 268.65 308.496 267.427 310.367C265.328 313.569 264.346 317.366 262.628 320.782C261.712 322.593 260.616 324.278 259.379 325.862C258.283 326.056 257.113 325.909 256.016 325.648C254.392 325.281 252.821 324.699 251.337 323.93C247.507 321.945 244.305 318.743 242.42 314.859C243.068 313.776 243.757 312.734 244.492 311.711C247.353 307.734 250.943 304.224 253.075 299.812C255.401 294.973 255.803 289.438 257.353 284.311C257.728 283.054 258.182 281.811 258.75 280.621C258.824 280.454 258.924 280.286 259.038 280.133C260.809 279.13 262.848 278.488 264.84 278.04C267.033 277.546 269.292 277.225 271.532 277.492C273.002 277.673 274.406 278.101 275.736 278.722C278.791 280.153 281.418 282.613 283.417 285.38C284.446 286.791 285.349 288.348 285.95 289.979L285.957 289.992Z" fill="#F99116"/>
<path d="M367.729 166.862C367.729 167.904 367.408 168.981 366.66 169.696C365.851 170.485 364.681 170.739 363.685 171.267C362.642 171.828 361.793 172.697 360.797 173.339C359.935 173.887 358.852 174.261 357.889 174.021C353.939 179.562 348.417 183.974 342.14 186.608C339.112 187.871 335.89 188.74 332.889 190.024C331.525 190.605 330.215 191.267 328.985 192.096C326.331 193.874 324.112 196.348 321.558 198.233C320.402 199.088 319.172 199.83 317.808 200.318C317.681 199.556 317.614 198.774 317.574 198.012C317.501 196.849 317.441 195.672 317.421 194.503C317.354 191.541 317.541 188.593 318.377 185.779C320.623 185.505 322.628 184.128 324.339 182.617C326.184 180.993 327.862 179.128 329.994 177.905C331.285 177.169 332.708 176.688 334.126 176.24C341.057 174.034 348.223 172.33 354.761 169.141C354.761 169.141 355.877 166.781 356.679 165.799C357.95 164.221 359.574 162.911 360.563 161.146C361.325 159.789 361.773 158.131 363.083 157.303C363.498 157.035 364.16 156.942 364.4 157.369C364.514 157.583 364.474 157.844 364.434 158.078C364.273 158.947 364.046 159.803 363.745 160.632C364.561 160.525 365.396 160.959 365.938 161.581C366.325 162.029 366.599 162.557 366.827 163.112C366.827 163.165 366.847 163.212 366.887 163.259C366.96 163.446 367.027 163.626 367.094 163.813C367.148 163.954 367.188 164.094 367.241 164.241C367.515 165.083 367.736 165.959 367.743 166.848L367.729 166.862Z" fill="#F99116"/>
<path d="M288.858 174.703C289.313 174.911 289.707 175.272 289.961 175.706C290.342 176.348 290.469 177.117 290.436 177.865C290.329 180.245 288.578 182.438 286.305 183.14C286.392 184.583 286.479 186.027 286.559 187.464C286.606 188.093 286.632 188.708 286.672 189.329C285.697 190.854 284.206 192.023 282.528 192.712C280.67 193.474 278.584 193.641 276.599 193.327C275.309 193.12 273.985 192.672 273.042 191.809C273.183 191.208 273.317 190.6 273.457 190.005C273.377 189.991 273.283 189.971 273.203 189.951C271.258 189.49 269.433 188.447 268.203 186.883C268.022 186.656 267.849 186.408 267.701 186.161C267.046 185.118 266.612 183.935 266.278 182.745C265.529 180.098 265.215 177.27 265.823 174.603C266.518 174.69 267.26 174.436 267.902 174.115C268.691 173.728 269.46 173.226 270.335 173.133C272.16 172.939 273.731 174.516 275.556 174.703C276.953 174.844 278.31 174.142 279.426 173.286C280.028 172.825 280.603 172.317 281.298 172.023C281.987 171.729 282.856 171.702 283.444 172.177C283.805 172.478 284.019 172.932 284.373 173.24C284.868 173.667 285.563 173.748 286.111 174.095C286.465 174.316 286.726 174.75 286.739 175.138C287.074 174.73 287.628 174.49 288.163 174.523C288.404 174.536 288.644 174.597 288.858 174.703Z" fill="#F99116"/>
<path d="M301.927 237.819L300.911 244.316C300.851 244.69 300.791 245.071 300.737 245.446C298.411 246.575 295.771 246.89 293.19 247.043C284.754 247.545 276.225 246.428 268.203 243.788C270.162 243.327 272.047 242.565 273.918 241.796C277.695 240.238 281.452 238.607 285.389 237.504C289.32 236.408 293.464 235.84 297.495 236.455C299.026 236.689 300.557 237.11 301.92 237.819H301.927Z" fill="#F99116"/>
<path d="M236.351 218.642C235.602 219.678 234.987 220.894 234.346 221.977C233.396 223.568 232.2 225.012 230.816 226.242C227.32 229.357 222.795 230.995 218.664 233.194C214.071 235.634 209.913 238.803 205.782 241.958L205.756 241.944C205.227 243.054 204.505 244.05 203.496 244.745C201.691 245.975 199.352 245.982 197.179 245.781C195.007 245.581 192.767 245.22 190.682 245.842C190.16 246.002 189.632 246.216 189.091 246.203C188.543 246.176 187.954 245.815 187.914 245.26C187.874 244.692 188.416 244.264 188.89 243.943C189.512 243.542 190.12 243.134 190.735 242.727C190.835 242.205 191.029 241.71 191.283 241.243C191.865 240.2 192.794 239.324 193.823 238.702C195.394 237.76 197.206 237.305 198.977 236.877C200.762 236.45 204.318 235.307 204.318 235.307C210.582 230.059 213.262 220.888 220.509 217.044C222.14 216.175 223.918 215.634 225.582 214.825C228.189 213.568 230.475 211.656 232.193 209.33C232.534 210.58 232.929 211.817 233.396 213.027C233.858 214.21 234.379 215.366 234.994 216.476C235.402 217.225 235.856 217.953 236.351 218.655V218.642Z" fill="#F99116"/>
<path d="M321.073 203.735C320.953 204.163 320.699 204.664 320.257 204.651C320.124 204.651 320.003 204.597 319.896 204.53C319.81 204.47 319.729 204.403 319.656 204.33C318.566 203.287 318.072 201.843 317.824 200.326C319.195 199.838 320.418 199.096 321.574 198.24C321.655 200.099 321.588 201.95 321.08 203.735H321.073Z" fill="#272533"/>
<path d="M311.173 208.165C309.582 208.252 307.884 208.098 306.42 208.62C306.407 210.297 306.874 211.962 307.249 213.613C308.887 220.786 308.713 228.232 307.59 235.539V235.552C307.222 237.992 306.741 240.412 306.186 242.805C305.751 241.08 304.568 239.569 303.104 238.533C302.73 238.266 302.336 238.032 301.928 237.825C300.557 237.116 299.033 236.702 297.503 236.461C293.472 235.839 289.321 236.408 285.397 237.511C281.459 238.614 277.703 240.245 273.926 241.802C272.061 242.578 270.176 243.333 268.21 243.794C268.184 243.794 268.15 243.808 268.13 243.814C264.808 244.576 261.285 244.436 258.036 243.433C257.455 243.259 256.887 243.052 256.325 242.818C252.836 241.374 249.727 238.894 246.144 237.858C245.931 237.791 245.717 237.738 245.503 237.684C245.75 235.445 247.582 233.38 249.848 233.085C250.189 233.039 250.583 232.998 250.744 232.691C250.871 232.437 250.744 232.129 250.657 231.855C249.774 229.395 251.572 226.354 254.153 225.94C253.377 223.814 252.756 221.641 252.261 219.429C251.606 220.044 250.897 220.585 250.075 220.926C248.965 221.381 247.722 221.421 246.586 221.795C245.108 222.296 243.838 223.366 243.103 224.736C240.409 223.339 238.13 221.173 236.365 218.647C235.87 217.945 235.422 217.216 235.008 216.467C234.393 215.358 233.872 214.201 233.41 213.018C232.942 211.808 232.548 210.578 232.207 209.322C231.833 207.931 231.525 206.514 231.258 205.097C232.113 203.753 233.664 202.844 235.195 202.242C237.14 201.48 239.253 200.992 240.877 199.689C242.033 198.753 242.849 197.483 243.845 196.38C244.948 195.143 246.278 194.114 247.755 193.352C247.796 193.325 247.829 193.305 247.869 193.285C249.694 192.343 251.726 191.801 253.778 191.741C255.289 191.694 256.893 191.875 258.257 191.293C258.391 191.233 258.524 191.173 258.658 191.092C260.055 190.297 260.804 188.726 261.967 187.623C263.471 186.206 265.724 185.658 267.709 186.173C267.856 186.42 268.03 186.667 268.21 186.895C269.44 188.459 271.272 189.502 273.211 189.963C273.291 189.983 273.384 190.003 273.465 190.016C273.324 190.611 273.191 191.22 273.05 191.821C273.993 192.683 275.316 193.131 276.606 193.339C278.592 193.653 280.677 193.486 282.536 192.724C284.214 192.042 285.704 190.865 286.68 189.341C286.64 188.719 286.607 188.104 286.567 187.476C288.264 185.792 291.132 185.832 293.492 186.493C295.972 187.182 298.385 188.412 300.959 188.305C303.799 188.185 306.3 186.467 308.987 185.504C312.042 184.415 315.444 184.328 318.552 185.25C318.486 185.437 318.432 185.611 318.379 185.798C317.543 188.612 317.356 191.56 317.423 194.522C317.443 195.692 317.496 196.868 317.577 198.031C317.623 198.793 317.684 199.575 317.811 200.337C318.058 201.861 318.552 203.305 319.642 204.341C319.716 204.415 320.157 204.602 320.25 204.662C317.864 206.815 314.375 208.005 311.173 208.185V208.165Z" fill="#002A4C"/>
<path d="M300.738 245.453C300.791 245.079 300.852 244.698 300.912 244.324L301.928 237.826C302.336 238.04 302.723 238.267 303.104 238.535C304.568 239.571 305.751 241.075 306.186 242.806C306.173 242.866 306.159 242.927 306.139 242.987C304.481 244.23 302.63 245.206 300.678 245.881C300.698 245.741 300.718 245.6 300.745 245.46L300.738 245.453Z" fill="#272533"/>
<path d="M259.046 280.133C258.932 280.287 258.832 280.454 258.758 280.621C258.19 281.811 257.736 283.047 257.361 284.311C256.68 284.077 256.045 283.702 255.51 283.214C256.426 281.918 257.656 280.915 259.053 280.14L259.046 280.133Z" fill="#272533"/>
<path d="M286.722 294.104L286.822 294.198C286.755 294.271 286.689 294.338 286.622 294.412L286.528 294.519C285.826 293.897 285.164 293.215 284.576 292.48C285.084 291.684 285.552 290.855 285.953 289.986C286.448 291.31 286.735 292.687 286.722 294.104Z" fill="#272533"/>
<path d="M226.017 266.509C225.596 266.844 225.221 267.265 224.894 267.679C224.559 268.107 224.239 268.542 223.938 268.989C222.654 268.515 221.498 267.693 220.629 266.63L220.702 266.57C222.467 266.369 224.252 266.349 226.023 266.503L226.017 266.509Z" fill="#272533"/>
<path d="M289.092 169.818C288.911 171.449 288.737 173.08 288.858 174.704C288.644 174.604 288.403 174.537 288.163 174.524C287.628 174.49 287.073 174.731 286.739 175.138C286.725 174.757 286.465 174.316 286.11 174.096C285.562 173.748 284.867 173.668 284.372 173.24C284.018 172.933 283.811 172.478 283.443 172.177C282.855 171.703 281.986 171.729 281.297 172.023C280.602 172.318 280.027 172.826 279.426 173.287C278.309 174.142 276.952 174.844 275.555 174.704C273.73 174.517 272.16 172.939 270.335 173.133C269.459 173.227 268.684 173.728 267.901 174.116C267.26 174.437 266.524 174.691 265.823 174.604C265.669 174.584 265.515 174.544 265.361 174.49C263.991 173.955 263.597 171.997 262.213 171.515C260.903 171.054 259.532 172.171 258.149 172.044C256.878 171.93 255.956 170.814 255.281 169.724C254.612 168.634 253.951 167.431 252.794 166.896C251.23 166.174 249.091 166.856 247.894 165.626C247.487 165.205 247.293 164.65 247.246 164.069C247.206 163.574 247.273 163.066 247.406 162.591C247.674 161.595 248.295 160.586 249.291 160.325C250.334 160.058 251.377 160.68 252.313 161.201C252.687 161.415 253.095 161.615 253.529 161.669C255.408 161.89 256.504 159.323 258.376 158.995C260.067 158.701 261.511 160.365 263.229 160.519C265.849 160.767 267.808 157.524 270.435 157.718C272.414 157.865 273.724 159.918 275.616 160.546C277.407 161.134 279.319 160.365 281.064 159.664C282.808 158.955 284.814 158.313 286.511 159.122C287.889 159.777 288.704 161.261 289.065 162.752C289.64 165.058 289.359 167.438 289.092 169.818Z" fill="#272533"/>
<path d="M300.41 259.204C300.584 272.031 295.597 284.853 286.827 294.204L286.726 294.111C286.74 292.7 286.452 291.317 285.958 289.993C285.356 288.355 284.453 286.804 283.424 285.394C281.425 282.627 278.798 280.167 275.743 278.736C274.413 278.108 273.009 277.68 271.539 277.506C269.299 277.239 267.04 277.566 264.847 278.054C262.855 278.502 260.817 279.144 259.045 280.147C257.655 280.922 256.418 281.925 255.502 283.221C255.335 283.081 255.175 282.921 255.028 282.747H255.008C254.6 281.29 254.446 279.759 254.56 278.241C256.365 274.378 258.724 270.768 261.706 267.72C265.195 264.15 269.553 261.369 274.36 260.019C278.137 258.956 282.114 258.782 286.044 258.448C289.815 258.121 293.531 257.653 296.96 256.109C298.137 255.587 299.293 254.899 300.202 254.003C300.269 255.741 300.383 257.479 300.41 259.217V259.204Z" fill="#272533"/>
<path d="M259.387 325.863C251.92 335.428 239.56 341.478 234.172 352.461C234.386 352.561 234.607 352.681 234.821 352.788C232.922 353.617 230.703 353.631 228.764 352.929C228.457 352.822 228.149 352.688 227.862 352.541C227.815 352.521 227.775 352.494 227.728 352.474C227.508 352.354 227.294 352.233 227.08 352.093C226.973 352.02 226.859 351.946 226.752 351.873C226.645 351.792 226.538 351.705 226.431 351.625C226.224 351.458 226.03 351.278 225.836 351.084C225.723 350.97 225.616 350.85 225.516 350.716C233.323 340.034 235.629 326.157 242.414 314.873C244.306 318.757 247.508 321.959 251.332 323.944C252.816 324.713 254.387 325.294 256.011 325.662C257.101 325.916 258.27 326.063 259.373 325.876L259.387 325.863Z" fill="#3B3849"/>
<path d="M220.527 274.879C216.015 278.863 212.76 284.251 211.316 290.106C211.316 290.12 211.316 290.127 211.316 290.14C210.975 291.524 210.741 292.967 210.661 294.405C210.153 293.108 209.738 291.758 209.371 290.434C207.278 282.927 205.681 275.006 201.195 268.669V268.655C201.215 268.522 201.242 268.388 201.269 268.261C201.322 268 201.376 267.733 201.443 267.466C201.743 266.095 202.191 264.725 203.227 263.809C203.669 263.421 204.197 263.134 204.745 262.907C204.959 262.82 205.179 262.74 205.4 262.666L205.413 262.679C205.54 262.826 205.694 262.953 205.868 263.06C208.401 265.079 211.583 266.155 214.431 267.726C217.265 269.29 220.013 271.764 220.541 274.886L220.527 274.879Z" fill="#3B3849"/>
<path d="M300.739 245.453C300.712 245.594 300.692 245.734 300.672 245.874C300.465 247.238 300.291 248.595 300.211 249.965C300.138 251.309 300.151 252.646 300.211 253.99C299.302 254.892 298.145 255.574 296.969 256.095C293.546 257.633 289.823 258.107 286.053 258.435C282.122 258.769 278.145 258.943 274.368 260.006C269.562 261.356 265.204 264.137 261.714 267.706C258.74 270.755 256.373 274.364 254.568 278.228C254.254 278.89 253.96 279.565 253.686 280.24V280.267C253.245 280.307 252.804 280.3 252.362 280.253C251.64 280.18 250.925 279.999 250.23 279.745C249.1 279.338 248.024 278.716 247.061 278.007C245.036 276.51 243.352 274.598 241.44 272.954C239.267 271.089 236.794 269.591 234.14 268.502C231.553 267.432 228.806 266.757 226.018 266.51C224.247 266.356 222.462 266.376 220.697 266.577C222.128 261.811 224.895 257.546 228.037 253.689C232.95 247.646 238.866 242.418 245.464 238.274C245.684 238.134 245.912 237.993 246.132 237.866C249.709 238.902 252.824 241.382 256.313 242.826C256.875 243.053 257.443 243.267 258.024 243.441C261.28 244.444 264.796 244.584 268.118 243.822C268.145 243.822 268.178 243.809 268.198 243.802C276.22 246.443 284.749 247.552 293.185 247.058C295.766 246.904 298.406 246.59 300.732 245.46L300.739 245.453Z" fill="#3B3849"/>
<path d="M246.698 362.796C246.384 363.304 245.682 363.345 245.094 363.311C238.803 362.997 232.774 360.824 226.925 358.505C226.57 358.364 226.216 358.224 225.869 358.064C225.167 357.749 224.498 357.375 223.95 356.834C223.522 356.413 223.168 355.864 223.168 355.263C223.168 354.768 223.395 354.314 223.623 353.879C224.211 352.743 225.467 350.624 225.521 350.697C225.615 350.831 225.728 350.951 225.842 351.065C226.036 351.265 226.23 351.439 226.437 351.606C226.544 351.693 226.651 351.78 226.758 351.854C226.865 351.934 226.972 352.014 227.085 352.074C227.299 352.221 227.506 352.342 227.734 352.455C227.78 352.475 227.82 352.502 227.867 352.522C228.168 352.669 228.476 352.789 228.79 352.883C230.481 353.404 232.353 353.244 234.178 352.442C238.476 354.26 242.714 357.596 245.996 360.831C246.531 361.352 247.086 362.141 246.698 362.783V362.796Z" fill="#272533"/>
<path style="mix-blend-mode:overlay" opacity="0.7" d="M269.44 230.694C266.974 235.895 262.629 240.013 258.03 243.435C257.308 243.977 256.579 244.505 255.85 245.006C250.336 248.85 244.42 252.339 239.901 257.399C237.595 259.986 235.79 262.961 234.754 266.27C234.526 267.005 234.326 267.754 234.145 268.503C233.41 271.611 233.089 274.806 232.588 277.961C231.559 284.318 229.246 291.658 222.588 294.065C219.88 295.041 216.658 295.054 214.192 293.416C212.915 292.567 211.993 291.411 211.324 290.107C210.642 288.784 210.208 287.307 209.907 285.843C209.259 282.701 209.051 279.465 207.908 276.437C206.759 273.402 204.887 270.655 202.541 268.422C202.186 268.088 201.825 267.767 201.451 267.46C200.582 266.738 199.646 266.083 198.67 265.501C197.273 264.679 195.782 264.091 194.258 263.536C195.983 261.176 198.015 259.097 200.729 258.155C201.431 257.914 202.233 257.76 202.915 258.068C204.539 258.803 204.258 261.384 205.402 262.66L205.415 262.674C205.542 262.821 205.696 262.948 205.869 263.055C208.403 265.073 211.585 266.15 214.432 267.721C217.267 269.285 220.014 271.758 220.542 274.88C220.602 275.201 220.629 275.528 220.636 275.856C221.384 273.416 222.501 271.09 223.945 268.984C222.661 268.509 221.505 267.687 220.636 266.624L220.709 266.564C222.14 261.798 224.907 257.533 228.049 253.676C232.962 247.633 238.878 242.406 245.476 238.261C245.697 238.121 245.924 237.981 246.144 237.854C245.93 237.787 245.717 237.733 245.503 237.68C245.75 235.44 247.582 233.375 249.848 233.081C250.189 233.034 250.583 232.994 250.743 232.686C250.87 232.432 250.743 232.125 250.657 231.851C249.774 229.391 251.572 226.349 254.153 225.935C253.377 223.809 252.756 221.637 252.261 219.424C251.606 220.039 250.897 220.58 250.075 220.921C248.965 221.376 247.722 221.416 246.586 221.79C245.108 222.292 243.838 223.361 243.103 224.732C240.409 223.335 238.13 221.169 236.365 218.642C235.616 219.678 235.001 220.895 234.359 221.978C233.41 223.569 232.214 225.012 230.83 226.242C227.334 229.357 222.808 230.995 218.677 233.194C214.085 235.634 209.927 238.803 205.796 241.958L205.769 241.945C205.241 243.054 204.519 244.05 203.51 244.745C201.705 245.975 199.365 245.982 197.193 245.782C195.02 245.581 192.781 245.22 190.695 245.842C190.174 246.002 189.646 246.216 189.104 246.203C188.556 246.176 187.968 245.815 187.928 245.26C187.888 244.692 188.429 244.264 188.904 243.943C189.526 243.542 190.134 243.134 190.749 242.727C190.849 242.205 191.043 241.711 191.297 241.243C191.879 240.2 192.808 239.324 193.837 238.703C195.408 237.76 197.22 237.305 198.991 236.878C200.776 236.45 204.332 235.307 204.332 235.307C210.595 230.059 213.276 220.888 220.522 217.044C222.153 216.175 223.931 215.634 225.596 214.825C228.203 213.568 230.489 211.656 232.207 209.33C231.833 207.94 231.525 206.523 231.258 205.106C232.113 203.762 233.664 202.853 235.195 202.251C237.14 201.489 239.253 201.001 240.877 199.698C242.033 198.762 242.849 197.492 243.845 196.389C244.948 195.152 246.278 194.123 247.755 193.361C247.809 193.434 247.842 193.421 247.869 193.294C249.694 192.351 251.726 191.81 253.778 191.75C255.289 191.703 256.893 191.883 258.257 191.302C259.106 198.521 264.086 204.39 267.508 210.567C269.34 213.869 270.871 217.445 271.225 221.242C271.526 224.504 270.851 227.753 269.447 230.708L269.44 230.694Z" fill="url(#paint7_linear_342_21813)"/>
<path style="mix-blend-mode:overlay" opacity="0.7" d="M284.634 267.412C282.863 271.336 279.801 274.685 276.793 277.7C276.445 278.047 276.098 278.388 275.743 278.729C272.876 281.53 269.874 284.177 267.14 287.112C263.912 290.561 261.291 294.385 259.607 298.81C257.829 303.482 256.906 308.416 255.583 313.222C254.553 316.959 253.203 320.542 251.345 323.931C251.057 324.459 250.756 324.987 250.435 325.502C246.157 332.527 240.335 338.403 235.041 344.633C232.808 347.267 230.649 349.994 228.777 352.895C228.764 352.895 228.764 352.915 228.757 352.922C227.681 354.58 226.705 356.291 225.863 358.069C225.161 357.755 224.492 357.381 223.944 356.839C223.516 356.418 223.162 355.87 223.162 355.268C223.162 354.774 223.389 354.319 223.617 353.885C224.205 352.748 225.462 350.629 225.515 350.703C233.323 340.021 235.629 326.143 242.414 314.86C243.062 313.777 243.751 312.734 244.486 311.711C247.347 307.734 250.937 304.224 253.069 299.813C255.395 294.973 255.797 289.438 257.347 284.311C256.666 284.077 256.03 283.703 255.496 283.215C255.329 283.074 255.168 282.914 255.021 282.74H255.001C254.593 281.283 254.44 279.752 254.553 278.235C256.358 274.371 258.718 270.761 261.699 267.713C265.188 264.143 269.547 261.363 274.353 260.012C278.13 258.949 282.107 258.776 286.038 258.441C286.606 261.443 285.844 264.698 284.621 267.419L284.634 267.412Z" fill="url(#paint8_linear_342_21813)"/>
<path style="mix-blend-mode:overlay" opacity="0.7" d="M367.732 166.861C367.732 167.904 367.411 168.98 366.663 169.696C365.854 170.484 364.684 170.738 363.688 171.266C362.645 171.828 361.796 172.697 360.8 173.339C359.938 173.887 358.855 174.261 357.892 174.02C353.942 179.562 348.42 183.974 342.143 186.608C339.115 187.871 335.893 188.74 332.892 190.023C331.528 190.605 330.218 191.267 328.988 192.096C326.334 193.874 324.115 196.347 321.561 198.232C321.642 200.091 321.575 201.942 321.067 203.727C320.946 204.155 320.692 204.656 320.251 204.643C317.865 206.795 314.375 207.985 311.173 208.166C309.582 208.252 307.885 208.099 306.421 208.62C306.407 210.298 306.875 211.962 307.25 213.614C308.887 220.786 308.713 228.233 307.59 235.539C307.397 231.187 306.548 226.863 305.064 222.772C304.335 220.759 303.453 218.801 302.417 216.929C301.38 215.064 299.963 213.34 299.201 211.334C298.439 209.335 298.9 207.39 300.184 205.726C301.487 204.034 303.239 202.611 304.917 201.307C308.393 198.607 312.263 196.441 316.387 194.883C316.728 194.756 317.069 194.629 317.417 194.516C321.207 193.179 325.144 192.249 328.794 190.538C330.004 189.97 331.154 189.315 332.237 188.566C332.892 188.112 333.52 187.624 334.122 187.096C335.633 185.765 336.976 184.268 338.306 182.764C340.967 179.763 343.641 176.661 347.284 174.829C351.261 172.831 355.753 172.316 359.831 170.625C362.852 169.375 365.887 167.322 367.224 164.268C367.498 165.11 367.719 165.986 367.725 166.875L367.732 166.861Z" fill="url(#paint9_linear_342_21813)"/>
<path style="mix-blend-mode:overlay" opacity="0.7" d="M273.457 190.004C273.457 190.004 279.273 191.615 283.892 186.735C283.892 186.735 283.598 193.928 273.043 191.809L273.457 190.004Z" fill="url(#paint10_linear_342_21813)"/>
<path style="mix-blend-mode:overlay" opacity="0.7" d="M289.092 169.818C288.985 169.122 288.758 168.44 288.437 167.805C287.454 165.907 285.629 164.597 283.523 164.236C281.177 163.841 279.105 164.924 276.973 165.733C275.114 166.435 272.855 166.89 271.057 165.787C269.613 164.898 268.443 162.799 266.484 163.44C265.662 163.708 264.974 164.303 264.272 164.784C263.556 165.279 262.788 165.7 261.912 165.787C259.927 166.001 258.202 164.67 256.357 164.162C254.144 163.547 252.072 164.804 249.86 164.717C248.964 164.677 248.061 164.463 247.246 164.069C247.206 163.574 247.273 163.066 247.406 162.591C247.674 161.595 248.295 160.586 249.291 160.325C250.334 160.058 251.377 160.68 252.313 161.201C252.687 161.415 253.095 161.615 253.529 161.669C255.408 161.89 256.504 159.323 258.376 158.995C260.067 158.701 261.511 160.365 263.229 160.519C265.849 160.767 267.808 157.524 270.435 157.718C272.414 157.865 273.724 159.918 275.616 160.546C277.407 161.134 279.319 160.365 281.064 159.664C282.808 158.955 284.814 158.313 286.511 159.122C287.889 159.777 288.704 161.261 289.065 162.752C289.64 165.058 289.359 167.438 289.092 169.818Z" fill="url(#paint11_linear_342_21813)"/>
<path d="M465.779 275.51C459.722 268.671 461.467 257.194 469.676 249.927C477.878 242.661 489.482 242.314 495.539 249.152C501.595 255.99 499.85 267.468 491.642 274.734C483.439 282 471.835 282.348 465.779 275.51ZM494.429 250.135C488.914 243.911 478.252 244.312 470.658 251.037C463.065 257.762 461.373 268.297 466.888 274.52C472.403 280.744 483.065 280.343 490.659 273.618C498.253 266.893 499.944 256.358 494.429 250.135Z" fill="#FF781D"/>
<path d="M455.906 282.37C462.136 272.149 462.176 266.36 462.176 266.306L463.66 266.293C463.66 266.54 463.66 272.503 457.176 283.145L455.913 282.376L455.906 282.37Z" fill="#FF781D"/>
<path d="M457.797 284.499L457.182 283.149C468.532 277.995 474.428 278.69 474.675 278.724L474.481 280.194C474.428 280.188 468.693 279.546 457.79 284.499H457.797Z" fill="#FF781D"/>
<path d="M458.725 285.403C458.491 285.61 458.184 285.71 457.89 285.69C457.642 285.677 457.402 285.583 457.208 285.416L447.91 293.652C447.321 294.173 446.432 294.113 445.911 293.531L445.51 293.083C444.988 292.495 445.049 291.613 445.637 291.091L454.929 282.863C454.588 282.388 454.654 281.719 455.096 281.325C455.33 281.118 455.637 281.018 455.931 281.038C456.185 281.051 456.446 281.158 456.646 281.345L458.913 283.905H458.906C459.22 284.38 459.147 285.028 458.705 285.416L458.725 285.403Z" fill="#F9EBDC"/>
<path d="M389.806 238.055C388.556 237.273 387.039 236.972 385.562 237.025C383.991 237.072 382.46 237.486 380.976 237.988C379.639 238.436 378.322 238.97 377.179 239.793C376.036 240.615 375.073 241.745 374.679 243.088C374.365 242.453 374.01 241.818 373.482 241.343C372.948 240.869 372.219 240.581 371.524 240.728C370.661 240.916 370.073 241.738 369.813 242.58C369.365 244.024 369.699 245.695 370.668 246.858C370.775 246.985 370.895 247.126 370.889 247.286C370.875 247.5 370.668 247.647 370.474 247.741C368.703 248.65 366.711 249.104 364.719 249.064C364.465 249.058 364.211 249.038 363.957 249.017C363.917 249.017 363.883 249.017 363.85 249.004C363.569 248.429 363.328 247.841 363.135 247.239C361.824 243.282 362.239 238.757 364.498 235.267C365.207 234.184 366.062 233.215 366.958 232.272C366.992 232.239 367.018 232.206 367.058 232.172C367.079 232.145 367.105 232.119 367.125 232.092C367.393 231.805 367.673 231.53 367.954 231.256C368.449 230.768 368.977 230.3 369.552 229.893C371.731 228.335 374.492 227.707 377.166 227.881C380.996 228.128 384.672 230.046 387.119 232.981C387.607 233.563 388.042 234.178 388.423 234.833C389.017 235.849 389.479 236.925 389.813 238.041L389.806 238.055Z" fill="#272533"/>
<path d="M390.167 248.283C389.899 249.807 389.512 251.331 388.837 252.728C386.771 256.999 381.824 259.68 377.118 259.092C376.31 258.991 375.494 258.784 374.779 258.416C374.612 259.439 374.511 260.475 374.478 261.518C371.837 259.954 369.244 258.303 366.704 256.585C366.597 256.511 366.49 256.438 366.383 256.364C364.919 255.362 363.415 254.319 361.811 253.603C362.639 252.18 363.341 250.696 363.91 249.152C363.923 249.111 363.943 249.078 363.956 249.031C364.21 249.051 364.464 249.071 364.718 249.078C366.704 249.118 368.702 248.664 370.474 247.754C370.668 247.654 370.875 247.514 370.888 247.3C370.888 247.139 370.775 246.999 370.668 246.872C369.698 245.709 369.364 244.038 369.812 242.594C370.066 241.752 370.654 240.929 371.523 240.742C372.219 240.595 372.947 240.883 373.482 241.357C374.01 241.832 374.364 242.467 374.678 243.102C375.073 241.758 376.035 240.622 377.179 239.806C378.322 238.984 379.645 238.449 380.975 238.002C382.459 237.5 383.99 237.086 385.561 237.039C387.038 236.992 388.556 237.286 389.806 238.068C390.795 241.324 390.768 244.913 390.167 248.296V248.283Z" fill="#FFAF45"/>
<path d="M367.949 231.262C367.668 231.536 367.387 231.81 367.12 232.098C367.1 232.125 367.073 232.151 367.053 232.178C367.013 232.211 366.986 232.245 366.953 232.278C366.157 231.496 364.814 231.449 363.764 231.877C362.628 232.338 361.726 233.214 360.77 233.99C360.242 234.411 359.66 234.825 358.985 234.912C357.962 235.039 356.993 234.371 356.291 233.615C355.582 232.853 355.001 231.957 354.132 231.389C352.775 230.493 350.963 230.587 349.426 231.128C347.895 231.677 346.538 232.619 345.108 233.395C343.677 234.17 342.073 234.792 340.455 234.605C336.805 234.183 334.8 230.039 331.451 228.528C329.572 227.673 327.393 227.739 325.368 228.134C323.329 228.528 320.936 229.157 319.372 227.793C318.449 226.984 318.115 225.701 318.035 224.477C317.935 223.047 318.115 221.603 318.556 220.239C318.777 219.537 319.071 218.849 319.425 218.207C320.094 216.984 321.07 215.827 322.393 215.366C324.572 214.611 326.899 215.934 328.717 217.351C330.535 218.762 332.454 220.42 334.753 220.433C336.658 220.44 338.356 219.31 340.001 218.334C341.645 217.358 343.563 216.476 345.395 217.011C348.41 217.893 349.285 221.95 352.019 223.481C353.597 224.364 355.529 224.263 357.314 223.983C359.105 223.702 360.917 223.267 362.695 223.588C364.5 223.909 366.144 225.032 367.107 226.596C367.962 227.973 368.263 229.671 367.956 231.262H367.949Z" fill="#272533"/>
<path d="M389.733 330.712C389.285 331.935 388.737 333.132 388.102 334.295C387.995 334.495 387.875 334.703 387.755 334.903C387.601 335.177 387.44 335.445 387.273 335.705C387.106 335.973 386.939 336.233 386.765 336.494C386.585 336.762 386.411 337.022 386.224 337.283C386.037 337.537 385.85 337.791 385.662 338.038C385.475 338.286 385.281 338.533 385.087 338.78C384.68 339.275 384.265 339.763 383.837 340.244C383.697 340.398 383.563 340.545 383.423 340.692C383.162 340.973 382.895 341.247 382.621 341.528C382.554 341.608 382.474 341.675 382.394 341.755C382.394 341.762 382.38 341.775 382.367 341.782C382.193 341.962 382.013 342.129 381.832 342.296C381.799 342.343 381.759 342.377 381.712 342.417C381.531 342.591 381.351 342.764 381.15 342.931C381.15 342.938 381.144 342.945 381.13 342.952C380.809 343.252 380.475 343.546 380.134 343.834C379.92 344.008 379.706 344.188 379.492 344.362C379.312 344.509 379.138 344.649 378.964 344.783C378.744 344.97 378.516 345.137 378.289 345.304C378.122 345.432 377.962 345.552 377.795 345.672C377.534 345.866 377.266 346.053 376.999 346.24C373.47 348.687 369.546 350.686 365.441 351.989C362.3 352.985 359.057 353.56 355.815 353.614C353.335 353.66 350.855 353.4 348.429 352.778C343.288 351.461 338.783 348.707 334.692 345.284C331.122 342.29 327.867 338.787 324.792 335.298C323.977 334.375 323.148 333.433 322.305 332.517C321.222 331.32 320.099 330.17 318.896 329.108C318.201 328.506 317.486 327.924 316.73 327.39C316.643 327.323 316.557 327.263 316.463 327.203C314.638 325.946 312.626 324.977 310.514 324.315C307.325 323.312 303.909 323.011 300.594 323.493C300.52 323.493 300.447 323.513 300.373 323.519C303.114 317.182 306.276 310.939 310.788 305.725C311.356 305.07 311.944 304.435 312.552 303.82C313.468 302.897 314.438 302.021 315.447 301.199C319.157 298.198 323.468 295.985 328.148 295.176C328.896 295.049 329.712 294.922 330.22 294.354C330.307 294.254 330.387 294.147 330.447 294.033C330.514 293.92 330.574 293.806 330.628 293.686C330.741 293.438 330.835 293.191 330.955 292.957C331.597 291.774 334.752 291.433 335.274 292.028C335.802 292.623 336.41 293.138 337.025 293.499C340.862 295.865 345.441 297.168 349.926 298.559C355.615 300.317 361.183 302.209 364.987 306.547C365.328 306.935 365.649 307.336 365.949 307.757C365.869 307.837 368.744 312.042 370.776 313.392C376.972 317.51 383.597 321.768 390.977 322.236C391.191 325.164 390.716 328.005 389.733 330.712Z" fill="#007F6E"/>
<path d="M394.207 271.298C393.739 272.013 393.404 272.808 393.13 273.624C392.97 274.085 392.843 274.566 392.716 275.034C391.86 278.31 391.446 281.692 390.65 284.988C390.584 285.262 390.517 285.549 390.443 285.823C390.363 286.097 390.289 286.378 390.209 286.652C390.202 286.686 390.196 286.726 390.176 286.752C390.122 286.953 390.055 287.16 389.995 287.367C389.882 287.722 389.761 288.076 389.634 288.424C389.588 288.551 389.541 288.678 389.487 288.798C389.42 288.998 389.34 289.192 389.26 289.386C389.24 289.446 389.207 289.506 389.18 289.567C389.066 289.847 388.939 290.128 388.805 290.402C388.17 291.739 387.388 292.996 386.419 294.112C384.741 292.809 382.368 293.216 380.242 293.25C379.053 293.263 377.863 293.136 376.7 292.869C373.979 298.384 370.329 303.437 365.951 307.756C365.65 307.334 365.329 306.933 364.988 306.546C361.185 302.207 355.616 300.316 349.928 298.557C345.442 297.167 340.863 295.864 337.026 293.497C336.411 293.136 335.803 292.622 335.275 292.027C334.753 291.432 333.356 286.164 334.56 284.694C334.633 284.6 334.713 284.513 334.794 284.433C335.041 284.179 335.322 283.958 335.602 283.744C335.79 283.604 335.983 283.464 336.171 283.317C336.358 283.176 336.545 283.029 336.719 282.869C338.651 281.091 339.085 278.256 339.486 275.663C340.121 271.565 341.004 267.454 342.935 263.784C343.945 261.859 345.235 260.094 346.746 258.537C346.933 258.343 347.127 258.149 347.321 257.962C347.521 257.775 347.715 257.587 347.922 257.407C348.932 256.504 350.021 255.689 351.178 254.98C351.412 254.84 351.646 254.7 351.879 254.566C353.978 253.383 356.352 252.527 358.745 252.748C359.814 252.855 360.83 253.169 361.813 253.597C363.417 254.312 364.921 255.361 366.385 256.357C366.492 256.431 366.599 256.504 366.706 256.578C367.421 257.066 368.15 257.541 368.872 258.022H368.879C370.142 258.851 371.419 259.66 372.702 260.442C373.29 260.809 373.885 261.164 374.48 261.511C380.797 265.261 387.402 268.53 394.207 271.298Z" fill="#F9EBDC"/>
<path d="M310.522 324.313C309.512 326.185 308.556 328.09 307.661 330.029C306.464 329.427 305.374 328.625 304.385 327.723C302.988 326.439 301.791 324.968 300.602 323.491C303.917 323.01 307.333 323.311 310.528 324.313H310.522Z" fill="#272533"/>
<path d="M334.691 345.283C329.959 350.57 325.219 355.858 320.487 361.146C314.651 367.676 308.227 374.542 299.664 376.413C294.035 377.65 288.2 376.527 282.551 375.411C272.738 373.472 262.932 371.527 253.119 369.588C252.885 368.866 252.738 368.124 252.664 367.376C252.604 366.727 252.604 366.065 252.664 365.417C252.778 365.424 252.885 365.424 252.998 365.417C259.957 365.384 266.013 360.564 272.705 358.438C277.992 356.754 283.828 356.807 289.089 358.585C290.66 359.113 292.284 359.802 293.908 359.501C296.282 359.06 297.766 356.714 298.735 354.508C300.573 350.357 301.689 345.931 303.093 341.613C304.377 337.656 305.894 333.792 307.645 330.015C308.541 328.077 309.497 326.172 310.506 324.3C312.619 324.962 314.631 325.931 316.456 327.181C316.549 327.241 316.636 327.308 316.716 327.368C319.798 329.547 322.285 332.448 324.778 335.283C327.853 338.772 331.108 342.275 334.678 345.27L334.691 345.283Z" fill="#FFAF45"/>
<path d="M430.135 389.616C429.674 390.271 429.166 390.893 428.611 391.474C427.595 392.544 426.445 393.473 425.182 394.228C421.037 390.371 416.391 387.069 411.398 384.408C408.691 382.958 405.863 381.688 403.457 379.789C399.88 376.955 397.481 372.904 395.595 368.753C394.546 366.44 393.597 364.014 391.865 362.162C390.341 360.524 388.303 359.448 386.224 358.612C379.465 355.899 371.832 355.364 365.428 351.995C369.532 350.691 373.463 348.692 376.985 346.253C377.253 346.065 377.52 345.878 377.781 345.678C377.948 345.557 378.108 345.437 378.276 345.31C378.503 345.143 378.723 344.976 378.951 344.789C379.125 344.655 379.298 344.515 379.479 344.368C379.699 344.2 379.907 344.02 380.127 343.839C380.468 343.552 380.796 343.258 381.123 342.957C381.137 342.957 381.143 342.944 381.143 342.937C381.337 342.77 381.524 342.596 381.698 342.422C381.745 342.382 381.785 342.342 381.818 342.302C382.006 342.135 382.186 341.961 382.347 341.787C382.367 341.787 382.373 341.767 382.373 341.76C382.453 341.68 382.534 341.613 382.607 341.533C382.881 341.252 383.149 340.978 383.409 340.698C383.55 340.551 383.69 340.404 383.824 340.25C384.258 339.768 384.673 339.28 385.074 338.786C385.274 338.545 385.462 338.298 385.649 338.044C385.843 337.797 386.023 337.536 386.21 337.282C386.397 337.021 386.585 336.76 386.752 336.493C386.926 336.226 387.099 335.972 387.26 335.704C387.427 335.437 387.587 335.176 387.748 334.902C387.868 334.702 387.982 334.494 388.095 334.287C388.73 333.131 389.279 331.934 389.726 330.704C395.749 336.052 401.03 342.228 405.368 349.027C409.667 355.758 413.022 363.044 416.853 370.057C420.69 377.069 424.146 384.322 430.135 389.609V389.616Z" fill="#FFAF45"/>
<path d="M252.003 380.07C252.171 382.162 252.505 384.341 251.763 386.306C251.469 387.075 250.92 387.864 250.098 387.971C249.43 388.064 248.781 387.67 248.367 387.142C247.953 386.607 247.745 385.952 247.545 385.31C246.482 381.914 245.412 378.519 244.343 375.123C243.554 372.596 242.752 369.889 243.467 367.342C243.581 366.934 243.748 366.52 244.062 366.232C244.343 365.978 244.71 365.858 245.078 365.758C247.525 365.083 250.125 365.216 252.658 365.41V365.43C252.525 366.827 252.672 368.258 253.113 369.601C252.999 369.575 252.886 369.555 252.772 369.528C251.99 372.984 251.723 376.553 251.997 380.076L252.003 380.07Z" fill="#272533"/>
<path d="M447.195 382.718C445.911 385.92 443.919 388.794 441.874 391.575C440.163 393.875 438.344 396.188 436.105 397.939C435.437 398.46 434.735 398.935 433.986 399.336C433.197 399.764 432.308 400.118 431.426 399.964C430.477 399.804 429.728 399.089 429.046 398.414C427.682 397.063 426.325 395.713 424.955 394.363C425.035 394.323 425.109 394.269 425.189 394.222C426.452 393.467 427.602 392.538 428.618 391.468C429.173 390.887 429.681 390.265 430.142 389.61H430.149C434.3 387.992 438.371 385.151 441.967 382.524C443.07 381.715 444.153 380.866 445.37 380.245C445.784 380.024 446.266 379.837 446.714 379.984C447.215 380.138 447.516 380.672 447.549 381.194C447.583 381.715 447.402 382.223 447.208 382.711L447.195 382.718Z" fill="#272533"/>
<path d="M431.746 295.081C431.632 295.107 431.519 295.128 431.412 295.154C424.654 296.612 417.514 298.069 410.93 295.95C409.005 295.335 407.18 294.426 405.261 293.791C403.463 293.196 401.592 292.841 399.733 292.48C396.09 291.785 392.447 291.097 388.811 290.401C388.944 290.127 389.071 289.847 389.185 289.566C389.212 289.506 389.245 289.446 389.265 289.385C389.345 289.192 389.426 288.998 389.492 288.797C389.546 288.67 389.593 288.55 389.639 288.423C389.773 288.075 389.887 287.721 390 287.36C390.067 287.159 390.127 286.952 390.188 286.752C390.201 286.718 390.214 286.685 390.221 286.651C390.301 286.377 390.375 286.097 390.455 285.823C390.529 285.548 390.595 285.261 390.669 284.987C391.464 281.691 391.872 278.316 392.728 275.04C392.855 274.566 392.982 274.091 393.142 273.623C397.093 275.896 401.043 278.169 404.987 280.435C407.541 281.905 410.168 283.396 413.082 283.851C414.286 284.038 415.516 284.044 416.732 284.051C421.071 284.078 425.409 284.171 429.734 284.345C430.683 285.849 431.358 287.534 431.706 289.272C432.107 291.184 432.134 293.169 431.759 295.087L431.746 295.081Z" fill="#FFAF45"/>
<path d="M444.915 292.233C440.53 293.183 436.138 294.139 431.746 295.081C432.12 293.163 432.094 291.177 431.693 289.265C431.338 287.527 430.67 285.85 429.721 284.339C434.621 284.513 439.52 284.787 444.414 285.148C444.754 285.916 445.002 286.725 445.142 287.554C445.423 289.105 445.349 290.716 444.915 292.233Z" fill="#F9EBDC"/>
<path d="M458.477 290.443C457.902 290.691 457.254 290.831 456.793 291.252C456.345 291.673 456.131 292.335 455.589 292.642C455.255 292.836 454.867 292.85 454.5 292.91C453.256 293.117 452.133 293.832 450.877 293.953C450.255 294.02 449.627 293.933 449.025 293.806C447.461 293.478 446.298 293.077 444.947 292.228C444.934 292.228 444.927 292.228 444.914 292.228C445.349 290.711 445.422 289.106 445.141 287.549C445.001 286.72 444.754 285.911 444.413 285.142C444.413 285.122 444.399 285.102 444.393 285.082C445.75 284.648 446.124 283.705 447.32 282.93C448.31 282.301 449.546 282.255 450.723 282.228C451.986 282.201 453.256 282.174 454.526 282.148C454.821 282.141 455.121 282.134 455.389 282.255C455.663 282.368 455.89 282.642 455.85 282.936C455.823 283.13 455.703 283.284 455.569 283.424C455.228 283.792 454.827 284.093 454.386 284.327C454.286 284.38 454.179 284.427 454.132 284.527C454.005 284.748 454.246 285.009 454.46 285.149C454.567 285.223 454.66 285.283 454.767 285.35C456.137 286.219 457.615 286.927 458.858 287.97C459.199 288.251 459.54 288.612 459.58 289.06C459.634 289.688 459.059 290.189 458.477 290.437V290.443Z" fill="#FFAF45"/>
<path style="mix-blend-mode:overlay" opacity="0.7" d="M366.704 256.578C364.304 257.574 362.038 258.884 360.066 260.582C355.106 264.86 352.867 271.104 352.326 277.488C352.172 279.232 352.138 280.984 352.185 282.728C352.232 284.6 352.419 286.465 352.439 288.337C352.479 291.866 352.011 295.596 349.926 298.557C349.926 298.564 349.912 298.578 349.906 298.584C348.936 299.948 347.64 301.178 346.142 301.947C344.799 302.642 343.328 303.096 341.918 303.651C340.541 304.186 339.03 304.774 337.954 305.824C336.77 306.973 336.938 308.598 337.339 310.062C337.78 311.646 338.482 313.183 338.488 314.848C338.502 316.499 337.673 317.97 336.456 319.053C334.19 321.078 330.988 321.372 328.094 321.606C325.039 321.853 321.549 321.92 319.016 323.866C317.833 324.781 317.138 326.018 316.73 327.388C316.175 329.22 316.128 331.285 316.115 333.117C316.095 334.888 316.155 336.667 316.068 338.445C315.988 340.149 315.62 341.774 315.226 343.431C314.277 347.362 313.047 351.293 311.041 354.815C307.084 361.754 299.497 366.226 291.642 367.142C287.19 367.663 282.752 366.861 278.3 366.607C273.32 366.333 268.34 366.346 263.366 366.6C259.803 366.774 256.194 366.808 252.664 367.382C252.604 366.734 252.604 366.072 252.664 365.424C252.785 365.431 252.892 365.431 252.998 365.424C259.964 365.397 266.013 360.571 272.705 358.452C277.999 356.767 283.835 356.821 289.096 358.599C290.66 359.127 292.291 359.815 293.915 359.515C296.288 359.067 297.772 356.72 298.748 354.515C300.586 350.363 301.703 345.938 303.1 341.62C304.383 337.669 305.901 333.799 307.652 330.029C306.456 329.427 305.366 328.625 304.377 327.723C302.98 326.432 301.783 324.968 300.593 323.491C300.52 323.491 300.446 323.511 300.373 323.525C303.113 317.181 306.275 310.937 310.787 305.723C311.355 305.068 311.944 304.433 312.552 303.818C313.468 302.896 314.437 302.02 315.446 301.198C319.156 298.197 323.468 295.984 328.147 295.175C328.896 295.048 329.711 294.921 330.219 294.353C330.306 294.253 330.387 294.146 330.447 294.032C330.514 293.918 330.574 293.805 330.627 293.684C330.741 293.437 330.834 293.19 330.955 292.956C331.596 291.773 334.752 291.432 335.273 292.027C334.752 291.432 333.355 286.164 334.558 284.694C334.631 284.6 334.712 284.513 334.792 284.433C335.039 284.179 335.32 283.958 335.601 283.744C335.788 283.604 335.982 283.464 336.169 283.317C336.356 283.176 336.543 283.029 336.717 282.869C338.649 281.091 339.083 278.256 339.484 275.663C340.119 271.565 341.002 267.454 342.934 263.784C343.943 261.859 345.233 260.094 346.744 258.537C346.931 258.343 347.125 258.149 347.319 257.962C347.519 257.775 347.713 257.587 347.92 257.407C348.93 256.504 350.019 255.689 351.176 254.98C351.41 254.84 351.644 254.7 351.878 254.566C353.977 253.383 356.35 252.527 358.743 252.748C359.812 252.855 360.828 253.169 361.811 253.597C363.415 254.312 364.919 255.361 366.383 256.357C366.49 256.431 366.597 256.504 366.704 256.578Z" fill="url(#paint12_linear_342_21813)"/>
<path style="mix-blend-mode:overlay" opacity="0.7" d="M436.106 397.937C435.437 398.458 434.735 398.933 433.987 399.334C433.198 399.762 432.309 400.116 431.426 399.962C430.477 399.802 429.728 399.087 429.047 398.412C427.683 397.061 426.326 395.711 424.956 394.361C425.036 394.321 425.109 394.267 425.19 394.22C421.045 390.363 416.399 387.061 411.406 384.401C408.699 382.95 405.871 381.68 403.464 379.782C399.888 376.947 397.488 372.896 395.603 368.745C394.554 366.432 393.605 364.006 391.873 362.154C390.349 360.516 388.31 359.44 386.231 358.605C379.473 355.891 371.839 355.356 365.436 351.987C369.54 350.683 373.47 348.685 376.993 346.245C377.261 346.058 377.528 345.87 377.789 345.67C377.956 345.55 378.116 345.429 378.283 345.302C378.511 345.135 378.731 344.968 378.959 344.781C379.132 344.647 379.306 344.507 379.487 344.36C379.707 344.193 379.914 344.012 380.135 343.832C380.476 343.544 380.804 343.25 381.131 342.949C382.655 343.664 384.146 344.447 385.61 345.249C388.919 347.06 392.047 349.213 394.654 351.947C395.938 353.297 397.081 354.781 398.077 356.359C399.186 358.103 400.049 359.975 400.951 361.84C402.729 365.517 404.567 369.206 407.074 372.455C408.398 374.16 409.888 375.711 411.533 377.108C413.451 378.745 415.37 380.377 417.295 382.001C421.058 385.169 424.802 388.365 428.619 391.473C428.672 391.52 428.732 391.567 428.793 391.613C430.778 393.231 432.837 394.728 434.695 396.5C435.183 396.961 435.664 397.436 436.112 397.937H436.106Z" fill="url(#paint13_linear_342_21813)"/>
<path style="mix-blend-mode:overlay" opacity="0.7" d="M458.479 290.443C457.904 290.691 457.256 290.831 456.795 291.252C456.347 291.673 456.133 292.335 455.591 292.643C455.257 292.836 454.87 292.85 454.502 292.91C453.259 293.117 452.135 293.832 450.879 293.953C450.257 294.02 449.629 293.933 449.027 293.806C447.463 293.478 446.3 293.077 444.95 292.228C444.936 292.228 444.929 292.228 444.916 292.228C440.531 293.177 436.139 294.133 431.747 295.076C431.634 295.102 431.52 295.123 431.413 295.149C424.655 296.607 417.516 298.064 410.931 295.945C409.006 295.33 407.181 294.421 405.263 293.786C403.465 293.191 401.593 292.836 399.735 292.475C396.091 291.78 392.448 291.092 388.812 290.397C388.177 291.733 387.395 292.99 386.426 294.106C384.748 292.796 382.375 293.211 380.249 293.237C379.059 293.251 377.869 293.131 376.706 292.856C373.932 298.478 370.449 303.365 365.957 307.743C365.93 307.716 363.671 305.049 364.099 303.492C364.46 302.188 365.757 301.272 366.525 300.216C367.869 298.351 368.056 296.226 368.417 294.033C368.745 292.041 369.453 290.263 370.904 288.826C373.611 286.165 377.655 285.577 381.292 285.637C384.293 285.697 387.254 286.152 390.209 286.64C391.974 286.927 393.738 287.228 395.503 287.462C397.963 287.783 400.43 287.883 402.896 288.097C405.376 288.311 407.843 288.578 410.316 288.812C415.23 289.287 420.136 289.608 425.069 289.534C427.282 289.501 429.488 289.407 431.694 289.253C434.14 289.086 436.587 288.846 439.014 288.525C441.066 288.251 443.111 287.93 445.143 287.549C448.379 286.947 451.594 286.212 454.776 285.35C456.146 286.219 457.624 286.927 458.867 287.97C459.208 288.251 459.549 288.612 459.589 289.06C459.642 289.688 459.067 290.189 458.486 290.437L458.479 290.443Z" fill="url(#paint14_linear_342_21813)"/>
<path style="mix-blend-mode:overlay" opacity="0.7" d="M370.99 251.697C370.99 251.697 370.702 256.102 374.78 258.415L374.479 261.517L366.705 256.584L370.99 251.704V251.697Z" fill="url(#paint15_linear_342_21813)"/>
<path style="mix-blend-mode:overlay" opacity="0.7" d="M387.112 232.994C384.746 231.684 381.878 231.45 379.291 232.139C375.889 233.041 372.252 234.779 368.743 233.335C368.088 233.061 367.52 232.714 367.052 232.172L367.038 232.159C366.584 231.617 366.256 230.989 365.955 230.361C365.655 229.759 365.374 229.131 364.973 228.576C364.485 227.901 363.823 227.332 363.081 226.945C361.497 226.123 359.739 226.363 358.068 226.711C356.416 227.065 354.812 227.593 353.161 227.921C351.57 228.235 349.866 228.362 348.281 227.974C347.065 227.667 346.015 226.951 345.073 226.156C343.234 224.598 341.443 222.486 338.789 222.814C337.071 223.021 335.621 224.01 334.07 224.685C332.472 225.374 330.747 225.608 329.016 225.427C327.305 225.247 325.714 224.659 324.27 223.736C322.826 222.827 321.536 221.697 320.039 220.875C319.564 220.614 319.063 220.407 318.555 220.233C318.775 219.531 319.069 218.843 319.424 218.201C320.092 216.978 321.068 215.821 322.392 215.36C324.571 214.605 326.897 215.928 328.715 217.346C330.534 218.756 332.452 220.414 334.752 220.427C336.657 220.434 338.355 219.304 339.999 218.328C341.643 217.352 343.562 216.47 345.394 217.005C348.408 217.887 349.284 221.945 352.018 223.475C353.596 224.358 355.527 224.258 357.312 223.977C359.104 223.696 360.915 223.262 362.693 223.582C364.498 223.903 366.143 225.026 367.105 226.59C367.961 227.967 368.262 229.665 367.954 231.256C368.449 230.768 368.977 230.3 369.552 229.893C371.731 228.335 374.492 227.707 377.166 227.881C380.996 228.128 384.672 230.046 387.119 232.981L387.112 232.994Z" fill="url(#paint16_linear_342_21813)"/>
</g>
<defs>
<linearGradient id="paint0_linear_342_21813" x1="397.364" y1="210.761" x2="229.767" y2="243.797" gradientUnits="userSpaceOnUse">
<stop stop-opacity="0"/>
<stop offset="1" stop-color="#00001D"/>
</linearGradient>
<linearGradient id="paint1_linear_342_21813" x1="472.862" y1="125.211" x2="385.828" y2="142.37" gradientUnits="userSpaceOnUse">
<stop stop-opacity="0"/>
<stop offset="1" stop-color="#00001D"/>
</linearGradient>
<linearGradient id="paint2_linear_342_21813" x1="467.468" y1="104.837" x2="466.666" y2="104.997" gradientUnits="userSpaceOnUse">
<stop stop-opacity="0"/>
<stop offset="1" stop-color="#00001D"/>
</linearGradient>
<linearGradient id="paint3_linear_342_21813" x1="382.406" y1="263.636" x2="334.411" y2="273.102" gradientUnits="userSpaceOnUse">
<stop stop-opacity="0"/>
<stop offset="1" stop-color="#00001D"/>
</linearGradient>
<linearGradient id="paint4_linear_342_21813" x1="358.825" y1="140.451" x2="367.469" y2="140.451" gradientUnits="userSpaceOnUse">
<stop stop-opacity="0"/>
<stop offset="1" stop-color="#00001D"/>
</linearGradient>
<linearGradient id="paint5_linear_342_21813" x1="350.418" y1="122.196" x2="391.749" y2="122.196" gradientUnits="userSpaceOnUse">
<stop stop-opacity="0"/>
<stop offset="1" stop-color="#00001D"/>
</linearGradient>
<linearGradient id="paint6_linear_342_21813" x1="192.28" y1="330.134" x2="216.539" y2="330.134" gradientUnits="userSpaceOnUse">
<stop stop-opacity="0"/>
<stop offset="1" stop-color="#00001D"/>
</linearGradient>
<linearGradient id="paint7_linear_342_21813" x1="187.908" y1="243.007" x2="271.285" y2="243.007" gradientUnits="userSpaceOnUse">
<stop stop-opacity="0"/>
<stop offset="1" stop-color="#00001D"/>
</linearGradient>
<linearGradient id="paint8_linear_342_21813" x1="223.175" y1="308.255" x2="286.245" y2="308.255" gradientUnits="userSpaceOnUse">
<stop stop-opacity="0"/>
<stop offset="1" stop-color="#00001D"/>
</linearGradient>
<linearGradient id="paint9_linear_342_21813" x1="298.834" y1="199.897" x2="367.732" y2="199.897" gradientUnits="userSpaceOnUse">
<stop stop-opacity="0"/>
<stop offset="1" stop-color="#00001D"/>
</linearGradient>
<linearGradient id="paint10_linear_342_21813" x1="275.49" y1="195.205" x2="280.884" y2="184.362" gradientUnits="userSpaceOnUse">
<stop stop-opacity="0"/>
<stop offset="1" stop-color="#00001D"/>
</linearGradient>
<linearGradient id="paint11_linear_342_21813" x1="247.233" y1="163.761" x2="289.406" y2="163.761" gradientUnits="userSpaceOnUse">
<stop stop-opacity="0"/>
<stop offset="1" stop-color="#00001D"/>
</linearGradient>
<linearGradient id="paint12_linear_342_21813" x1="252.617" y1="310.048" x2="366.704" y2="310.048" gradientUnits="userSpaceOnUse">
<stop stop-opacity="0"/>
<stop offset="1" stop-color="#00001D"/>
</linearGradient>
<linearGradient id="paint13_linear_342_21813" x1="364.381" y1="368.88" x2="437.605" y2="373.409" gradientUnits="userSpaceOnUse">
<stop stop-opacity="0"/>
<stop offset="1" stop-color="#00001D"/>
</linearGradient>
<linearGradient id="paint14_linear_342_21813" x1="364.663" y1="293.734" x2="458.93" y2="299.565" gradientUnits="userSpaceOnUse">
<stop stop-color="#00001D"/>
<stop offset="1" stop-opacity="0"/>
</linearGradient>
<linearGradient id="paint15_linear_342_21813" x1="366.714" y1="256.239" x2="374.874" y2="256.744" gradientUnits="userSpaceOnUse">
<stop stop-opacity="0"/>
<stop offset="1" stop-color="#00001D"/>
</linearGradient>
<linearGradient id="paint16_linear_342_21813" x1="318.382" y1="222.717" x2="387.476" y2="226.991" gradientUnits="userSpaceOnUse">
<stop stop-opacity="0"/>
<stop offset="1" stop-color="#00001D"/>
</linearGradient>
<clipPath id="clip0_342_21813">
<rect width="620" height="400" fill="white"/>
</clipPath>
</defs>
</svg>
