<svg width="28" height="28" viewBox="0 0 28 28" fill="none" xmlns="http://www.w3.org/2000/svg">
<path fill-rule="evenodd" clip-rule="evenodd" d="M27.3331 21.8036C27.3468 23.0081 26.9057 23.9562 26.2685 24.8079C25.0295 26.4652 23.3473 27.3285 21.2378 27.3304C16.5305 27.3343 11.8252 27.3343 7.11792 27.3304C3.44582 27.3266 0.753992 24.8176 0.71086 21.212C0.652044 16.3905 0.652044 11.569 0.71086 6.74755C0.753992 3.16707 3.387 0.696585 7.03362 0.671533C8.03431 0.66494 9.03499 0.666467 10.0978 0.668089H10.0979C10.5884 0.668838 11.0922 0.669607 11.6154 0.669607C11.2324 0.915534 10.8627 1.14249 10.5058 1.36158L10.5058 1.36163L10.5056 1.36169L10.5056 1.36171C9.77755 1.80868 9.10279 2.22294 8.47658 2.6988C2.37928 7.34108 2.10873 14.8007 6.37683 19.5895C7.1885 20.501 6.98461 21.557 5.82396 22.7094C5.65948 22.873 5.47317 23.0147 5.28671 23.1566L5.2867 23.1566C5.1109 23.2903 4.93496 23.4241 4.77703 23.5765C4.60646 23.7403 4.3712 24.1007 4.43001 24.1816C4.58098 24.384 4.90447 24.6268 5.11817 24.594C5.40636 24.5503 5.70024 24.515 5.99513 24.4795L5.99525 24.4795L5.99538 24.4795C6.93617 24.3664 7.88718 24.252 8.69616 23.8617C9.95483 23.2547 11.0155 23.1487 12.3173 23.6305C17.399 25.5094 22.2435 24.9274 26.8194 22.0792C26.9048 22.0281 26.9925 21.9824 27.1052 21.9237C27.1711 21.8894 27.2456 21.8506 27.3331 21.8036ZM10.705 9.79383H10.7049C10.1556 9.80421 9.68079 9.81318 9.21362 9.75947C9.02558 9.73835 8.85411 9.58608 8.68218 9.43341C8.60314 9.36323 8.52401 9.29296 8.44312 9.23531C8.52666 9.16963 8.60902 9.08801 8.69138 9.0064C8.86998 8.82941 9.04857 8.65243 9.23911 8.63792C10.1586 8.57097 11.0864 8.58939 12.0118 8.60777L12.2721 8.61287C13.2543 8.63021 13.5268 9.1563 12.9563 9.98494C12.3562 10.855 11.7378 11.7127 11.0638 12.6478L11.0638 12.6478L11.0636 12.648L11.0636 12.6481C10.7732 13.0508 10.4726 13.4679 10.1586 13.9065C10.4233 13.9065 10.6695 13.9042 10.903 13.902C11.4096 13.8973 11.8565 13.8931 12.3034 13.9142C12.3635 13.9169 12.4261 13.9177 12.4896 13.9184H12.4897C12.9173 13.9235 13.386 13.9291 13.4013 14.5482C13.4176 15.2092 12.9188 15.2099 12.4582 15.2106H12.458C12.4192 15.2106 12.3806 15.2107 12.3426 15.2111C12.1729 15.2128 12.0031 15.2151 11.8333 15.2174L11.8326 15.2174L11.8319 15.2174L11.8312 15.2174H11.8312H11.8311H11.8311C11.0547 15.2279 10.2786 15.2384 9.50378 15.1957C9.15284 15.1764 8.60389 15.0338 8.51763 14.8084C8.39999 14.502 8.54115 14.0009 8.74309 13.6907C9.344 12.7789 9.97784 11.8873 10.664 10.9221L10.6641 10.9221L10.6641 10.922L10.6642 10.9219L10.6642 10.9219L10.6651 10.9206L10.6656 10.9199C10.9259 10.5537 11.1938 10.177 11.4702 9.78452C11.1973 9.78452 10.9441 9.78931 10.705 9.79383H10.705H10.705ZM18.5308 13.2361V13.236V13.236C18.5256 13.0597 18.5203 12.8834 18.5203 12.7079H18.538C18.538 12.5272 18.5382 12.3462 18.5384 12.1652V12.1647V12.1643C18.5389 11.8012 18.5393 11.4375 18.538 11.0737C18.536 11.0101 18.5321 10.9466 18.5223 10.883C18.4321 10.3145 18.1537 10.0986 17.5695 10.3472C17.3793 10.4282 17.1048 10.4841 16.9323 10.4108C15.954 9.99459 15.1659 10.1121 14.4444 10.8329C13.7111 11.5651 13.4994 12.9719 13.9836 13.9797C14.4071 14.8604 15.1345 15.2709 16.1108 15.1957C16.2916 15.1821 16.4713 15.126 16.6513 15.0699C17.057 14.9433 17.4646 14.8162 17.891 15.1726C17.9067 15.1861 18.4517 14.7795 18.4909 14.5309C18.5565 14.1071 18.5436 13.6715 18.5308 13.2361ZM16.2108 14.0221C15.5717 14.0992 15.0384 13.5269 15.009 12.7753C14.9816 12.0623 15.505 11.4168 16.1265 11.4379C16.9323 11.4688 17.1754 12.0373 17.1872 12.6905C17.1989 13.3342 17.0048 13.9277 16.2108 14.0221ZM23.3259 15.2073C21.8927 15.2112 20.9085 14.2168 20.8889 12.7465C20.8693 11.3127 21.9849 10.1392 23.3455 10.1604C24.663 10.1816 25.7726 11.4129 25.7511 12.8293C25.7295 14.2052 24.71 15.2035 23.3259 15.2073ZM24.365 12.7272C24.2885 12.0836 24.1689 11.4496 23.3475 11.4476C22.5103 11.4476 22.2692 12.0624 22.2397 12.7484C22.2084 13.4999 22.7416 14.0742 23.3788 14.0241C24.1964 13.9567 24.2885 13.3381 24.365 12.7272ZM20.4532 12.4663C20.4495 12.2166 20.4457 11.9668 20.4457 11.7174C20.4462 11.466 20.4506 11.2144 20.455 10.9628C20.4669 10.2827 20.4787 9.60273 20.4143 8.92894C20.3942 8.71891 20.1999 8.52519 20.0052 8.331C19.9158 8.24189 19.8264 8.15268 19.7536 8.06176C19.6858 8.14775 19.6005 8.23335 19.515 8.31905C19.3284 8.50609 19.1414 8.6936 19.136 8.88654C19.0811 10.7462 19.0812 12.6077 19.14 14.4654C19.1454 14.6387 19.3495 14.8066 19.553 14.974C19.6459 15.0504 19.7387 15.1267 19.8124 15.2034C19.8788 15.1199 19.9612 15.0376 20.0435 14.9554C20.2212 14.7779 20.3989 14.6005 20.4163 14.4095C20.4729 13.7651 20.4631 13.1157 20.4532 12.4663Z" fill="url(#paint0_linear_249_236)"/>
<defs>
<linearGradient id="paint0_linear_249_236" x1="14.0001" y1="0.666687" x2="14.0001" y2="27.3333" gradientUnits="userSpaceOnUse">
<stop/>
</linearGradient>
</defs>
</svg>
